<?xml version="1.0" encoding="UTF-8" standalone="no"?>
<!-- Created with Inkscape (http://www.inkscape.org/) -->

<svg
   xmlns:dc="http://purl.org/dc/elements/1.1/"
   xmlns:cc="http://creativecommons.org/ns#"
   xmlns:rdf="http://www.w3.org/1999/02/22-rdf-syntax-ns#"
   xmlns:svg="http://www.w3.org/2000/svg"
   xmlns="http://www.w3.org/2000/svg"
   version="1.1"
   width="240"
   height="300"
   id="svg2">
  <metadata
     id="metadata129">
    <rdf:RDF>
      <cc:Work
         rdf:about="">
        <dc:format>image/svg+xml</dc:format>
        <dc:type
           rdf:resource="http://purl.org/dc/dcmitype/StillImage" />
        <dc:title></dc:title>
      </cc:Work>
    </rdf:RDF>
  </metadata>
  <defs
     id="defs4" />
  <g
     transform="translate(-103.3647,-955.06832)"
     id="g3996">
    <path
       d="m 223.3647,961.56832 c -10.67737,0 -19.33309,8.65572 -19.33309,19.33309 0,3.59159 0.96899,6.96328 2.67524,9.84489 -10.67736,0 -19.33308,8.65572 -19.33308,19.3331 0,9.1766 6.4058,16.8551 14.98136,18.8337 l 0,14.4106 -25.46831,0 c -1.97856,-8.5755 -9.65709,-14.9813 -18.83371,-14.9813 -10.67736,0 -19.33308,8.6557 -19.33308,19.3331 -2.88161,-1.7063 -6.2533,-2.6753 -9.84489,-2.6753 -10.67737,0 -19.33309,8.6557 -19.33309,19.3331 0,10.6774 8.65572,19.3331 19.33309,19.3331 3.59159,0 6.96328,-0.969 9.84489,-2.6753 0,10.6774 8.65572,19.3331 19.33308,19.3331 9.17662,0 16.85515,-6.4058 18.83371,-14.9813 l 25.46831,0 0,95.8807 c -8.57556,1.9785 -14.98136,9.657 -14.98136,18.8337 0,10.6773 8.65572,19.333 19.33308,19.333 -1.70625,2.8817 -2.67524,6.2533 -2.67524,9.8449 0,10.6774 8.65572,19.3331 19.33309,19.3331 10.67736,0 19.33308,-8.6557 19.33308,-19.3331 0,-3.5916 -0.96898,-6.9632 -2.67524,-9.8449 10.67737,0 19.33308,-8.6557 19.33308,-19.333 0,-9.1767 -6.4058,-16.8552 -14.98135,-18.8337 l 0,-95.8807 25.4683,0 c 1.97857,8.5755 9.65709,14.9813 18.83371,14.9813 10.67737,0 19.33309,-8.6557 19.33309,-19.3331 2.8816,1.7063 6.25329,2.6753 9.84489,2.6753 10.67736,0 19.33308,-8.6557 19.33308,-19.3331 0,-10.6774 -8.65572,-19.3331 -19.33308,-19.3331 -3.5916,0 -6.96329,0.969 -9.84489,2.6753 0,-10.6774 -8.65572,-19.3331 -19.33309,-19.3331 -9.17662,0 -16.85514,6.4058 -18.83371,14.9813 l -25.4683,0 0,-14.4106 c 8.57555,-1.9786 14.98135,-9.6571 14.98135,-18.8337 0,-10.67738 -8.65571,-19.3331 -19.33308,-19.3331 1.70626,-2.88161 2.67524,-6.2533 2.67524,-9.84489 0,-10.67737 -8.65572,-19.33309 -19.33308,-19.33309 z"
       id="path3902"
       style="fill:#ffffff;stroke:#000000;stroke-width:3;stroke-miterlimit:4;stroke-dasharray:none" />
    <path
       d="m 219.94039,1009.6157 0,24.0058 -12.30612,0 0,6.8486 12.30612,0 0,19.5471 -41.5911,0 0,6.8487 41.5911,0 0,89.3174 -12.59148,-7.5264 0,7.9544 12.59148,7.5264 0,34.7425 6.84862,0 0,-30.6762 12.59147,7.5264 0,-7.9544 -12.59147,-7.5263 0,-93.3838 41.5911,0 0,-6.8487 -41.5911,0 0,-19.5471 12.30611,0 0,-6.8486 -12.30611,0 0,-24.0058 -6.84862,0 z m -59.92543,42.3758 c -2.03565,0 -3.91256,0.5214 -5.63585,1.5338 -1.71252,1.0017 -3.08625,2.4138 -4.06636,4.2447 -0.98013,1.8311 -1.46247,3.8418 -1.46247,6.0283 0,2.7141 0.76086,5.0593 2.2472,7.0626 1.99255,2.6926 4.78841,4.0307 8.4181,4.0307 2.01408,0 3.74299,-0.4507 5.2078,-1.3555 1.46478,-0.9047 2.75374,-2.3309 3.85235,-4.2804 l -0.49938,-0.321 c -1.30325,1.8095 -2.47918,3.0244 -3.56698,3.6383 -1.08785,0.6032 -2.35931,0.9275 -3.78101,0.9275 -1.63714,0 -3.10571,-0.4017 -4.3874,-1.1771 -1.27094,-0.7755 -2.21814,-1.899 -2.85359,-3.353 -0.63547,-1.454 -0.9631,-3.1547 -0.96309,-5.1365 -1e-5,-2.4018 0.33098,-4.4126 0.99876,-6.0282 0.67854,-1.6156 1.60825,-2.7989 2.78225,-3.5313 1.17398,-0.7432 2.50532,-1.1058 3.95936,-1.1058 1.73404,0 3.2201,0.4824 4.45873,1.4625 1.2386,0.9801 2.1858,2.5859 2.8536,4.8154 l 0.49937,0 -0.49937,-7.455 -0.57072,0 c -0.1185,0.517 -0.32637,0.922 -0.60639,1.2128 -0.21543,0.2047 -0.45828,0.321 -0.74907,0.321 -0.19389,0 -0.51074,-0.1197 -0.96309,-0.3567 -1.5402,-0.7754 -3.08949,-1.1771 -4.67275,-1.1771 z m 140.68208,0 c -2.03565,0 -3.91257,0.5214 -5.63585,1.5338 -1.71252,1.0017 -3.05058,2.4138 -4.0307,4.2447 -0.98012,1.8311 -1.46246,3.8418 -1.46246,6.0283 0,2.7141 0.72519,5.0593 2.21153,7.0626 1.99255,2.6926 4.82408,4.0307 8.45377,4.0307 2.01408,0 3.74299,-0.4507 5.2078,-1.3555 1.46478,-0.9047 2.75373,-2.3309 3.85235,-4.2804 l -0.49938,-0.321 c -1.30325,1.8095 -2.51485,3.0244 -3.60266,3.6383 -1.08784,0.6032 -2.32364,0.9275 -3.74534,0.9275 -1.63713,0 -3.10571,-0.4017 -4.38739,-1.1771 -1.27094,-0.7755 -2.21814,-1.899 -2.8536,-3.353 -0.63546,-1.454 -0.96309,-3.1547 -0.96308,-5.1365 -10e-6,-2.4018 0.33097,-4.4126 0.99875,-6.0282 0.67854,-1.6156 1.60826,-2.7989 2.78226,-3.5313 1.17398,-0.7432 2.46965,-1.1058 3.92369,-1.1058 1.73404,0 3.2201,0.4824 4.45873,1.4625 1.2386,0.9801 2.22147,2.5859 2.88926,4.8154 l 0.49938,0 -0.49938,-7.455 -0.57071,0 c -0.1185,0.517 -0.32638,0.922 -0.60639,1.2128 -0.21543,0.2047 -0.45828,0.321 -0.74907,0.321 -0.19389,0 -0.54641,-0.1197 -0.99876,-0.3567 -1.5402,-0.7754 -3.08949,-1.1771 -4.67275,-1.1771 z m -163.26113,0.4994 0,0.6064 0.78474,0 c 0.51699,0 0.98856,0.1339 1.46247,0.3924 0.33388,0.1938 0.57001,0.4084 0.67772,0.6777 0.14002,0.3554 0.21402,1.1022 0.21402,2.2115 l 0,14.161 c 0,1.314 -0.13388,2.1165 -0.39237,2.4612 -0.40928,0.5277 -1.05711,0.8204 -1.96184,0.8204 l -0.78474,0 0,0.5707 9.38119,0 0,-0.5707 -0.78474,0 c -0.517,0 -0.99934,-0.1339 -1.46247,-0.3924 -0.34466,-0.1938 -0.57003,-0.4441 -0.67773,-0.7134 -0.14002,-0.3554 -0.21402,-1.0665 -0.21402,-2.1758 l 0,-14.161 c 0,-1.314 0.1231,-2.1522 0.39237,-2.4969 0.40928,-0.5277 1.06788,-0.7847 1.96185,-0.7847 l 0.78474,0 0,-0.6064 -9.38119,0 z m 127.69824,0 0,0.6064 c 1.06628,0.032 1.99935,0.3176 2.81792,0.8561 0.81856,0.5277 1.82227,1.6404 2.99627,3.3529 l 4.31606,6.3136 -5.17214,6.5276 c -0.77548,0.9801 -1.4657,1.702 -2.06885,2.1759 -0.60316,0.4739 -1.2584,0.8614 -1.92618,1.1414 -0.39851,0.1723 -0.84182,0.3028 -1.39112,0.3567 l 0,0.5707 7.74037,0 0,-0.5707 c -0.81857,-0.032 -1.35002,-0.1662 -1.64082,-0.3924 -0.29081,-0.2262 -0.42804,-0.5114 -0.42804,-0.8561 0,-0.2261 0.0457,-0.4374 0.14268,-0.642 0.0969,-0.2154 0.3714,-0.6594 0.85608,-1.2841 l 4.60142,-5.8856 3.70967,5.6359 c 0.51697,0.7647 0.81633,1.2437 0.89174,1.4268 0.0969,0.2477 0.14267,0.5013 0.14268,0.749 -10e-6,0.2047 -0.0632,0.4018 -0.21402,0.6064 -0.14003,0.1939 -0.34455,0.3311 -0.57071,0.4281 -0.3016,0.1185 -0.76645,0.2032 -1.39113,0.214 l 0,0.5707 9.41685,0 0,-0.5707 c -0.96937,-0.054 -1.79011,-0.3499 -2.42555,-0.8561 -0.62471,-0.517 -1.58604,-1.7353 -2.88926,-3.674 l -4.70843,-7.027 4.35173,-5.5645 c 0.88317,-1.1308 1.58416,-1.8984 2.06885,-2.3185 0.48466,-0.42 1.02352,-0.751 1.60515,-0.9988 0.38772,-0.1615 0.88419,-0.253 1.49813,-0.2853 l 0,-0.6064 -7.77603,0 0,0.6064 c 0.77546,0.011 1.28606,0.046 1.5338,0.1427 0.24771,0.086 0.44481,0.2732 0.60639,0.4993 0.12923,0.1724 0.214,0.3446 0.21402,0.5708 -2e-5,0.2262 -0.0707,0.4623 -0.17835,0.6777 -0.0969,0.2154 -0.36806,0.5955 -0.82041,1.1771 l -3.88802,4.9581 -3.35297,-5.0294 c -0.51699,-0.7647 -0.78474,-1.3493 -0.78473,-1.7479 -10e-6,-0.3015 0.15135,-0.5726 0.4637,-0.8204 0.32311,-0.2477 0.92184,-0.3957 1.7835,-0.428 l 0,-0.6064 -10.13025,0 z"
       id="path3944"
       style="font-size:28.98730659px;font-style:normal;font-weight:normal;line-height:125%;letter-spacing:0px;word-spacing:0px;fill:#000000;fill-opacity:1;stroke:none;font-family:Times New Roman;-inkscape-font-specification:Times New Roman" />
  </g>
</svg>
