<?xml version="1.0" encoding="UTF-8" standalone="no"?>
<!-- Created with Inkscape (http://www.inkscape.org/) -->

<svg
   xmlns:svg="http://www.w3.org/2000/svg"
   xmlns="http://www.w3.org/2000/svg"
   version="1.0"
   width="488.54999"
   height="25.639196"
   id="svg3478">
  <defs
     id="defs3480" />
  <g
     transform="translate(362.60862,324.75014)"
     id="layer1">
    <g
       transform="matrix(1.25,0,0,-1.25,-46.559122,-304.95079)"
       id="g3074">
      <path
         d="m 0,0 c -2.255,1.254 -4.554,2.553 -7.8,2.64 -5.073,0.135 -8.066,-3.888 -11.519,-5.28 -1.809,-0.729 -4.771,-0.449 -4.92,1.68 -0.093,1.309 1.065,2.555 1.92,3.12 1.404,0.929 3.325,1.098 5.159,1.32 -4.343,1.467 -9.15,0.069 -12.96,-1.08 -1.213,-0.366 -2.388,-0.762 -3.48,-1.2 -1.11,-0.445 -2.127,-1.191 -3.24,-1.08 0.024,0.862 1.094,0.946 1.68,1.2 7.153,3.102 16.931,4.94 26.4,2.76 C -5.301,3.283 -2.092,1.859 0.12,0.36 0.057,0.264 -0.005,0.165 0,0"
         id="path3076"
         style="fill:#5a5758;fill-opacity:1;fill-rule:evenodd;stroke:none" />
    </g>
    <g
       transform="matrix(1.25,0,0,-1.25,-99.359362,-308.85089)"
       id="g3078">
      <path
         d="m 0,0 c 1.058,0.199 1.905,-0.838 2.641,-1.44 0.763,-0.625 1.619,-1.177 2.399,-1.8 1.108,-0.883 2.919,-3.138 4.921,-1.8 0.372,0.249 0.516,1.415 1.079,1.68 1.067,0.503 1.956,-0.701 1.681,-2.04 C 11.887,-6.707 10.168,-7.21 8.04,-6.6 5.992,-6.013 3.316,-3.163 1.561,-1.68 0.911,-1.132 -0.038,-0.805 0,0"
         id="path3080"
         style="fill:#5a5758;fill-opacity:1;fill-rule:evenodd;stroke:none" />
    </g>
    <g
       transform="matrix(1.25,0,0,-1.25,-150.50924,-304.95079)"
       id="g3082">
      <path
         d="m 0,0 c 0.617,-0.558 0.004,-1.911 1.439,-2.16 3.713,-0.643 6.483,4.72 9,5.52 C 10.768,3.447 10.682,3.122 10.92,3.12 10.939,2.98 10.895,2.906 10.801,2.88 8.584,1.237 5.404,-3.039 1.68,-3.6 0.174,-3.827 -1.537,-3.436 -1.92,-2.52 -2.457,-1.24 -1.256,0.261 0,0"
         id="path3084"
         style="fill:#5a5758;fill-opacity:1;fill-rule:evenodd;stroke:none" />
    </g>
    <g
       transform="matrix(1.25,0,0,-1.25,-129.80862,-308.10139)"
       id="g3086">
      <path
         d="M 0,0 C 1.006,0.056 3.863,1.772 4.199,2.399 2.297,4.632 -2.148,3.228 -3.84,1.8 -2.783,1.139 -1.41,-0.078 0,0 M 11.16,-4.561 C 10.712,-2.976 9.311,-1.94 9.6,0 9.771,1.149 10.783,1.971 10.8,3.239 10.271,4.647 8.168,5.03 8.039,3.239 7.941,1.862 9.758,0.737 9.119,-1.44 8.664,-2.994 7.463,-2.867 7.68,-4.561 c 0.763,-1.203 2.672,-1.095 3.48,0 m 9.36,4.441 c 0.081,-1.056 1.94,-1.964 1.919,-3.12 -0.562,-0.078 -0.858,-0.422 -1.559,-0.361 -0.151,0.25 0.172,0.877 0,1.441 -0.664,2.179 -5.601,2.171 -7.56,3.359 -2.275,-3.842 2.293,-6.482 6.84,-6.12 1.277,0.103 2.712,0.358 3.84,0.721 1.266,0.406 2.313,1.248 3.24,1.08 -0.654,-1.052 -2.241,-1.393 -3.48,-1.801 -2.444,-0.804 -6.221,-1.718 -9.361,-0.84 -0.799,0.224 -1.635,0.857 -2.279,0.84 -1.177,-0.028 -1.907,-1.348 -2.761,-1.559 -0.91,-0.035 -1.488,1.208 -2.519,1.32 -1.07,0.115 -2.459,-0.833 -3.6,-0.96 -3.103,-0.348 -5.658,0.43 -8.041,1.08 -1.541,0.42 -3.121,0.877 -4.199,1.68 0.762,1.101 2.309,-0.11 3.6,-0.481 3.562,-1.021 10.578,-2.11 11.279,2.521 0.168,1.108 -0.152,1.792 -0.6,2.519 C 4.027,1.097 2.637,0.543 1.32,0 0.24,-0.445 -1.418,-1.081 -1.92,-1.801 -2.309,-2.357 -2.039,-3.915 -3.361,-3.12 c -0.354,0.887 1.435,1.675 1.8,2.64 -2.191,1.356 -4.781,2.098 -7.32,2.76 -2.644,0.69 -5.377,1.395 -8.16,1.92 C -34.633,7.52 -53.869,4.754 -70.92,2.399 -82.363,0.819 -93.738,-1.054 -105.24,-3 c -15.847,-2.682 -34.376,-5.382 -50.52,-1.681 -11.275,2.585 -19.337,7.231 -26.76,13.68 -1.398,1.215 -3.001,2.576 -3.72,4.32 0.869,-0.228 1.237,-1.121 1.8,-1.679 6.274,-6.233 14.666,-10.491 24.84,-13.08 3.665,-0.933 7.651,-1.795 11.76,-1.92 3.749,-0.115 7.745,0.418 11.64,0.719 3.844,0.298 7.697,0.953 11.52,1.441 13.518,1.727 26.049,3.982 39.36,6.119 1.797,0.289 3.588,0.6 5.4,0.841 25.031,3.337 54.113,3.22 75.24,-3.841 2.186,1.856 5.332,3.703 9.119,3 0.815,-0.15 1.875,-0.93 2.641,-0.84 1.272,0.15 1.673,2.037 2.039,3 1.229,-0.771 1.647,-2.353 3.001,-3 2.069,1.049 6.13,1.106 8.4,0 0.871,-0.424 1.921,-1.014 1.919,-1.799 -0.991,-0.201 -1.783,0.836 -2.879,1.199 -1.485,0.493 -3.891,0.528 -5.04,-1.08 0.759,-0.791 3.049,-2.17 4.56,-2.16 0.978,0.007 2.779,1.247 4.08,1.68 9.874,3.292 20.998,5.468 34.08,5.4 14.052,-0.072 28.934,-0.406 42.84,-2.16 6.329,-0.798 12.827,-2.398 19.319,-3.479 6.491,-1.08 13.125,-1.978 19.561,-3.12 12.99,-2.306 27.652,-4.146 40.32,-1.081 1.647,0.399 3.444,1.053 5.04,1.561 6.011,1.911 11.502,5.52 15.96,9.24 1.53,1.276 2.769,2.758 4.32,3.84 -2.267,-3.026 -5.127,-5.442 -8.04,-7.681 -2.93,-2.251 -6.32,-4.348 -9.96,-5.759 -2.421,-0.939 -5.439,-2.363 -8.4,-3.241 -2.948,-0.873 -5.956,-1.553 -9.24,-2.04 -6.876,-1.017 -13.623,-0.522 -21.12,0 -14.19,0.99 -27.18,3.564 -40.2,5.88 C 100.883,0.481 94.198,1.163 87.6,2.28 80.922,3.409 74.039,4.192 67.08,4.8 59.941,5.422 52.639,6.13 45.6,5.64 36.505,5.006 27.467,3.075 20.52,-0.12"
         id="path3088"
         style="fill:#5a5758;fill-opacity:1;fill-rule:evenodd;stroke:none" />
    </g>
    <g
       transform="matrix(1.25,0,0,-1.25,-143.75874,-304.95079)"
       id="g3090">
      <path
         d="m 0,0 c -1.371,-0.151 -2.662,0.711 -4.08,1.2 -3.986,1.374 -9.219,2.726 -14.16,2.52 1.699,-0.546 3.394,-0.56 4.439,-1.56 2.68,-2.559 -0.222,-6.294 -4.08,-4.56 -1.416,0.636 -2.849,2.043 -4.558,3 -2.176,1.217 -4.475,2.418 -8.161,2.04 -3.029,-0.31 -4.449,-1.712 -6.72,-2.52 8.384,6.964 28.16,5.456 37.439,0.36 C 0.135,0.265 -0.027,0.227 0,0"
         id="path3092"
         style="fill:#5a5758;fill-opacity:1;fill-rule:evenodd;stroke:none" />
    </g>
  </g>
</svg>
