<?xml version="1.0" encoding="UTF-8" standalone="no"?>
<!-- Created with Inkscape (http://www.inkscape.org/) -->

<svg
   xmlns:dc="http://purl.org/dc/elements/1.1/"
   xmlns:cc="http://creativecommons.org/ns#"
   xmlns:rdf="http://www.w3.org/1999/02/22-rdf-syntax-ns#"
   xmlns:svg="http://www.w3.org/2000/svg"
   xmlns="http://www.w3.org/2000/svg"
   xmlns:xlink="http://www.w3.org/1999/xlink"
   xmlns:sodipodi="http://sodipodi.sourceforge.net/DTD/sodipodi-0.dtd"
   xmlns:inkscape="http://www.inkscape.org/namespaces/inkscape"
   width="744.09448819"
   height="1052.3622047"
   id="svg3853"
   version="1.1"
   inkscape:version="0.47 r22583"
   sodipodi:docname="uzor_begin_5.svg">
  <defs
     id="defs3855">
    <inkscape:perspective
       sodipodi:type="inkscape:persp3d"
       inkscape:vp_x="0 : 526.18109 : 1"
       inkscape:vp_y="0 : 1000 : 0"
       inkscape:vp_z="744.09448 : 526.18109 : 1"
       inkscape:persp3d-origin="372.04724 : 350.78739 : 1"
       id="perspective3861" />
    <inkscape:perspective
       id="perspective3781"
       inkscape:persp3d-origin="0.5 : 0.33333333 : 1"
       inkscape:vp_z="1 : 0.5 : 1"
       inkscape:vp_y="0 : 1000 : 0"
       inkscape:vp_x="0 : 0.5 : 1"
       sodipodi:type="inkscape:persp3d" />
  </defs>
  <sodipodi:namedview
     id="base"
     pagecolor="#ffffff"
     bordercolor="#666666"
     borderopacity="1.0"
     inkscape:pageopacity="0.0"
     inkscape:pageshadow="2"
     inkscape:zoom="6.9682774"
     inkscape:cx="194.48431"
     inkscape:cy="657.18899"
     inkscape:document-units="px"
     inkscape:current-layer="g3596"
     showgrid="false"
     inkscape:window-width="1280"
     inkscape:window-height="951"
     inkscape:window-x="0"
     inkscape:window-y="25"
     inkscape:window-maximized="1" />
  <metadata
     id="metadata3858">
    <rdf:RDF>
      <cc:Work
         rdf:about="">
        <dc:format>image/svg+xml</dc:format>
        <dc:type
           rdf:resource="http://purl.org/dc/dcmitype/StillImage" />
        <dc:title></dc:title>
      </cc:Work>
    </rdf:RDF>
  </metadata>
  <g
     inkscape:label="Layer 1"
     inkscape:groupmode="layer"
     id="layer1">
    <g
       id="g3656"
       transform="translate(-186.13342,531.21524)"
       inkscape:tile-cx="125.20984"
       inkscape:tile-cy="-226.76462"
       inkscape:tile-w="62.619751"
       inkscape:tile-h="25.355007"
       inkscape:tile-x0="93.89997"
       inkscape:tile-y0="-239.44212"
       style="fill:#ff2a2a">
      <g
         id="g3565"
         style="fill:#ff2a2a">
        <g
           id="g3505"
           style="fill:#ff2a2a">
          <path
             id="path3308"
             d="m 337.1875,-142.34375 c -13.96962,9.51347 -34.50198,21.46632 -34.5,9.4375 0,-3.524 2.6875,-3.53125 2.6875,-3.53125 0,0 1.842,-0.437 2.125,2.5 0,0 -0.70975,-1.021 -1.84375,-0.875 -1.133,0.146 -0.98475,1.4745 -0.84375,2.0625 0.141,0.587 1.25,1.03125 1.25,1.03125 0,0 2.9865,0.274 2.5625,-3.25 -0.425,-3.525 -2.53925,-3.0625 -3.53125,-3.0625 -0.991,0 -3.84235,0.26975 -3.84375,4.96875 -10e-4,4.7 2.83576,12.31295 22.6875,0.46875 5.44307,-3.49251 9.79593,-6.43109 13.25,-8.875 l 0,-0.875 z"
             style="fill:#ff2a2a" />
          <path
             id="path3310"
             d="m 307.21875,-151.5 c -4.96489,0.15692 -5.96934,3.95937 -5.96875,6.75 10e-4,4.699 2.85275,5 3.84375,5 0.992,0 3.10625,0.43125 3.53125,-3.09375 0.424,-3.524 -2.5625,-3.21875 -2.5625,-3.21875 0,0 -1.109,0.44425 -1.25,1.03125 -0.141,0.588 -0.28925,1.9165 0.84375,2.0625 1.134,0.146 1.84375,-0.875 1.84375,-0.875 -0.283,2.937 -2.125,2.5 -2.125,2.5 0,0 -2.6875,-0.007 -2.6875,-3.53125 -0.002,-12.13525 20.90197,0.1359 34.875,9.6875 l 0,-0.84375 c -3.5212,-2.50278 -7.95467,-5.51791 -13.625,-9.15625 -8.06477,-4.81171 -13.32172,-6.41987 -16.71875,-6.3125 z"
             style="fill:#ff2a2a" />
          <path
             id="path3314"
             d="m 332.54673,-149.24256 c 0,0 -1.05943,1.05591 -1.09744,1.53114 -0.038,0.47522 -0.18978,1.00298 0.30327,2.63996 l -0.34101,0.36974 c 0,0 -1.1376,-1.32016 -2.42697,-0.63361 0,0 3.10953,1.00298 3.26103,5.91393 l -0.26526,0.053 c 0,0 -0.18978,-5.2274 -3.71635,-5.75554 0,0 0.68256,-2.11221 3.10953,-0.10547 0,0 -0.34128,-1.21433 -0.30353,-2.27061 0.0377,-1.05629 1.51448,-1.9538 1.47673,-2.90423 -0.038,0.95043 1.43873,1.84794 1.47673,2.90423 0.038,1.05628 -0.30353,2.27061 -0.30353,2.27061 2.4267,-2.00636 3.10952,0.10547 3.10952,0.10547 -3.52683,0.52814 -3.71633,5.75554 -3.71633,5.75554 l -0.26526,-0.053 c 0.15149,-4.91058 3.26102,-5.91393 3.26102,-5.91393 -1.2891,-0.68655 -2.42669,0.63361 -2.42669,0.63361 l -0.34129,-0.36974 c 0.49305,-1.63698 0.34129,-2.16474 0.30354,-2.63996 -0.0383,-0.47523 -1.09771,-1.53114 -1.09771,-1.53114 z"
             style="fill:#ff2a2a" />
          <path
             style="fill:#ff2a2a"
             d="m 321.81313,-138.88109 c 0,0 1.10338,1.05943 1.59997,1.09744 0.49656,0.038 1.04805,0.18978 2.75863,-0.30327 l 0.38635,0.34101 c 0,0 -1.3795,1.1376 -0.6621,2.42697 0,0 1.04807,-3.10953 6.17977,-3.26103 l 0.0553,0.26526 c 0,0 -5.46236,0.18978 -6.01423,3.71635 0,0 -2.20716,-0.68256 -0.11022,-3.10953 0,0 -1.26891,0.34128 -2.37268,0.30353 -1.10377,-0.0377 -2.04161,-1.51448 -3.03477,-1.47673 0.99316,0.038 1.931,-1.43873 3.03477,-1.47673 1.10377,-0.038 2.37268,0.30353 2.37268,0.30353 -2.09654,-2.4267 0.11022,-3.10952 0.11022,-3.10952 0.55187,3.52683 6.01423,3.71634 6.01423,3.71634 l -0.0553,0.26526 c -5.13131,-0.1515 -6.17977,-3.26102 -6.17977,-3.26102 -0.71741,1.2891 0.6621,2.42669 0.6621,2.42669 l -0.38635,0.34129 c -1.71058,-0.49305 -2.26207,-0.34129 -2.75863,-0.30354 -0.49659,0.0383 -1.59997,1.09771 -1.59997,1.09771 z"
             id="path3320" />
          <path
             id="path3322"
             d="m 332.64618,-128.45258 c 0,0 1.05943,-1.07965 1.09744,-1.56555 0.038,-0.48589 0.18978,-1.02551 -0.30327,-2.6993 l 0.34101,-0.37804 c 0,0 1.1376,1.34983 2.42697,0.64786 0,0 -3.10953,-1.02553 -3.26103,-6.04686 l 0.26526,-0.0541 c 0,0 0.18978,5.34488 3.71635,5.88488 0,0 -0.68256,2.15968 -3.10953,0.10785 0,0 0.34128,1.24162 0.30353,2.32164 -0.0377,1.08003 -1.51448,1.9977 -1.47673,2.9695 0.038,-0.9718 -1.43873,-1.88947 -1.47673,-2.9695 -0.038,-1.08002 0.30353,-2.32164 0.30353,-2.32164 -2.4267,2.05145 -3.10952,-0.10785 -3.10952,-0.10785 3.52683,-0.54 3.71634,-5.88488 3.71634,-5.88488 l 0.26526,0.0541 c -0.1515,5.02095 -3.26102,6.04686 -3.26102,6.04686 1.2891,0.70198 2.42669,-0.64786 2.42669,-0.64786 l 0.34129,0.37804 c -0.49305,1.67379 -0.34129,2.21341 -0.30354,2.6993 0.0383,0.4859 1.09771,1.56555 1.09771,1.56555 z"
             style="fill:#ff2a2a" />
          <path
             sodipodi:nodetypes="cscccccccscscccccccsccc"
             id="path3324"
             d="m 314.80946,-138.85173 c 0,0 -1.10875,0.90896 -1.60775,0.94157 -0.49898,0.0326 -1.05316,0.16282 -2.77206,-0.2602 l -0.38824,0.29258 c 0,0 1.38622,0.97603 0.66532,2.08227 0,0 -1.09938,-2.88213 -6.25607,-3.01211 l -0.01,0.27044 c 0,0 5.48896,0.33421 6.04352,3.3599 0,0 2.2179,-0.58561 0.11075,-2.66788 0,0 1.27509,0.29281 2.38423,0.26042 1.10916,-0.0323 2.05156,-1.29938 3.04955,-1.26699 -0.99799,0.0326 -1.94039,-1.23439 -3.04955,-1.26699 -1.10914,-0.0326 -2.38423,0.26042 -2.38423,0.26042 2.10675,-2.08204 -0.11075,-2.66788 -0.11075,-2.66788 -0.55456,3.02592 -6.04352,3.51701 -6.04352,3.51701 l -0.006,0.22759 c 5.15631,-0.12999 6.27148,-3.12636 6.27148,-3.12636 0.7209,1.10601 -0.66532,2.08203 -0.66532,2.08203 l 0.38824,0.29281 c 1.71889,-0.42302 2.27307,-0.29281 2.77205,-0.26043 0.49901,0.0329 1.60776,0.94181 1.60776,0.94181 l 0,-1e-5 7.7e-4,0 z"
             style="fill:#ff2a2a" />
          <path
             sodipodi:nodetypes="cscsssssc"
             style="fill:#ff2a2a"
             d="m 310.20676,-139.66537 c 0,0 5.65407,-1.98904 10.38383,-6.38514 4.32478,-4.01969 5.91502,-4.78597 7.68431,-3.48915 0,0 -1.92543,-0.27257 -2.75414,0.83627 -0.82871,1.10883 0.20823,2.02949 0.88557,2.54301 0.67747,0.51453 1.97128,0.0257 2.73697,-0.99837 0.76568,-1.024 1.40044,-3.81428 -1.43309,-4.29637 -2.71209,-0.46143 -4.59349,1.48423 -8.19874,5.07869 -2.31874,2.3118 -4.18831,3.43399 -9.30471,6.71106 z"
             id="path3326" />
          <path
             id="path3328"
             d="m 310.30597,-138.03233 c 0,0 5.62543,1.98904 10.33123,6.38514 4.30288,4.01969 5.88507,4.78597 7.64539,3.48915 0,0 -1.91568,0.27257 -2.74019,-0.83627 -0.82451,-1.10883 0.20718,-2.02949 0.88109,-2.54301 0.67404,-0.51453 1.96129,-0.0257 2.7231,0.99837 0.76181,1.024 1.39335,3.81428 -1.42583,4.29637 -2.69835,0.46143 -4.57022,-1.48423 -8.15721,-5.07869 -2.30699,-2.3118 -4.16709,-3.43399 -9.25758,-6.71106 z"
             style="fill:#ff2a2a"
             sodipodi:nodetypes="cscsssssc" />
          <path
             transform="translate(0.43080949,0.18463264)"
             d="m 318.12203,-139.07161 c 0,0.18695 -0.15155,0.33849 -0.33849,0.33849 -0.18695,0 -0.33849,-0.15154 -0.33849,-0.33849 0,-0.18694 0.15154,-0.33849 0.33849,-0.33849 0.18694,0 0.33849,0.15155 0.33849,0.33849 z"
             sodipodi:ry="0.33849317"
             sodipodi:rx="0.33849317"
             sodipodi:cy="-139.07161"
             sodipodi:cx="317.78354"
             id="path3408"
             style="fill:#ff2a2a;stroke:#000000;stroke-width:0.71399999000000003;stroke-miterlimit:4;stroke-opacity:1;stroke-dasharray:none"
             sodipodi:type="arc" />
          <path
             sodipodi:type="arc"
             style="fill:#ff2a2a;stroke:#000000;stroke-width:0.71399999000000003;stroke-miterlimit:4;stroke-opacity:1;stroke-dasharray:none"
             id="path3410"
             sodipodi:cx="317.78354"
             sodipodi:cy="-139.07161"
             sodipodi:rx="0.33849317"
             sodipodi:ry="0.33849317"
             d="m 318.12203,-139.07161 c 0,0.18695 -0.15155,0.33849 -0.33849,0.33849 -0.18695,0 -0.33849,-0.15154 -0.33849,-0.33849 0,-0.18694 0.15154,-0.33849 0.33849,-0.33849 0.18694,0 0.33849,0.15155 0.33849,0.33849 z"
             transform="translate(-5.4158907,-6.2775096)" />
          <path
             transform="translate(-6.2159655,7.3853055)"
             d="m 318.12203,-139.07161 c 0,0.18695 -0.15155,0.33849 -0.33849,0.33849 -0.18695,0 -0.33849,-0.15154 -0.33849,-0.33849 0,-0.18694 0.15154,-0.33849 0.33849,-0.33849 0.18694,0 0.33849,0.15155 0.33849,0.33849 z"
             sodipodi:ry="0.33849317"
             sodipodi:rx="0.33849317"
             sodipodi:cy="-139.07161"
             sodipodi:cx="317.78354"
             id="path3412"
             style="fill:#ff2a2a;stroke:#000000;stroke-width:0.71399999000000003;stroke-miterlimit:4;stroke-opacity:1;stroke-dasharray:none"
             sodipodi:type="arc" />
          <path
             style="fill:#ff2a2a;fill-opacity:1;stroke:#ff2a2a;stroke-width:0.02209035;stroke-opacity:1"
             d="m 139.70593,395.74268 c -0.096,-0.2128 -0.12512,-0.35869 -0.12453,-0.62399 7e-4,-0.3136 0.0368,-0.45677 0.19751,-0.78421 0.13048,-0.26578 0.2599,-0.44841 0.49971,-0.7052 l 0.15649,-0.16757 -0.11785,-0.10483 c -0.0648,-0.0576 -0.15232,-0.1359 -0.19445,-0.17389 l -0.0766,-0.0691 -0.24412,0.0654 c -0.93096,0.24953 -1.60996,0.32677 -2.30257,0.26192 -0.32744,-0.0307 -0.44338,-0.0701 -0.72706,-0.24749 -0.27728,-0.17338 -1.07368,-0.81925 -1.06205,-0.86133 0.0145,-0.0526 0.69714,-0.61245 0.97241,-0.79754 0.36706,-0.24681 0.49648,-0.28862 0.99747,-0.32221 0.60043,-0.0403 1.25985,0.0432 2.05441,0.26003 0.13364,0.0365 0.26167,0.0665 0.28449,0.0668 0.0389,4.7e-4 0.0829,-0.0337 0.31836,-0.24738 l 0.0948,-0.086 -0.14795,-0.15888 c -0.22583,-0.24251 -0.39818,-0.48649 -0.51692,-0.73176 -0.1523,-0.31459 -0.186,-0.45531 -0.18551,-0.77463 4.1e-4,-0.27617 0.0417,-0.46815 0.14017,-0.6516 l 0.0414,-0.0772 0.054,0.12209 c 0.27991,0.63294 0.9781,1.4004 1.71768,1.8881 0.87291,0.57563 1.98285,0.96481 3.20666,1.12436 l 0.25779,0.0336 0.24645,0.16925 c 0.13556,0.0931 0.23825,0.17658 0.22821,0.18555 -0.01,0.009 -0.12958,0.0926 -0.26565,0.18592 l -0.2474,0.16962 -0.30486,0.0443 c -1.03599,0.15061 -1.96334,0.44585 -2.71271,0.86364 -0.91293,0.50899 -1.66661,1.24624 -2.07038,2.02527 -0.0607,0.11708 -0.11254,0.21532 -0.11523,0.21833 -0.003,0.003 -0.0262,-0.0417 -0.0522,-0.0994 l 0,0 z"
             id="path2903"
             transform="translate(186.13342,-531.21524)" />
          <path
             style="fill:#ff2a2a;fill-opacity:1;stroke:#ff2a2a;stroke-width:0.02209035;stroke-opacity:1"
             d="m 146.19283,402.38899 c -0.37347,-0.4342 -0.55929,-0.69108 -0.67276,-0.93004 -0.0647,-0.13614 -0.0832,-0.21058 -0.11161,-0.44744 -0.0761,-0.63528 0.001,-1.33861 0.24578,-2.23024 l 0.0772,-0.28149 -0.0765,-0.0901 c -0.0421,-0.0496 -0.12063,-0.13958 -0.17458,-0.20003 -0.0972,-0.10886 -0.0986,-0.10951 -0.14401,-0.0684 -0.0442,0.04 -0.0476,0.0401 -0.0897,0.002 -0.0427,-0.0386 -0.0476,-0.036 -0.19355,0.10151 -0.2332,0.21972 -0.43738,0.36331 -0.70151,0.49333 -0.48804,0.24024 -0.83729,0.26256 -1.25657,0.0803 l -0.10787,-0.0469 0.20385,-0.0992 c 0.99751,-0.4855 1.88295,-1.49731 2.40048,-2.74308 0.3034,-0.73033 0.53606,-1.74503 0.59578,-2.59838 l 0.0152,-0.21725 0.1161,-0.0771 0.11611,-0.0771 0.10973,0.0726 0.10973,0.0726 0.015,0.23277 c 0.0422,0.65709 0.21207,1.50716 0.42827,2.1436 0.49339,1.45241 1.41001,2.59811 2.53812,3.17243 l 0.2252,0.11464 -0.1037,0.0444 c -0.33562,0.14361 -0.66082,0.16424 -0.96523,0.0613 -0.34362,-0.11626 -0.68115,-0.3282 -1.0037,-0.63023 -0.13385,-0.12534 -0.14451,-0.131 -0.18224,-0.0969 -0.0372,0.0336 -0.043,0.0336 -0.0805,-2.9e-4 -0.0222,-0.0201 -0.0461,-0.0366 -0.0531,-0.0366 -0.007,0 -0.0883,0.0833 -0.18073,0.18502 l -0.16797,0.18502 0.11224,0.43903 c 0.21928,0.85774 0.27984,1.44713 0.21135,2.05706 -0.0315,0.28068 -0.044,0.33202 -0.11597,0.47494 -0.0914,0.18164 -0.20735,0.35969 -0.37051,0.56892 -0.14687,0.18836 -0.52377,0.61872 -0.54107,0.61784 -0.007,-3.8e-4 -0.10946,-0.11221 -0.2267,-0.24852 l 0,0 z"
             id="path2905"
             transform="translate(186.13342,-531.21524)" />
          <path
             style="fill:#ff2a2a;fill-opacity:1;stroke:#ff2a2a;stroke-width:0.02209035;stroke-opacity:1"
             d="m 146.27074,391.5912 -0.13525,-0.0919 -0.015,-0.22145 c -0.0784,-1.15664 -0.40261,-2.33804 -0.87907,-3.20287 -0.51556,-0.93579 -1.29122,-1.70946 -2.11221,-2.1068 -0.23564,-0.11405 -0.23685,-0.10927 0.0522,-0.20605 0.13065,-0.0438 0.19773,-0.0515 0.44125,-0.0509 0.34181,8.8e-4 0.47525,0.032 0.79525,0.18571 0.25861,0.1242 0.4832,0.27873 0.69378,0.47738 0.0831,0.0784 0.16143,0.14247 0.17415,0.14247 0.0127,0 0.1021,-0.0852 0.19862,-0.1893 l 0.1755,-0.18931 -0.0739,-0.26194 c -0.10317,-0.36573 -0.1979,-0.80335 -0.24151,-1.11563 -0.0293,-0.2098 -0.0343,-0.35722 -0.0238,-0.70689 0.007,-0.24299 0.0231,-0.49648 0.0352,-0.5633 0.0353,-0.19509 0.22801,-0.52563 0.49558,-0.84983 0.20403,-0.24722 0.54745,-0.61918 0.57167,-0.61918 0.0143,0 0.15636,0.14639 0.31578,0.32532 0.47966,0.53833 0.7146,0.90306 0.76515,1.18787 0.014,0.079 0.0262,0.36725 0.027,0.64062 0.001,0.39182 -0.007,0.54613 -0.0396,0.72898 -0.0567,0.32018 -0.13141,0.64623 -0.22213,0.96939 l -0.0768,0.27355 0.16915,0.18483 c 0.093,0.10165 0.1777,0.18482 0.18813,0.18482 0.0104,0 0.0903,-0.0645 0.17756,-0.14343 0.32723,-0.29596 0.63675,-0.48508 0.97593,-0.59633 0.34616,-0.11352 0.794,-0.0948 1.11168,0.0465 l 0.12538,0.0557 -0.13525,0.0592 c -0.68809,0.30129 -1.43203,0.96332 -1.9407,1.72704 -0.61616,0.92512 -1.00928,2.15262 -1.1203,3.49809 l -0.0271,0.32813 -0.12752,0.0866 c -0.0701,0.0476 -0.14014,0.0907 -0.15556,0.0957 -0.0154,0.005 -0.0889,-0.0323 -0.16331,-0.0828 l 0,0 z"
             id="path2907"
             transform="translate(186.13342,-531.21524)" />
        </g>
        <path
           id="path3523"
           d="m 337.1875,-142.34375 c -13.96962,9.51347 -34.50198,21.46632 -34.5,9.4375 0,-3.524 2.6875,-3.53125 2.6875,-3.53125 0,0 1.842,-0.437 2.125,2.5 0,0 -0.70975,-1.021 -1.84375,-0.875 -1.133,0.146 -0.98475,1.4745 -0.84375,2.0625 0.141,0.587 1.25,1.03125 1.25,1.03125 0,0 2.9865,0.274 2.5625,-3.25 -0.425,-3.525 -2.53925,-3.0625 -3.53125,-3.0625 -0.991,0 -3.84235,0.26975 -3.84375,4.96875 -10e-4,4.7 2.83576,12.31295 22.6875,0.46875 5.44307,-3.49251 9.79593,-6.43109 13.25,-8.875 l 0,-0.875 z"
           style="fill:#ff2a2a" />
        <path
           id="path3525"
           d="m 307.21875,-151.5 c -4.96489,0.15692 -5.96934,3.95937 -5.96875,6.75 10e-4,4.699 2.85275,5 3.84375,5 0.992,0 3.10625,0.43125 3.53125,-3.09375 0.424,-3.524 -2.5625,-3.21875 -2.5625,-3.21875 0,0 -1.109,0.44425 -1.25,1.03125 -0.141,0.588 -0.28925,1.9165 0.84375,2.0625 1.134,0.146 1.84375,-0.875 1.84375,-0.875 -0.283,2.937 -2.125,2.5 -2.125,2.5 0,0 -2.6875,-0.007 -2.6875,-3.53125 -0.002,-12.13525 20.90197,0.1359 34.875,9.6875 l 0,-0.84375 c -3.5212,-2.50278 -7.95467,-5.51791 -13.625,-9.15625 -8.06477,-4.81171 -13.32172,-6.41987 -16.71875,-6.3125 z"
           style="fill:#ff2a2a" />
        <path
           id="path3527"
           d="m 332.54673,-149.24256 c 0,0 -1.05943,1.05591 -1.09744,1.53114 -0.038,0.47522 -0.18978,1.00298 0.30327,2.63996 l -0.34101,0.36974 c 0,0 -1.1376,-1.32016 -2.42697,-0.63361 0,0 3.10953,1.00298 3.26103,5.91393 l -0.26526,0.053 c 0,0 -0.18978,-5.2274 -3.71635,-5.75554 0,0 0.68256,-2.11221 3.10953,-0.10547 0,0 -0.34128,-1.21433 -0.30353,-2.27061 0.0377,-1.05629 1.51448,-1.9538 1.47673,-2.90423 -0.038,0.95043 1.43873,1.84794 1.47673,2.90423 0.038,1.05628 -0.30353,2.27061 -0.30353,2.27061 2.4267,-2.00636 3.10952,0.10547 3.10952,0.10547 -3.52683,0.52814 -3.71633,5.75554 -3.71633,5.75554 l -0.26526,-0.053 c 0.15149,-4.91058 3.26102,-5.91393 3.26102,-5.91393 -1.2891,-0.68655 -2.42669,0.63361 -2.42669,0.63361 l -0.34129,-0.36974 c 0.49305,-1.63698 0.34129,-2.16474 0.30354,-2.63996 -0.0383,-0.47523 -1.09771,-1.53114 -1.09771,-1.53114 z"
           style="fill:#ff2a2a" />
        <path
           style="fill:#ff2a2a"
           d="m 321.81313,-138.88109 c 0,0 1.10338,1.05943 1.59997,1.09744 0.49656,0.038 1.04805,0.18978 2.75863,-0.30327 l 0.38635,0.34101 c 0,0 -1.3795,1.1376 -0.6621,2.42697 0,0 1.04807,-3.10953 6.17977,-3.26103 l 0.0553,0.26526 c 0,0 -5.46236,0.18978 -6.01423,3.71635 0,0 -2.20716,-0.68256 -0.11022,-3.10953 0,0 -1.26891,0.34128 -2.37268,0.30353 -1.10377,-0.0377 -2.04161,-1.51448 -3.03477,-1.47673 0.99316,0.038 1.931,-1.43873 3.03477,-1.47673 1.10377,-0.038 2.37268,0.30353 2.37268,0.30353 -2.09654,-2.4267 0.11022,-3.10952 0.11022,-3.10952 0.55187,3.52683 6.01423,3.71634 6.01423,3.71634 l -0.0553,0.26526 c -5.13131,-0.1515 -6.17977,-3.26102 -6.17977,-3.26102 -0.71741,1.2891 0.6621,2.42669 0.6621,2.42669 l -0.38635,0.34129 c -1.71058,-0.49305 -2.26207,-0.34129 -2.75863,-0.30354 -0.49659,0.0383 -1.59997,1.09771 -1.59997,1.09771 z"
           id="path3529" />
        <path
           id="path3531"
           d="m 332.64618,-128.45258 c 0,0 1.05943,-1.07965 1.09744,-1.56555 0.038,-0.48589 0.18978,-1.02551 -0.30327,-2.6993 l 0.34101,-0.37804 c 0,0 1.1376,1.34983 2.42697,0.64786 0,0 -3.10953,-1.02553 -3.26103,-6.04686 l 0.26526,-0.0541 c 0,0 0.18978,5.34488 3.71635,5.88488 0,0 -0.68256,2.15968 -3.10953,0.10785 0,0 0.34128,1.24162 0.30353,2.32164 -0.0377,1.08003 -1.51448,1.9977 -1.47673,2.9695 0.038,-0.9718 -1.43873,-1.88947 -1.47673,-2.9695 -0.038,-1.08002 0.30353,-2.32164 0.30353,-2.32164 -2.4267,2.05145 -3.10952,-0.10785 -3.10952,-0.10785 3.52683,-0.54 3.71634,-5.88488 3.71634,-5.88488 l 0.26526,0.0541 c -0.1515,5.02095 -3.26102,6.04686 -3.26102,6.04686 1.2891,0.70198 2.42669,-0.64786 2.42669,-0.64786 l 0.34129,0.37804 c -0.49305,1.67379 -0.34129,2.21341 -0.30354,2.6993 0.0383,0.4859 1.09771,1.56555 1.09771,1.56555 z"
           style="fill:#ff2a2a" />
        <path
           sodipodi:nodetypes="cscccccccscscccccccsccc"
           id="path3533"
           d="m 314.80946,-138.85173 c 0,0 -1.10875,0.90896 -1.60775,0.94157 -0.49898,0.0326 -1.05316,0.16282 -2.77206,-0.2602 l -0.38824,0.29258 c 0,0 1.38622,0.97603 0.66532,2.08227 0,0 -1.09938,-2.88213 -6.25607,-3.01211 l -0.01,0.27044 c 0,0 5.48896,0.33421 6.04352,3.3599 0,0 2.2179,-0.58561 0.11075,-2.66788 0,0 1.27509,0.29281 2.38423,0.26042 1.10916,-0.0323 2.05156,-1.29938 3.04955,-1.26699 -0.99799,0.0326 -1.94039,-1.23439 -3.04955,-1.26699 -1.10914,-0.0326 -2.38423,0.26042 -2.38423,0.26042 2.10675,-2.08204 -0.11075,-2.66788 -0.11075,-2.66788 -0.55456,3.02592 -6.04352,3.51701 -6.04352,3.51701 l -0.006,0.22759 c 5.15631,-0.12999 6.27148,-3.12636 6.27148,-3.12636 0.7209,1.10601 -0.66532,2.08203 -0.66532,2.08203 l 0.38824,0.29281 c 1.71889,-0.42302 2.27307,-0.29281 2.77205,-0.26043 0.49901,0.0329 1.60776,0.94181 1.60776,0.94181 l 0,-1e-5 7.7e-4,0 z"
           style="fill:#ff2a2a" />
        <path
           sodipodi:nodetypes="cscsssssc"
           style="fill:#ff2a2a"
           d="m 310.20676,-139.66537 c 0,0 5.65407,-1.98904 10.38383,-6.38514 4.32478,-4.01969 5.91502,-4.78597 7.68431,-3.48915 0,0 -1.92543,-0.27257 -2.75414,0.83627 -0.82871,1.10883 0.20823,2.02949 0.88557,2.54301 0.67747,0.51453 1.97128,0.0257 2.73697,-0.99837 0.76568,-1.024 1.40044,-3.81428 -1.43309,-4.29637 -2.71209,-0.46143 -4.59349,1.48423 -8.19874,5.07869 -2.31874,2.3118 -4.18831,3.43399 -9.30471,6.71106 z"
           id="path3535" />
        <path
           id="path3537"
           d="m 310.30597,-138.03233 c 0,0 5.62543,1.98904 10.33123,6.38514 4.30288,4.01969 5.88507,4.78597 7.64539,3.48915 0,0 -1.91568,0.27257 -2.74019,-0.83627 -0.82451,-1.10883 0.20718,-2.02949 0.88109,-2.54301 0.67404,-0.51453 1.96129,-0.0257 2.7231,0.99837 0.76181,1.024 1.39335,3.81428 -1.42583,4.29637 -2.69835,0.46143 -4.57022,-1.48423 -8.15721,-5.07869 -2.30699,-2.3118 -4.16709,-3.43399 -9.25758,-6.71106 z"
           style="fill:#ff2a2a"
           sodipodi:nodetypes="cscsssssc" />
        <path
           transform="translate(0.43080949,0.18463264)"
           d="m 318.12203,-139.07161 c 0,0.18695 -0.15155,0.33849 -0.33849,0.33849 -0.18695,0 -0.33849,-0.15154 -0.33849,-0.33849 0,-0.18694 0.15154,-0.33849 0.33849,-0.33849 0.18694,0 0.33849,0.15155 0.33849,0.33849 z"
           sodipodi:ry="0.33849317"
           sodipodi:rx="0.33849317"
           sodipodi:cy="-139.07161"
           sodipodi:cx="317.78354"
           id="path3545"
           style="fill:#ff0000;stroke:#ff0000;stroke-width:0.71399999000000003;stroke-miterlimit:4;stroke-opacity:1;stroke-dasharray:none"
           sodipodi:type="arc" />
        <path
           sodipodi:type="arc"
           style="fill:#ff2a2a;stroke:#ff0000;stroke-width:0.71399999000000003;stroke-miterlimit:4;stroke-opacity:1;stroke-dasharray:none"
           id="path3547"
           sodipodi:cx="317.78354"
           sodipodi:cy="-139.07161"
           sodipodi:rx="0.33849317"
           sodipodi:ry="0.33849317"
           d="m 318.12203,-139.07161 c 0,0.18695 -0.15155,0.33849 -0.33849,0.33849 -0.18695,0 -0.33849,-0.15154 -0.33849,-0.33849 0,-0.18694 0.15154,-0.33849 0.33849,-0.33849 0.18694,0 0.33849,0.15155 0.33849,0.33849 z"
           transform="translate(-5.4158907,-6.2775096)" />
        <path
           transform="translate(-6.2159655,7.3853055)"
           d="m 318.12203,-139.07161 c 0,0.18695 -0.15155,0.33849 -0.33849,0.33849 -0.18695,0 -0.33849,-0.15154 -0.33849,-0.33849 0,-0.18694 0.15154,-0.33849 0.33849,-0.33849 0.18694,0 0.33849,0.15155 0.33849,0.33849 z"
           sodipodi:ry="0.33849317"
           sodipodi:rx="0.33849317"
           sodipodi:cy="-139.07161"
           sodipodi:cx="317.78354"
           id="path3549"
           style="fill:#ff2a2a;stroke:#ff0000;stroke-width:0.71399999000000003;stroke-miterlimit:4;stroke-opacity:1;stroke-dasharray:none"
           sodipodi:type="arc" />
      </g>
      <g
         transform="matrix(-1,0,0,1,665.11975,-0.00841848)"
         id="g3596"
         style="fill:#ff2a2a">
        <g
           id="g3598"
           style="fill:#ff2a2a">
          <path
             style="fill:#ff2a2a"
             d="m 337.1875,-142.34375 c -13.96962,9.51347 -34.50198,21.46632 -34.5,9.4375 0,-3.524 2.6875,-3.53125 2.6875,-3.53125 0,0 1.842,-0.437 2.125,2.5 0,0 -0.70975,-1.021 -1.84375,-0.875 -1.133,0.146 -0.98475,1.4745 -0.84375,2.0625 0.141,0.587 1.25,1.03125 1.25,1.03125 0,0 2.9865,0.274 2.5625,-3.25 -0.425,-3.525 -2.53925,-3.0625 -3.53125,-3.0625 -0.991,0 -3.84235,0.26975 -3.84375,4.96875 -10e-4,4.7 2.83576,12.31295 22.6875,0.46875 5.44307,-3.49251 9.79593,-6.43109 13.25,-8.875 l 0,-0.875 z"
             id="path3600" />
          <path
             style="fill:#ff2a2a"
             d="m 307.21875,-151.5 c -4.96489,0.15692 -5.96934,3.95937 -5.96875,6.75 10e-4,4.699 2.85275,5 3.84375,5 0.992,0 3.10625,0.43125 3.53125,-3.09375 0.424,-3.524 -2.5625,-3.21875 -2.5625,-3.21875 0,0 -1.109,0.44425 -1.25,1.03125 -0.141,0.588 -0.28925,1.9165 0.84375,2.0625 1.134,0.146 1.84375,-0.875 1.84375,-0.875 -0.283,2.937 -2.125,2.5 -2.125,2.5 0,0 -2.6875,-0.007 -2.6875,-3.53125 -0.002,-12.13525 20.90197,0.1359 34.875,9.6875 l 0,-0.84375 c -3.5212,-2.50278 -7.95467,-5.51791 -13.625,-9.15625 -8.06477,-4.81171 -13.32172,-6.41987 -16.71875,-6.3125 z"
             id="path3602" />
          <path
             style="fill:#ff2a2a"
             d="m 332.54673,-149.24256 c 0,0 -1.05943,1.05591 -1.09744,1.53114 -0.038,0.47522 -0.18978,1.00298 0.30327,2.63996 l -0.34101,0.36974 c 0,0 -1.1376,-1.32016 -2.42697,-0.63361 0,0 3.10953,1.00298 3.26103,5.91393 l -0.26526,0.053 c 0,0 -0.18978,-5.2274 -3.71635,-5.75554 0,0 0.68256,-2.11221 3.10953,-0.10547 0,0 -0.34128,-1.21433 -0.30353,-2.27061 0.0377,-1.05629 1.51448,-1.9538 1.47673,-2.90423 -0.038,0.95043 1.43873,1.84794 1.47673,2.90423 0.038,1.05628 -0.30353,2.27061 -0.30353,2.27061 2.4267,-2.00636 3.10952,0.10547 3.10952,0.10547 -3.52683,0.52814 -3.71633,5.75554 -3.71633,5.75554 l -0.26526,-0.053 c 0.15149,-4.91058 3.26102,-5.91393 3.26102,-5.91393 -1.2891,-0.68655 -2.42669,0.63361 -2.42669,0.63361 l -0.34129,-0.36974 c 0.49305,-1.63698 0.34129,-2.16474 0.30354,-2.63996 -0.0383,-0.47523 -1.09771,-1.53114 -1.09771,-1.53114 z"
             id="path3604" />
          <path
             id="path3606"
             d="m 321.81313,-138.88109 c 0,0 1.10338,1.05943 1.59997,1.09744 0.49656,0.038 1.04805,0.18978 2.75863,-0.30327 l 0.38635,0.34101 c 0,0 -1.3795,1.1376 -0.6621,2.42697 0,0 1.04807,-3.10953 6.17977,-3.26103 l 0.0553,0.26526 c 0,0 -5.46236,0.18978 -6.01423,3.71635 0,0 -2.20716,-0.68256 -0.11022,-3.10953 0,0 -1.26891,0.34128 -2.37268,0.30353 -1.10377,-0.0377 -2.04161,-1.51448 -3.03477,-1.47673 0.99316,0.038 1.931,-1.43873 3.03477,-1.47673 1.10377,-0.038 2.37268,0.30353 2.37268,0.30353 -2.09654,-2.4267 0.11022,-3.10952 0.11022,-3.10952 0.55187,3.52683 6.01423,3.71634 6.01423,3.71634 l -0.0553,0.26526 c -5.13131,-0.1515 -6.17977,-3.26102 -6.17977,-3.26102 -0.71741,1.2891 0.6621,2.42669 0.6621,2.42669 l -0.38635,0.34129 c -1.71058,-0.49305 -2.26207,-0.34129 -2.75863,-0.30354 -0.49659,0.0383 -1.59997,1.09771 -1.59997,1.09771 z"
             style="fill:#ff2a2a" />
          <path
             style="fill:#ff2a2a"
             d="m 332.64618,-128.45258 c 0,0 1.05943,-1.07965 1.09744,-1.56555 0.038,-0.48589 0.18978,-1.02551 -0.30327,-2.6993 l 0.34101,-0.37804 c 0,0 1.1376,1.34983 2.42697,0.64786 0,0 -3.10953,-1.02553 -3.26103,-6.04686 l 0.26526,-0.0541 c 0,0 0.18978,5.34488 3.71635,5.88488 0,0 -0.68256,2.15968 -3.10953,0.10785 0,0 0.34128,1.24162 0.30353,2.32164 -0.0377,1.08003 -1.51448,1.9977 -1.47673,2.9695 0.038,-0.9718 -1.43873,-1.88947 -1.47673,-2.9695 -0.038,-1.08002 0.30353,-2.32164 0.30353,-2.32164 -2.4267,2.05145 -3.10952,-0.10785 -3.10952,-0.10785 3.52683,-0.54 3.71634,-5.88488 3.71634,-5.88488 l 0.26526,0.0541 c -0.1515,5.02095 -3.26102,6.04686 -3.26102,6.04686 1.2891,0.70198 2.42669,-0.64786 2.42669,-0.64786 l 0.34129,0.37804 c -0.49305,1.67379 -0.34129,2.21341 -0.30354,2.6993 0.0383,0.4859 1.09771,1.56555 1.09771,1.56555 z"
             id="path3608" />
          <path
             style="fill:#ff2a2a"
             d="m 314.80946,-138.85173 c 0,0 -1.10875,0.90896 -1.60775,0.94157 -0.49898,0.0326 -1.05316,0.16282 -2.77206,-0.2602 l -0.38824,0.29258 c 0,0 1.38622,0.97603 0.66532,2.08227 0,0 -1.09938,-2.88213 -6.25607,-3.01211 l -0.01,0.27044 c 0,0 5.48896,0.33421 6.04352,3.3599 0,0 2.2179,-0.58561 0.11075,-2.66788 0,0 1.27509,0.29281 2.38423,0.26042 1.10916,-0.0323 2.05156,-1.29938 3.04955,-1.26699 -0.99799,0.0326 -1.94039,-1.23439 -3.04955,-1.26699 -1.10914,-0.0326 -2.38423,0.26042 -2.38423,0.26042 2.10675,-2.08204 -0.11075,-2.66788 -0.11075,-2.66788 -0.55456,3.02592 -6.04352,3.51701 -6.04352,3.51701 l -0.006,0.22759 c 5.15631,-0.12999 6.27148,-3.12636 6.27148,-3.12636 0.7209,1.10601 -0.66532,2.08203 -0.66532,2.08203 l 0.38824,0.29281 c 1.71889,-0.42302 2.27307,-0.29281 2.77205,-0.26043 0.49901,0.0329 1.60776,0.94181 1.60776,0.94181 l 0,-1e-5 7.7e-4,0 z"
             id="path3610"
             sodipodi:nodetypes="cscccccccscscccccccsccc" />
          <path
             id="path3612"
             d="m 310.20676,-139.66537 c 0,0 5.65407,-1.98904 10.38383,-6.38514 4.32478,-4.01969 5.91502,-4.78597 7.68431,-3.48915 0,0 -1.92543,-0.27257 -2.75414,0.83627 -0.82871,1.10883 0.20823,2.02949 0.88557,2.54301 0.67747,0.51453 1.97128,0.0257 2.73697,-0.99837 0.76568,-1.024 1.40044,-3.81428 -1.43309,-4.29637 -2.71209,-0.46143 -4.59349,1.48423 -8.19874,5.07869 -2.31874,2.3118 -4.18831,3.43399 -9.30471,6.71106 z"
             style="fill:#ff2a2a"
             sodipodi:nodetypes="cscsssssc" />
          <path
             sodipodi:nodetypes="cscsssssc"
             style="fill:#ff2a2a"
             d="m 310.30597,-138.03233 c 0,0 5.62543,1.98904 10.33123,6.38514 4.30288,4.01969 5.88507,4.78597 7.64539,3.48915 0,0 -1.91568,0.27257 -2.74019,-0.83627 -0.82451,-1.10883 0.20718,-2.02949 0.88109,-2.54301 0.67404,-0.51453 1.96129,-0.0257 2.7231,0.99837 0.76181,1.024 1.39335,3.81428 -1.42583,4.29637 -2.69835,0.46143 -4.57022,-1.48423 -8.15721,-5.07869 -2.30699,-2.3118 -4.16709,-3.43399 -9.25758,-6.71106 z"
             id="path3614" />
          <path
             sodipodi:type="arc"
             style="fill:#ff2a2a;stroke:#000000;stroke-width:0.71399999000000003;stroke-miterlimit:4;stroke-opacity:1;stroke-dasharray:none"
             id="path3622"
             sodipodi:cx="317.78354"
             sodipodi:cy="-139.07161"
             sodipodi:rx="0.33849317"
             sodipodi:ry="0.33849317"
             d="m 318.12203,-139.07161 c 0,0.18695 -0.15155,0.33849 -0.33849,0.33849 -0.18695,0 -0.33849,-0.15154 -0.33849,-0.33849 0,-0.18694 0.15154,-0.33849 0.33849,-0.33849 0.18694,0 0.33849,0.15155 0.33849,0.33849 z"
             transform="translate(0.43080949,0.18463264)" />
          <path
             transform="translate(-5.4158907,-6.2775096)"
             d="m 318.12203,-139.07161 c 0,0.18695 -0.15155,0.33849 -0.33849,0.33849 -0.18695,0 -0.33849,-0.15154 -0.33849,-0.33849 0,-0.18694 0.15154,-0.33849 0.33849,-0.33849 0.18694,0 0.33849,0.15155 0.33849,0.33849 z"
             sodipodi:ry="0.33849317"
             sodipodi:rx="0.33849317"
             sodipodi:cy="-139.07161"
             sodipodi:cx="317.78354"
             id="path3624"
             style="fill:#ff2a2a;stroke:#000000;stroke-width:0.71399999000000003;stroke-miterlimit:4;stroke-opacity:1;stroke-dasharray:none"
             sodipodi:type="arc" />
          <path
             sodipodi:type="arc"
             style="fill:#ff2a2a;stroke:#000000;stroke-width:0.71399999000000003;stroke-miterlimit:4;stroke-opacity:1;stroke-dasharray:none"
             id="path3626"
             sodipodi:cx="317.78354"
             sodipodi:cy="-139.07161"
             sodipodi:rx="0.33849317"
             sodipodi:ry="0.33849317"
             d="m 318.12203,-139.07161 c 0,0.18695 -0.15155,0.33849 -0.33849,0.33849 -0.18695,0 -0.33849,-0.15154 -0.33849,-0.33849 0,-0.18694 0.15154,-0.33849 0.33849,-0.33849 0.18694,0 0.33849,0.15155 0.33849,0.33849 z"
             transform="translate(-6.2159655,7.3853055)" />
          <path
             style="fill:#ff2a2a;fill-opacity:1;stroke:#ff2a2a;stroke-width:0.02209035;stroke-opacity:1"
             d="m 153.03651,395.72743 c -0.1478,-0.33421 -0.45697,-0.76651 -0.81054,-1.13334 -0.95692,-0.99282 -2.30896,-1.61838 -4.04134,-1.86986 l -0.31801,-0.0462 -0.24893,-0.16988 c -0.1369,-0.0934 -0.24433,-0.17732 -0.23871,-0.1864 0.006,-0.009 0.12156,-0.0924 0.25767,-0.18505 l 0.24745,-0.16852 0.23195,-0.0308 c 1.73933,-0.23072 3.15918,-0.88378 4.12827,-1.89879 0.34001,-0.35612 0.59961,-0.71639 0.76944,-1.06783 l 0.0791,-0.16367 0.0438,0.0854 c 0.0945,0.18421 0.13191,0.3629 0.13389,0.6396 0.002,0.32249 -0.0301,0.45352 -0.19663,0.79571 -0.12072,0.24801 -0.40065,0.62951 -0.57281,0.78068 -0.0444,0.0389 -0.0774,0.0788 -0.0735,0.0886 0.0169,0.0423 0.37057,0.3342 0.40489,0.3342 0.0208,0 0.1635,-0.0337 0.31707,-0.0749 0.86692,-0.23244 1.56572,-0.30601 2.23883,-0.2357 0.34026,0.0355 0.45,0.0801 0.82378,0.33416 0.21158,0.14384 0.61304,0.4689 0.83296,0.67447 l 0.10398,0.0972 -0.10398,0.0968 c -0.44857,0.41777 -1.03068,0.83991 -1.29408,0.93847 -0.24097,0.0902 -1.02751,0.12028 -1.50528,0.0577 -0.31015,-0.0407 -0.78463,-0.13864 -1.16059,-0.23967 l -0.27734,-0.0745 -0.0765,0.069 c -0.0421,0.0379 -0.12967,0.11628 -0.19463,0.17407 l -0.11812,0.10506 0.148,0.15689 c 0.3157,0.33466 0.56525,0.7475 0.66611,1.10199 0.0647,0.22752 0.0546,0.62106 -0.0219,0.85047 -0.0324,0.0972 -0.0728,0.20141 -0.0897,0.23157 l -0.0307,0.0548 -0.0539,-0.12178 0,0 z"
             id="path2909"
             transform="matrix(-1,0,0,1,478.98633,-531.20682)" />
          <path
             style="fill:#ff2a2a;fill-opacity:1;stroke:#ff2a2a;stroke-width:0.02209035000000000;stroke-opacity:1"
             d="M 160.65625 391.65625 C 160.60538 391.6648 160.54604 391.66854 160.5 391.6875 C 160.42143 391.72137 160.34357 391.78143 160.28125 391.84375 C 160.22942 391.89557 160.18852 391.96748 160.15625 392.03125 C 160.15225 392.03991 160.1599 392.05364 160.15625 392.0625 C 160.11886 392.14567 160.09702 392.22255 160.09375 392.3125 C 160.09229 392.3527 160.08809 392.39777 160.09375 392.4375 C 160.09907 392.46792 160.11591 392.50231 160.125 392.53125 C 160.13554 392.56484 160.13999 392.59334 160.15625 392.625 C 160.16456 392.64119 160.17647 392.6711 160.1875 392.6875 C 160.19451 392.69907 160.21107 392.70764 160.21875 392.71875 C 160.24315 392.75045 160.28121 392.78316 160.3125 392.8125 C 160.36811 392.86597 160.42685 392.90541 160.5 392.9375 C 160.51282 392.94312 160.51796 392.96388 160.53125 392.96875 C 160.54102 392.97305 160.55364 392.96533 160.5625 392.96875 C 160.62154 392.99152 160.68826 393.0036 160.78125 393 C 160.79287 392.99955 160.79921 393.00067 160.8125 393 C 160.987 392.99342 161.13566 392.92494 161.25 392.8125 C 161.38088 392.68163 161.4258 392.53911 161.4375 392.34375 C 161.4464 392.19538 161.46005 392.18226 161.40625 392.0625 C 161.38038 392.00486 161.32527 391.92791 161.28125 391.875 C 161.24899 391.83971 161.22094 391.80743 161.1875 391.78125 C 161.15395 391.75318 161.1276 391.73614 161.09375 391.71875 C 161.04785 391.69425 160.99021 391.69905 160.9375 391.6875 C 160.91687 391.68298 160.89701 391.65894 160.875 391.65625 C 160.80534 391.64623 160.72597 391.64463 160.65625 391.65625 z "
             transform="matrix(-1,0,0,1,478.98633,-531.20682)"
             id="path2911" />
        </g>
        <path
           style="fill:#ff2a2a"
           d="m 337.1875,-142.34375 c -13.96962,9.51347 -34.50198,21.46632 -34.5,9.4375 0,-3.524 2.6875,-3.53125 2.6875,-3.53125 0,0 1.842,-0.437 2.125,2.5 0,0 -0.70975,-1.021 -1.84375,-0.875 -1.133,0.146 -0.98475,1.4745 -0.84375,2.0625 0.141,0.587 1.25,1.03125 1.25,1.03125 0,0 2.9865,0.274 2.5625,-3.25 -0.425,-3.525 -2.53925,-3.0625 -3.53125,-3.0625 -0.991,0 -3.84235,0.26975 -3.84375,4.96875 -10e-4,4.7 2.83576,12.31295 22.6875,0.46875 5.44307,-3.49251 9.79593,-6.43109 13.25,-8.875 l 0,-0.875 z"
           id="path3628" />
        <path
           style="fill:#ff2a2a"
           d="m 307.21875,-151.5 c -4.96489,0.15692 -5.96934,3.95937 -5.96875,6.75 10e-4,4.699 2.85275,5 3.84375,5 0.992,0 3.10625,0.43125 3.53125,-3.09375 0.424,-3.524 -2.5625,-3.21875 -2.5625,-3.21875 0,0 -1.109,0.44425 -1.25,1.03125 -0.141,0.588 -0.28925,1.9165 0.84375,2.0625 1.134,0.146 1.84375,-0.875 1.84375,-0.875 -0.283,2.937 -2.125,2.5 -2.125,2.5 0,0 -2.6875,-0.007 -2.6875,-3.53125 -0.002,-12.13525 20.90197,0.1359 34.875,9.6875 l 0,-0.84375 c -3.5212,-2.50278 -7.95467,-5.51791 -13.625,-9.15625 -8.06477,-4.81171 -13.32172,-6.41987 -16.71875,-6.3125 z"
           id="path3630" />
        <path
           style="fill:#ff2a2a"
           d="m 332.54673,-149.24256 c 0,0 -1.05943,1.05591 -1.09744,1.53114 -0.038,0.47522 -0.18978,1.00298 0.30327,2.63996 l -0.34101,0.36974 c 0,0 -1.1376,-1.32016 -2.42697,-0.63361 0,0 3.10953,1.00298 3.26103,5.91393 l -0.26526,0.053 c 0,0 -0.18978,-5.2274 -3.71635,-5.75554 0,0 0.68256,-2.11221 3.10953,-0.10547 0,0 -0.34128,-1.21433 -0.30353,-2.27061 0.0377,-1.05629 1.51448,-1.9538 1.47673,-2.90423 -0.038,0.95043 1.43873,1.84794 1.47673,2.90423 0.038,1.05628 -0.30353,2.27061 -0.30353,2.27061 2.4267,-2.00636 3.10952,0.10547 3.10952,0.10547 -3.52683,0.52814 -3.71633,5.75554 -3.71633,5.75554 l -0.26526,-0.053 c 0.15149,-4.91058 3.26102,-5.91393 3.26102,-5.91393 -1.2891,-0.68655 -2.42669,0.63361 -2.42669,0.63361 l -0.34129,-0.36974 c 0.49305,-1.63698 0.34129,-2.16474 0.30354,-2.63996 -0.0383,-0.47523 -1.09771,-1.53114 -1.09771,-1.53114 z"
           id="path3632" />
        <path
           id="path3634"
           d="m 321.81313,-138.88109 c 0,0 1.10338,1.05943 1.59997,1.09744 0.49656,0.038 1.04805,0.18978 2.75863,-0.30327 l 0.38635,0.34101 c 0,0 -1.3795,1.1376 -0.6621,2.42697 0,0 1.04807,-3.10953 6.17977,-3.26103 l 0.0553,0.26526 c 0,0 -5.46236,0.18978 -6.01423,3.71635 0,0 -2.20716,-0.68256 -0.11022,-3.10953 0,0 -1.26891,0.34128 -2.37268,0.30353 -1.10377,-0.0377 -2.04161,-1.51448 -3.03477,-1.47673 0.99316,0.038 1.931,-1.43873 3.03477,-1.47673 1.10377,-0.038 2.37268,0.30353 2.37268,0.30353 -2.09654,-2.4267 0.11022,-3.10952 0.11022,-3.10952 0.55187,3.52683 6.01423,3.71634 6.01423,3.71634 l -0.0553,0.26526 c -5.13131,-0.1515 -6.17977,-3.26102 -6.17977,-3.26102 -0.71741,1.2891 0.6621,2.42669 0.6621,2.42669 l -0.38635,0.34129 c -1.71058,-0.49305 -2.26207,-0.34129 -2.75863,-0.30354 -0.49659,0.0383 -1.59997,1.09771 -1.59997,1.09771 z"
           style="fill:#ff2a2a" />
        <path
           style="fill:#ff2a2a"
           d="m 332.64618,-128.45258 c 0,0 1.05943,-1.07965 1.09744,-1.56555 0.038,-0.48589 0.18978,-1.02551 -0.30327,-2.6993 l 0.34101,-0.37804 c 0,0 1.1376,1.34983 2.42697,0.64786 0,0 -3.10953,-1.02553 -3.26103,-6.04686 l 0.26526,-0.0541 c 0,0 0.18978,5.34488 3.71635,5.88488 0,0 -0.68256,2.15968 -3.10953,0.10785 0,0 0.34128,1.24162 0.30353,2.32164 -0.0377,1.08003 -1.51448,1.9977 -1.47673,2.9695 0.038,-0.9718 -1.43873,-1.88947 -1.47673,-2.9695 -0.038,-1.08002 0.30353,-2.32164 0.30353,-2.32164 -2.4267,2.05145 -3.10952,-0.10785 -3.10952,-0.10785 3.52683,-0.54 3.71634,-5.88488 3.71634,-5.88488 l 0.26526,0.0541 c -0.1515,5.02095 -3.26102,6.04686 -3.26102,6.04686 1.2891,0.70198 2.42669,-0.64786 2.42669,-0.64786 l 0.34129,0.37804 c -0.49305,1.67379 -0.34129,2.21341 -0.30354,2.6993 0.0383,0.4859 1.09771,1.56555 1.09771,1.56555 z"
           id="path3636" />
        <path
           style="fill:#ff2a2a"
           d="m 314.80946,-138.85173 c 0,0 -1.10875,0.90896 -1.60775,0.94157 -0.49898,0.0326 -1.05316,0.16282 -2.77206,-0.2602 l -0.38824,0.29258 c 0,0 1.38622,0.97603 0.66532,2.08227 0,0 -1.09938,-2.88213 -6.25607,-3.01211 l -0.01,0.27044 c 0,0 5.48896,0.33421 6.04352,3.3599 0,0 2.2179,-0.58561 0.11075,-2.66788 0,0 1.27509,0.29281 2.38423,0.26042 1.10916,-0.0323 2.05156,-1.29938 3.04955,-1.26699 -0.99799,0.0326 -1.94039,-1.23439 -3.04955,-1.26699 -1.10914,-0.0326 -2.38423,0.26042 -2.38423,0.26042 2.10675,-2.08204 -0.11075,-2.66788 -0.11075,-2.66788 -0.55456,3.02592 -6.04352,3.51701 -6.04352,3.51701 l -0.006,0.22759 c 5.15631,-0.12999 6.27148,-3.12636 6.27148,-3.12636 0.7209,1.10601 -0.66532,2.08203 -0.66532,2.08203 l 0.38824,0.29281 c 1.71889,-0.42302 2.27307,-0.29281 2.77205,-0.26043 0.49901,0.0329 1.60776,0.94181 1.60776,0.94181 l 0,-1e-5 7.7e-4,0 z"
           id="path3638"
           sodipodi:nodetypes="cscccccccscscccccccsccc" />
        <path
           id="path3640"
           d="m 310.20676,-139.66537 c 0,0 5.65407,-1.98904 10.38383,-6.38514 4.32478,-4.01969 5.91502,-4.78597 7.68431,-3.48915 0,0 -1.92543,-0.27257 -2.75414,0.83627 -0.82871,1.10883 0.20823,2.02949 0.88557,2.54301 0.67747,0.51453 1.97128,0.0257 2.73697,-0.99837 0.76568,-1.024 1.40044,-3.81428 -1.43309,-4.29637 -2.71209,-0.46143 -4.59349,1.48423 -8.19874,5.07869 -2.31874,2.3118 -4.18831,3.43399 -9.30471,6.71106 z"
           style="fill:#ff2a2a"
           sodipodi:nodetypes="cscsssssc" />
        <path
           sodipodi:nodetypes="cscsssssc"
           style="fill:#ff2a2a"
           d="m 310.30597,-138.03233 c 0,0 5.62543,1.98904 10.33123,6.38514 4.30288,4.01969 5.88507,4.78597 7.64539,3.48915 0,0 -1.91568,0.27257 -2.74019,-0.83627 -0.82451,-1.10883 0.20718,-2.02949 0.88109,-2.54301 0.67404,-0.51453 1.96129,-0.0257 2.7231,0.99837 0.76181,1.024 1.39335,3.81428 -1.42583,4.29637 -2.69835,0.46143 -4.57022,-1.48423 -8.15721,-5.07869 -2.30699,-2.3118 -4.16709,-3.43399 -9.25758,-6.71106 z"
           id="path3642" />
        <path
           sodipodi:type="arc"
           style="fill:#ff2a2a;stroke:#ff2a2a;stroke-width:0.71399999000000003;stroke-miterlimit:4;stroke-opacity:1;stroke-dasharray:none"
           id="path3650"
           sodipodi:cx="317.78354"
           sodipodi:cy="-139.07161"
           sodipodi:rx="0.33849317"
           sodipodi:ry="0.33849317"
           d="m 318.12203,-139.07161 c 0,0.18695 -0.15155,0.33849 -0.33849,0.33849 -0.18695,0 -0.33849,-0.15154 -0.33849,-0.33849 0,-0.18694 0.15154,-0.33849 0.33849,-0.33849 0.18694,0 0.33849,0.15155 0.33849,0.33849 z"
           transform="translate(0.43080949,0.18463264)" />
        <path
           transform="translate(-5.4158907,-6.2775096)"
           d="m 318.12203,-139.07161 c 0,0.18695 -0.15155,0.33849 -0.33849,0.33849 -0.18695,0 -0.33849,-0.15154 -0.33849,-0.33849 0,-0.18694 0.15154,-0.33849 0.33849,-0.33849 0.18694,0 0.33849,0.15155 0.33849,0.33849 z"
           sodipodi:ry="0.33849317"
           sodipodi:rx="0.33849317"
           sodipodi:cy="-139.07161"
           sodipodi:cx="317.78354"
           id="path3652"
           style="fill:#ff2a2a;stroke:#ff2a2a;stroke-width:0.71399999000000003;stroke-miterlimit:4;stroke-opacity:1;stroke-dasharray:none"
           sodipodi:type="arc" />
        <path
           sodipodi:type="arc"
           style="fill:#ff2a2a;stroke:#ff2a2a;stroke-width:0.71399999000000003;stroke-miterlimit:4;stroke-opacity:1;stroke-dasharray:none"
           id="path3654"
           sodipodi:cx="317.78354"
           sodipodi:cy="-139.07161"
           sodipodi:rx="0.33849317"
           sodipodi:ry="0.33849317"
           d="m 318.12203,-139.07161 c 0,0.18695 -0.15155,0.33849 -0.33849,0.33849 -0.18695,0 -0.33849,-0.15154 -0.33849,-0.33849 0,-0.18694 0.15154,-0.33849 0.33849,-0.33849 0.18694,0 0.33849,0.15155 0.33849,0.33849 z"
           transform="translate(-6.2159655,7.3853055)" />
        <path
           style="fill:#ff2a2a;fill-opacity:1;stroke:#ff2a2a;stroke-width:0.1435075;stroke-opacity:1"
           d="m 123.90786,394.39655 c -0.68111,-0.77328 -2.18894,-1.54062 -3.60257,-1.83337 -0.59737,-0.12371 -0.83005,-0.21347 -0.57403,-0.22144 1.3611,-0.0424 3.12956,-0.87949 4.1904,-1.98357 0.75377,-0.78449 0.76061,-0.78786 0.76061,-0.37451 0,0.25118 -0.1703,0.6237 -0.42813,0.93648 -0.36,0.43674 -0.39586,0.54617 -0.22534,0.68769 0.15516,0.12877 0.40702,0.12811 1.0725,-0.003 1.16274,-0.22876 2.17765,-0.11636 2.80455,0.31059 0.27811,0.18941 0.50609,0.3919 0.50663,0.44997 5.5e-4,0.0581 -0.24119,0.26493 -0.53717,0.45968 -0.60053,0.39512 -1.30465,0.47562 -2.76252,0.31582 -1.27874,-0.14016 -1.47885,0.0158 -0.88628,0.69067 0.40553,0.46187 0.63132,1.24868 0.34813,1.21312 -0.0592,-0.007 -0.35925,-0.29918 -0.66678,-0.64832 l 0,0 z"
           id="path2916"
           transform="matrix(-1,0,0,1,478.98633,-531.20682)" />
        <path
           style="fill:#ff2a2a;fill-opacity:1;stroke:#ff2a2a;stroke-width:0.1435075;stroke-opacity:1"
           d="m 168.16504,394.70461 c 0,-0.19458 0.2069,-0.58943 0.45979,-0.87745 0.42531,-0.4844 0.44106,-0.53736 0.21009,-0.70625 -0.17616,-0.12881 -0.40665,-0.14612 -0.78268,-0.0588 -1.03651,0.24077 -2.35137,0.15268 -2.97261,-0.19916 -0.31572,-0.1788 -0.57403,-0.4147 -0.57403,-0.52422 0,-0.10952 0.28461,-0.34964 0.63247,-0.53359 0.69733,-0.36876 1.76295,-0.43691 2.86356,-0.18313 0.82745,0.19078 1.17693,-0.0371 0.76015,-0.49576 -0.37325,-0.41073 -0.59674,-0.8694 -0.59674,-1.22472 0,-0.42971 0.17007,-0.36264 0.544,0.21451 0.64004,0.9879 3.01878,2.17201 4.49423,2.23718 0.47499,0.021 0.47636,0.0228 0.0563,0.0742 -1.66891,0.20425 -3.4875,1.03682 -4.38023,2.00532 -0.31718,0.34409 -0.60765,0.62563 -0.64548,0.62563 -0.0378,0 -0.0688,-0.1592 -0.0688,-0.35378 z"
           id="path2918"
           transform="matrix(-1,0,0,1,478.98633,-531.20682)" />
      </g>
    </g>
    <use
       height="1052.3622"
       width="744.09448"
       x="0"
       y="0"
       inkscape:tiled-clone-of="#g3656"
       xlink:href="#g3656"
       transform="translate(62.619754,5.7142857e-6)"
       id="use3740"
       style="fill:#ff2a2a" />
    <use
       height="1052.3622"
       width="744.09448"
       x="0"
       y="0"
       inkscape:tiled-clone-of="#g3656"
       xlink:href="#g3656"
       transform="translate(125.2395,5.7142857e-6)"
       id="use3742"
       style="fill:#ff2a2a" />
    <use
       height="1052.3622"
       width="744.09448"
       x="0"
       y="0"
       inkscape:tiled-clone-of="#g3656"
       xlink:href="#g3656"
       transform="translate(187.85925,5.7142857e-6)"
       id="use3744"
       style="fill:#ff2a2a" />
    <use
       height="1052.3622"
       width="744.09448"
       x="0"
       y="0"
       inkscape:tiled-clone-of="#g3656"
       xlink:href="#g3656"
       transform="translate(250.479,5.7142857e-6)"
       id="use3746"
       style="fill:#ff2a2a" />
    <use
       height="1052.3622"
       width="744.09448"
       x="0"
       y="0"
       inkscape:tiled-clone-of="#g3656"
       xlink:href="#g3656"
       transform="translate(313.09875,5.7142857e-6)"
       id="use3748"
       style="fill:#ff2a2a" />
    <use
       height="1052.3622"
       width="744.09448"
       x="0"
       y="0"
       inkscape:tiled-clone-of="#g3656"
       xlink:href="#g3656"
       transform="translate(375.71851,5.7142857e-6)"
       id="use3750"
       style="fill:#ff2a2a" />
  </g>
</svg>
