<?xml version="1.0" encoding="UTF-8" standalone="no"?>
<!-- Created with Inkscape (http://www.inkscape.org/) -->

<svg
   xmlns:dc="http://purl.org/dc/elements/1.1/"
   xmlns:cc="http://creativecommons.org/ns#"
   xmlns:rdf="http://www.w3.org/1999/02/22-rdf-syntax-ns#"
   xmlns:svg="http://www.w3.org/2000/svg"
   xmlns="http://www.w3.org/2000/svg"
   xmlns:xlink="http://www.w3.org/1999/xlink"
   xmlns:sodipodi="http://sodipodi.sourceforge.net/DTD/sodipodi-0.dtd"
   xmlns:inkscape="http://www.inkscape.org/namespaces/inkscape"
   width="744.09448819"
   height="1052.3622047"
   id="svg3853"
   version="1.1"
   inkscape:version="0.47 r22583"
   sodipodi:docname="uzor_begin_5.svg">
  <defs
     id="defs3855">
    <inkscape:perspective
       sodipodi:type="inkscape:persp3d"
       inkscape:vp_x="0 : 526.18109 : 1"
       inkscape:vp_y="0 : 1000 : 0"
       inkscape:vp_z="744.09448 : 526.18109 : 1"
       inkscape:persp3d-origin="372.04724 : 350.78739 : 1"
       id="perspective3861" />
    <inkscape:perspective
       id="perspective3781"
       inkscape:persp3d-origin="0.5 : 0.33333333 : 1"
       inkscape:vp_z="1 : 0.5 : 1"
       inkscape:vp_y="0 : 1000 : 0"
       inkscape:vp_x="0 : 0.5 : 1"
       sodipodi:type="inkscape:persp3d" />
  </defs>
  <sodipodi:namedview
     id="base"
     pagecolor="#ffffff"
     bordercolor="#666666"
     borderopacity="1.0"
     inkscape:pageopacity="0.0"
     inkscape:pageshadow="2"
     inkscape:zoom="27.844448"
     inkscape:cx="174.51166"
     inkscape:cy="660.14655"
     inkscape:document-units="px"
     inkscape:current-layer="g3598"
     showgrid="false"
     inkscape:window-width="1648"
     inkscape:window-height="1030"
     inkscape:window-x="31"
     inkscape:window-y="0"
     inkscape:window-maximized="1" />
  <metadata
     id="metadata3858">
    <rdf:RDF>
      <cc:Work
         rdf:about="">
        <dc:format>image/svg+xml</dc:format>
        <dc:type
           rdf:resource="http://purl.org/dc/dcmitype/StillImage" />
        <dc:title />
      </cc:Work>
    </rdf:RDF>
  </metadata>
  <g
     inkscape:label="Layer 1"
     inkscape:groupmode="layer"
     id="layer1">
    <g
       id="g3656"
       transform="translate(-186.13342,531.21524)"
       inkscape:tile-cx="125.20984"
       inkscape:tile-cy="-226.76462"
       inkscape:tile-w="62.619751"
       inkscape:tile-h="25.355007"
       inkscape:tile-x0="93.89997"
       inkscape:tile-y0="-239.44212">
      <g
         id="g3565">
        <path
           id="path3539"
           d="m 325.8054,-135.62643 c -0.21859,-0.56819 0.0614,-1.41496 0.64925,-1.96327 l 0.13517,-0.12608 -0.12954,-0.15039 c -0.21232,-0.2465 -0.26764,-0.25753 -0.71362,-0.14226 -0.91167,0.23564 -1.99148,0.30287 -2.45119,0.15262 -0.21363,-0.0698 -0.95441,-0.58144 -1.3023,-0.89943 l -0.13135,-0.12005 0.18393,-0.17144 c 0.34366,-0.32033 1.10921,-0.83955 1.30417,-0.88453 0.38818,-0.0896 1.48069,-0.0372 2.0607,0.0988 0.81829,0.19183 0.79321,0.19176 0.99366,0.003 l 0.1787,-0.16867 -0.25757,-0.30655 c -0.527,-0.62723 -0.72436,-1.31958 -0.52436,-1.83944 l 0.0873,-0.22681 0.12815,0.24502 c 0.17264,0.33008 0.28877,0.48815 0.66633,0.90696 0.97381,1.08017 2.57155,1.79419 4.45881,1.99261 0.23257,0.0245 0.41213,0.0832 0.562,0.18387 l 0.22025,0.14793 -0.21225,0.1526 c -0.16438,0.11818 -0.32669,0.16805 -0.71973,0.22113 -2.32873,0.3145 -4.01322,1.26279 -4.90503,2.7613 l -0.20214,0.33965 -0.0793,-0.20613 0,0 z"
           style="fill:#808080;fill-opacity:1;stroke:#000000;stroke-width:0.03912207;stroke-miterlimit:4;stroke-opacity:1;stroke-dasharray:none" />
        <g
           id="g3505">
          <path
             id="path3308"
             d="m 337.1875,-142.34375 c -13.96962,9.51347 -34.50198,21.46632 -34.5,9.4375 0,-3.524 2.6875,-3.53125 2.6875,-3.53125 0,0 1.842,-0.437 2.125,2.5 0,0 -0.70975,-1.021 -1.84375,-0.875 -1.133,0.146 -0.98475,1.4745 -0.84375,2.0625 0.141,0.587 1.25,1.03125 1.25,1.03125 0,0 2.9865,0.274 2.5625,-3.25 -0.425,-3.525 -2.53925,-3.0625 -3.53125,-3.0625 -0.991,0 -3.84235,0.26975 -3.84375,4.96875 -10e-4,4.7 2.83576,12.31295 22.6875,0.46875 5.44307,-3.49251 9.79593,-6.43109 13.25,-8.875 l 0,-0.875 z"
             style="fill:#000000" />
          <path
             id="path3310"
             d="m 307.21875,-151.5 c -4.96489,0.15692 -5.96934,3.95937 -5.96875,6.75 10e-4,4.699 2.85275,5 3.84375,5 0.992,0 3.10625,0.43125 3.53125,-3.09375 0.424,-3.524 -2.5625,-3.21875 -2.5625,-3.21875 0,0 -1.109,0.44425 -1.25,1.03125 -0.141,0.588 -0.28925,1.9165 0.84375,2.0625 1.134,0.146 1.84375,-0.875 1.84375,-0.875 -0.283,2.937 -2.125,2.5 -2.125,2.5 0,0 -2.6875,-0.007 -2.6875,-3.53125 -0.002,-12.13525 20.90197,0.1359 34.875,9.6875 l 0,-0.84375 c -3.5212,-2.50278 -7.95467,-5.51791 -13.625,-9.15625 -8.06477,-4.81171 -13.32172,-6.41987 -16.71875,-6.3125 z"
             style="fill:#000000" />
          <path
             id="path3314"
             d="m 332.54673,-149.24256 c 0,0 -1.05943,1.05591 -1.09744,1.53114 -0.038,0.47522 -0.18978,1.00298 0.30327,2.63996 l -0.34101,0.36974 c 0,0 -1.1376,-1.32016 -2.42697,-0.63361 0,0 3.10953,1.00298 3.26103,5.91393 l -0.26526,0.053 c 0,0 -0.18978,-5.2274 -3.71635,-5.75554 0,0 0.68256,-2.11221 3.10953,-0.10547 0,0 -0.34128,-1.21433 -0.30353,-2.27061 0.0377,-1.05629 1.51448,-1.9538 1.47673,-2.90423 -0.038,0.95043 1.43873,1.84794 1.47673,2.90423 0.038,1.05628 -0.30353,2.27061 -0.30353,2.27061 2.4267,-2.00636 3.10952,0.10547 3.10952,0.10547 -3.52683,0.52814 -3.71633,5.75554 -3.71633,5.75554 l -0.26526,-0.053 c 0.15149,-4.91058 3.26102,-5.91393 3.26102,-5.91393 -1.2891,-0.68655 -2.42669,0.63361 -2.42669,0.63361 l -0.34129,-0.36974 c 0.49305,-1.63698 0.34129,-2.16474 0.30354,-2.63996 -0.0383,-0.47523 -1.09771,-1.53114 -1.09771,-1.53114 z"
             style="fill:#000000" />
          <path
             style="fill:#000000"
             d="m 321.81313,-138.88109 c 0,0 1.10338,1.05943 1.59997,1.09744 0.49656,0.038 1.04805,0.18978 2.75863,-0.30327 l 0.38635,0.34101 c 0,0 -1.3795,1.1376 -0.6621,2.42697 0,0 1.04807,-3.10953 6.17977,-3.26103 l 0.0553,0.26526 c 0,0 -5.46236,0.18978 -6.01423,3.71635 0,0 -2.20716,-0.68256 -0.11022,-3.10953 0,0 -1.26891,0.34128 -2.37268,0.30353 -1.10377,-0.0377 -2.04161,-1.51448 -3.03477,-1.47673 0.99316,0.038 1.931,-1.43873 3.03477,-1.47673 1.10377,-0.038 2.37268,0.30353 2.37268,0.30353 -2.09654,-2.4267 0.11022,-3.10952 0.11022,-3.10952 0.55187,3.52683 6.01423,3.71634 6.01423,3.71634 l -0.0553,0.26526 c -5.13131,-0.1515 -6.17977,-3.26102 -6.17977,-3.26102 -0.71741,1.2891 0.6621,2.42669 0.6621,2.42669 l -0.38635,0.34129 c -1.71058,-0.49305 -2.26207,-0.34129 -2.75863,-0.30354 -0.49659,0.0383 -1.59997,1.09771 -1.59997,1.09771 z"
             id="path3320" />
          <path
             id="path3322"
             d="m 332.64618,-128.45258 c 0,0 1.05943,-1.07965 1.09744,-1.56555 0.038,-0.48589 0.18978,-1.02551 -0.30327,-2.6993 l 0.34101,-0.37804 c 0,0 1.1376,1.34983 2.42697,0.64786 0,0 -3.10953,-1.02553 -3.26103,-6.04686 l 0.26526,-0.0541 c 0,0 0.18978,5.34488 3.71635,5.88488 0,0 -0.68256,2.15968 -3.10953,0.10785 0,0 0.34128,1.24162 0.30353,2.32164 -0.0377,1.08003 -1.51448,1.9977 -1.47673,2.9695 0.038,-0.9718 -1.43873,-1.88947 -1.47673,-2.9695 -0.038,-1.08002 0.30353,-2.32164 0.30353,-2.32164 -2.4267,2.05145 -3.10952,-0.10785 -3.10952,-0.10785 3.52683,-0.54 3.71634,-5.88488 3.71634,-5.88488 l 0.26526,0.0541 c -0.1515,5.02095 -3.26102,6.04686 -3.26102,6.04686 1.2891,0.70198 2.42669,-0.64786 2.42669,-0.64786 l 0.34129,0.37804 c -0.49305,1.67379 -0.34129,2.21341 -0.30354,2.6993 0.0383,0.4859 1.09771,1.56555 1.09771,1.56555 z"
             style="fill:#000000" />
          <path
             sodipodi:nodetypes="cscccccccscscccccccsccc"
             id="path3324"
             d="m 314.80946,-138.85173 c 0,0 -1.10875,0.90896 -1.60775,0.94157 -0.49898,0.0326 -1.05316,0.16282 -2.77206,-0.2602 l -0.38824,0.29258 c 0,0 1.38622,0.97603 0.66532,2.08227 0,0 -1.09938,-2.88213 -6.25607,-3.01211 l -0.01,0.27044 c 0,0 5.48896,0.33421 6.04352,3.3599 0,0 2.2179,-0.58561 0.11075,-2.66788 0,0 1.27509,0.29281 2.38423,0.26042 1.10916,-0.0323 2.05156,-1.29938 3.04955,-1.26699 -0.99799,0.0326 -1.94039,-1.23439 -3.04955,-1.26699 -1.10914,-0.0326 -2.38423,0.26042 -2.38423,0.26042 2.10675,-2.08204 -0.11075,-2.66788 -0.11075,-2.66788 -0.55456,3.02592 -6.04352,3.51701 -6.04352,3.51701 l -0.006,0.22759 c 5.15631,-0.12999 6.27148,-3.12636 6.27148,-3.12636 0.7209,1.10601 -0.66532,2.08203 -0.66532,2.08203 l 0.38824,0.29281 c 1.71889,-0.42302 2.27307,-0.29281 2.77205,-0.26043 0.49901,0.0329 1.60776,0.94181 1.60776,0.94181 l 0,-1e-5 7.7e-4,0 z"
             style="fill:#000000" />
          <path
             sodipodi:nodetypes="cscsssssc"
             style="fill:#000000"
             d="m 310.20676,-139.66537 c 0,0 5.65407,-1.98904 10.38383,-6.38514 4.32478,-4.01969 5.91502,-4.78597 7.68431,-3.48915 0,0 -1.92543,-0.27257 -2.75414,0.83627 -0.82871,1.10883 0.20823,2.02949 0.88557,2.54301 0.67747,0.51453 1.97128,0.0257 2.73697,-0.99837 0.76568,-1.024 1.40044,-3.81428 -1.43309,-4.29637 -2.71209,-0.46143 -4.59349,1.48423 -8.19874,5.07869 -2.31874,2.3118 -4.18831,3.43399 -9.30471,6.71106 z"
             id="path3326" />
          <path
             id="path3328"
             d="m 310.30597,-138.03233 c 0,0 5.62543,1.98904 10.33123,6.38514 4.30288,4.01969 5.88507,4.78597 7.64539,3.48915 0,0 -1.91568,0.27257 -2.74019,-0.83627 -0.82451,-1.10883 0.20718,-2.02949 0.88109,-2.54301 0.67404,-0.51453 1.96129,-0.0257 2.7231,0.99837 0.76181,1.024 1.39335,3.81428 -1.42583,4.29637 -2.69835,0.46143 -4.57022,-1.48423 -8.15721,-5.07869 -2.30699,-2.3118 -4.16709,-3.43399 -9.25758,-6.71106 z"
             style="fill:#000000"
             sodipodi:nodetypes="cscsssssc" />
          <path
             id="path3334"
             d="m 332.47519,-139.5661 c -0.19935,-0.1304 -0.21036,-0.15337 -0.24635,-0.51387 -0.24536,-2.45789 -1.29113,-4.30303 -2.90873,-5.13209 l -0.28028,-0.14366 0.33031,-0.0846 c 0.57318,-0.14683 1.13633,0.0176 1.73626,0.50706 l 0.32999,0.26921 0.17174,-0.1969 0.17175,-0.19691 -0.1357,-0.51745 c -0.14623,-0.55757 -0.23493,-1.70149 -0.16418,-2.11725 0.0412,-0.2421 0.50131,-0.92093 0.88566,-1.30667 l 0.18584,-0.18651 0.20216,0.21313 c 0.29631,0.31238 0.63965,0.76981 0.75783,1.00963 0.21738,0.44113 0.1775,1.5933 -0.0848,2.44887 -0.1177,0.38397 -0.10895,0.46408 0.0726,0.66544 l 0.15883,0.17611 0.30483,-0.24699 c 0.44889,-0.36371 0.92283,-0.56297 1.34751,-0.56653 0.18843,-0.002 0.42456,0.0276 0.52474,0.0649 l 0.18214,0.0678 -0.41054,0.24208 c -1.53367,0.90434 -2.50291,2.65745 -2.7245,4.9279 -0.0844,0.86448 -0.0678,0.83939 -0.40717,0.61739 l 0,0 z"
             style="fill:#000000;fill-opacity:1;stroke:#000000;stroke-width:0.03827139;stroke-miterlimit:4;stroke-opacity:1;stroke-dasharray:none" />
          <path
             id="path3336"
             d="m 332.41522,-128.76076 c -0.28534,-0.3171 -0.67008,-0.84138 -0.75707,-1.03165 -0.19281,-0.42174 -0.13693,-1.67789 0.11145,-2.50533 0.11637,-0.38766 0.10688,-0.46217 -0.0845,-0.66384 l -0.16617,-0.17508 -0.35761,0.29829 c -0.45313,0.37798 -0.82761,0.53945 -1.2526,0.54012 -0.31204,5.2e-4 -0.68059,-0.0788 -0.67832,-0.146 6.2e-4,-0.0185 0.13388,-0.10301 0.29613,-0.1879 0.40776,-0.21333 1.1639,-0.90049 1.49866,-1.36194 0.69022,-0.95143 1.13702,-2.22426 1.2818,-3.65155 0.0455,-0.44854 0.062,-0.4953 0.21311,-0.60425 0.30844,-0.22237 0.39124,-0.14377 0.44412,0.4216 0.11491,1.22851 0.40269,2.2471 0.88665,3.13827 0.50668,0.93302 1.14625,1.61617 1.94296,2.07536 l 0.31453,0.18127 -0.17051,0.0655 c -0.0938,0.036 -0.327,0.0666 -0.51827,0.0678 -0.43625,0.003 -0.90652,-0.19495 -1.3451,-0.56593 -0.16573,-0.14021 -0.30658,-0.25491 -0.31298,-0.25491 -0.006,0 -0.0879,0.0869 -0.18114,0.19293 l -0.16948,0.19292 0.13908,0.5402 c 0.16488,0.64041 0.24386,1.90129 0.14045,2.24239 -0.0904,0.29824 -0.90666,1.41035 -1.03514,1.41035 -0.0238,0 -0.13182,-0.0984 -0.24003,-0.21865 z"
             style="fill:#000000;fill-opacity:1;stroke:#000000;stroke-width:0.03869907;stroke-miterlimit:4;stroke-opacity:1;stroke-dasharray:none" />
          <path
             transform="translate(0.43080949,0.18463264)"
             d="m 318.12203,-139.07161 c 0,0.18695 -0.15155,0.33849 -0.33849,0.33849 -0.18695,0 -0.33849,-0.15154 -0.33849,-0.33849 0,-0.18694 0.15154,-0.33849 0.33849,-0.33849 0.18694,0 0.33849,0.15155 0.33849,0.33849 z"
             sodipodi:ry="0.33849317"
             sodipodi:rx="0.33849317"
             sodipodi:cy="-139.07161"
             sodipodi:cx="317.78354"
             id="path3408"
             style="fill:none;stroke:#000000;stroke-width:0.71399999;stroke-miterlimit:4;stroke-opacity:1;stroke-dasharray:none"
             sodipodi:type="arc" />
          <path
             sodipodi:type="arc"
             style="fill:none;stroke:#000000;stroke-width:0.71399999;stroke-miterlimit:4;stroke-opacity:1;stroke-dasharray:none"
             id="path3410"
             sodipodi:cx="317.78354"
             sodipodi:cy="-139.07161"
             sodipodi:rx="0.33849317"
             sodipodi:ry="0.33849317"
             d="m 318.12203,-139.07161 c 0,0.18695 -0.15155,0.33849 -0.33849,0.33849 -0.18695,0 -0.33849,-0.15154 -0.33849,-0.33849 0,-0.18694 0.15154,-0.33849 0.33849,-0.33849 0.18694,0 0.33849,0.15155 0.33849,0.33849 z"
             transform="translate(-5.4158907,-6.2775096)" />
          <path
             transform="translate(-6.2159655,7.3853055)"
             d="m 318.12203,-139.07161 c 0,0.18695 -0.15155,0.33849 -0.33849,0.33849 -0.18695,0 -0.33849,-0.15154 -0.33849,-0.33849 0,-0.18694 0.15154,-0.33849 0.33849,-0.33849 0.18694,0 0.33849,0.15155 0.33849,0.33849 z"
             sodipodi:ry="0.33849317"
             sodipodi:rx="0.33849317"
             sodipodi:cy="-139.07161"
             sodipodi:cx="317.78354"
             id="path3412"
             style="fill:none;stroke:#000000;stroke-width:0.71399999;stroke-miterlimit:4;stroke-opacity:1;stroke-dasharray:none"
             sodipodi:type="arc" />
        </g>
        <path
           id="path3523"
           d="m 337.1875,-142.34375 c -13.96962,9.51347 -34.50198,21.46632 -34.5,9.4375 0,-3.524 2.6875,-3.53125 2.6875,-3.53125 0,0 1.842,-0.437 2.125,2.5 0,0 -0.70975,-1.021 -1.84375,-0.875 -1.133,0.146 -0.98475,1.4745 -0.84375,2.0625 0.141,0.587 1.25,1.03125 1.25,1.03125 0,0 2.9865,0.274 2.5625,-3.25 -0.425,-3.525 -2.53925,-3.0625 -3.53125,-3.0625 -0.991,0 -3.84235,0.26975 -3.84375,4.96875 -10e-4,4.7 2.83576,12.31295 22.6875,0.46875 5.44307,-3.49251 9.79593,-6.43109 13.25,-8.875 l 0,-0.875 z"
           style="fill:#000000" />
        <path
           id="path3525"
           d="m 307.21875,-151.5 c -4.96489,0.15692 -5.96934,3.95937 -5.96875,6.75 10e-4,4.699 2.85275,5 3.84375,5 0.992,0 3.10625,0.43125 3.53125,-3.09375 0.424,-3.524 -2.5625,-3.21875 -2.5625,-3.21875 0,0 -1.109,0.44425 -1.25,1.03125 -0.141,0.588 -0.28925,1.9165 0.84375,2.0625 1.134,0.146 1.84375,-0.875 1.84375,-0.875 -0.283,2.937 -2.125,2.5 -2.125,2.5 0,0 -2.6875,-0.007 -2.6875,-3.53125 -0.002,-12.13525 20.90197,0.1359 34.875,9.6875 l 0,-0.84375 c -3.5212,-2.50278 -7.95467,-5.51791 -13.625,-9.15625 -8.06477,-4.81171 -13.32172,-6.41987 -16.71875,-6.3125 z"
           style="fill:#000000" />
        <path
           id="path3527"
           d="m 332.54673,-149.24256 c 0,0 -1.05943,1.05591 -1.09744,1.53114 -0.038,0.47522 -0.18978,1.00298 0.30327,2.63996 l -0.34101,0.36974 c 0,0 -1.1376,-1.32016 -2.42697,-0.63361 0,0 3.10953,1.00298 3.26103,5.91393 l -0.26526,0.053 c 0,0 -0.18978,-5.2274 -3.71635,-5.75554 0,0 0.68256,-2.11221 3.10953,-0.10547 0,0 -0.34128,-1.21433 -0.30353,-2.27061 0.0377,-1.05629 1.51448,-1.9538 1.47673,-2.90423 -0.038,0.95043 1.43873,1.84794 1.47673,2.90423 0.038,1.05628 -0.30353,2.27061 -0.30353,2.27061 2.4267,-2.00636 3.10952,0.10547 3.10952,0.10547 -3.52683,0.52814 -3.71633,5.75554 -3.71633,5.75554 l -0.26526,-0.053 c 0.15149,-4.91058 3.26102,-5.91393 3.26102,-5.91393 -1.2891,-0.68655 -2.42669,0.63361 -2.42669,0.63361 l -0.34129,-0.36974 c 0.49305,-1.63698 0.34129,-2.16474 0.30354,-2.63996 -0.0383,-0.47523 -1.09771,-1.53114 -1.09771,-1.53114 z"
           style="fill:#000000" />
        <path
           style="fill:#000000"
           d="m 321.81313,-138.88109 c 0,0 1.10338,1.05943 1.59997,1.09744 0.49656,0.038 1.04805,0.18978 2.75863,-0.30327 l 0.38635,0.34101 c 0,0 -1.3795,1.1376 -0.6621,2.42697 0,0 1.04807,-3.10953 6.17977,-3.26103 l 0.0553,0.26526 c 0,0 -5.46236,0.18978 -6.01423,3.71635 0,0 -2.20716,-0.68256 -0.11022,-3.10953 0,0 -1.26891,0.34128 -2.37268,0.30353 -1.10377,-0.0377 -2.04161,-1.51448 -3.03477,-1.47673 0.99316,0.038 1.931,-1.43873 3.03477,-1.47673 1.10377,-0.038 2.37268,0.30353 2.37268,0.30353 -2.09654,-2.4267 0.11022,-3.10952 0.11022,-3.10952 0.55187,3.52683 6.01423,3.71634 6.01423,3.71634 l -0.0553,0.26526 c -5.13131,-0.1515 -6.17977,-3.26102 -6.17977,-3.26102 -0.71741,1.2891 0.6621,2.42669 0.6621,2.42669 l -0.38635,0.34129 c -1.71058,-0.49305 -2.26207,-0.34129 -2.75863,-0.30354 -0.49659,0.0383 -1.59997,1.09771 -1.59997,1.09771 z"
           id="path3529" />
        <path
           id="path3531"
           d="m 332.64618,-128.45258 c 0,0 1.05943,-1.07965 1.09744,-1.56555 0.038,-0.48589 0.18978,-1.02551 -0.30327,-2.6993 l 0.34101,-0.37804 c 0,0 1.1376,1.34983 2.42697,0.64786 0,0 -3.10953,-1.02553 -3.26103,-6.04686 l 0.26526,-0.0541 c 0,0 0.18978,5.34488 3.71635,5.88488 0,0 -0.68256,2.15968 -3.10953,0.10785 0,0 0.34128,1.24162 0.30353,2.32164 -0.0377,1.08003 -1.51448,1.9977 -1.47673,2.9695 0.038,-0.9718 -1.43873,-1.88947 -1.47673,-2.9695 -0.038,-1.08002 0.30353,-2.32164 0.30353,-2.32164 -2.4267,2.05145 -3.10952,-0.10785 -3.10952,-0.10785 3.52683,-0.54 3.71634,-5.88488 3.71634,-5.88488 l 0.26526,0.0541 c -0.1515,5.02095 -3.26102,6.04686 -3.26102,6.04686 1.2891,0.70198 2.42669,-0.64786 2.42669,-0.64786 l 0.34129,0.37804 c -0.49305,1.67379 -0.34129,2.21341 -0.30354,2.6993 0.0383,0.4859 1.09771,1.56555 1.09771,1.56555 z"
           style="fill:#000000" />
        <path
           sodipodi:nodetypes="cscccccccscscccccccsccc"
           id="path3533"
           d="m 314.80946,-138.85173 c 0,0 -1.10875,0.90896 -1.60775,0.94157 -0.49898,0.0326 -1.05316,0.16282 -2.77206,-0.2602 l -0.38824,0.29258 c 0,0 1.38622,0.97603 0.66532,2.08227 0,0 -1.09938,-2.88213 -6.25607,-3.01211 l -0.01,0.27044 c 0,0 5.48896,0.33421 6.04352,3.3599 0,0 2.2179,-0.58561 0.11075,-2.66788 0,0 1.27509,0.29281 2.38423,0.26042 1.10916,-0.0323 2.05156,-1.29938 3.04955,-1.26699 -0.99799,0.0326 -1.94039,-1.23439 -3.04955,-1.26699 -1.10914,-0.0326 -2.38423,0.26042 -2.38423,0.26042 2.10675,-2.08204 -0.11075,-2.66788 -0.11075,-2.66788 -0.55456,3.02592 -6.04352,3.51701 -6.04352,3.51701 l -0.006,0.22759 c 5.15631,-0.12999 6.27148,-3.12636 6.27148,-3.12636 0.7209,1.10601 -0.66532,2.08203 -0.66532,2.08203 l 0.38824,0.29281 c 1.71889,-0.42302 2.27307,-0.29281 2.77205,-0.26043 0.49901,0.0329 1.60776,0.94181 1.60776,0.94181 l 0,-1e-5 7.7e-4,0 z"
           style="fill:#000000" />
        <path
           sodipodi:nodetypes="cscsssssc"
           style="fill:#000000"
           d="m 310.20676,-139.66537 c 0,0 5.65407,-1.98904 10.38383,-6.38514 4.32478,-4.01969 5.91502,-4.78597 7.68431,-3.48915 0,0 -1.92543,-0.27257 -2.75414,0.83627 -0.82871,1.10883 0.20823,2.02949 0.88557,2.54301 0.67747,0.51453 1.97128,0.0257 2.73697,-0.99837 0.76568,-1.024 1.40044,-3.81428 -1.43309,-4.29637 -2.71209,-0.46143 -4.59349,1.48423 -8.19874,5.07869 -2.31874,2.3118 -4.18831,3.43399 -9.30471,6.71106 z"
           id="path3535" />
        <path
           id="path3537"
           d="m 310.30597,-138.03233 c 0,0 5.62543,1.98904 10.33123,6.38514 4.30288,4.01969 5.88507,4.78597 7.64539,3.48915 0,0 -1.91568,0.27257 -2.74019,-0.83627 -0.82451,-1.10883 0.20718,-2.02949 0.88109,-2.54301 0.67404,-0.51453 1.96129,-0.0257 2.7231,0.99837 0.76181,1.024 1.39335,3.81428 -1.42583,4.29637 -2.69835,0.46143 -4.57022,-1.48423 -8.15721,-5.07869 -2.30699,-2.3118 -4.16709,-3.43399 -9.25758,-6.71106 z"
           style="fill:#000000"
           sodipodi:nodetypes="cscsssssc" />
        <path
           id="path3541"
           d="m 332.5207,-139.5661 c -0.19935,-0.1304 -0.21036,-0.15337 -0.24635,-0.51387 -0.24536,-2.45789 -1.29113,-4.30303 -2.90873,-5.13209 l -0.28028,-0.14366 0.33031,-0.0846 c 0.57318,-0.14683 1.13633,0.0176 1.73626,0.50706 l 0.32999,0.26921 0.17174,-0.1969 0.17175,-0.19691 -0.1357,-0.51745 c -0.14623,-0.55757 -0.23493,-1.70149 -0.16418,-2.11725 0.0412,-0.2421 0.50131,-0.92093 0.88566,-1.30667 l 0.18584,-0.18651 0.20216,0.21313 c 0.29631,0.31238 0.63965,0.76981 0.75783,1.00963 0.21738,0.44113 0.1775,1.5933 -0.0848,2.44887 -0.1177,0.38397 -0.10895,0.46408 0.0726,0.66544 l 0.15883,0.17611 0.30483,-0.24699 c 0.44889,-0.36371 0.92283,-0.56297 1.34751,-0.56653 0.18843,-0.002 0.42456,0.0276 0.52474,0.0649 l 0.18214,0.0678 -0.41054,0.24208 c -1.53367,0.90434 -2.50291,2.65745 -2.7245,4.9279 -0.0844,0.86448 -0.0678,0.83939 -0.40717,0.61739 l 0,0 z"
           style="fill:#808080;fill-opacity:1;stroke:#000000;stroke-width:0.03827139;stroke-miterlimit:4;stroke-opacity:1;stroke-dasharray:none" />
        <path
           id="path3543"
           d="m 332.31994,-128.76076 c -0.28534,-0.3171 -0.67008,-0.84138 -0.75707,-1.03165 -0.19281,-0.42174 -0.13693,-1.67789 0.11145,-2.50533 0.11637,-0.38766 0.10688,-0.46217 -0.0845,-0.66384 l -0.16617,-0.17508 -0.35761,0.29829 c -0.45313,0.37798 -0.82761,0.53945 -1.2526,0.54012 -0.31204,5.2e-4 -0.68059,-0.0788 -0.67832,-0.146 6.2e-4,-0.0185 0.13388,-0.10301 0.29613,-0.1879 0.40776,-0.21333 1.1639,-0.90049 1.49866,-1.36194 0.69022,-0.95143 1.13702,-2.22426 1.2818,-3.65155 0.0455,-0.44854 0.062,-0.4953 0.21311,-0.60425 0.30844,-0.22237 0.39124,-0.14377 0.44412,0.4216 0.11491,1.22851 0.40269,2.2471 0.88665,3.13827 0.50668,0.93302 1.14625,1.61617 1.94296,2.07536 l 0.31453,0.18127 -0.17051,0.0655 c -0.0938,0.036 -0.327,0.0666 -0.51827,0.0678 -0.43625,0.003 -0.90652,-0.19495 -1.3451,-0.56593 -0.16573,-0.14021 -0.30658,-0.25491 -0.31298,-0.25491 -0.006,0 -0.0879,0.0869 -0.18114,0.19293 l -0.16948,0.19292 0.13908,0.5402 c 0.16488,0.64041 0.24386,1.90129 0.14045,2.24239 -0.0904,0.29824 -0.90666,1.41035 -1.03514,1.41035 -0.0238,0 -0.13182,-0.0984 -0.24003,-0.21865 z"
           style="fill:#808080;fill-opacity:1;stroke:#000000;stroke-width:0.03869907;stroke-miterlimit:4;stroke-opacity:1;stroke-dasharray:none" />
        <path
           transform="translate(0.43080949,0.18463264)"
           d="m 318.12203,-139.07161 c 0,0.18695 -0.15155,0.33849 -0.33849,0.33849 -0.18695,0 -0.33849,-0.15154 -0.33849,-0.33849 0,-0.18694 0.15154,-0.33849 0.33849,-0.33849 0.18694,0 0.33849,0.15155 0.33849,0.33849 z"
           sodipodi:ry="0.33849317"
           sodipodi:rx="0.33849317"
           sodipodi:cy="-139.07161"
           sodipodi:cx="317.78354"
           id="path3545"
           style="fill:none;stroke:#000000;stroke-width:0.71399999;stroke-miterlimit:4;stroke-opacity:1;stroke-dasharray:none"
           sodipodi:type="arc" />
        <path
           sodipodi:type="arc"
           style="fill:none;stroke:#000000;stroke-width:0.71399999;stroke-miterlimit:4;stroke-opacity:1;stroke-dasharray:none"
           id="path3547"
           sodipodi:cx="317.78354"
           sodipodi:cy="-139.07161"
           sodipodi:rx="0.33849317"
           sodipodi:ry="0.33849317"
           d="m 318.12203,-139.07161 c 0,0.18695 -0.15155,0.33849 -0.33849,0.33849 -0.18695,0 -0.33849,-0.15154 -0.33849,-0.33849 0,-0.18694 0.15154,-0.33849 0.33849,-0.33849 0.18694,0 0.33849,0.15155 0.33849,0.33849 z"
           transform="translate(-5.4158907,-6.2775096)" />
        <path
           transform="translate(-6.2159655,7.3853055)"
           d="m 318.12203,-139.07161 c 0,0.18695 -0.15155,0.33849 -0.33849,0.33849 -0.18695,0 -0.33849,-0.15154 -0.33849,-0.33849 0,-0.18694 0.15154,-0.33849 0.33849,-0.33849 0.18694,0 0.33849,0.15155 0.33849,0.33849 z"
           sodipodi:ry="0.33849317"
           sodipodi:rx="0.33849317"
           sodipodi:cy="-139.07161"
           sodipodi:cx="317.78354"
           id="path3549"
           style="fill:none;stroke:#000000;stroke-width:0.71399999;stroke-miterlimit:4;stroke-opacity:1;stroke-dasharray:none"
           sodipodi:type="arc" />
      </g>
      <g
         transform="matrix(-1,0,0,1,665.11975,-0.00841848)"
         id="g3596">
        <path
           style="fill:#808080;fill-opacity:1;stroke:#000000;stroke-width:0.03869907;stroke-miterlimit:4;stroke-opacity:1;stroke-dasharray:none"
           d="m 332.31994,-128.76076 c -0.28534,-0.3171 -0.67008,-0.84138 -0.75707,-1.03165 -0.19281,-0.42174 -0.13693,-1.67789 0.11145,-2.50533 0.11637,-0.38766 0.10688,-0.46217 -0.0845,-0.66384 l -0.16617,-0.17508 -0.35761,0.29829 c -0.45313,0.37798 -0.82761,0.53945 -1.2526,0.54012 -0.31204,5.2e-4 -0.68059,-0.0788 -0.67832,-0.146 6.2e-4,-0.0185 0.13388,-0.10301 0.29613,-0.1879 0.40776,-0.21333 1.1639,-0.90049 1.49866,-1.36194 0.69022,-0.95143 1.13702,-2.22426 1.2818,-3.65155 0.0455,-0.44854 0.062,-0.4953 0.21311,-0.60425 0.30844,-0.22237 0.39124,-0.14377 0.44412,0.4216 0.11491,1.22851 0.40269,2.2471 0.88665,3.13827 0.50668,0.93302 1.14625,1.61617 1.94296,2.07536 l 0.31453,0.18127 -0.17051,0.0655 c -0.0938,0.036 -0.327,0.0666 -0.51827,0.0678 -0.43625,0.003 -0.90652,-0.19495 -1.3451,-0.56593 -0.16573,-0.14021 -0.30658,-0.25491 -0.31298,-0.25491 -0.006,0 -0.0879,0.0869 -0.18114,0.19293 l -0.16948,0.19292 0.13908,0.5402 c 0.16488,0.64041 0.24386,1.90129 0.14045,2.24239 -0.0904,0.29824 -0.90666,1.41035 -1.03514,1.41035 -0.0238,0 -0.13182,-0.0984 -0.24003,-0.21865 z"
           id="path3648" />
        <path
           style="fill:#808080;fill-opacity:1;stroke:#000000;stroke-width:0.03912207;stroke-miterlimit:4;stroke-opacity:1;stroke-dasharray:none"
           d="m 325.8054,-135.62643 c -0.21859,-0.56819 0.0614,-1.41496 0.64925,-1.96327 l 0.13517,-0.12608 -0.12954,-0.15039 c -0.21232,-0.2465 -0.26764,-0.25753 -0.71362,-0.14226 -0.91167,0.23564 -1.99148,0.30287 -2.45119,0.15262 -0.21363,-0.0698 -0.95441,-0.58144 -1.3023,-0.89943 l -0.13135,-0.12005 0.18393,-0.17144 c 0.34366,-0.32033 1.10921,-0.83955 1.30417,-0.88453 0.38818,-0.0896 1.48069,-0.0372 2.0607,0.0988 0.81829,0.19183 0.79321,0.19176 0.99366,0.003 l 0.1787,-0.16867 -0.25757,-0.30655 c -0.527,-0.62723 -0.72436,-1.31958 -0.52436,-1.83944 l 0.0873,-0.22681 0.12815,0.24502 c 0.17264,0.33008 0.28877,0.48815 0.66633,0.90696 0.97381,1.08017 2.57155,1.79419 4.45881,1.99261 0.23257,0.0245 0.41213,0.0832 0.562,0.18387 l 0.22025,0.14793 -0.21225,0.1526 c -0.16438,0.11818 -0.32669,0.16805 -0.71973,0.22113 -2.32873,0.3145 -4.01322,1.26279 -4.90503,2.7613 l -0.20214,0.33965 -0.0793,-0.20613 0,0 z"
           id="path3644" />
        <path
           style="fill:#808080;fill-opacity:1;stroke:#000000;stroke-width:0.03827139;stroke-miterlimit:4;stroke-opacity:1;stroke-dasharray:none"
           d="m 332.5207,-139.5661 c -0.19935,-0.1304 -0.21036,-0.15337 -0.24635,-0.51387 -0.24536,-2.45789 -1.29113,-4.30303 -2.90873,-5.13209 l -0.28028,-0.14366 0.33031,-0.0846 c 0.57318,-0.14683 1.13633,0.0176 1.73626,0.50706 l 0.32999,0.26921 0.17174,-0.1969 0.17175,-0.19691 -0.1357,-0.51745 c -0.14623,-0.55757 -0.23493,-1.70149 -0.16418,-2.11725 0.0412,-0.2421 0.50131,-0.92093 0.88566,-1.30667 l 0.18584,-0.18651 0.20216,0.21313 c 0.29631,0.31238 0.63965,0.76981 0.75783,1.00963 0.21738,0.44113 0.1775,1.5933 -0.0848,2.44887 -0.1177,0.38397 -0.10895,0.46408 0.0726,0.66544 l 0.15883,0.17611 0.30483,-0.24699 c 0.44889,-0.36371 0.92283,-0.56297 1.34751,-0.56653 0.18843,-0.002 0.42456,0.0276 0.52474,0.0649 l 0.18214,0.0678 -0.41054,0.24208 c -1.53367,0.90434 -2.50291,2.65745 -2.7245,4.9279 -0.0844,0.86448 -0.0678,0.83939 -0.40717,0.61739 l 0,0 z"
           id="path3646" />
        <g
           id="g3598">
          <path
             style="fill:#000000"
             d="m 337.1875,-142.34375 c -13.96962,9.51347 -34.50198,21.46632 -34.5,9.4375 0,-3.524 2.6875,-3.53125 2.6875,-3.53125 0,0 1.842,-0.437 2.125,2.5 0,0 -0.70975,-1.021 -1.84375,-0.875 -1.133,0.146 -0.98475,1.4745 -0.84375,2.0625 0.141,0.587 1.25,1.03125 1.25,1.03125 0,0 2.9865,0.274 2.5625,-3.25 -0.425,-3.525 -2.53925,-3.0625 -3.53125,-3.0625 -0.991,0 -3.84235,0.26975 -3.84375,4.96875 -10e-4,4.7 2.83576,12.31295 22.6875,0.46875 5.44307,-3.49251 9.79593,-6.43109 13.25,-8.875 l 0,-0.875 z"
             id="path3600" />
          <path
             style="fill:#000000"
             d="m 307.21875,-151.5 c -4.96489,0.15692 -5.96934,3.95937 -5.96875,6.75 10e-4,4.699 2.85275,5 3.84375,5 0.992,0 3.10625,0.43125 3.53125,-3.09375 0.424,-3.524 -2.5625,-3.21875 -2.5625,-3.21875 0,0 -1.109,0.44425 -1.25,1.03125 -0.141,0.588 -0.28925,1.9165 0.84375,2.0625 1.134,0.146 1.84375,-0.875 1.84375,-0.875 -0.283,2.937 -2.125,2.5 -2.125,2.5 0,0 -2.6875,-0.007 -2.6875,-3.53125 -0.002,-12.13525 20.90197,0.1359 34.875,9.6875 l 0,-0.84375 c -3.5212,-2.50278 -7.95467,-5.51791 -13.625,-9.15625 -8.06477,-4.81171 -13.32172,-6.41987 -16.71875,-6.3125 z"
             id="path3602" />
          <path
             style="fill:#000000"
             d="m 332.54673,-149.24256 c 0,0 -1.05943,1.05591 -1.09744,1.53114 -0.038,0.47522 -0.18978,1.00298 0.30327,2.63996 l -0.34101,0.36974 c 0,0 -1.1376,-1.32016 -2.42697,-0.63361 0,0 3.10953,1.00298 3.26103,5.91393 l -0.26526,0.053 c 0,0 -0.18978,-5.2274 -3.71635,-5.75554 0,0 0.68256,-2.11221 3.10953,-0.10547 0,0 -0.34128,-1.21433 -0.30353,-2.27061 0.0377,-1.05629 1.51448,-1.9538 1.47673,-2.90423 -0.038,0.95043 1.43873,1.84794 1.47673,2.90423 0.038,1.05628 -0.30353,2.27061 -0.30353,2.27061 2.4267,-2.00636 3.10952,0.10547 3.10952,0.10547 -3.52683,0.52814 -3.71633,5.75554 -3.71633,5.75554 l -0.26526,-0.053 c 0.15149,-4.91058 3.26102,-5.91393 3.26102,-5.91393 -1.2891,-0.68655 -2.42669,0.63361 -2.42669,0.63361 l -0.34129,-0.36974 c 0.49305,-1.63698 0.34129,-2.16474 0.30354,-2.63996 -0.0383,-0.47523 -1.09771,-1.53114 -1.09771,-1.53114 z"
             id="path3604" />
          <path
             id="path3606"
             d="m 321.81313,-138.88109 c 0,0 1.10338,1.05943 1.59997,1.09744 0.49656,0.038 1.04805,0.18978 2.75863,-0.30327 l 0.38635,0.34101 c 0,0 -1.3795,1.1376 -0.6621,2.42697 0,0 1.04807,-3.10953 6.17977,-3.26103 l 0.0553,0.26526 c 0,0 -5.46236,0.18978 -6.01423,3.71635 0,0 -2.20716,-0.68256 -0.11022,-3.10953 0,0 -1.26891,0.34128 -2.37268,0.30353 -1.10377,-0.0377 -2.04161,-1.51448 -3.03477,-1.47673 0.99316,0.038 1.931,-1.43873 3.03477,-1.47673 1.10377,-0.038 2.37268,0.30353 2.37268,0.30353 -2.09654,-2.4267 0.11022,-3.10952 0.11022,-3.10952 0.55187,3.52683 6.01423,3.71634 6.01423,3.71634 l -0.0553,0.26526 c -5.13131,-0.1515 -6.17977,-3.26102 -6.17977,-3.26102 -0.71741,1.2891 0.6621,2.42669 0.6621,2.42669 l -0.38635,0.34129 c -1.71058,-0.49305 -2.26207,-0.34129 -2.75863,-0.30354 -0.49659,0.0383 -1.59997,1.09771 -1.59997,1.09771 z"
             style="fill:#000000" />
          <path
             style="fill:#000000"
             d="m 332.64618,-128.45258 c 0,0 1.05943,-1.07965 1.09744,-1.56555 0.038,-0.48589 0.18978,-1.02551 -0.30327,-2.6993 l 0.34101,-0.37804 c 0,0 1.1376,1.34983 2.42697,0.64786 0,0 -3.10953,-1.02553 -3.26103,-6.04686 l 0.26526,-0.0541 c 0,0 0.18978,5.34488 3.71635,5.88488 0,0 -0.68256,2.15968 -3.10953,0.10785 0,0 0.34128,1.24162 0.30353,2.32164 -0.0377,1.08003 -1.51448,1.9977 -1.47673,2.9695 0.038,-0.9718 -1.43873,-1.88947 -1.47673,-2.9695 -0.038,-1.08002 0.30353,-2.32164 0.30353,-2.32164 -2.4267,2.05145 -3.10952,-0.10785 -3.10952,-0.10785 3.52683,-0.54 3.71634,-5.88488 3.71634,-5.88488 l 0.26526,0.0541 c -0.1515,5.02095 -3.26102,6.04686 -3.26102,6.04686 1.2891,0.70198 2.42669,-0.64786 2.42669,-0.64786 l 0.34129,0.37804 c -0.49305,1.67379 -0.34129,2.21341 -0.30354,2.6993 0.0383,0.4859 1.09771,1.56555 1.09771,1.56555 z"
             id="path3608" />
          <path
             style="fill:#000000"
             d="m 314.80946,-138.85173 c 0,0 -1.10875,0.90896 -1.60775,0.94157 -0.49898,0.0326 -1.05316,0.16282 -2.77206,-0.2602 l -0.38824,0.29258 c 0,0 1.38622,0.97603 0.66532,2.08227 0,0 -1.09938,-2.88213 -6.25607,-3.01211 l -0.01,0.27044 c 0,0 5.48896,0.33421 6.04352,3.3599 0,0 2.2179,-0.58561 0.11075,-2.66788 0,0 1.27509,0.29281 2.38423,0.26042 1.10916,-0.0323 2.05156,-1.29938 3.04955,-1.26699 -0.99799,0.0326 -1.94039,-1.23439 -3.04955,-1.26699 -1.10914,-0.0326 -2.38423,0.26042 -2.38423,0.26042 2.10675,-2.08204 -0.11075,-2.66788 -0.11075,-2.66788 -0.55456,3.02592 -6.04352,3.51701 -6.04352,3.51701 l -0.006,0.22759 c 5.15631,-0.12999 6.27148,-3.12636 6.27148,-3.12636 0.7209,1.10601 -0.66532,2.08203 -0.66532,2.08203 l 0.38824,0.29281 c 1.71889,-0.42302 2.27307,-0.29281 2.77205,-0.26043 0.49901,0.0329 1.60776,0.94181 1.60776,0.94181 l 0,-1e-5 7.7e-4,0 z"
             id="path3610"
             sodipodi:nodetypes="cscccccccscscccccccsccc" />
          <path
             id="path3612"
             d="m 310.20676,-139.66537 c 0,0 5.65407,-1.98904 10.38383,-6.38514 4.32478,-4.01969 5.91502,-4.78597 7.68431,-3.48915 0,0 -1.92543,-0.27257 -2.75414,0.83627 -0.82871,1.10883 0.20823,2.02949 0.88557,2.54301 0.67747,0.51453 1.97128,0.0257 2.73697,-0.99837 0.76568,-1.024 1.40044,-3.81428 -1.43309,-4.29637 -2.71209,-0.46143 -4.59349,1.48423 -8.19874,5.07869 -2.31874,2.3118 -4.18831,3.43399 -9.30471,6.71106 z"
             style="fill:#000000"
             sodipodi:nodetypes="cscsssssc" />
          <path
             sodipodi:nodetypes="cscsssssc"
             style="fill:#000000"
             d="m 310.30597,-138.03233 c 0,0 5.62543,1.98904 10.33123,6.38514 4.30288,4.01969 5.88507,4.78597 7.64539,3.48915 0,0 -1.91568,0.27257 -2.74019,-0.83627 -0.82451,-1.10883 0.20718,-2.02949 0.88109,-2.54301 0.67404,-0.51453 1.96129,-0.0257 2.7231,0.99837 0.76181,1.024 1.39335,3.81428 -1.42583,4.29637 -2.69835,0.46143 -4.57022,-1.48423 -8.15721,-5.07869 -2.30699,-2.3118 -4.16709,-3.43399 -9.25758,-6.71106 z"
             id="path3614" />
          <path
             sodipodi:type="arc"
             style="fill:none;stroke:#000000;stroke-width:0.71399999;stroke-miterlimit:4;stroke-opacity:1;stroke-dasharray:none"
             id="path3622"
             sodipodi:cx="317.78354"
             sodipodi:cy="-139.07161"
             sodipodi:rx="0.33849317"
             sodipodi:ry="0.33849317"
             d="m 318.12203,-139.07161 c 0,0.18695 -0.15155,0.33849 -0.33849,0.33849 -0.18695,0 -0.33849,-0.15154 -0.33849,-0.33849 0,-0.18694 0.15154,-0.33849 0.33849,-0.33849 0.18694,0 0.33849,0.15155 0.33849,0.33849 z"
             transform="translate(0.43080949,0.18463264)" />
          <path
             transform="translate(-5.4158907,-6.2775096)"
             d="m 318.12203,-139.07161 c 0,0.18695 -0.15155,0.33849 -0.33849,0.33849 -0.18695,0 -0.33849,-0.15154 -0.33849,-0.33849 0,-0.18694 0.15154,-0.33849 0.33849,-0.33849 0.18694,0 0.33849,0.15155 0.33849,0.33849 z"
             sodipodi:ry="0.33849317"
             sodipodi:rx="0.33849317"
             sodipodi:cy="-139.07161"
             sodipodi:cx="317.78354"
             id="path3624"
             style="fill:none;stroke:#000000;stroke-width:0.71399999;stroke-miterlimit:4;stroke-opacity:1;stroke-dasharray:none"
             sodipodi:type="arc" />
          <path
             sodipodi:type="arc"
             style="fill:none;stroke:#000000;stroke-width:0.71399999;stroke-miterlimit:4;stroke-opacity:1;stroke-dasharray:none"
             id="path3626"
             sodipodi:cx="317.78354"
             sodipodi:cy="-139.07161"
             sodipodi:rx="0.33849317"
             sodipodi:ry="0.33849317"
             d="m 318.12203,-139.07161 c 0,0.18695 -0.15155,0.33849 -0.33849,0.33849 -0.18695,0 -0.33849,-0.15154 -0.33849,-0.33849 0,-0.18694 0.15154,-0.33849 0.33849,-0.33849 0.18694,0 0.33849,0.15155 0.33849,0.33849 z"
             transform="translate(-6.2159655,7.3853055)" />
          <path
             style="fill:#808080;fill-opacity:1;stroke:#000000;stroke-width:0.05891089;stroke-miterlimit:4;stroke-opacity:1;stroke-dasharray:none"
             d="m 124.31734,394.89758 c -0.68804,-1.12654 -2.40745,-2.03771 -4.5792,-2.42666 -0.32247,-0.0577 -0.31521,-0.0617 0.31722,-0.17212 0.89609,-0.15647 1.80194,-0.47184 2.50715,-0.87285 0.64221,-0.3652 1.58195,-1.21765 1.79367,-1.62707 0.15951,-0.30845 0.27079,-0.32098 0.3417,-0.0385 0.0839,0.33437 -0.11302,0.84087 -0.48303,1.24228 l -0.33857,0.36731 0.1751,0.17509 c 0.17396,0.17397 0.1801,0.17421 0.94722,0.0372 0.87698,-0.15664 1.91916,-0.17991 2.26304,-0.0505 0.31344,0.11794 1.26363,0.73966 1.26363,0.82682 0,0.0886 -0.91104,0.70998 -1.2047,0.82163 -0.34952,0.13288 -1.58193,0.11084 -2.32969,-0.0417 -0.62737,-0.12797 -0.69939,-0.12855 -0.88453,-0.007 -0.11085,0.0726 -0.20155,0.16105 -0.20155,0.19649 0,0.0354 0.12949,0.18992 0.28776,0.34332 0.36705,0.35576 0.57549,0.88553 0.50218,1.27631 -0.0302,0.16079 -0.081,0.29134 -0.11298,0.29012 -0.032,-0.001 -0.15097,-0.1542 -0.26442,-0.33995 z"
             id="path3615"
             transform="matrix(-1,0,0,1,478.98633,-531.20682)" />
          <path
             style="fill:#808080;fill-opacity:1;stroke:#000000;stroke-width:0.02564245;stroke-miterlimit:4;stroke-opacity:1;stroke-dasharray:none"
             d="m 168.21585,395.24801 c -0.0327,-0.05 -0.0773,-0.19477 -0.0991,-0.32175 -0.0757,-0.44204 0.13214,-0.9075 0.61677,-1.38114 0.12945,-0.1265 0.21632,-0.23805 0.19781,-0.25398 -0.0182,-0.0156 -0.10344,-0.0825 -0.18953,-0.14864 l -0.15652,-0.12023 -0.57971,0.11309 c -0.72111,0.14068 -1.09695,0.18673 -1.51253,0.18531 -0.57755,-0.002 -0.82757,-0.0509 -1.18609,-0.23197 -0.32397,-0.16364 -1.02375,-0.64741 -1.04988,-0.7258 -0.0194,-0.0583 0.73711,-0.58945 1.09224,-0.76691 0.25531,-0.12758 0.34228,-0.15156 0.66441,-0.1832 0.61021,-0.0599 1.39319,0.0151 2.25294,0.21588 l 0.3021,0.0706 0.10961,-0.0776 c 0.0603,-0.0427 0.14871,-0.11235 0.1965,-0.15484 l 0.0869,-0.0772 -0.26515,-0.26416 c -0.55862,-0.55652 -0.7246,-1.08994 -0.49833,-1.60148 l 0.0726,-0.16407 0.18065,0.302 c 0.62344,1.04223 1.83183,1.90789 3.27422,2.34558 0.62093,0.18842 1.59405,0.3703 2.0671,0.38635 0.13719,0.005 0.14548,0.008 0.0436,0.0182 -1.69974,0.16827 -2.96346,0.56786 -4.02404,1.27239 -0.45971,0.30539 -1.10998,0.95626 -1.35402,1.35528 l -0.18303,0.29926 -0.0595,-0.0909 0,0 z"
             id="path3617"
             transform="matrix(-1,0,0,1,478.98633,-531.20682)" />
        </g>
        <path
           style="fill:#000000"
           d="m 337.1875,-142.34375 c -13.96962,9.51347 -34.50198,21.46632 -34.5,9.4375 0,-3.524 2.6875,-3.53125 2.6875,-3.53125 0,0 1.842,-0.437 2.125,2.5 0,0 -0.70975,-1.021 -1.84375,-0.875 -1.133,0.146 -0.98475,1.4745 -0.84375,2.0625 0.141,0.587 1.25,1.03125 1.25,1.03125 0,0 2.9865,0.274 2.5625,-3.25 -0.425,-3.525 -2.53925,-3.0625 -3.53125,-3.0625 -0.991,0 -3.84235,0.26975 -3.84375,4.96875 -10e-4,4.7 2.83576,12.31295 22.6875,0.46875 5.44307,-3.49251 9.79593,-6.43109 13.25,-8.875 l 0,-0.875 z"
           id="path3628" />
        <path
           style="fill:#000000"
           d="m 307.21875,-151.5 c -4.96489,0.15692 -5.96934,3.95937 -5.96875,6.75 10e-4,4.699 2.85275,5 3.84375,5 0.992,0 3.10625,0.43125 3.53125,-3.09375 0.424,-3.524 -2.5625,-3.21875 -2.5625,-3.21875 0,0 -1.109,0.44425 -1.25,1.03125 -0.141,0.588 -0.28925,1.9165 0.84375,2.0625 1.134,0.146 1.84375,-0.875 1.84375,-0.875 -0.283,2.937 -2.125,2.5 -2.125,2.5 0,0 -2.6875,-0.007 -2.6875,-3.53125 -0.002,-12.13525 20.90197,0.1359 34.875,9.6875 l 0,-0.84375 c -3.5212,-2.50278 -7.95467,-5.51791 -13.625,-9.15625 -8.06477,-4.81171 -13.32172,-6.41987 -16.71875,-6.3125 z"
           id="path3630" />
        <path
           style="fill:#000000"
           d="m 332.54673,-149.24256 c 0,0 -1.05943,1.05591 -1.09744,1.53114 -0.038,0.47522 -0.18978,1.00298 0.30327,2.63996 l -0.34101,0.36974 c 0,0 -1.1376,-1.32016 -2.42697,-0.63361 0,0 3.10953,1.00298 3.26103,5.91393 l -0.26526,0.053 c 0,0 -0.18978,-5.2274 -3.71635,-5.75554 0,0 0.68256,-2.11221 3.10953,-0.10547 0,0 -0.34128,-1.21433 -0.30353,-2.27061 0.0377,-1.05629 1.51448,-1.9538 1.47673,-2.90423 -0.038,0.95043 1.43873,1.84794 1.47673,2.90423 0.038,1.05628 -0.30353,2.27061 -0.30353,2.27061 2.4267,-2.00636 3.10952,0.10547 3.10952,0.10547 -3.52683,0.52814 -3.71633,5.75554 -3.71633,5.75554 l -0.26526,-0.053 c 0.15149,-4.91058 3.26102,-5.91393 3.26102,-5.91393 -1.2891,-0.68655 -2.42669,0.63361 -2.42669,0.63361 l -0.34129,-0.36974 c 0.49305,-1.63698 0.34129,-2.16474 0.30354,-2.63996 -0.0383,-0.47523 -1.09771,-1.53114 -1.09771,-1.53114 z"
           id="path3632" />
        <path
           id="path3634"
           d="m 321.81313,-138.88109 c 0,0 1.10338,1.05943 1.59997,1.09744 0.49656,0.038 1.04805,0.18978 2.75863,-0.30327 l 0.38635,0.34101 c 0,0 -1.3795,1.1376 -0.6621,2.42697 0,0 1.04807,-3.10953 6.17977,-3.26103 l 0.0553,0.26526 c 0,0 -5.46236,0.18978 -6.01423,3.71635 0,0 -2.20716,-0.68256 -0.11022,-3.10953 0,0 -1.26891,0.34128 -2.37268,0.30353 -1.10377,-0.0377 -2.04161,-1.51448 -3.03477,-1.47673 0.99316,0.038 1.931,-1.43873 3.03477,-1.47673 1.10377,-0.038 2.37268,0.30353 2.37268,0.30353 -2.09654,-2.4267 0.11022,-3.10952 0.11022,-3.10952 0.55187,3.52683 6.01423,3.71634 6.01423,3.71634 l -0.0553,0.26526 c -5.13131,-0.1515 -6.17977,-3.26102 -6.17977,-3.26102 -0.71741,1.2891 0.6621,2.42669 0.6621,2.42669 l -0.38635,0.34129 c -1.71058,-0.49305 -2.26207,-0.34129 -2.75863,-0.30354 -0.49659,0.0383 -1.59997,1.09771 -1.59997,1.09771 z"
           style="fill:#000000" />
        <path
           style="fill:#000000"
           d="m 332.64618,-128.45258 c 0,0 1.05943,-1.07965 1.09744,-1.56555 0.038,-0.48589 0.18978,-1.02551 -0.30327,-2.6993 l 0.34101,-0.37804 c 0,0 1.1376,1.34983 2.42697,0.64786 0,0 -3.10953,-1.02553 -3.26103,-6.04686 l 0.26526,-0.0541 c 0,0 0.18978,5.34488 3.71635,5.88488 0,0 -0.68256,2.15968 -3.10953,0.10785 0,0 0.34128,1.24162 0.30353,2.32164 -0.0377,1.08003 -1.51448,1.9977 -1.47673,2.9695 0.038,-0.9718 -1.43873,-1.88947 -1.47673,-2.9695 -0.038,-1.08002 0.30353,-2.32164 0.30353,-2.32164 -2.4267,2.05145 -3.10952,-0.10785 -3.10952,-0.10785 3.52683,-0.54 3.71634,-5.88488 3.71634,-5.88488 l 0.26526,0.0541 c -0.1515,5.02095 -3.26102,6.04686 -3.26102,6.04686 1.2891,0.70198 2.42669,-0.64786 2.42669,-0.64786 l 0.34129,0.37804 c -0.49305,1.67379 -0.34129,2.21341 -0.30354,2.6993 0.0383,0.4859 1.09771,1.56555 1.09771,1.56555 z"
           id="path3636" />
        <path
           style="fill:#000000"
           d="m 314.80946,-138.85173 c 0,0 -1.10875,0.90896 -1.60775,0.94157 -0.49898,0.0326 -1.05316,0.16282 -2.77206,-0.2602 l -0.38824,0.29258 c 0,0 1.38622,0.97603 0.66532,2.08227 0,0 -1.09938,-2.88213 -6.25607,-3.01211 l -0.01,0.27044 c 0,0 5.48896,0.33421 6.04352,3.3599 0,0 2.2179,-0.58561 0.11075,-2.66788 0,0 1.27509,0.29281 2.38423,0.26042 1.10916,-0.0323 2.05156,-1.29938 3.04955,-1.26699 -0.99799,0.0326 -1.94039,-1.23439 -3.04955,-1.26699 -1.10914,-0.0326 -2.38423,0.26042 -2.38423,0.26042 2.10675,-2.08204 -0.11075,-2.66788 -0.11075,-2.66788 -0.55456,3.02592 -6.04352,3.51701 -6.04352,3.51701 l -0.006,0.22759 c 5.15631,-0.12999 6.27148,-3.12636 6.27148,-3.12636 0.7209,1.10601 -0.66532,2.08203 -0.66532,2.08203 l 0.38824,0.29281 c 1.71889,-0.42302 2.27307,-0.29281 2.77205,-0.26043 0.49901,0.0329 1.60776,0.94181 1.60776,0.94181 l 0,-1e-5 7.7e-4,0 z"
           id="path3638"
           sodipodi:nodetypes="cscccccccscscccccccsccc" />
        <path
           id="path3640"
           d="m 310.20676,-139.66537 c 0,0 5.65407,-1.98904 10.38383,-6.38514 4.32478,-4.01969 5.91502,-4.78597 7.68431,-3.48915 0,0 -1.92543,-0.27257 -2.75414,0.83627 -0.82871,1.10883 0.20823,2.02949 0.88557,2.54301 0.67747,0.51453 1.97128,0.0257 2.73697,-0.99837 0.76568,-1.024 1.40044,-3.81428 -1.43309,-4.29637 -2.71209,-0.46143 -4.59349,1.48423 -8.19874,5.07869 -2.31874,2.3118 -4.18831,3.43399 -9.30471,6.71106 z"
           style="fill:#000000"
           sodipodi:nodetypes="cscsssssc" />
        <path
           sodipodi:nodetypes="cscsssssc"
           style="fill:#000000"
           d="m 310.30597,-138.03233 c 0,0 5.62543,1.98904 10.33123,6.38514 4.30288,4.01969 5.88507,4.78597 7.64539,3.48915 0,0 -1.91568,0.27257 -2.74019,-0.83627 -0.82451,-1.10883 0.20718,-2.02949 0.88109,-2.54301 0.67404,-0.51453 1.96129,-0.0257 2.7231,0.99837 0.76181,1.024 1.39335,3.81428 -1.42583,4.29637 -2.69835,0.46143 -4.57022,-1.48423 -8.15721,-5.07869 -2.30699,-2.3118 -4.16709,-3.43399 -9.25758,-6.71106 z"
           id="path3642" />
        <path
           sodipodi:type="arc"
           style="fill:none;stroke:#000000;stroke-width:0.71399999;stroke-miterlimit:4;stroke-opacity:1;stroke-dasharray:none"
           id="path3650"
           sodipodi:cx="317.78354"
           sodipodi:cy="-139.07161"
           sodipodi:rx="0.33849317"
           sodipodi:ry="0.33849317"
           d="m 318.12203,-139.07161 c 0,0.18695 -0.15155,0.33849 -0.33849,0.33849 -0.18695,0 -0.33849,-0.15154 -0.33849,-0.33849 0,-0.18694 0.15154,-0.33849 0.33849,-0.33849 0.18694,0 0.33849,0.15155 0.33849,0.33849 z"
           transform="translate(0.43080949,0.18463264)" />
        <path
           transform="translate(-5.4158907,-6.2775096)"
           d="m 318.12203,-139.07161 c 0,0.18695 -0.15155,0.33849 -0.33849,0.33849 -0.18695,0 -0.33849,-0.15154 -0.33849,-0.33849 0,-0.18694 0.15154,-0.33849 0.33849,-0.33849 0.18694,0 0.33849,0.15155 0.33849,0.33849 z"
           sodipodi:ry="0.33849317"
           sodipodi:rx="0.33849317"
           sodipodi:cy="-139.07161"
           sodipodi:cx="317.78354"
           id="path3652"
           style="fill:none;stroke:#000000;stroke-width:0.71399999;stroke-miterlimit:4;stroke-opacity:1;stroke-dasharray:none"
           sodipodi:type="arc" />
        <path
           sodipodi:type="arc"
           style="fill:none;stroke:#000000;stroke-width:0.71399999;stroke-miterlimit:4;stroke-opacity:1;stroke-dasharray:none"
           id="path3654"
           sodipodi:cx="317.78354"
           sodipodi:cy="-139.07161"
           sodipodi:rx="0.33849317"
           sodipodi:ry="0.33849317"
           d="m 318.12203,-139.07161 c 0,0.18695 -0.15155,0.33849 -0.33849,0.33849 -0.18695,0 -0.33849,-0.15154 -0.33849,-0.33849 0,-0.18694 0.15154,-0.33849 0.33849,-0.33849 0.18694,0 0.33849,0.15155 0.33849,0.33849 z"
           transform="translate(-6.2159655,7.3853055)" />
      </g>
    </g>
    <use
       height="1052.3622"
       width="744.09448"
       x="0"
       y="0"
       inkscape:tiled-clone-of="#g3656"
       xlink:href="#g3656"
       transform="translate(62.619754,5.7142857e-6)"
       id="use3740" />
    <use
       height="1052.3622"
       width="744.09448"
       x="0"
       y="0"
       inkscape:tiled-clone-of="#g3656"
       xlink:href="#g3656"
       transform="translate(125.2395,5.7142857e-6)"
       id="use3742" />
    <use
       height="1052.3622"
       width="744.09448"
       x="0"
       y="0"
       inkscape:tiled-clone-of="#g3656"
       xlink:href="#g3656"
       transform="translate(187.85925,5.7142857e-6)"
       id="use3744" />
    <use
       height="1052.3622"
       width="744.09448"
       x="0"
       y="0"
       inkscape:tiled-clone-of="#g3656"
       xlink:href="#g3656"
       transform="translate(250.479,5.7142857e-6)"
       id="use3746" />
    <use
       height="1052.3622"
       width="744.09448"
       x="0"
       y="0"
       inkscape:tiled-clone-of="#g3656"
       xlink:href="#g3656"
       transform="translate(313.09875,5.7142857e-6)"
       id="use3748" />
    <use
       height="1052.3622"
       width="744.09448"
       x="0"
       y="0"
       inkscape:tiled-clone-of="#g3656"
       xlink:href="#g3656"
       transform="translate(375.71851,5.7142857e-6)"
       id="use3750" />
  </g>
</svg>
