<?xml version="1.0" encoding="UTF-8" standalone="no"?>
<!-- Created with Inkscape (http://www.inkscape.org/) -->

<svg
   xmlns:dc="http://purl.org/dc/elements/1.1/"
   xmlns:cc="http://creativecommons.org/ns#"
   xmlns:rdf="http://www.w3.org/1999/02/22-rdf-syntax-ns#"
   xmlns:svg="http://www.w3.org/2000/svg"
   xmlns="http://www.w3.org/2000/svg"
   xmlns:sodipodi="http://sodipodi.sourceforge.net/DTD/sodipodi-0.dtd"
   xmlns:inkscape="http://www.inkscape.org/namespaces/inkscape"
   id="svg3039"
   version="1.1"
   inkscape:version="0.47 r22583"
   width="585"
   height="41.25"
   xml:space="preserve"
   sodipodi:docname="uzor_end_3.svg"><metadata
     id="metadata3045"><rdf:RDF><cc:Work
         rdf:about=""><dc:format>image/svg+xml</dc:format><dc:type
           rdf:resource="http://purl.org/dc/dcmitype/StillImage" /><dc:title /></cc:Work></rdf:RDF></metadata><defs
     id="defs3043"><inkscape:perspective
       sodipodi:type="inkscape:persp3d"
       inkscape:vp_x="0 : 0.5 : 1"
       inkscape:vp_y="0 : 1000 : 0"
       inkscape:vp_z="1 : 0.5 : 1"
       inkscape:persp3d-origin="0.5 : 0.33333333 : 1"
       id="perspective3047" /></defs><sodipodi:namedview
     pagecolor="#ffffff"
     bordercolor="#666666"
     borderopacity="1"
     objecttolerance="10"
     gridtolerance="10"
     guidetolerance="10"
     inkscape:pageopacity="0"
     inkscape:pageshadow="2"
     inkscape:window-width="1589"
     inkscape:window-height="720"
     id="namedview3041"
     showgrid="false"
     showguides="true"
     inkscape:guide-bbox="true"
     inkscape:zoom="24.52"
     inkscape:cx="527.17468"
     inkscape:cy="13.737713"
     inkscape:window-x="89"
     inkscape:window-y="149"
     inkscape:window-maximized="0"
     inkscape:current-layer="g3049"><sodipodi:guide
       orientation="0,1"
       position="-4.731854,23.169768"
       id="guide3056" /><sodipodi:guide
       orientation="0,1"
       position="-4.9766051,19.009"
       id="guide3058" /><sodipodi:guide
       orientation="1,0"
       position="4.6502703,7.2609484"
       id="guide2865" /><sodipodi:guide
       orientation="1,0"
       position="580.14162,6.2003604"
       id="guide2867" /></sodipodi:namedview><g
     id="g3049"
     inkscape:groupmode="layer"
     inkscape:label="uzor_end_3"
     transform="matrix(0.05712875,0,0,-0.05712875,0,41.25)"><path
       d="m 5666,659 c -48,-11 -74,-33 -92,-76 -24,-56 15,-113 76,-113 41,0 65,20 75,61 5,21 1,29 -20,43 -32,21 -24,36 20,36 45,0 87,-37 115,-101 41,-95 0,-201 -95,-249 -16,-8 -29.2718,-14.02913 -33.2718,-20.02913 -4,-5 -13.7282,-4.75728 -18.7282,-0.75728 -6,7 -12.8132,20.3705 10.1868,74.3705 4,9 9.8132,20.41591 1.8132,31.41591 -15,19 -17.2427,30.80583 -28,2 -36,-55 -44,-59 -108,-58 -47,0 -68,-4 -90,-20 -21,-15 -45,-20 -101,-21 -65,-1 -79,3 -133,32 -82,46 -105,70 -67,70 36,0 116,36 134,60 34,46 37,148 3,120 -7,-6 -15,-23 -17,-37 -5,-39 -48,-67 -92,-59 -43,8 -70,32 -60,55 17,42 15,60 -9,85 -37,37 -110,37 -149,-1 -24,-23 -31,-25 -53,-15 -14,7 -36,12 -49,12 -12,0 -60,14 -105,30 -132,48 -256,40 -383,-26 -71.3119,-39.07985 -104.2084,-101.1174 -137.4879,-168.42893 -18.3253,0 -199.9771,0 -2074.7776,0 -1874.03169,0 -2034.25719,0 -2088.938246,0 -18.252562,0 -22.536764,-72.83142 4.149786,-72.83142 174.30036,0 2025.87606,0 2611.87606,0 358.9704,0 1455.7446,0 1541.4692,0 C 4254.2913,281.73965 4282,184 4328,143 c 33,-29 44,-33 95,-33 73,0 118,27 135,81 18,57 15,73 -15,99 -62,54 -148,15 -139,-62 3,-33 1,-38 -16,-38 -59,0 -97,121 -66,211 22,66 99,136 179,164 24,9 75,16 115,17 58,2 83,-3 138,-26 53,-23 67,-34 72,-55 4,-14 16,-36 27,-48 13,-15 20,-37 21,-65 1,-34 6,-45 24,-53 12,-5 22,-13 22,-17 0,-5 8,-8 18,-8 9,0 34,-15 55,-33 30,-26 37,-39 37,-67 0,-43 17,-65 35,-47 32,32 36,56 20,109 -8,28 -13,53 -11,56 3,2 17,-8 31,-22 15,-15 44,-34 66,-44 18.5146,-10.24272 26.5728,-16.27184 39,-24 18.6272,-9.66215 42.6816,-19.1481 64,-28 29.7478,-11.8093 60.1491,-26.59032 92,-41 73.496,-37.4907 136.6022,-66.84773 220.1626,-68.81324 96,0 158.0143,20.71085 168.8137,33.83996 9.2477,11.24272 -67.4909,16.59464 -76.9763,17.97328 12.0903,25.13854 52.6506,45.02411 89,58 24.6894,8.69714 45.0551,22.74699 63,41 l 70.2842,81.73965 c 963.7157,0 1922.9365,-1.39863 2891.0652,0 785.2861,0 1308.9036,0 1348.0186,0 15.617,17.52903 16.819,62.83142 -1.181,72.83142 -972.5869,0 -1961.7837,0.15775 -2938.2057,0 -832.1814,0 -1262.841,0 -1279.9813,0 -6,4 -10,45.42893 -10,69.42893 0,57 -11,85 -50,124 -58,58 -122,78 -194,60 z"
       style="fill:#000000;fill-opacity:1;fill-rule:nonzero;stroke:none"
       id="path3051"
       sodipodi:nodetypes="ccsccscccccccccccsccccccccscccccscccssccsccccccccsscssccscccccscccccccccssc" /></g></svg>