<?xml version="1.0" standalone="no"?>
<!DOCTYPE svg PUBLIC "-//W3C//DTD SVG 20010904//EN"
 "http://www.w3.org/TR/2001/REC-SVG-20010904/DTD/svg10.dtd">
<svg version="1.0" xmlns="http://www.w3.org/2000/svg"
 width="468pt" height="127pt" viewBox="0 0 468 127"
 preserveAspectRatio="xMidYMid meet">
<metadata>
Created by potrace 1.8, written by Peter Selinger 2001-2007
</metadata>
<g transform="translate(0,127) scale(0.015768,-0.015768)"
fill="#000000" stroke="none">
<path d="M14531 6179 c-96 -12 -100 -18 -99 -160 0 -66 -2 -123 -5 -126 -3 -3
-81 -7 -174 -10 -92 -3 -176 -10 -186 -15 -10 -5 -20 -23 -24 -39 -3 -16 -14
-34 -24 -40 -25 -13 -25 -49 0 -49 40 0 45 -20 50 -195 1 -22 5 -46 10 -54 12
-18 75 -29 211 -37 63 -3 120 -10 125 -15 11 -11 22 -134 17 -185 -3 -29 -7
-32 -46 -38 -51 -8 -750 3 -826 12 l-52 7 -19 55 c-11 30 -22 71 -24 90 -2 19
-8 69 -13 111 -5 41 -15 86 -23 100 -20 36 -39 91 -39 115 0 12 -9 31 -20 44
-11 13 -20 29 -20 35 0 16 -31 28 -42 17 -4 -4 -10 -39 -13 -77 -17 -225 -19
-200 19 -256 32 -45 34 -55 29 -98 -5 -47 -4 -50 25 -65 17 -9 36 -25 41 -35
17 -32 -9 -43 -96 -41 -43 1 -157 2 -254 1 -153 -1 -180 -3 -198 -18 -12 -10
-22 -27 -22 -38 0 -11 2 -82 5 -158 5 -154 11 -170 71 -181 18 -4 147 -9 286
-11 171 -4 261 -9 278 -18 29 -14 49 -66 77 -197 9 -41 21 -93 26 -115 5 -22
12 -56 15 -75 3 -19 9 -39 13 -45 4 -5 11 -29 15 -52 4 -24 10 -45 15 -48 5
-3 11 -23 15 -45 4 -22 11 -42 16 -46 5 -3 9 -21 9 -40 0 -34 0 -34 -46 -34
-25 0 -79 11 -120 25 -41 14 -89 25 -107 25 -18 0 -57 6 -87 14 -70 18 -333
41 -425 38 -85 -3 -165 -17 -208 -36 -18 -7 -66 -19 -107 -26 -41 -7 -107 -28
-146 -47 -39 -18 -76 -33 -82 -33 -15 0 -152 -139 -152 -154 0 -7 -9 -21 -20
-31 -11 -10 -20 -24 -20 -32 0 -7 -6 -13 -14 -13 -8 0 -24 -17 -37 -37 -12
-21 -27 -42 -33 -48 -16 -14 -57 -82 -78 -129 -10 -21 -18 -60 -18 -87 0 -46
-2 -49 -26 -49 -33 0 -100 68 -125 128 -11 25 -32 61 -48 81 -15 20 -34 53
-40 74 -8 24 -20 39 -34 43 -12 3 -35 23 -50 45 -16 21 -33 39 -39 39 -6 0
-28 18 -49 40 -22 22 -47 40 -58 40 -10 0 -24 7 -31 15 -7 8 -17 15 -23 15 -6
0 -29 9 -51 19 -176 82 -367 90 -597 25 -30 -8 -72 -19 -94 -25 -22 -6 -47
-16 -55 -24 -19 -17 -87 -45 -110 -45 -14 0 -19 13 -24 70 -6 61 -11 72 -39
96 -28 23 -38 26 -92 22 -49 -3 -70 -10 -105 -36 -49 -35 -90 -35 -90 -1 0 11
-7 22 -15 25 -8 3 -28 30 -44 59 -36 63 -73 105 -93 105 -9 0 -26 8 -39 18
-13 10 -49 33 -80 50 -31 18 -62 39 -69 47 -34 41 -84 -6 -95 -88 -4 -28 -13
-59 -21 -68 -19 -21 -54 -164 -54 -222 0 -36 -4 -49 -17 -53 -10 -4 -32 -12
-50 -20 -17 -8 -41 -14 -53 -14 -31 0 -80 -25 -120 -62 -33 -29 -35 -36 -38
-105 -3 -59 -7 -73 -21 -73 -94 -1 -246 -29 -376 -69 -43 -13 -135 -62 -135
-72 0 -5 -9 -9 -19 -9 -22 0 -112 -46 -178 -90 -24 -16 -60 -32 -80 -34 -20
-3 -48 -13 -62 -24 -14 -10 -38 -22 -53 -26 -16 -3 -28 -11 -28 -16 0 -6 -6
-10 -14 -10 -8 0 -21 -6 -28 -13 -21 -21 -99 -55 -143 -63 -22 -4 -55 -13 -73
-21 -48 -20 -265 -20 -295 0 -13 8 -43 17 -67 20 -75 8 -134 27 -160 51 -14
12 -41 30 -60 40 -19 9 -46 25 -60 37 -14 11 -39 21 -54 22 -24 2 -30 -3 -37
-25 -5 -19 -3 -31 7 -39 8 -6 14 -17 14 -23 0 -6 29 -41 63 -77 46 -49 76 -71
117 -86 88 -34 237 -65 340 -70 114 -7 203 15 348 83 52 24 100 44 108 44 8 0
14 3 14 8 0 4 15 13 33 21 17 8 41 22 52 31 29 24 105 59 145 65 l35 6 -45
-41 c-25 -22 -65 -59 -90 -81 -25 -22 -71 -64 -104 -94 -56 -52 -110 -75 -175
-75 -10 0 -24 -7 -31 -15 -50 -61 -354 -114 -488 -86 -31 7 -77 13 -102 14
-40 1 -45 -1 -48 -21 -5 -33 11 -47 75 -65 181 -51 266 -59 356 -34 32 10 79
17 105 17 l47 0 -35 -35 c-35 -34 -36 -34 -135 -38 -104 -3 -125 -9 -125 -32
0 -21 33 -35 82 -35 24 0 52 -6 61 -12 15 -12 15 -15 -2 -35 -32 -38 -112 -72
-196 -83 -197 -25 -225 -26 -327 -13 -150 18 -168 17 -168 -7 0 -34 57 -48
355 -88 35 -5 50 -12 50 -22 0 -13 -32 -15 -228 -15 l-228 0 3 -30 c2 -21 9
-31 23 -33 11 -1 43 -9 70 -17 28 -8 92 -19 143 -26 77 -10 92 -15 92 -30 0
-11 -13 -22 -37 -30 -21 -7 -43 -19 -50 -28 -25 -34 -186 -3 -263 52 -13 9
-32 17 -42 17 -9 0 -22 8 -27 19 -6 10 -21 21 -35 25 -60 15 -200 221 -189
279 3 14 17 31 31 38 15 7 34 19 42 26 17 13 185 19 290 10 72 -7 108 1 121
25 16 30 2 69 -42 115 -51 54 -58 79 -64 227 -4 111 -3 122 20 171 14 29 25
62 25 74 0 18 -4 20 -27 15 -46 -11 -90 -61 -104 -118 -14 -59 -14 -244 1
-308 8 -38 7 -45 -11 -60 -53 -45 -100 -7 -73 58 22 54 23 195 1 256 -14 41
-95 164 -117 178 -4 3 -19 23 -34 44 -48 71 -157 130 -302 164 -70 16 -100 19
-125 12 -19 -6 -51 -10 -71 -10 -20 0 -40 -4 -43 -10 -3 -5 -17 -10 -30 -10
-13 0 -26 -4 -29 -9 -3 -5 -17 -12 -31 -15 -31 -8 -89 -47 -124 -84 -15 -15
-51 -38 -80 -52 -35 -16 -62 -38 -78 -62 -14 -20 -31 -39 -39 -42 -8 -3 -22
-22 -30 -41 -8 -19 -19 -35 -24 -35 -6 0 -10 -6 -10 -14 0 -23 -43 -97 -54
-93 -6 2 -18 21 -26 43 -21 56 -53 104 -97 146 -201 192 -254 249 -276 299
-31 70 -42 78 -97 70 -42 -6 -47 -9 -70 -57 -14 -28 -30 -57 -37 -65 -20 -24
-84 -151 -108 -216 -16 -41 -22 -73 -18 -100 3 -24 -1 -45 -9 -57 -13 -17 -19
-17 -74 -6 -32 7 -68 15 -79 20 -34 13 -108 31 -161 40 -28 4 -62 14 -75 21
-34 19 -629 20 -651 1 -8 -7 -47 -16 -86 -21 -39 -5 -90 -16 -114 -24 -100
-34 -121 -38 -183 -36 -40 1 -70 -2 -77 -9 -7 -7 -37 -12 -68 -12 -34 0 -64
-6 -76 -15 -10 -8 -33 -15 -51 -15 -17 0 -38 -7 -47 -15 -8 -8 -30 -18 -48
-22 -18 -4 -60 -17 -92 -30 -33 -13 -66 -23 -74 -23 -7 0 -28 -11 -46 -25 -18
-14 -39 -25 -45 -25 -7 0 -27 -6 -44 -14 -91 -40 -101 -41 -265 -39 -138 2
-168 0 -205 -16 -23 -10 -48 -26 -56 -35 -7 -9 -20 -16 -28 -16 -7 0 -31 -9
-53 -20 -22 -11 -48 -20 -58 -20 -18 0 -36 -32 -25 -44 3 -3 7 -22 9 -42 2
-20 8 -41 13 -48 15 -18 51 -119 51 -143 0 -15 -6 -23 -17 -23 -40 0 -231 22
-280 32 -65 14 -78 5 -92 -63 -9 -40 -8 -64 4 -117 9 -37 13 -78 10 -91 -6
-23 -8 -23 -72 -17 -36 4 -75 12 -86 18 -37 19 -131 3 -219 -39 -46 -22 -98
-46 -115 -53 -18 -7 -33 -19 -33 -26 0 -8 -9 -14 -19 -14 -17 0 -71 -41 -120
-92 -138 -145 -129 -125 -126 -311 2 -163 10 -207 51 -289 8 -14 14 -40 14
-58 l0 -32 -31 26 c-17 14 -34 26 -37 26 -4 0 -28 7 -54 14 l-47 15 -45 -36
c-25 -20 -46 -44 -46 -53 0 -10 -7 -23 -15 -30 -8 -7 -15 -19 -15 -28 0 -9 -9
-25 -19 -36 -10 -12 -33 -48 -51 -81 -18 -33 -60 -87 -94 -120 -98 -95 -96
-85 -27 -154 l61 -59 188 2 c103 1 255 -1 337 -4 83 -4 218 -3 300 1 83 5 211
7 285 6 144 -2 167 -2 680 0 184 0 380 0 435 -1 55 -1 105 2 112 7 7 5 17 6
23 2 7 -4 49 -9 93 -12 98 -5 45 -5 567 -3 234 0 643 1 910 1 267 0 501 1 520
1 172 0 539 1 555 0 11 0 281 0 600 0 319 1 621 1 670 0 258 -3 2674 -14 2945
-14 173 0 407 1 520 0 113 0 394 1 625 2 231 1 427 1 435 1 8 -1 98 -2 200 -3
102 -2 190 -6 197 -11 6 -4 14 -3 18 2 3 6 879 8 2393 4 1313 -3 2756 -5 3207
-4 451 0 1056 1 1345 1 289 0 815 1 1170 2 577 1 978 -1 1260 -5 245 -4 1245
6 1276 13 19 4 36 4 39 0 3 -5 207 -9 453 -10 246 -1 454 -2 462 -2 8 0 92 3
185 6 212 7 2005 3 2070 -4 11 -2 171 0 355 4 433 9 830 9 862 1 15 -4 29 -2
32 4 4 6 16 11 26 11 14 0 18 5 13 18 -5 13 0 11 21 -7 23 -21 36 -25 99 -25
67 -1 72 0 75 22 2 12 8 22 13 22 6 0 7 -5 4 -10 -12 -20 45 -27 273 -34 128
-4 247 -9 264 -13 28 -6 31 -4 26 15 -5 19 -2 22 28 22 31 0 34 3 34 29 0 29
-21 57 -33 44 -4 -3 -7 -1 -7 7 0 10 -3 10 -15 0 -12 -10 -15 -10 -15 4 0 9
-4 16 -9 16 -5 0 -12 8 -15 18 -15 39 -38 72 -52 72 -7 0 -14 8 -14 18 0 10
-10 24 -23 31 -12 7 -28 25 -35 40 -7 16 -23 40 -35 53 -33 37 -57 83 -57 110
0 14 -10 34 -22 45 -29 27 -73 20 -95 -13 -8 -13 -22 -24 -30 -24 -8 0 -26
-13 -39 -30 -15 -17 -39 -32 -59 -36 -25 -4 -35 -12 -37 -28 -2 -13 -10 -21
-23 -22 -29 -1 -37 6 -25 21 15 18 -35 29 -112 26 -67 -3 -106 13 -87 35 6 8
17 14 23 14 7 0 23 12 37 26 13 14 45 41 70 60 26 19 52 49 59 66 7 18 19 40
26 48 7 8 14 33 16 55 2 22 7 46 12 53 4 6 4 17 0 23 -3 6 -6 44 -5 83 1 62
-2 78 -24 110 -14 20 -25 43 -25 49 0 19 -21 37 -43 37 -10 0 -33 16 -50 35
-17 19 -35 35 -39 35 -5 0 -18 9 -30 19 -32 30 -139 46 -223 33 -57 -9 -74
-16 -92 -38 l-22 -28 -38 27 c-22 15 -51 27 -65 27 -14 0 -29 7 -32 16 -3 8
-10 12 -16 9 -6 -3 -7 1 -4 9 9 22 25 20 31 -4 6 -21 28 -27 38 -11 3 6 3 28
-1 50 -6 39 -17 49 -58 55 -24 3 -95 62 -91 74 3 7 -7 25 -21 39 -36 36 -24
55 66 100 101 52 126 102 104 211 -6 31 -7 31 -51 25 -60 -8 -179 15 -226 44
-21 13 -52 26 -70 30 -18 3 -62 21 -99 40 -36 18 -73 33 -80 33 -8 0 -30 14
-48 30 -18 17 -39 30 -45 30 -7 0 -20 9 -30 20 -22 24 -90 60 -114 60 -10 0
-24 7 -31 16 -8 8 -25 14 -39 12 -17 -2 -32 4 -43 18 -10 12 -30 25 -45 29
-15 3 -45 15 -67 26 -25 12 -61 19 -97 19 -41 0 -58 4 -63 15 -5 13 -35 29
-119 64 -15 6 -39 11 -52 11 -13 0 -27 5 -30 10 -3 6 -26 10 -50 10 -24 0 -47
5 -50 10 -7 12 -93 3 -111 -11 -6 -5 -17 0 -27 11 -10 12 -29 20 -47 20 -16 0
-30 4 -30 9 0 9 -71 37 -130 50 -19 5 -48 14 -65 21 -55 22 -274 48 -490 56
l-170 7 -150 -37 c-82 -20 -167 -41 -187 -46 -21 -6 -57 -15 -80 -21 -24 -6
-56 -17 -71 -25 -16 -8 -33 -14 -38 -14 -6 0 -29 -9 -51 -20 -44 -21 -65 -13
-49 19 18 34 27 229 16 356 -5 60 -46 180 -62 180 -6 0 -15 3 -19 8 -4 4 -26
7 -50 7 l-42 0 -6 -45 c-5 -30 -14 -48 -27 -56 -11 -6 -25 -24 -31 -40 -5 -16
-17 -29 -26 -29 -10 0 -39 -18 -67 -40 -27 -22 -55 -40 -61 -40 -7 0 -14 -9
-17 -20 -3 -11 -18 -25 -34 -32 -23 -10 -94 -59 -113 -78 -3 -3 -30 -26 -61
-52 -41 -35 -58 -57 -63 -81 -6 -32 -27 -79 -56 -124 -29 -45 -93 -24 -111 36
-10 33 -9 43 5 62 9 13 16 35 16 49 0 14 7 44 15 67 12 33 12 48 3 68 -6 14
-15 25 -20 25 -4 0 -8 6 -8 13 0 8 -26 32 -57 55 -32 22 -66 48 -75 56 -9 8
-30 21 -45 29 -15 8 -37 24 -47 36 -11 12 -27 21 -37 21 -10 0 -31 11 -48 26
-27 22 -42 26 -134 31 -99 6 -106 5 -149 -21 -24 -14 -53 -26 -64 -26 -10 0
-34 -9 -52 -20 -18 -11 -38 -20 -46 -20 -7 0 -21 -9 -31 -20 -10 -11 -22 -20
-26 -20 -20 0 -83 -53 -130 -109 -51 -61 -75 -74 -85 -47 -9 22 -59 30 -86 13
-13 -8 -63 -20 -113 -26 -49 -7 -97 -16 -105 -20 -17 -9 -242 4 -321 18 -55
10 -179 38 -280 64 -31 7 -76 24 -98 35 -23 12 -46 22 -51 22 -12 0 -166 67
-265 115 -38 18 -88 39 -110 47 -22 7 -44 19 -48 25 -7 11 -68 42 -147 75 -14
6 -33 14 -42 19 -10 5 -23 9 -29 9 -6 0 -17 7 -25 15 -9 8 -24 15 -34 15 -10
0 -21 4 -25 9 -9 15 -66 41 -90 41 -13 0 -38 6 -57 14 -72 31 -443 51 -473 26
-8 -6 -44 -8 -96 -4 -46 3 -106 7 -134 9 -58 4 -63 12 -64 97 -1 49 -5 63 -30
90 -25 28 -34 32 -82 32 -70 1 -83 10 -75 50 12 58 14 131 5 142 -5 6 -20 31
-32 54 -12 24 -29 46 -37 50 -8 4 -24 12 -36 17 -47 25 -207 -48 -273 -123
-17 -19 -31 -39 -31 -44 0 -15 -65 -12 -126 6 -61 17 -76 13 -132 -42 -37 -36
-65 -112 -56 -150 5 -21 3 -24 -21 -24 -30 0 -58 13 -98 47 -39 32 -141 80
-202 95 -77 19 -285 15 -380 -6 -44 -11 -85 -25 -91 -32 -6 -8 -20 -14 -31
-14 -10 0 -28 -7 -39 -15 -10 -8 -29 -15 -41 -15 -29 0 -131 -85 -139 -116 -3
-13 -16 -32 -28 -42 -12 -9 -32 -42 -45 -72 -13 -30 -28 -61 -34 -68 -5 -7
-13 -29 -17 -50 -26 -128 -42 -183 -67 -234 -28 -54 -30 -55 -42 -35 -8 11
-16 48 -19 81 -2 34 -8 66 -12 71 -5 6 -11 28 -15 50 -4 22 -15 51 -25 65 -9
14 -20 37 -24 53 -3 15 -13 27 -21 27 -8 0 -15 7 -15 15 0 8 -5 15 -11 15 -10
0 -77 51 -133 102 -25 23 -101 58 -125 58 -10 0 -29 8 -42 18 -13 10 -44 26
-69 35 -25 9 -58 21 -75 28 -66 26 -407 30 -477 6 -24 -8 -88 -25 -143 -37
-55 -13 -104 -26 -110 -31 -5 -4 -39 -13 -75 -19 -35 -6 -71 -15 -80 -20 -25
-13 -171 -34 -218 -31 -22 1 -23 4 -18 41 3 22 9 48 14 58 5 9 12 40 16 68 3
29 13 65 20 80 8 16 17 56 21 89 3 33 13 79 21 102 7 24 20 75 29 115 8 39 25
92 38 117 13 25 29 65 37 89 7 24 22 48 33 53 12 7 128 9 322 7 250 -4 305 -2
309 9 6 16 -3 325 -10 361 -8 39 -45 45 -304 47 -135 2 -250 3 -257 4 -17 1
-26 36 -18 71 5 24 18 35 61 56 47 22 55 30 65 67 20 71 16 95 -23 133 -36 35
-54 81 -37 99 12 12 11 56 0 74 -8 12 -15 13 -35 3 -21 -9 -25 -19 -28 -64
l-3 -53 -49 -10 c-44 -10 -52 -16 -74 -55 -25 -45 -25 -45 -7 -85 10 -22 27
-51 37 -64 20 -26 24 -94 8 -136 -16 -41 -65 -56 -141 -44 -35 6 -163 11 -284
11 -121 0 -230 4 -242 9 -13 5 -48 9 -77 10 -65 2 -66 4 -72 115 -3 63 -1 84
10 93 9 8 63 14 141 16 80 3 132 9 142 16 18 15 44 65 37 71 -4 5 -5 91 -2
193 2 59 -11 138 -25 157 -11 13 -34 16 -140 16 -81 0 -133 5 -142 12 -9 8
-14 45 -17 129 -2 88 -7 121 -18 133 -19 18 -183 28 -279 17z m188 -127 c6
-11 6 -36 0 -67 -5 -27 -6 -58 -2 -69 4 -12 6 -44 4 -72 -1 -32 3 -55 11 -61
7 -6 56 -13 108 -16 134 -8 210 -21 221 -38 10 -14 5 -102 -7 -133 -9 -23 -49
-32 -129 -27 -137 7 -172 6 -188 -8 -15 -12 -17 -42 -17 -240 1 -124 4 -232 8
-238 5 -8 31 -13 73 -12 35 0 80 0 99 0 19 1 103 -2 185 -5 180 -7 592 -14
876 -16 113 -1 212 -6 219 -10 16 -10 25 -128 11 -150 -11 -16 -57 -16 -711
-1 -550 12 -714 10 -737 -11 -18 -17 -19 -43 -16 -680 3 -961 2 -900 18 -918
8 -8 23 -25 34 -37 11 -13 42 -26 77 -33 62 -13 83 -23 126 -57 15 -12 41 -24
58 -28 l30 -7 0 -108 c0 -117 -1 -120 -60 -120 -18 0 -29 6 -32 18 -3 12 -32
27 -87 45 -96 33 -147 41 -157 25 -13 -20 -20 -809 -8 -849 3 -11 21 -19 52
-23 26 -4 66 -9 90 -13 34 -4 46 -11 58 -34 16 -32 48 -39 58 -13 10 26 114
15 163 -18 21 -14 50 -28 64 -32 25 -5 119 -90 119 -107 0 -4 17 -16 38 -26
20 -11 42 -29 48 -41 6 -12 18 -30 27 -40 10 -10 17 -25 17 -33 0 -8 9 -27 20
-44 11 -16 20 -39 20 -49 0 -10 13 -48 30 -83 34 -72 52 -79 92 -33 23 26 33
30 80 30 29 0 59 -4 66 -8 17 -11 37 -111 28 -145 -3 -15 -15 -35 -26 -45 -11
-9 -20 -22 -20 -29 0 -22 -110 -55 -164 -49 -27 3 -52 9 -55 14 -3 5 -20 16
-37 25 -46 24 -92 65 -122 110 -15 22 -35 51 -45 66 -9 14 -22 45 -28 68 -6
24 -15 43 -19 43 -4 0 -11 11 -14 25 -6 22 -61 82 -161 176 -16 15 -43 31 -60
34 -16 4 -39 10 -50 15 -95 39 -279 53 -505 36 -102 -7 -166 -22 -191 -43 -8
-7 -25 -13 -36 -13 -11 0 -32 -11 -47 -25 -14 -13 -33 -22 -40 -19 -9 3 -22
-6 -33 -23 -10 -15 -31 -39 -47 -53 -51 -43 -66 -63 -66 -87 0 -13 -9 -31 -20
-41 -12 -9 -32 -54 -46 -100 -17 -54 -30 -82 -40 -82 -8 0 -22 -16 -31 -35
-13 -28 -32 -43 -81 -67 -64 -30 -65 -30 -143 -18 -43 7 -84 19 -90 26 -6 8
-17 14 -23 14 -7 0 -23 11 -35 24 -27 29 -35 108 -15 148 17 33 95 61 142 52
28 -6 33 -12 38 -45 4 -22 10 -42 15 -45 17 -10 67 26 78 58 7 18 19 45 27 60
8 14 12 32 9 40 -3 7 4 31 15 53 11 21 20 46 20 55 0 26 96 136 134 154 20 9
36 23 36 30 0 7 11 18 25 24 14 6 25 16 25 21 0 5 21 17 48 27 26 10 53 22 61
28 14 11 45 21 200 61 51 13 101 31 110 39 10 9 22 16 29 16 27 0 31 76 30
513 -1 376 -3 451 -15 463 -8 8 -18 12 -22 9 -5 -2 -17 5 -27 16 -25 27 -67
49 -95 49 -13 0 -32 8 -43 19 -24 21 -84 43 -97 35 -5 -3 -9 -12 -9 -20 0 -8
-4 -14 -10 -14 -5 0 -7 13 -4 30 5 25 2 31 -19 41 -31 14 -35 24 -43 94 -5 40
-2 63 10 90 15 30 22 35 51 35 22 0 43 -8 55 -20 11 -11 29 -20 41 -20 11 0
33 -8 47 -18 15 -10 51 -26 80 -36 54 -19 54 -19 75 3 l22 22 0 723 c0 676 -1
725 -18 743 -16 19 -32 20 -360 18 -188 -1 -346 0 -350 2 -4 3 -114 7 -245 9
-331 6 -594 22 -608 37 -6 7 -14 33 -17 59 -5 36 -3 49 10 60 13 10 107 13
502 11 520 -3 840 -9 961 -19 65 -5 78 -4 99 13 23 19 23 20 23 224 -1 112 -5
218 -10 234 l-9 30 -99 2 c-229 6 -227 6 -241 33 -19 37 -17 124 3 141 12 10
61 15 169 19 104 3 157 9 168 18 12 11 15 37 16 138 0 69 3 129 6 135 4 5 42
9 85 9 66 0 81 -3 89 -18z m-373 -1263 c28 -5 58 -7 67 -3 20 7 18 48 21 -456
1 -206 -1 -404 -4 -440 -4 -56 -8 -65 -25 -66 -53 -1 -75 45 -55 113 18 59 -2
148 -41 189 -43 44 -81 50 -144 21 -113 -53 -164 -69 -252 -79 -50 -6 -98 -8
-105 -6 -23 9 -88 236 -88 306 0 17 -9 54 -20 82 -11 28 -20 59 -20 70 0 10
-6 25 -14 32 -16 16 -20 65 -14 185 2 46 7 63 18 66 34 8 629 -4 676 -14z
m997 -10 c134 0 159 -3 164 -16 7 -18 -13 -205 -26 -249 -23 -73 -40 -143 -47
-189 -3 -27 -17 -97 -31 -155 -13 -58 -29 -129 -35 -158 -6 -29 -21 -64 -35
-78 -28 -30 -55 -29 -171 8 -50 16 -78 32 -109 65 -24 24 -50 43 -59 43 -32 0
-99 -25 -117 -43 -15 -15 -21 -16 -33 -6 -12 10 -14 67 -10 393 2 210 5 382 5
383 4 7 67 9 196 6 83 -2 221 -4 308 -4z m3711 -513 c40 -21 41 -22 38 -71 -5
-91 -20 -130 -57 -148 -21 -10 -40 -30 -51 -54 -10 -21 -30 -54 -44 -73 -15
-19 -32 -49 -39 -67 -11 -26 -50 -53 -77 -53 -15 0 1 76 26 125 16 33 30 67
30 75 0 8 7 28 15 44 18 33 19 52 5 61 -11 7 -40 -12 -38 -23 3 -19 -69 -168
-96 -196 -21 -24 -22 -24 -34 -5 -7 10 -12 30 -12 45 0 14 -5 34 -11 45 -10
20 -11 20 -24 2 -8 -10 -15 -30 -15 -45 0 -37 -16 -44 -25 -10 -8 32 -33 62
-52 62 -16 0 -52 74 -53 107 0 43 21 73 52 73 23 0 33 -8 56 -50 23 -43 31
-50 59 -50 27 0 35 6 57 46 14 26 26 51 26 56 0 11 42 72 53 76 4 2 13 9 20
16 49 49 113 53 191 12z m-9099 -43 c50 -18 135 -92 135 -117 0 -7 9 -21 20
-31 11 -10 18 -21 15 -23 -3 -3 4 -15 15 -27 15 -16 21 -39 24 -89 5 -73 17
-96 49 -96 18 0 19 -5 14 -66 -2 -36 -7 -68 -10 -71 -11 -10 -57 7 -57 21 0 8
-22 61 -49 118 -27 56 -52 117 -55 134 -7 32 -39 74 -57 74 -18 0 -19 -25 -5
-129 13 -88 19 -108 42 -132 20 -21 27 -39 28 -70 1 -25 -4 -44 -11 -46 -7 -3
-13 1 -13 8 0 7 -7 21 -16 30 -9 10 -17 37 -18 59 -1 35 -4 40 -24 40 -17 0
-27 9 -38 36 -10 24 -20 34 -32 32 -14 -3 -17 -14 -14 -71 3 -64 2 -67 -19
-67 -24 0 -89 63 -89 85 0 7 7 15 15 19 23 8 18 49 -9 81 -33 38 -36 157 -6
207 11 18 20 39 20 46 0 7 7 24 16 37 20 30 58 33 129 8z m3060 -175 c55 -11
111 -26 125 -33 14 -7 48 -18 77 -25 29 -6 57 -18 64 -26 6 -8 20 -14 30 -14
10 0 26 -8 36 -18 10 -10 45 -28 78 -41 33 -13 69 -32 80 -41 11 -9 36 -23 55
-30 19 -7 40 -17 47 -23 14 -10 33 -1 33 17 0 22 -86 95 -121 101 -12 2 -29
11 -39 20 -9 8 -24 15 -33 15 -9 0 -26 9 -37 20 -11 11 -27 20 -35 20 -17 0
-55 35 -55 50 0 17 93 11 153 -10 31 -11 64 -20 73 -20 16 0 76 -23 104 -41
16 -10 26 -14 53 -23 9 -3 17 -13 17 -21 0 -9 7 -23 15 -31 8 -9 15 -30 15
-48 0 -44 18 -65 62 -72 30 -5 38 -3 47 15 9 16 8 27 -4 51 -9 17 -17 47 -18
67 -2 35 0 37 38 45 80 18 151 41 185 61 76 44 128 39 109 -11 -7 -19 -15 -23
-40 -20 -37 4 -62 -23 -42 -43 10 -10 21 -9 52 1 49 16 74 8 69 -22 -2 -19
-16 -27 -72 -45 -38 -12 -101 -27 -139 -32 -80 -11 -102 -25 -73 -47 13 -9 44
-14 85 -14 74 0 85 -5 96 -38 6 -20 -1 -31 -40 -68 -26 -24 -56 -44 -67 -44
-11 0 -28 -5 -39 -10 -18 -10 -69 0 -131 25 -13 5 -17 0 -20 -22 l-3 -28 -88
0 c-80 0 -88 -2 -92 -20 -2 -11 -10 -66 -19 -123 -9 -57 -18 -107 -21 -112 -3
-4 -23 -11 -45 -15 -23 -4 -53 -17 -68 -30 -35 -29 -79 -38 -145 -30 -52 7
-73 20 -115 69 -10 12 -17 13 -37 4 -14 -6 -25 -19 -25 -29 0 -9 -16 -30 -36
-46 -20 -15 -52 -44 -72 -63 -19 -19 -54 -40 -76 -47 -23 -6 -72 -21 -111 -32
-87 -27 -167 -25 -171 3 -3 24 23 72 64 114 43 46 54 92 41 172 -15 98 -27
126 -73 174 -50 52 -95 65 -165 47 -25 -7 -65 -16 -89 -20 -68 -13 -131 -83
-213 -239 -22 -40 -39 -84 -39 -98 0 -44 50 -182 81 -220 16 -20 29 -41 29
-45 0 -11 23 -34 80 -79 24 -19 55 -47 68 -62 29 -33 129 -75 143 -61 11 11
-5 63 -24 75 -8 5 -6 8 6 8 19 0 31 -8 83 -57 31 -28 74 -53 144 -82 14 -6 32
-15 40 -20 41 -23 79 -39 123 -51 26 -7 50 -17 53 -21 3 -5 14 -9 24 -9 10 0
34 -9 52 -20 18 -10 59 -22 91 -26 48 -6 58 -4 63 10 9 24 -22 54 -70 67 l-41
11 26 13 c21 11 25 19 21 44 -2 17 -10 31 -17 31 -15 0 -65 38 -65 49 0 5 18
11 40 15 39 6 40 7 40 47 0 24 -4 38 -10 34 -6 -4 -10 11 -10 38 0 32 -5 47
-16 51 -19 7 -34 -1 -34 -18 0 -20 -45 -8 -70 19 -12 13 -23 38 -23 57 -2 33
-2 33 48 36 39 2 56 -2 73 -16 13 -11 38 -23 57 -26 58 -11 71 -59 29 -109
-18 -21 -23 -36 -19 -51 4 -12 9 -36 12 -54 3 -19 11 -36 19 -39 10 -3 10 -9
2 -22 -12 -20 15 -82 57 -127 14 -15 25 -33 25 -40 0 -29 57 -72 104 -79 32
-5 56 -17 76 -36 16 -16 38 -29 50 -29 26 0 62 -18 73 -36 4 -8 14 -14 22 -14
23 0 74 -34 86 -57 7 -13 18 -23 25 -23 6 0 14 -8 18 -17 3 -10 9 -24 12 -30
12 -26 -25 -12 -75 28 -28 22 -51 38 -51 35 0 -6 -70 23 -165 69 -77 37 -208
61 -285 52 -78 -9 -203 -45 -265 -76 -33 -17 -66 -31 -72 -31 -7 0 -13 -4 -13
-10 0 -5 -6 -10 -13 -10 -7 0 -29 -14 -49 -30 -20 -17 -51 -33 -68 -37 -30 -6
-32 -5 -25 18 4 13 14 29 22 34 9 6 28 20 43 33 15 12 32 22 37 22 6 0 18 9
28 20 10 11 24 20 30 20 7 0 39 16 71 35 32 19 65 35 74 35 24 0 60 29 60 49
0 12 -9 21 -27 24 -16 3 -64 15 -108 26 -44 11 -111 25 -150 32 -38 6 -82 18
-97 25 -15 8 -40 14 -55 14 -54 0 -179 51 -223 91 -24 22 -46 39 -50 39 -3 0
-17 11 -30 25 -13 14 -28 25 -34 25 -7 0 -20 16 -31 36 -10 19 -27 40 -37 45
-10 5 -18 16 -18 23 0 8 -7 19 -15 26 -8 7 -15 20 -15 29 0 9 -5 22 -12 29
-24 24 -43 92 -68 235 -20 116 18 208 121 290 29 23 65 52 78 65 54 50 160 82
268 82 52 0 187 -28 246 -52 33 -13 52 0 43 29 -7 21 -82 56 -161 73 -27 6
-58 16 -68 21 -32 18 -111 22 -172 9 -64 -13 -184 -66 -252 -112 -49 -33 -49
-33 -57 -12 -8 20 40 101 64 109 10 3 29 16 42 28 30 28 154 65 278 84 83 13
105 13 195 -1 55 -9 118 -20 140 -25 22 -6 65 -15 95 -22 30 -7 62 -17 70 -24
20 -17 58 -28 70 -20 12 7 -15 65 -30 65 -5 0 -33 11 -62 24 -29 12 -87 33
-128 45 -41 12 -89 26 -106 32 -43 13 -168 28 -237 29 -39 0 -56 4 -52 11 4 6
10 8 13 5 3 -3 12 0 21 8 65 56 268 66 476 24z m5143 -9 c34 -6 -3 -25 -78
-39 -51 -10 -87 -23 -95 -33 -7 -9 -19 -17 -27 -17 -27 0 -90 -64 -114 -117
-30 -64 -32 -109 -5 -116 16 -4 25 6 45 47 39 79 82 120 154 144 85 30 214 30
297 1 74 -26 125 -56 125 -74 0 -8 25 -39 55 -70 51 -51 65 -78 48 -88 -14 -8
-55 13 -60 31 -2 10 -46 38 -104 66 -97 48 -100 49 -172 43 -103 -8 -138 -21
-195 -75 -57 -54 -81 -109 -83 -195 -2 -51 2 -63 31 -105 19 -26 37 -49 41
-52 3 -3 19 -14 34 -25 97 -71 104 -87 49 -110 -47 -20 -217 -30 -269 -17 -67
18 -135 44 -135 52 0 4 -13 13 -28 19 -16 7 -36 25 -46 41 -25 43 -65 41 -100
-5 -15 -19 -33 -35 -40 -35 -7 0 -25 -9 -39 -20 -55 -44 -172 -70 -234 -54
-31 9 -30 44 2 74 14 14 48 70 74 125 70 146 81 173 81 198 1 43 27 122 40
122 14 0 24 -30 35 -107 5 -39 10 -48 26 -48 10 0 19 6 20 13 0 6 3 39 5 72 5
81 22 140 58 200 16 28 36 60 43 73 25 41 105 54 83 14 -42 -78 -91 -235 -84
-274 12 -72 14 -78 33 -78 20 0 39 49 27 69 -8 12 10 104 28 144 7 18 19 47
26 65 7 17 16 32 20 32 4 0 24 16 44 35 66 62 251 97 384 74z m1101 -48 c26
-36 27 -85 3 -129 -15 -29 -32 -40 -132 -79 -63 -25 -122 -52 -131 -59 -8 -8
-23 -14 -32 -14 -9 0 -24 -8 -34 -19 -10 -10 -28 -21 -40 -24 -35 -8 -31 41 7
83 16 18 37 54 47 79 10 25 28 61 40 80 13 19 23 38 23 42 0 5 17 9 39 9 24 0
51 9 73 24 69 46 108 48 137 7z m-8855 13 c20 -8 21 -55 3 -140 -10 -46 -22
-71 -47 -97 -18 -20 -37 -34 -42 -31 -4 3 -8 -2 -8 -10 0 -9 -7 -16 -16 -16
-12 0 -14 8 -9 43 3 23 7 78 10 122 3 74 6 82 35 107 31 28 46 33 74 22z
m6171 -49 c55 -13 105 -31 111 -40 6 -8 21 -15 32 -15 11 0 24 -5 27 -11 5 -7
-4 -8 -27 -5 -120 21 -161 24 -219 16 -83 -12 -108 -19 -141 -42 -14 -10 -32
-18 -40 -18 -7 0 -42 -25 -76 -55 -35 -30 -67 -55 -71 -55 -4 0 -19 -17 -32
-37 -14 -21 -47 -68 -72 -106 -26 -37 -47 -71 -47 -77 0 -34 77 -11 86 25 3
14 16 26 30 29 13 4 24 13 24 20 0 18 51 76 66 76 7 0 37 20 67 45 31 25 65
45 76 45 11 0 43 9 71 20 38 15 74 20 145 20 101 0 120 -5 230 -64 49 -27 136
-99 149 -124 23 -45 63 -154 75 -204 14 -58 14 -135 1 -143 -19 -12 -50 -94
-50 -132 0 -40 -39 -135 -70 -168 -10 -11 -21 -30 -25 -43 -3 -12 -20 -37 -36
-55 -17 -17 -46 -56 -65 -84 -19 -29 -39 -53 -44 -53 -5 0 -21 -11 -37 -24
-15 -13 -57 -36 -93 -50 -36 -15 -74 -31 -85 -35 -11 -5 -42 -14 -70 -21 -27
-6 -57 -13 -65 -15 -75 -20 -165 -38 -210 -43 -50 -6 -55 -9 -58 -34 -2 -18 2
-28 15 -32 37 -11 173 -36 194 -36 12 0 37 -11 55 -25 18 -14 39 -25 48 -25 8
0 21 -6 28 -13 13 -12 80 -47 92 -47 11 0 126 -83 126 -92 0 -4 11 -14 25 -20
13 -6 27 -19 30 -28 3 -9 21 -26 40 -36 19 -10 35 -24 35 -31 0 -7 33 -46 73
-88 90 -95 123 -134 131 -160 3 -11 20 -28 36 -37 17 -9 34 -28 39 -42 9 -22
68 -76 84 -76 4 0 17 -9 29 -20 116 -103 152 -122 234 -124 51 -1 68 3 91 21
15 13 40 30 55 38 37 21 75 59 94 98 14 25 16 49 11 126 -6 85 -9 98 -34 123
-15 15 -32 28 -38 28 -6 0 -26 16 -45 35 -19 19 -40 35 -48 35 -7 0 -34 12
-59 27 -40 23 -57 27 -125 27 -51 0 -82 -5 -87 -12 -7 -13 -51 -28 -106 -38
-16 -3 -31 -9 -33 -15 -2 -5 -17 -9 -33 -9 -23 0 -29 4 -29 23 0 12 -8 38 -19
58 -42 78 -59 207 -30 225 5 3 9 22 9 43 0 48 34 89 92 112 60 23 84 68 68
124 -7 22 -16 45 -20 50 -18 23 -30 298 -14 314 9 9 118 19 209 20 78 1 96 -3
133 -24 l42 -24 24 37 c13 20 27 54 30 74 6 35 9 37 42 36 23 -1 39 5 48 17
12 16 30 18 215 16 172 -2 209 0 249 15 78 29 116 59 137 104 25 56 14 73 -54
81 -29 4 -60 13 -69 21 -9 8 -25 18 -35 21 -13 5 -17 15 -15 34 3 26 5 28 48
24 25 -1 52 -9 61 -17 8 -8 21 -14 27 -14 6 0 15 -8 21 -17 8 -15 13 -16 28
-5 35 24 44 24 97 2 52 -21 76 -48 76 -86 0 -22 39 -75 53 -73 7 1 29 1 50 0
28 -1 37 -5 37 -19 0 -34 -29 -60 -82 -72 -48 -12 -53 -11 -68 8 -13 16 -20
18 -29 9 -16 -16 -13 -46 8 -92 10 -22 21 -60 25 -85 4 -25 14 -65 22 -90 9
-25 18 -58 20 -75 2 -16 10 -66 18 -110 18 -95 20 -155 6 -155 -5 0 -10 -7
-10 -14 0 -14 -41 -66 -53 -66 -2 0 -8 17 -13 38 -4 20 -8 39 -9 42 -1 3 -5
23 -10 45 -4 22 -16 51 -26 64 -11 13 -19 29 -19 36 0 14 -63 82 -99 107 -45
32 -68 -6 -33 -53 23 -31 42 -75 42 -98 0 -10 8 -29 19 -42 16 -21 61 -213 61
-261 0 -21 -20 -28 -42 -14 -9 6 -19 8 -21 6 -2 -3 -1 -59 4 -125 5 -65 7
-121 5 -123 -8 -8 -56 93 -56 118 0 16 -3 30 -7 32 -5 2 -24 37 -43 78 -54
115 -156 243 -190 237 -25 -4 -23 -43 4 -74 14 -15 42 -46 61 -68 20 -22 39
-51 42 -65 3 -14 14 -41 25 -60 10 -19 18 -42 18 -50 0 -23 30 -104 41 -110 8
-5 15 -33 48 -182 5 -25 3 -53 -9 -92 -10 -30 -21 -71 -24 -91 -4 -21 -13 -35
-21 -35 -8 0 -18 -1 -22 -2 -5 -2 -11 44 -14 102 -8 120 -27 210 -50 237 -9
10 -26 36 -37 58 -30 57 -152 175 -186 179 -15 1 -33 12 -41 23 -15 21 -89 48
-105 38 -28 -17 12 -65 55 -65 11 0 37 -16 59 -35 21 -19 43 -35 50 -35 6 -1
28 -28 50 -60 21 -33 42 -60 47 -60 11 0 65 -108 73 -148 4 -17 12 -34 17 -37
13 -8 11 -143 -2 -207 -6 -29 -18 -64 -27 -78 -28 -42 -41 -64 -53 -90 -37
-79 -48 -96 -84 -135 -42 -45 -115 -77 -115 -50 0 19 28 83 40 90 5 3 10 15
10 27 0 11 11 41 24 67 31 61 49 118 41 131 -4 6 -2 17 5 24 19 24 10 155 -14
201 -11 22 -25 56 -31 75 -7 22 -18 36 -30 39 -19 3 -99 66 -140 110 -11 12
-29 29 -39 39 -11 9 -41 36 -66 60 -51 46 -90 55 -90 22 0 -12 11 -31 23 -43
56 -52 184 -167 210 -187 15 -12 27 -30 27 -40 0 -10 8 -25 18 -32 10 -7 27
-35 37 -62 17 -43 17 -57 7 -130 -7 -45 -12 -94 -12 -109 0 -15 -13 -53 -29
-85 -15 -31 -31 -70 -35 -87 -8 -30 -112 -144 -133 -145 -6 0 -20 -11 -31 -24
-10 -13 -38 -29 -61 -36 -23 -6 -50 -20 -59 -31 -14 -16 -30 -19 -102 -19
-184 0 -490 42 -490 67 0 8 -12 13 -29 13 -16 0 -37 7 -45 16 -9 8 -42 29 -74
46 -31 16 -64 38 -73 48 -9 11 -27 22 -40 25 -15 4 -31 21 -42 43 -17 36 -64
72 -93 72 -7 0 -19 -9 -26 -20 -7 -11 -17 -20 -21 -20 -5 0 -33 -20 -64 -45
-30 -25 -59 -43 -63 -40 -5 3 -11 1 -15 -5 -7 -11 -101 -12 -150 -1 -16 3 -34
16 -41 28 -6 13 -18 31 -27 40 -26 30 -38 74 -38 141 0 72 -12 84 -63 62 -17
-7 -56 -16 -86 -21 -30 -4 -69 -11 -87 -15 -20 -4 -43 -1 -62 9 -17 9 -45 19
-63 22 -50 11 -100 44 -125 81 -18 29 -19 35 -7 52 8 11 27 23 43 27 21 4 28
11 24 21 -4 12 0 14 19 9 28 -7 63 20 109 85 45 62 52 90 34 139 -8 24 -15 50
-15 59 0 8 -6 20 -14 26 -8 6 -18 28 -21 49 l-7 37 65 0 c84 0 107 -9 140 -57
34 -49 44 -84 58 -195 9 -80 9 -91 -10 -134 -44 -98 -10 -131 40 -39 29 53 42
136 43 280 1 85 15 110 29 51 15 -60 57 -45 57 20 0 31 29 33 32 2 0 -13 2
-43 4 -67 2 -24 8 -48 15 -52 22 -13 10 -84 -26 -164 -34 -73 -38 -105 -16
-105 14 0 83 130 93 175 5 22 13 67 19 100 5 33 12 75 15 93 4 18 11 35 17 39
6 4 8 -3 4 -19 -5 -19 1 -32 28 -58 19 -19 35 -43 35 -54 0 -11 5 -46 12 -78
11 -55 14 -58 41 -58 26 0 29 -3 24 -27 -2 -16 -12 -49 -22 -74 -22 -55 -15
-85 14 -70 10 6 22 23 25 37 4 15 16 39 27 52 10 14 19 35 19 48 0 37 31 94
52 94 28 0 48 -42 57 -123 6 -53 17 -90 35 -121 14 -24 26 -51 26 -59 0 -8 9
-22 20 -32 11 -10 20 -23 20 -30 0 -7 14 -31 31 -55 29 -39 33 -42 44 -26 11
14 9 26 -7 68 -10 28 -28 62 -39 76 -10 14 -19 30 -19 37 0 7 -7 26 -15 41
-19 37 -19 83 0 90 18 7 64 -21 72 -44 4 -9 19 -32 35 -50 15 -18 28 -39 28
-46 0 -19 103 -122 142 -142 18 -9 38 -23 46 -30 7 -8 18 -14 23 -14 6 0 30
-13 54 -30 24 -16 47 -30 51 -30 4 0 12 -7 18 -15 12 -16 167 -32 210 -21 64
16 4 85 -79 92 -26 2 -62 13 -80 24 -18 11 -39 20 -47 20 -14 0 -78 56 -78 69
0 3 -13 12 -30 19 -16 8 -30 20 -30 27 0 8 -9 17 -20 20 -11 3 -20 11 -20 16
0 5 -17 27 -37 48 -21 21 -66 68 -101 105 -58 61 -139 129 -198 166 -13 8 -29
27 -35 42 -24 57 -178 175 -246 187 -25 5 -50 16 -55 25 -5 9 -16 16 -25 16
-9 0 -30 9 -47 20 -77 47 -224 62 -456 46 -94 -7 -130 0 -116 23 4 6 20 11 36
11 16 0 47 6 67 14 21 8 60 17 86 20 27 3 61 15 76 25 15 11 48 25 73 31 26 7
56 21 67 32 12 11 47 23 80 29 65 10 119 32 168 67 17 12 36 22 43 22 7 0 26
10 43 23 18 12 45 29 61 38 17 9 35 24 40 34 6 10 33 41 59 68 26 28 56 64 65
81 9 17 25 37 34 44 59 44 127 195 141 314 10 80 9 90 -12 138 -68 157 -144
230 -243 230 -72 0 -184 -48 -240 -103 -26 -26 -48 -54 -48 -61 0 -7 -10 -22
-21 -35 -43 -46 -31 -224 18 -282 14 -17 102 -63 141 -74 61 -18 -6 -102 -107
-135 -65 -20 -76 -21 -156 -11 -95 13 -117 22 -154 64 -13 16 -35 33 -48 38
-12 5 -23 17 -23 26 0 10 -9 35 -20 56 -12 21 -19 46 -16 55 7 21 -4 39 -24
43 -25 4 -70 -12 -83 -30 -6 -10 -31 -28 -54 -41 -38 -21 -49 -22 -110 -15
-37 4 -84 9 -103 10 -19 1 -49 11 -66 21 -34 21 -87 79 -97 107 -4 10 -10 16
-15 13 -4 -2 -14 -1 -22 4 -11 7 -11 15 4 48 10 23 15 49 12 60 -9 26 11 217
24 242 6 11 26 21 52 25 187 29 278 56 331 98 61 48 94 67 117 67 25 0 25 2
-5 -51 -14 -24 -28 -51 -31 -59 -28 -69 -64 -159 -64 -163 0 -3 7 -8 16 -11
21 -8 42 9 59 51 21 50 74 109 133 149 29 20 56 42 59 50 3 8 11 14 18 14 7 0
15 4 17 8 8 20 150 102 208 120 36 12 72 23 80 26 36 11 112 4 205 -19z
m-5355 -30 c7 -8 18 -15 25 -15 16 0 115 -133 130 -175 18 -49 35 -75 50 -75
25 0 27 45 5 119 -12 40 -20 74 -17 77 12 12 48 -9 73 -42 15 -19 31 -55 35
-81 10 -54 21 -68 43 -60 11 4 16 19 16 47 0 22 4 40 10 40 14 0 90 -72 90
-86 0 -6 9 -19 19 -28 11 -10 29 -39 41 -64 32 -68 65 -112 97 -131 27 -17 28
-21 29 -94 0 -41 -3 -74 -7 -71 -4 2 -10 0 -14 -6 -18 -28 -97 17 -116 67 -5
14 -17 23 -29 23 -21 0 -23 -6 -20 -53 1 -22 -2 -28 -16 -25 -9 1 -20 10 -24
18 -30 65 -38 75 -59 78 -25 4 -25 11 -5 -88 5 -26 3 -31 -21 -40 -48 -18
-155 -4 -155 21 0 12 -65 22 -95 15 -14 -4 -25 -12 -25 -19 0 -6 -14 -27 -30
-45 -16 -19 -32 -42 -35 -52 -3 -10 -32 -33 -63 -51 -31 -17 -61 -38 -67 -46
-14 -19 -218 -23 -237 -5 -11 11 -6 20 27 50 89 82 165 176 185 229 24 63 26
150 6 208 -8 22 -17 51 -20 65 -3 14 -19 41 -36 60 -16 19 -34 40 -40 47 -5 7
-10 17 -10 22 0 6 -17 15 -37 21 -21 6 -47 17 -57 25 -32 25 -144 19 -236 -11
-66 -22 -80 -31 -90 -55 -7 -16 -16 -29 -20 -29 -13 0 -80 -96 -80 -114 0 -9
-4 -16 -8 -16 -28 0 -37 -115 -12 -146 8 -8 21 -12 35 -8 32 8 38 -8 21 -58
-8 -24 -20 -83 -26 -133 -14 -112 -30 -125 -90 -69 -32 30 -110 88 -147 109
-15 8 -41 24 -58 35 -16 11 -34 22 -40 24 -38 14 -128 36 -169 40 -27 3 -51 8
-54 10 -2 3 15 10 39 16 52 14 172 8 214 -10 60 -26 131 -49 152 -50 34 0 52
46 63 161 5 55 16 112 25 127 8 15 21 44 30 65 8 22 23 41 32 44 10 2 27 19
38 36 18 28 63 60 125 89 15 7 80 12 161 12 l136 1 52 -32 c56 -35 105 -43
115 -18 15 39 66 -6 88 -77 12 -41 39 -64 64 -54 24 9 16 76 -17 144 -18 39
-28 70 -24 82 8 24 18 25 35 5z m-1507 -79 c-3 -38 22 -84 65 -122 21 -18 33
-35 28 -42 -15 -25 -236 -5 -268 25 -20 18 -33 72 -24 106 4 19 20 29 68 45
35 11 79 20 98 19 32 -2 35 -4 33 -31z m5386 -3 c35 -14 93 -30 128 -35 79
-14 84 -26 54 -146 -23 -94 -41 -120 -92 -131 -57 -12 -78 -1 -117 64 -20 33
-51 84 -71 114 -23 37 -36 70 -39 104 -7 75 10 79 137 30z m517 -14 c13 -22
-24 -40 -97 -48 -41 -5 -79 -6 -86 -2 -26 14 7 33 71 41 37 5 70 11 73 14 10
10 31 7 39 -5z m4431 -74 c32 -8 94 -32 138 -54 44 -21 91 -42 105 -46 14 -4
54 -24 90 -43 36 -20 81 -44 100 -54 19 -10 38 -25 43 -33 4 -8 19 -15 32 -15
26 0 185 -79 185 -92 0 -21 -153 3 -273 43 -49 16 -94 29 -101 29 -20 0 -136
56 -186 89 -25 17 -49 31 -53 31 -5 0 -23 11 -41 25 -18 14 -38 25 -44 25 -6
0 -24 11 -39 25 -15 14 -44 38 -63 55 l-35 29 42 1 c23 0 68 -7 100 -15z
m-598 -83 c39 -16 87 -43 106 -60 19 -18 38 -32 42 -33 16 -1 157 -178 173
-216 11 -27 48 -31 57 -7 8 21 -30 93 -84 162 -42 51 -54 82 -33 82 6 0 10 -4
10 -10 0 -5 7 -7 14 -4 8 3 24 -5 36 -18 11 -12 38 -42 59 -65 21 -24 44 -58
51 -75 19 -54 26 -63 46 -63 27 0 26 31 -2 100 -24 59 -31 105 -16 105 24 0
181 -150 182 -174 0 -4 11 -21 24 -36 18 -22 25 -46 31 -107 5 -43 7 -91 6
-108 -5 -88 -52 -284 -75 -314 -13 -17 -33 -50 -45 -78 -7 -16 -25 -24 -66
-33 -41 -8 -60 -18 -72 -37 -21 -31 -130 -103 -158 -103 -12 0 -26 -5 -32 -11
-13 -13 -81 -29 -98 -22 -31 11 -26 36 25 134 4 8 16 48 25 88 16 64 17 83 6
153 -7 43 -21 100 -32 124 -10 25 -19 59 -19 74 0 16 -4 32 -10 35 -5 3 -10
12 -10 19 0 27 -56 134 -90 171 -42 47 -88 91 -106 102 -10 7 -41 27 -68 45
-47 31 -54 32 -150 33 -90 0 -107 -3 -158 -27 -32 -15 -70 -31 -85 -34 -16 -4
-37 -13 -48 -20 -31 -20 -70 -22 -69 -4 2 28 54 101 79 110 14 5 43 18 66 29
71 34 137 44 214 33 37 -6 71 -15 74 -20 3 -5 28 -14 56 -21 27 -7 68 -25 91
-41 23 -15 51 -31 61 -34 11 -3 44 -30 75 -59 77 -73 118 -101 130 -89 15 15
-15 75 -51 103 -18 13 -59 49 -92 79 -33 31 -92 73 -132 95 -88 47 -82 42 -67
60 18 22 50 19 129 -13z m-983 -64 c15 -18 30 -32 33 -30 3 1 10 -13 14 -30 5
-18 19 -43 32 -55 45 -43 40 -128 -7 -121 -16 2 -29 22 -52 79 -17 42 -36 83
-42 90 -6 8 -15 24 -18 37 -4 12 -12 22 -17 22 -5 0 -9 9 -9 20 0 31 34 24 66
-12z m-7628 10 c7 -7 31 -18 54 -23 39 -10 43 -15 69 -75 38 -88 37 -119 -6
-179 -19 -26 -35 -53 -35 -58 0 -5 -21 -29 -46 -53 -40 -38 -52 -44 -100 -48
-100 -8 -112 -70 -35 -177 27 -37 33 -40 76 -40 37 0 50 -4 59 -20 16 -30 27
-35 72 -35 63 0 100 10 125 34 23 21 43 34 88 58 36 19 79 63 90 90 9 24 43
38 92 38 22 0 73 -97 84 -157 4 -24 17 -53 32 -67 26 -26 38 -24 83 11 26 20
108 34 234 39 67 2 139 7 160 10 l39 5 -6 -88 c-7 -91 -29 -173 -65 -233 -12
-19 -24 -54 -28 -77 l-7 -43 61 0 c88 0 122 -24 173 -126 l40 -80 0 -137 c-1
-117 -4 -143 -21 -175 -11 -20 -20 -42 -20 -49 0 -21 -45 -24 -46 -3 -2 26
-16 60 -25 60 -4 0 -23 13 -41 28 -48 41 -105 64 -162 67 -28 1 -56 4 -61 6
-6 2 -21 -6 -34 -18 -13 -12 -36 -25 -52 -28 -49 -11 -169 -161 -169 -211 0
-13 -5 -34 -11 -48 -9 -20 -8 -43 6 -111 10 -47 22 -85 26 -85 4 0 11 -9 14
-20 7 -22 102 -120 117 -120 5 0 28 -9 51 -21 96 -47 263 -31 322 31 29 30 59
39 70 20 12 -20 77 -11 111 15 31 24 104 122 104 141 0 5 25 35 55 68 30 32
55 65 55 73 0 8 12 29 26 46 l26 31 -6 -89 c-7 -98 0 -127 26 -98 19 22 40
114 39 166 -1 43 21 75 36 54 5 -7 10 -40 12 -74 1 -34 8 -74 16 -90 8 -15 15
-39 15 -53 0 -29 54 -94 73 -87 6 2 14 12 16 22 3 20 -17 92 -32 112 -14 20
-20 186 -7 234 6 24 25 71 41 105 24 50 36 63 63 71 53 16 59 7 50 -86 -5 -68
-4 -89 11 -121 20 -44 39 -51 55 -19 9 16 9 28 -1 50 -13 33 -6 126 11 143 5
5 10 19 10 29 0 10 7 31 15 45 8 15 19 39 24 53 5 15 25 33 45 43 20 9 36 21
36 26 0 5 14 16 30 25 27 14 30 14 30 -1 0 -8 -16 -52 -35 -95 -29 -66 -35
-92 -35 -150 0 -65 3 -73 38 -122 21 -29 41 -60 45 -70 9 -24 55 -41 73 -26
21 18 -6 95 -54 151 -12 14 -13 33 -9 85 8 90 29 145 61 163 43 25 51 4 31
-78 -16 -66 -15 -162 2 -162 10 0 43 32 43 42 0 20 27 36 52 31 20 -4 25 -10
23 -25 -4 -17 1 -19 33 -17 46 2 89 -14 118 -46 13 -14 31 -25 40 -25 9 0 31
-11 48 -24 17 -13 58 -37 91 -55 86 -46 102 -77 35 -68 -54 7 -126 43 -179 89
-24 21 -49 38 -56 38 -6 0 -20 9 -30 20 -11 12 -31 20 -51 20 -18 0 -36 5 -39
10 -6 10 -103 5 -114 -5 -3 -3 3 -21 13 -40 10 -18 16 -38 12 -43 -19 -31 73
-148 126 -159 15 -3 32 -11 38 -19 15 -17 9 -65 -10 -74 -60 -31 -107 -43
-158 -42 -82 1 -210 30 -244 55 -40 29 -58 15 -82 -62 -10 -34 -29 -73 -42
-86 -13 -13 -24 -34 -24 -46 0 -24 -49 -74 -83 -85 -12 -4 -36 -18 -54 -31
-17 -13 -55 -28 -85 -33 -45 -8 -65 -5 -138 17 -52 17 -92 35 -102 49 -10 12
-31 27 -47 34 -26 10 -33 9 -62 -12 -19 -12 -39 -28 -46 -35 -7 -6 -22 -15
-33 -18 -11 -3 -20 -10 -20 -14 0 -15 -76 -49 -125 -56 -27 -3 -71 -13 -97
-22 -53 -17 -264 -15 -276 2 -4 6 -26 17 -50 25 -23 7 -47 19 -53 27 -6 7 -16
13 -22 13 -19 0 -117 71 -117 85 0 7 -11 26 -24 42 -13 15 -27 48 -31 73 -4
24 -17 62 -29 85 -18 35 -21 56 -20 171 1 126 2 134 29 180 25 43 82 103 191
201 43 39 42 67 -1 71 -30 2 -30 2 -162 -119 -39 -36 -125 -148 -142 -184 -7
-16 -16 -78 -19 -137 -3 -79 -8 -108 -18 -108 -15 0 -44 27 -45 43 -4 45 1
129 10 144 5 11 12 40 15 65 3 25 17 63 31 83 26 39 32 70 15 80 -26 16 -63
-36 -117 -162 -10 -23 -22 -41 -28 -39 -13 4 -8 130 7 176 25 79 79 182 120
227 70 77 161 163 191 179 34 18 33 47 -2 52 -13 2 -36 -6 -52 -17 -15 -12
-32 -21 -37 -21 -5 0 -17 -9 -27 -20 -10 -11 -24 -20 -32 -20 -7 0 -13 -4 -13
-8 0 -4 -25 -34 -56 -67 -107 -114 -145 -167 -162 -225 -45 -149 -48 -155 -70
-158 -24 -4 -25 -2 -22 87 1 30 6 66 12 80 5 14 14 50 19 80 10 64 54 182 83
226 12 17 32 55 46 85 14 30 35 66 47 80 13 14 23 30 23 36 0 7 12 19 26 29
27 18 58 79 50 100 -10 26 -52 3 -91 -50 -22 -30 -43 -54 -47 -55 -5 0 -8 -6
-8 -13 0 -8 -19 -34 -42 -58 -46 -47 -75 -93 -131 -205 -41 -81 -63 -106 -78
-83 -12 19 -12 116 1 124 5 3 23 33 40 66 31 62 85 137 108 152 6 4 12 13 12
20 0 7 11 29 25 49 33 48 32 74 0 81 -21 3 -29 -1 -40 -24 -8 -15 -23 -34 -32
-41 -20 -15 -38 -41 -53 -76 -5 -12 -19 -32 -30 -44 -11 -12 -20 -28 -20 -35
0 -7 -4 -13 -10 -13 -5 0 -10 -6 -10 -12 -1 -7 -14 -28 -30 -47 -20 -23 -34
-32 -46 -27 -25 10 -14 133 20 214 31 73 34 115 9 110 -10 -2 -28 -21 -40 -43
-52 -94 -54 -96 -75 -93 -20 3 -33 23 -78 117 -11 24 -27 49 -34 56 -41 42
-59 405 -23 472 9 18 17 40 17 50 0 20 50 124 65 135 6 4 14 8 18 8 10 0 0
-87 -20 -165 -27 -113 -34 -208 -16 -226 19 -19 40 6 46 54 10 93 39 214 58
240 11 15 27 47 35 70 14 40 47 76 70 77 5 0 16 -6 22 -12z m-1624 -37 c7 -10
-64 -41 -95 -41 -11 0 -37 -11 -57 -25 -20 -14 -41 -25 -46 -25 -5 0 -17 -7
-26 -15 -9 -8 -31 -16 -50 -17 -29 -3 -35 0 -35 17 0 14 8 21 27 23 15 2 41
16 59 33 17 16 41 29 53 30 11 0 41 6 66 13 55 16 97 19 104 7z m13515 -78
c29 -8 61 -23 70 -32 10 -10 39 -28 65 -41 28 -13 60 -40 78 -64 29 -40 30
-43 24 -126 -3 -47 -6 -93 -6 -102 0 -10 -4 -18 -9 -18 -4 0 -11 32 -14 71 -3
39 -10 76 -15 82 -5 7 -15 29 -21 50 -7 20 -17 37 -22 37 -5 0 -9 8 -9 19 0
24 -19 39 -58 47 -24 5 -32 2 -41 -14 -17 -32 -13 -49 19 -85 17 -20 30 -46
30 -61 0 -15 7 -43 15 -63 21 -49 19 -111 -5 -156 -11 -20 -20 -46 -20 -57 0
-11 -12 -47 -27 -80 -21 -49 -32 -61 -59 -70 -40 -14 -54 -7 -54 25 0 25 23
55 43 56 15 0 52 47 61 77 7 21 4 22 -38 22 -44 0 -46 2 -65 43 -21 45 -39 64
-83 86 -32 16 -160 10 -183 -9 -10 -8 -30 -10 -64 -5 -47 6 -50 5 -63 -21 -19
-39 -35 -40 -40 -2 -10 66 43 156 108 183 55 23 132 28 216 14 76 -12 83 -15
127 -61 25 -26 52 -48 59 -48 21 0 13 45 -14 86 -69 102 -94 118 -197 132 -53
7 -70 4 -122 -16 -33 -13 -64 -28 -69 -33 -6 -5 -18 -9 -28 -9 -9 0 -21 -6
-25 -13 -13 -22 -91 -69 -102 -62 -16 9 21 74 67 117 50 46 107 76 202 104 84
25 172 24 269 -3z m-12914 -23 c-3 -5 -16 -10 -28 -10 -18 0 -19 2 -7 10 20
13 43 13 35 0z m8845 -5 c0 -8 -4 -15 -10 -15 -5 0 -10 7 -10 15 0 8 5 15 10
15 6 0 10 -7 10 -15z m5118 -37 c36 -169 37 -246 4 -316 -13 -30 -32 -56 -41
-59 -9 -3 -38 -16 -66 -28 -27 -13 -65 -26 -83 -29 -31 -5 -33 -4 -26 17 14
47 33 87 67 139 43 67 52 94 36 104 -13 8 -109 -91 -109 -112 0 -6 -9 -19 -19
-28 -11 -10 -25 -31 -32 -48 -13 -32 -65 -88 -81 -88 -5 0 -13 -11 -18 -25 -9
-25 -30 -35 -30 -15 0 6 23 58 50 115 28 57 50 114 50 125 0 35 -34 24 -53
-17 -9 -21 -30 -60 -47 -88 -17 -27 -39 -69 -51 -92 -11 -22 -38 -60 -60 -84
-21 -23 -39 -49 -39 -57 0 -9 -11 -34 -24 -56 -13 -23 -30 -70 -36 -105 -13
-73 -35 -107 -104 -162 -50 -40 -92 -50 -102 -24 -8 20 15 185 29 210 15 26
16 67 4 83 -15 19 -55 -23 -63 -67 -7 -41 -33 -120 -45 -137 -5 -6 -8 -26 -7
-45 1 -34 -16 -79 -30 -79 -22 1 -35 25 -46 91 -11 67 -11 81 7 144 10 39 30
93 42 120 13 28 26 61 29 75 12 48 44 74 89 71 24 -1 63 -93 72 -169 4 -34 13
-66 21 -73 8 -6 14 -20 14 -30 0 -28 21 -34 40 -12 13 17 15 32 10 72 -6 44
-3 54 15 71 12 11 27 20 33 20 7 0 12 9 12 19 0 11 4 22 9 26 6 3 13 27 16 53
12 87 100 272 130 272 8 0 20 8 27 18 7 10 31 31 53 47 21 17 46 36 55 43 128
108 212 161 256 162 29 0 31 -3 42 -52z m-16978 15 c30 -9 62 -22 70 -28 8 -6
28 -16 43 -23 44 -19 127 -102 155 -157 38 -72 43 -98 36 -208 -5 -78 -10
-100 -23 -105 -21 -8 -31 -22 -31 -49 0 -18 -6 -23 -26 -23 -24 0 -25 3 -19
28 13 49 15 226 3 267 -11 41 -75 145 -89 145 -4 0 -14 6 -21 14 -8 8 -47 31
-87 52 -90 47 -164 55 -273 29 -73 -18 -164 -61 -189 -91 -7 -9 -24 -20 -36
-25 -13 -5 -26 -17 -30 -26 -10 -28 -101 -115 -112 -108 -6 3 -11 -2 -12 -12
0 -16 -2 -15 -10 3 -28 57 122 227 261 295 102 50 267 59 390 22z m2689 -10
c-8 -15 -40 -54 -71 -86 -56 -56 -83 -112 -71 -143 8 -21 25 -17 55 14 15 15
51 51 80 80 49 50 77 61 85 35 2 -6 -12 -27 -31 -46 -19 -19 -46 -53 -60 -75
-14 -22 -30 -43 -36 -47 -12 -7 -13 -42 -2 -49 16 -9 51 6 57 25 4 10 11 19
16 19 19 0 8 -44 -21 -80 -45 -57 -91 -206 -101 -329 -9 -114 -5 -144 22 -199
21 -41 23 -51 10 -71 -14 -22 -51 19 -57 65 -10 75 -27 116 -53 125 -17 7 -27
6 -33 -3 -13 -21 -9 -76 8 -116 17 -39 44 -122 44 -134 0 -17 -22 -6 -50 25
-16 17 -32 48 -35 67 -3 19 -10 60 -16 90 -5 30 -13 104 -17 164 -4 70 -11
111 -19 113 -23 8 -46 -47 -51 -123 -3 -41 -8 -77 -13 -80 -16 -9 -24 49 -27
204 -2 48 -6 64 -18 69 -10 4 -22 -1 -29 -11 -13 -18 -35 -143 -35 -201 0 -28
-4 -35 -19 -35 -28 0 -37 18 -50 95 -26 164 -17 299 24 361 10 15 19 49 21 76
3 40 9 55 34 78 16 15 30 33 30 39 0 17 60 45 125 57 33 7 62 10 64 9 4 -5
-46 -73 -87 -116 -36 -39 -55 -110 -32 -124 7 -4 55 38 130 114 65 67 125 121
133 121 9 0 28 11 44 24 29 24 55 36 62 30 2 -2 -2 -16 -10 -31z m-3976 -69
c9 -82 33 -182 48 -201 16 -18 35 -16 44 5 5 9 9 56 10 105 1 48 5 90 8 94 10
9 37 -17 57 -57 12 -23 35 -45 67 -62 28 -16 69 -52 98 -88 28 -34 55 -67 61
-74 6 -7 14 -30 17 -52 10 -77 31 -164 40 -164 5 0 6 -17 2 -38 -13 -77 49
-101 92 -35 21 33 91 103 103 103 12 0 31 -27 29 -42 -5 -24 12 -97 26 -108 7
-6 20 -8 29 -4 13 5 16 23 16 106 0 97 0 99 22 96 24 -3 66 -74 67 -112 1 -11
7 -27 15 -35 7 -9 21 -43 31 -76 10 -33 29 -81 42 -107 16 -33 23 -65 23 -104
0 -55 -6 -74 -73 -211 -6 -13 -17 -23 -24 -23 -17 0 -73 59 -73 77 0 13 -60
73 -73 73 -4 0 -21 16 -38 35 -33 37 -49 38 -49 2 0 -21 9 -35 83 -122 15 -18
34 -49 42 -69 8 -20 20 -36 25 -36 17 0 12 -50 -5 -51 -8 -1 -21 -2 -27 -3
-16 -3 -93 75 -112 112 -20 38 -151 161 -189 177 -38 16 -47 12 -47 -20 0 -24
50 -85 69 -85 5 0 22 -16 37 -36 16 -20 41 -50 56 -67 15 -18 39 -47 53 -64
15 -18 32 -33 39 -33 7 0 25 -13 40 -29 28 -29 28 -31 16 -80 -7 -28 -17 -52
-23 -52 -36 -4 -57 10 -118 74 -37 40 -76 81 -86 92 -11 11 -39 46 -62 78 -24
31 -47 57 -51 57 -5 0 -13 13 -18 29 -6 16 -21 35 -34 42 -13 7 -35 24 -49 38
-55 55 -134 121 -145 121 -7 0 -23 9 -36 20 -12 10 -52 42 -88 69 -92 71 -90
69 -90 96 0 15 -15 41 -37 65 -39 41 -198 150 -218 150 -7 0 -23 8 -36 19 -13
10 -40 22 -59 26 -19 4 -44 13 -55 21 -11 7 -47 16 -80 20 -33 4 -69 13 -80
20 -54 34 -149 49 -295 48 -192 -2 -524 -44 -581 -74 -9 -5 -34 -12 -55 -15
-22 -4 -85 -29 -142 -56 -57 -27 -107 -49 -111 -49 -4 0 -18 -12 -32 -26 -23
-25 -92 -64 -113 -64 -5 0 -24 -15 -41 -32 -18 -18 -49 -44 -69 -58 -21 -14
-46 -32 -56 -42 -10 -9 -27 -19 -39 -23 -12 -3 -21 -10 -21 -14 0 -15 -35 -48
-59 -56 -13 -4 -47 -32 -76 -64 -29 -31 -82 -88 -119 -127 -36 -39 -66 -74
-66 -78 0 -4 -16 -23 -35 -42 -20 -19 -33 -39 -30 -44 3 -5 -3 -15 -13 -22
-11 -7 -22 -22 -26 -33 -10 -32 -88 -111 -131 -133 -55 -28 -95 -64 -95 -86 0
-10 -18 -41 -40 -68 -22 -28 -40 -54 -40 -58 0 -9 -134 -150 -143 -150 -3 0
-37 -30 -74 -67 -92 -90 -128 -123 -136 -123 -4 0 -29 -13 -55 -30 -43 -26
-59 -30 -120 -30 -39 0 -105 7 -148 15 -47 9 -82 11 -87 6 -5 -5 -7 -26 -3
-45 6 -33 11 -37 63 -52 45 -13 86 -16 198 -12 80 3 150 10 163 17 40 22 23
-5 -19 -28 -46 -26 -187 -51 -290 -51 -62 0 -69 2 -97 32 -17 17 -28 36 -25
41 4 6 -2 8 -15 5 -14 -4 -22 -2 -22 7 0 7 -24 22 -54 34 -29 12 -65 34 -79
49 -37 40 -77 146 -77 206 0 28 -5 85 -11 127 -16 104 -8 137 53 209 43 50 60
63 104 76 45 13 54 20 64 48 6 19 22 39 38 46 35 18 269 27 285 11 6 -6 18
-11 26 -11 9 0 31 -13 49 -28 101 -82 101 -82 109 -130 11 -67 11 -66 -27 -69
-51 -4 -54 -6 -69 -57 -16 -55 -62 -109 -85 -100 -11 4 -16 0 -16 -14 0 -12
-4 -24 -10 -27 -19 -12 -10 26 20 87 42 84 41 129 -4 163 -41 31 -81 31 -81 0
0 -11 10 -24 22 -30 31 -13 34 -28 19 -72 -15 -43 -8 -42 -161 -28 l-80 8 -43
-47 c-23 -25 -42 -52 -42 -59 0 -29 44 -123 70 -151 19 -19 46 -33 86 -42 66
-15 240 -19 248 -5 3 5 21 12 40 15 19 4 45 15 59 26 14 11 29 20 34 20 5 0
22 13 39 29 16 15 48 38 72 50 35 18 132 104 132 118 0 2 9 14 20 26 12 12 23
32 26 44 3 12 15 25 25 28 11 4 30 28 43 54 14 26 36 52 50 59 14 6 28 23 32
37 3 14 10 25 14 25 4 0 13 13 20 29 12 29 87 118 96 114 17 -11 44 19 91 100
6 12 23 27 37 34 14 8 26 20 26 27 0 7 23 37 50 65 28 28 50 58 50 66 0 17
126 141 173 170 41 26 72 51 116 96 20 20 43 39 51 43 17 8 37 20 98 59 52 34
56 70 9 75 -16 2 -27 8 -24 15 8 25 65 41 167 47 58 3 111 9 118 13 6 5 33 12
60 16 26 5 94 21 152 35 58 15 123 31 145 37 22 5 74 14 115 20 41 5 104 14
140 19 88 12 330 12 382 0 24 -5 85 -19 137 -31 52 -11 111 -29 131 -39 20
-10 77 -26 126 -35 104 -19 137 -33 193 -79 44 -37 124 -57 145 -36 14 14 -11
61 -42 75 -36 16 -55 81 -51 177 3 66 8 89 27 115 12 17 22 35 22 41 0 24 32
83 43 79 7 -2 15 -34 20 -73z m15070 -4 c56 -11 123 -25 149 -31 36 -8 51 -7
67 3 12 7 21 16 21 20 0 13 63 9 91 -6 15 -7 51 -21 80 -30 30 -10 65 -23 79
-30 14 -8 43 -17 65 -21 21 -3 51 -13 65 -20 69 -35 392 -71 423 -47 10 8 155
23 252 26 45 1 43 -28 -7 -124 -43 -84 -109 -150 -148 -150 -41 0 -90 -67 -62
-84 5 -3 40 -8 78 -12 38 -4 76 -13 85 -21 9 -7 49 -20 88 -29 40 -8 82 -21
94 -28 12 -8 60 -26 106 -40 95 -30 117 -49 95 -81 -40 -57 -109 -114 -188
-153 -57 -29 -91 -53 -103 -72 -21 -37 -65 -45 -182 -34 -47 5 -97 7 -111 5
-23 -2 -227 41 -280 59 -14 5 -42 12 -63 16 -22 4 -51 19 -67 34 -16 16 -37
31 -47 34 -31 11 -75 56 -69 71 4 12 12 12 53 -1 26 -9 77 -22 113 -30 36 -8
75 -19 88 -24 40 -18 218 -40 318 -40 194 0 395 48 369 89 -4 8 -31 10 -83 6
-42 -4 -147 -9 -233 -12 -140 -4 -170 -2 -289 21 -143 28 -276 72 -285 95 -6
15 1 14 161 -16 55 -11 134 -21 174 -22 41 -1 78 -5 83 -8 4 -3 46 -7 91 -10
95 -6 129 5 124 40 -3 20 -10 22 -103 28 -103 7 -265 33 -294 48 -9 4 -42 11
-75 14 -32 3 -79 12 -105 21 -25 8 -66 20 -90 27 -24 7 -48 20 -54 29 -6 11
-19 15 -33 12 -13 -2 -24 0 -24 6 0 6 -8 13 -17 16 -10 3 14 3 54 1 82 -6 103
0 103 26 0 20 -15 24 -128 33 -69 6 -168 32 -177 46 -3 5 -23 14 -44 20 -21 5
-54 21 -73 34 -20 13 -53 29 -74 36 -43 14 -64 28 -64 41 0 18 58 9 104 -16
26 -14 60 -25 76 -25 15 0 50 -10 77 -21 26 -12 75 -26 108 -31 89 -13 98 -14
125 -26 14 -6 54 -16 90 -21 56 -9 67 -9 77 5 10 14 12 14 20 0 21 -37 389
-12 432 29 19 18 6 49 -17 40 -24 -9 -315 -6 -392 5 -36 5 -99 14 -141 20 -42
5 -101 16 -130 24 -84 23 -162 46 -184 55 -11 5 -40 16 -65 26 -25 10 -76 31
-113 47 -37 16 -74 31 -82 32 -8 1 -22 9 -32 18 -10 9 -33 20 -52 25 -19 5
-41 19 -49 31 -14 21 -13 22 17 22 18 0 78 -9 134 -20z m-10769 2 c2 -4 -10
-20 -27 -34 -36 -28 -138 -63 -131 -44 6 15 94 73 119 79 32 7 34 7 39 -1z
m9160 -8 c5 -13 15 -15 56 -9 35 5 50 3 50 -5 0 -14 -71 -80 -86 -80 -6 0 -19
-9 -29 -20 -10 -11 -26 -20 -37 -20 -10 0 -26 -9 -35 -20 -24 -27 -30 -25 -36
13 -3 23 4 48 25 89 16 31 35 59 41 62 24 9 45 6 51 -10z m-6433 -13 c0 8 9
-11 21 -41 11 -30 24 -59 29 -64 17 -19 9 -26 -30 -26 -37 0 -39 2 -45 38 -3
20 -6 52 -6 71 0 29 2 32 15 21 12 -10 15 -10 16 1z m-121 -53 c0 -5 -4 -8
-10 -8 -5 0 -10 10 -10 23 0 18 2 19 10 7 5 -8 10 -18 10 -22z m4160 -14 c0
-23 -6 -38 -20 -46 -11 -7 -20 -18 -20 -24 0 -7 -15 -12 -34 -12 -27 0 -33 3
-29 17 2 9 18 22 35 29 18 6 29 15 25 18 -9 9 24 64 35 58 4 -3 8 -21 8 -40z
m2773 25 c29 -8 42 -18 55 -47 9 -20 28 -53 43 -72 38 -50 59 -95 59 -125 0
-27 -3 -28 -70 -26 -118 3 -394 -42 -452 -74 -29 -17 -88 -20 -88 -5 0 15 61
80 75 80 7 0 23 8 36 18 24 19 92 36 294 76 114 22 130 33 103 68 -11 14 -22
15 -68 8 -53 -8 -153 -22 -252 -36 -34 -4 -48 -3 -48 6 0 14 25 40 38 40 5 0
22 17 37 38 16 20 35 43 43 50 19 15 142 16 195 1z m-12642 -13 c61 -14 105
-41 158 -96 45 -47 48 -59 49 -169 1 -94 1 -95 -32 -125 -18 -17 -52 -42 -77
-55 -41 -22 -46 -22 -79 -9 -42 18 -69 61 -54 85 13 22 30 30 82 43 l42 11 0
49 c0 64 -25 107 -65 113 -16 2 -56 2 -87 -1 l-58 -5 0 44 c0 39 -4 47 -29 62
-16 9 -36 17 -45 17 -9 0 -16 6 -16 14 0 10 18 18 53 24 74 14 95 13 158 -2z
m7170 -55 c11 -12 24 -21 29 -21 6 0 10 -18 10 -40 0 -21 6 -45 13 -52 10 -9
11 -17 3 -33 -21 -38 -51 -65 -73 -65 -12 0 -30 -8 -40 -19 -10 -10 -33 -22
-50 -26 -18 -3 -33 -11 -33 -16 0 -5 -15 -16 -32 -24 -67 -32 -78 -40 -78 -53
0 -9 -6 -12 -16 -8 -8 3 -13 2 -10 -2 3 -5 -4 -37 -15 -73 -15 -46 -19 -79
-15 -119 6 -66 -3 -85 -37 -76 -83 20 -69 148 39 358 20 37 18 68 -3 68 -10 0
-23 -4 -28 -8 -19 -13 -45 -61 -45 -82 0 -12 -11 -31 -25 -44 -16 -15 -25 -34
-25 -54 0 -38 -16 -82 -30 -82 -29 0 4 179 39 209 12 10 21 22 21 26 0 4 9 18
20 32 21 27 27 73 10 73 -20 0 -9 42 18 67 37 36 100 62 185 78 91 17 143 13
168 -14z m6499 -23 c0 -6 11 -19 24 -29 14 -11 28 -28 31 -39 4 -11 15 -20 27
-20 16 0 19 -5 16 -25 -4 -16 -1 -25 8 -25 19 0 67 -47 59 -59 -12 -21 -40
-10 -68 27 -15 20 -41 46 -57 57 -17 11 -32 27 -35 36 -3 9 -21 33 -40 52 -37
38 -43 53 -22 60 14 5 57 -21 57 -35z m-8030 -38 c7 -17 20 -30 29 -30 10 0
25 -15 35 -32 48 -89 57 -104 78 -120 30 -22 15 -35 -20 -17 -31 16 -52 40
-46 51 5 7 -11 11 -20 6 -22 -15 -116 157 -100 183 8 14 29 -6 44 -41z m-3460
27 c0 -25 -25 -45 -83 -66 -67 -24 -87 -26 -87 -8 0 14 50 55 90 74 35 16 80
16 80 0z m1040 -5 c73 -10 110 -25 110 -47 0 -20 -57 -20 -119 0 -25 8 -75 18
-110 22 -65 8 -91 27 -49 36 23 5 50 3 168 -11z m14651 -58 c14 -7 31 -20 38
-28 8 -9 20 -16 27 -16 29 0 81 -37 155 -110 42 -41 82 -86 89 -99 7 -14 17
-30 21 -35 23 -27 59 -88 59 -98 0 -6 18 -46 40 -89 31 -60 40 -89 40 -127 0
-36 4 -52 15 -56 9 -3 22 -21 30 -40 17 -41 27 -48 50 -40 14 6 16 16 12 58
-8 79 -18 117 -33 123 -7 2 -16 23 -19 46 -8 43 -32 112 -64 182 -11 22 -29
64 -42 92 -12 29 -29 61 -38 70 -9 10 -24 30 -34 45 -9 15 -37 39 -62 53 -25
15 -45 31 -45 36 0 5 18 9 40 9 22 0 40 -5 40 -11 0 -5 12 -14 28 -20 15 -5
36 -22 47 -39 11 -16 30 -35 42 -41 13 -7 23 -16 23 -20 0 -5 14 -24 30 -42
17 -19 30 -39 30 -45 0 -6 10 -22 23 -35 12 -13 31 -34 42 -48 23 -28 111
-255 120 -311 7 -44 20 -55 42 -37 13 11 14 28 8 104 -3 49 -7 102 -8 117 -1
14 -6 24 -10 21 -4 -2 -5 7 -1 22 6 24 4 27 -15 20 -17 -5 -21 -2 -22 19 -1
14 -2 31 -3 38 -2 23 21 18 35 -9 8 -16 29 -47 47 -71 17 -24 32 -47 32 -52 0
-5 11 -21 24 -35 14 -15 34 -44 45 -65 34 -65 38 -74 57 -112 10 -21 22 -38
25 -38 4 0 15 -30 25 -67 10 -38 24 -79 31 -93 7 -14 13 -35 13 -46 0 -12 12
-52 26 -90 21 -55 26 -91 30 -186 2 -64 5 -121 6 -125 1 -4 -1 -17 -4 -28 -4
-11 -9 -36 -12 -56 -5 -27 -13 -38 -29 -43 -32 -8 -41 7 -27 49 9 26 9 40 2
47 -15 15 -39 -6 -47 -41 -3 -16 -31 -53 -60 -83 -50 -50 -60 -56 -111 -62
-70 -8 -83 1 -80 57 2 38 5 43 31 47 15 3 33 13 39 23 6 11 26 35 45 55 52 57
59 83 55 208 -3 91 -8 121 -28 166 -27 60 -40 74 -75 80 -21 2 -26 -4 -40 -42
-46 -130 -173 -257 -300 -301 -67 -23 -89 -24 -113 -2 -18 16 -25 43 -10 43
10 0 62 130 62 154 0 9 4 24 9 34 63 118 62 301 -1 427 -16 33 -37 80 -45 105
-8 24 -35 68 -59 96 -24 28 -44 55 -44 60 0 13 -153 154 -167 154 -10 0 -51
18 -93 42 -46 25 -74 31 -160 36 -158 7 -362 -20 -415 -55 -11 -7 -27 -13 -36
-13 -9 0 -22 -7 -29 -15 -7 -8 -25 -15 -41 -15 -16 0 -33 -8 -41 -19 -14 -20
-89 -61 -111 -61 -8 0 -24 -9 -37 -20 -13 -11 -32 -20 -43 -20 -11 0 -25 -8
-32 -17 -7 -9 -18 -17 -26 -19 -45 -7 -70 -25 -67 -47 2 -17 11 -23 35 -25 21
-2 34 -10 38 -22 5 -15 13 -18 38 -14 65 11 204 46 261 65 32 11 61 17 64 14
13 -13 -37 -47 -147 -99 -29 -14 -68 -38 -86 -53 -64 -54 -80 -65 -123 -85
-57 -26 -54 -51 8 -59 49 -7 131 8 195 36 22 9 65 23 95 30 30 7 80 19 110 28
122 34 305 47 385 27 l30 -7 -27 -11 c-15 -6 -73 -18 -130 -26 -184 -28 -212
-34 -307 -66 -52 -17 -101 -36 -110 -41 -9 -5 -35 -13 -57 -19 -23 -6 -47 -17
-54 -25 -7 -8 -19 -15 -26 -15 -16 0 -41 -46 -31 -57 4 -3 51 8 104 25 256 82
368 104 588 117 17 1 37 5 45 8 26 11 125 13 130 2 3 -6 -18 -13 -50 -16 -30
-4 -79 -14 -109 -23 -30 -9 -63 -16 -74 -16 -10 0 -35 -7 -55 -16 -76 -33
-103 -43 -177 -65 -33 -10 -89 -26 -125 -37 -66 -20 -103 -34 -130 -51 -8 -6
-28 -16 -44 -23 -33 -15 -40 -26 -26 -48 7 -12 15 -11 53 8 24 12 52 22 61 22
9 0 51 13 94 29 42 16 109 37 147 47 39 9 133 34 210 56 77 22 160 42 185 43
327 21 370 19 370 -15 0 -10 -4 -21 -9 -24 -5 -4 -71 -8 -148 -11 -76 -3 -192
-14 -258 -26 -66 -11 -142 -24 -170 -28 -27 -4 -66 -14 -85 -23 -19 -9 -55
-20 -80 -23 -53 -8 -141 -48 -166 -76 -9 -10 -23 -19 -30 -19 -8 0 -35 -16
-60 -36 -26 -19 -64 -45 -85 -57 -22 -12 -39 -27 -39 -33 0 -6 -11 -16 -24
-22 -13 -6 -41 -31 -62 -56 -21 -25 -43 -46 -49 -46 -6 0 -29 -16 -51 -35 -21
-19 -42 -35 -46 -35 -5 0 -8 -6 -8 -14 0 -8 -13 -19 -29 -24 -15 -5 -54 -35
-85 -66 -36 -36 -76 -64 -108 -77 -29 -11 -64 -33 -80 -49 -15 -16 -37 -34
-50 -41 -13 -7 -29 -20 -36 -31 -7 -10 -17 -18 -23 -18 -5 0 -18 -9 -28 -19
-21 -21 -99 -47 -109 -36 -9 8 11 37 34 49 10 6 22 14 25 19 3 4 41 30 85 57
43 27 88 56 99 64 11 9 34 26 51 39 36 26 84 80 84 95 0 6 -7 15 -17 20 -22
13 -10 40 24 55 48 21 186 152 180 171 -6 19 -34 18 -54 -2 -10 -11 -29 -23
-43 -27 -14 -4 -47 -26 -75 -49 -27 -23 -70 -51 -95 -62 -25 -12 -67 -31 -93
-44 -27 -12 -66 -24 -88 -27 -33 -5 -39 -3 -39 13 0 20 94 84 123 84 26 0 217
198 217 225 0 39 -14 36 -61 -10 -24 -24 -49 -44 -54 -45 -6 0 -35 -25 -64
-55 -36 -37 -62 -55 -78 -55 -13 0 -33 -5 -43 -10 -15 -8 -21 -6 -29 8 -8 16
-4 25 25 50 19 17 56 41 83 54 72 34 107 104 48 95 -30 -4 -100 -42 -117 -62
-11 -13 -72 -45 -86 -45 -2 0 -4 14 -4 30 0 23 6 33 23 39 13 5 58 43 101 85
42 42 81 76 85 76 4 0 13 11 19 25 10 21 9 27 -2 31 -15 6 -71 -19 -82 -37
-11 -18 -74 -40 -96 -33 -20 6 -20 6 1 21 23 16 61 83 61 107 0 13 -5 13 -39
1 -36 -12 -40 -12 -44 3 -3 10 -5 6 -6 -10 -1 -18 -12 -35 -35 -53 -40 -30
-96 -49 -96 -33 0 16 31 48 46 48 7 0 31 17 54 38 52 48 106 92 114 92 3 0 20
12 37 28 17 15 37 29 44 32 20 8 105 90 129 124 37 56 64 86 74 86 5 0 15 6
21 14 7 8 24 17 39 21 15 4 35 15 45 26 10 10 24 19 31 19 8 0 16 7 20 15 3 8
14 15 24 15 11 0 25 7 32 15 7 8 16 15 21 15 5 0 32 15 61 33 29 19 66 37 82
41 15 4 47 15 70 26 22 10 106 40 186 66 80 25 166 55 192 65 26 11 64 19 85
20 21 0 72 6 113 13 79 14 119 12 161 -10z m-18007 -19 c4 -11 -3 -19 -20 -25
-56 -22 -94 -4 -62 28 17 17 75 15 82 -3z m10116 -17 c0 -36 -73 -138 -99
-138 -31 0 15 114 50 125 9 3 20 13 23 21 6 16 26 10 26 -8z m-6705 -55 c44
-13 103 -38 130 -53 28 -16 69 -38 91 -49 42 -19 75 -51 40 -38 -132 51 -325
92 -402 85 -31 -2 -39 -7 -39 -23 0 -12 9 -22 25 -27 26 -7 167 -48 260 -74
30 -9 69 -22 85 -29 17 -7 41 -16 55 -20 33 -10 110 -63 110 -76 0 -5 11 -14
25 -19 30 -11 34 -40 5 -40 -11 0 -45 11 -76 25 -31 14 -62 25 -68 25 -7 0
-34 11 -62 25 -27 13 -67 27 -89 30 -22 3 -51 10 -65 15 -89 32 -373 54 -408
31 -8 -4 -12 -19 -10 -32 3 -26 8 -27 183 -49 153 -18 215 -29 243 -44 15 -7
43 -17 62 -20 39 -8 59 -16 180 -74 47 -23 97 -44 113 -48 23 -5 27 -11 27
-40 0 -19 4 -34 8 -34 11 0 52 -38 52 -48 0 -28 -295 11 -327 44 -10 10 -38
14 -89 14 -71 0 -75 -1 -72 -21 3 -21 29 -34 118 -61 19 -6 53 -18 75 -28 72
-33 189 -80 199 -80 9 0 112 -66 160 -103 16 -12 32 -22 35 -22 25 0 140 -109
141 -133 0 -14 -40 -8 -80 14 -14 7 -44 22 -66 33 -23 11 -45 24 -48 29 -24
39 -290 123 -396 126 -49 1 -55 -1 -58 -21 -4 -27 12 -36 108 -58 110 -26 269
-75 315 -98 108 -54 193 -113 233 -160 37 -45 40 -52 25 -58 -16 -5 -30 -1
-73 22 -154 85 -339 135 -527 143 -56 3 -110 9 -120 14 -23 11 -112 7 -125 -6
-5 -5 -7 -19 -4 -30 7 -20 63 -32 266 -52 125 -13 238 -38 298 -66 29 -13 57
-24 62 -24 20 0 103 -51 156 -97 103 -87 131 -163 51 -136 -17 6 -50 14 -72
18 -21 4 -51 13 -65 20 -45 23 -193 38 -250 26 -28 -6 -74 -11 -102 -11 -28 0
-72 -8 -100 -17 -39 -14 -48 -22 -46 -38 3 -19 11 -20 213 -20 216 -1 302 -13
362 -51 12 -8 31 -14 42 -14 11 0 39 -15 63 -33 52 -39 118 -81 118 -73 0 2
43 -18 96 -45 53 -27 103 -49 110 -49 8 0 14 -11 14 -26 l0 -27 -67 7 c-38 4
-78 14 -91 22 -12 8 -65 19 -118 24 -63 6 -106 15 -128 28 -69 41 -289 55
-421 27 -156 -32 -180 -42 -244 -102 -13 -13 -27 -20 -32 -17 -5 3 -23 -2 -41
-10 -43 -22 -141 -21 -163 1 -16 15 -17 34 -10 185 l7 169 34 57 c38 62 49 95
40 111 -10 16 -108 57 -155 65 -24 4 -55 15 -69 26 -13 11 -28 17 -33 14 -5
-2 -14 4 -21 16 -7 11 -17 20 -22 20 -5 0 -14 6 -20 13 -6 7 -31 22 -56 32
-25 11 -63 32 -85 49 -22 16 -42 31 -44 33 -9 6 31 53 47 53 10 0 26 6 37 13
11 8 55 26 99 40 43 15 98 38 122 52 40 23 44 29 44 64 0 33 -7 45 -45 80 -79
72 -135 242 -123 371 4 41 9 100 12 130 2 30 12 83 22 118 15 58 20 64 58 81
60 27 240 19 351 -16z m5577 -26 c61 -12 84 -22 106 -44 55 -56 78 -112 52
-128 -6 -4 -8 -30 -5 -63 l6 -57 -15 34 c-9 18 -16 40 -16 48 0 8 -5 11 -11 8
-5 -4 -18 0 -28 9 -42 38 -70 -23 -33 -74 21 -31 24 -172 3 -209 -18 -33 -31
-11 -31 55 0 38 -5 55 -20 69 -11 10 -20 28 -20 39 -1 38 -27 96 -53 116 -14
11 -29 29 -32 40 -4 14 -21 22 -63 30 -67 12 -132 29 -132 34 0 20 59 100 80
109 21 9 121 1 212 -16z m-6738 -23 c26 -25 20 -79 -11 -108 -56 -51 -163
-136 -171 -136 -5 0 -17 -9 -27 -20 -9 -10 -22 -18 -28 -17 -7 1 -13 -8 -15
-19 -2 -12 -11 -25 -20 -28 -38 -13 -88 -60 -108 -99 -12 -23 -37 -59 -55 -79
-19 -20 -63 -72 -99 -114 -36 -43 -75 -88 -87 -102 -13 -14 -23 -28 -23 -32 0
-4 -22 -33 -50 -64 -27 -31 -50 -62 -50 -67 0 -14 -10 -23 -103 -93 -42 -32
-77 -61 -77 -65 0 -17 -106 -84 -141 -88 -37 -5 -38 -5 -36 23 2 27 0 29 -33
26 -19 -1 -41 -9 -50 -17 -9 -8 -24 -15 -33 -15 -8 0 -69 -17 -134 -39 -167
-54 -200 -61 -323 -66 -94 -4 -112 -2 -126 13 -17 16 -13 18 67 29 46 6 125
21 174 33 50 12 110 25 135 29 25 4 59 15 77 24 18 9 37 17 43 17 17 0 90 49
90 60 0 6 -13 13 -30 17 -36 7 -41 33 -6 33 26 0 43 27 26 44 -13 13 -79 -4
-171 -44 -37 -17 -82 -30 -101 -30 -18 -1 -53 -5 -78 -11 -60 -14 -253 -11
-262 4 -4 6 -5 13 -3 16 3 2 52 3 110 2 87 -1 117 2 168 20 34 12 67 26 72 29
6 4 28 11 50 15 22 3 65 19 95 35 30 16 89 37 130 46 56 14 86 27 116 54 23
19 70 57 105 85 84 65 106 83 145 123 18 17 35 32 39 32 3 0 18 11 32 24 14
13 46 30 71 37 44 12 55 20 149 107 75 68 114 51 48 -21 -19 -21 -42 -52 -51
-69 -14 -27 -14 -32 -1 -46 14 -13 21 -10 69 29 63 52 73 63 94 107 9 17 44
60 79 95 34 34 72 80 83 101 21 38 56 75 101 106 13 8 28 26 35 39 7 13 28 30
47 36 19 7 35 13 36 14 1 0 9 -6 17 -15z m1546 -19 c7 -9 10 -18 6 -22 -3 -3
-6 -1 -6 5 0 7 -7 12 -15 12 -8 0 -15 5 -15 10 0 15 16 12 30 -5z m2568 -3
c10 -10 35 -31 56 -47 37 -28 38 -30 16 -35 -27 -6 -34 -36 -16 -65 7 -11 15
-30 18 -42 5 -20 2 -23 -27 -23 -18 0 -46 6 -62 14 -15 8 -44 22 -63 30 -44
18 -108 79 -133 125 l-19 34 67 -6 c58 -6 68 -4 83 13 21 25 56 26 80 2z
m7515 -4 c4 -12 4 -24 2 -26 -7 -8 -35 20 -35 34 0 23 27 16 33 -8z m183 -35
c100 -107 114 -122 114 -128 0 -4 14 -18 31 -32 17 -15 42 -44 55 -65 13 -21
30 -38 38 -38 8 0 23 -16 35 -35 11 -20 27 -38 35 -41 8 -3 20 -22 27 -41 8
-25 21 -39 45 -49 19 -8 34 -19 34 -24 0 -6 7 -10 16 -10 23 0 102 -48 154
-92 58 -51 54 -48 135 -96 38 -23 73 -42 78 -42 5 0 33 -16 62 -36 56 -37 119
-64 215 -92 30 -8 57 -19 60 -22 3 -4 28 -14 55 -23 138 -42 279 -97 287 -111
14 -26 -78 -21 -166 9 -41 14 -90 25 -109 25 -19 0 -53 6 -75 14 -22 8 -61 18
-87 22 -41 6 -47 4 -43 -10 2 -11 28 -26 71 -41 37 -13 73 -28 80 -33 7 -5 59
-22 117 -37 58 -15 134 -36 169 -46 35 -11 76 -19 91 -19 33 0 62 -25 58 -48
-4 -21 -44 -30 -88 -20 -19 4 -52 8 -73 8 -20 0 -45 4 -55 9 -9 5 -55 21 -102
36 -47 16 -89 32 -94 36 -6 5 -23 9 -38 9 -16 0 -31 6 -34 14 -3 8 -20 18 -37
21 -18 4 -42 13 -54 21 -12 8 -47 23 -78 35 -30 11 -55 25 -55 30 0 5 -9 9
-20 9 -13 0 -20 -7 -20 -19 0 -14 22 -31 82 -62 46 -23 87 -47 93 -54 5 -8 30
-20 55 -28 51 -17 173 -84 178 -98 2 -5 16 -9 31 -9 30 0 70 -24 59 -36 -4 -4
-29 -2 -55 4 -26 6 -78 18 -114 26 -60 14 -264 96 -363 146 -42 21 -56 19 -56
-9 0 -24 26 -46 75 -62 22 -8 59 -26 81 -41 23 -16 45 -28 48 -28 3 0 32 -12
63 -28 32 -15 77 -34 101 -41 23 -8 47 -20 53 -28 6 -7 17 -13 23 -13 6 0 27
-8 46 -18 19 -11 47 -22 63 -26 17 -4 27 -13 27 -25 0 -27 -47 -31 -111 -8
-30 10 -83 27 -118 38 -36 10 -69 23 -75 29 -5 5 -19 10 -29 10 -16 0 -98 37
-157 72 -50 29 -118 58 -136 58 -11 0 -29 9 -39 20 -24 26 -50 25 -69 -2 -13
-19 -19 -20 -41 -10 -14 7 -35 12 -45 12 -11 0 -24 9 -30 20 -11 20 -82 60
-107 60 -7 0 -13 -9 -13 -20 0 -19 121 -120 145 -120 6 0 24 -13 39 -29 16
-16 41 -35 57 -41 16 -7 29 -16 29 -19 0 -11 75 -51 95 -51 9 0 28 -9 42 -20
14 -11 31 -20 37 -20 6 0 26 -13 45 -29 23 -19 32 -33 28 -45 -7 -19 -57 -22
-75 -4 -8 8 -40 11 -91 9 -72 -2 -81 0 -91 19 -6 11 -21 25 -33 31 -34 15 -65
34 -84 51 -10 9 -23 17 -28 19 -6 2 -31 19 -55 37 -25 18 -76 53 -115 78 -38
25 -78 57 -88 70 -10 13 -22 24 -26 24 -4 0 -27 18 -50 40 -23 22 -48 40 -55
40 -7 0 -33 21 -58 48 -24 26 -60 61 -79 79 -70 64 -118 121 -133 158 -9 21
-45 67 -81 102 -36 35 -65 68 -65 73 0 5 -12 22 -27 38 -72 74 -159 176 -165
193 -7 17 -4 20 14 17 14 -2 36 -23 58 -55 19 -29 43 -53 52 -53 9 0 21 -6 25
-13 4 -8 16 -16 25 -20 9 -3 29 -24 42 -46 14 -22 35 -45 46 -51 11 -6 20 -17
20 -24 0 -8 25 -37 55 -64 30 -28 55 -55 55 -60 0 -5 15 -21 33 -34 17 -14 59
-53 92 -87 60 -61 79 -72 88 -48 4 12 -58 109 -75 115 -4 2 -8 10 -8 18 0 8
-4 14 -9 14 -6 0 -26 25 -47 55 -20 31 -44 61 -53 68 -18 12 -36 46 -32 60 1
5 -3 6 -9 2 -11 -7 -44 25 -92 85 -34 43 -34 50 -5 50 30 0 46 -14 87 -72 18
-27 37 -48 42 -48 5 0 6 -10 3 -22 -4 -14 -3 -18 2 -11 6 9 51 -29 147 -123
146 -143 179 -170 196 -159 16 10 12 43 -8 57 -10 7 -23 20 -28 29 -5 9 -46
56 -91 105 -77 81 -98 114 -73 114 6 0 13 -7 16 -15 4 -8 14 -15 23 -15 18 0
74 -46 170 -139 59 -57 95 -81 122 -81 19 0 8 30 -23 64 -18 20 -51 56 -73 81
-22 25 -73 79 -112 121 -73 75 -91 105 -54 84 11 -5 28 -10 38 -10 11 0 29
-13 41 -30 13 -16 29 -30 37 -30 14 0 24 -8 77 -57 24 -21 65 -42 72 -35 23
23 -36 97 -149 186 -28 22 -66 56 -86 75 -20 20 -43 41 -50 47 -20 17 -80 89
-109 133 -14 20 -35 47 -46 60 -12 12 -24 33 -27 47 -4 24 7 29 56 25 27 -3
32 27 8 59 -11 16 -21 34 -21 40 0 6 -5 8 -12 4 -7 -4 -8 -3 -4 4 13 21 28 13
82 -45z m3659 26 c11 -17 -1 -22 -56 -23 -56 -2 -73 9 -37 23 32 13 85 13 93
0z m-4755 -19 c25 -19 25 -20 22 -155 -3 -142 -10 -174 -55 -222 -11 -13 -37
-25 -63 -29 -35 -5 -47 -12 -63 -39 -25 -43 -44 -119 -42 -172 1 -51 63 -177
97 -200 13 -8 39 -30 59 -49 20 -19 43 -34 50 -34 27 0 85 -42 85 -61 0 -10
-5 -19 -11 -19 -7 0 -33 -13 -59 -29 -25 -16 -62 -32 -81 -36 -19 -4 -43 -12
-54 -19 -42 -26 -193 -56 -281 -56 -50 0 -66 -4 -71 -16 -3 -8 -16 -20 -29
-25 -38 -14 -30 -44 16 -63 47 -19 114 -77 145 -126 30 -48 68 -152 58 -161
-4 -4 -35 -12 -68 -17 -33 -6 -86 -20 -117 -31 -51 -19 -70 -20 -185 -14 -219
13 -315 8 -365 -16 -56 -27 -238 -72 -448 -111 -111 -21 -235 -26 -244 -11
-13 20 8 40 47 46 23 3 67 17 97 30 30 13 62 26 70 29 8 3 22 10 30 16 8 5 26
14 40 20 14 5 32 14 40 19 53 33 172 82 210 86 25 2 102 10 173 16 122 11 127
13 127 35 0 30 -38 38 -167 35 -90 -3 -103 -1 -103 13 0 9 8 19 18 22 9 3 29
12 43 19 65 35 174 65 289 80 69 9 133 18 143 21 27 8 20 24 -20 40 -44 19
-114 15 -270 -16 -125 -25 -151 -23 -131 10 7 11 19 20 26 20 13 0 68 36 87
56 5 6 44 24 85 39 41 15 112 45 156 66 45 22 89 39 98 39 9 0 43 11 76 25 33
14 68 25 78 25 10 0 27 9 37 20 17 19 18 22 2 37 -13 13 -19 15 -29 5 -7 -7
-21 -12 -32 -12 -24 0 -95 -24 -137 -45 -15 -8 -40 -15 -55 -15 -15 0 -35 -6
-43 -13 -9 -8 -43 -19 -76 -26 -33 -7 -86 -21 -118 -32 -55 -18 -77 -18 -77 0
0 19 68 85 109 107 26 13 55 30 66 36 11 7 43 26 70 43 28 16 58 37 67 45 19
15 66 35 193 81 77 28 110 52 99 70 -7 12 -81 11 -89 -1 -3 -5 -15 -10 -26
-10 -32 0 -197 -57 -214 -74 -9 -9 -27 -16 -39 -16 -12 0 -33 -11 -46 -25 -13
-14 -28 -25 -33 -25 -6 0 -39 -13 -74 -30 -75 -35 -73 -35 -73 -11 0 35 125
213 165 235 11 6 22 13 25 16 3 3 26 18 52 33 57 33 77 62 51 75 -24 11 -86 5
-131 -13 l-35 -15 19 22 c57 66 89 86 189 120 22 7 42 16 45 19 8 9 90 43 140
58 25 7 55 17 68 22 13 5 33 9 45 9 12 0 67 9 122 21 55 11 116 23 135 27 29
6 35 11 35 32 0 24 -1 25 -70 23 -71 -2 -289 -36 -335 -52 -14 -5 -45 -12 -70
-16 -24 -3 -63 -14 -85 -24 -23 -10 -62 -21 -88 -25 -41 -6 -47 -5 -47 10 0
21 28 54 47 54 7 0 16 6 19 14 3 8 13 17 22 20 9 3 26 11 37 18 146 96 309
139 550 146 36 1 57 -4 75 -18z m-14517 -25 c41 -17 54 -32 39 -47 -11 -11
-127 6 -147 22 -5 4 -27 10 -47 14 -65 12 -42 26 41 26 47 0 93 -6 114 -15z
m5417 -21 c0 -26 -17 -33 -26 -9 -8 20 3 48 16 40 5 -3 10 -17 10 -31z m6090
-5 c0 -30 -124 -144 -179 -165 -25 -9 -73 -29 -106 -45 -33 -15 -84 -30 -112
-34 -29 -4 -53 -10 -53 -14 0 -13 -74 -33 -105 -29 l-30 3 37 18 c20 10 40 21
42 26 3 5 32 20 63 35 141 65 338 170 368 196 39 34 75 38 75 9z m-12146 5
c18 -7 8 -28 -35 -81 -46 -54 -117 -320 -105 -395 14 -91 73 -205 135 -261 17
-15 31 -32 31 -37 0 -6 7 -10 15 -10 18 0 34 -36 28 -61 -5 -19 -118 -64 -186
-74 -59 -8 -147 11 -147 31 0 8 7 14 15 14 23 0 29 26 11 52 -24 35 -20 40 31
36 59 -4 66 13 27 72 -15 22 -31 60 -35 83 -5 23 -14 69 -21 102 -13 64 -17
207 -7 265 4 19 13 49 22 65 9 17 21 45 28 63 15 40 96 129 124 135 31 7 52 8
69 1z m21046 -24 c11 0 70 -90 70 -106 0 -6 15 -27 33 -46 57 -61 76 -88 71
-101 -2 -7 6 -35 20 -62 13 -28 27 -65 31 -83 4 -18 13 -36 20 -38 7 -3 16
-21 20 -41 3 -20 13 -46 21 -58 8 -12 17 -52 21 -88 5 -56 3 -68 -11 -73 -29
-11 -53 36 -81 161 -15 66 -31 125 -35 130 -4 6 -10 22 -13 36 -4 14 -33 66
-66 114 -43 64 -60 100 -65 134 -5 38 -10 47 -28 48 -27 2 -34 11 -42 52 -5
27 -3 32 10 27 9 -3 19 -6 24 -6z m-2084 -27 c-3 -4 -6 2 -5 13 0 11 3 14 6 6
3 -7 2 -16 -1 -19z m-2888 -45 c17 -13 20 -19 9 -15 -10 4 -22 7 -27 7 -4 0
-10 7 -14 15 -8 21 1 19 32 -7z m2878 -5 c-3 -4 -6 2 -5 13 0 11 3 14 6 6 3
-7 2 -16 -1 -19z m2444 -9 c0 -17 -21 -18 -55 -2 -42 19 -32 38 15 26 22 -6
40 -16 40 -24z m-22972 17 c7 -4 14 -21 16 -37 4 -36 29 -43 163 -47 77 -1 98
-5 98 -16 0 -21 -83 -42 -200 -49 -94 -7 -100 -8 -103 -29 -4 -30 30 -43 114
-43 56 0 64 -2 64 -19 0 -10 -25 -44 -56 -75 -46 -46 -62 -56 -90 -56 -30 0
-34 3 -44 40 -8 32 -19 44 -47 58 -32 15 -39 25 -56 82 -28 97 -31 133 -13
169 16 30 19 31 79 31 34 0 68 -4 75 -9z m1282 -16 c0 -8 -5 -15 -11 -15 -5 0
-7 -5 -4 -11 9 -13 -14 -71 -25 -64 -9 6 -4 36 14 78 12 29 26 36 26 12z
m9253 1 c3 -8 -2 -16 -13 -19 -18 -5 -35 15 -23 27 11 11 31 6 36 -8z m2755 6
c16 -11 -70 -59 -112 -64 -48 -5 -40 19 16 46 57 27 75 31 96 18z m-7677 -25
c-10 -9 -11 -8 -5 6 3 10 9 15 12 12 3 -3 0 -11 -7 -18z m11809 -62 c0 -29
-44 -16 -69 20 -19 28 -21 38 -11 50 10 12 17 10 46 -20 19 -20 34 -42 34 -50z
m-6244 38 c-3 -4 -6 2 -5 13 0 11 3 14 6 6 3 -7 2 -16 -1 -19z m249 5 c8 -27
32 -86 45 -110 6 -10 10 -25 10 -34 0 -27 54 -14 58 14 4 27 26 24 28 -4 2
-28 25 -144 35 -178 5 -16 6 -32 2 -35 -5 -3 -9 -33 -11 -65 -3 -51 -23 -116
-36 -116 -17 0 -35 14 -29 23 12 20 15 117 3 117 -21 0 -50 -21 -50 -35 0 -8
-2 -15 -4 -15 -2 0 -11 -2 -19 -6 -19 -7 -32 79 -15 106 9 15 10 37 0 97 -10
69 -47 182 -66 200 -3 3 -6 19 -6 35 0 23 4 28 24 28 17 0 27 -7 31 -22z m997
10 c3 -7 -4 -28 -15 -46 -21 -35 -59 -42 -65 -11 -7 38 69 92 80 57z m7408 3
c0 -13 -80 -93 -113 -115 -21 -12 -44 -16 -87 -14 -66 3 -64 4 -77 -37 -6 -20
-17 -31 -32 -33 -21 -3 -22 -1 -16 30 9 43 13 48 33 48 9 0 26 7 36 15 11 8
27 15 36 15 9 0 39 7 67 15 35 10 53 22 61 40 7 14 20 25 31 25 11 0 23 5 26
10 8 12 35 13 35 1z m-18816 -10 c3 -4 2 -11 -2 -15 -4 -4 -7 -11 -7 -16 0 -5
-11 -23 -25 -42 -14 -18 -30 -42 -36 -53 -6 -11 -21 -37 -32 -58 -12 -21 -22
-44 -22 -52 0 -8 -7 -18 -17 -23 -28 -16 -102 -239 -87 -263 3 -5 -2 -60 -11
-122 -30 -199 -7 -350 66 -428 24 -25 32 -29 44 -19 16 13 13 41 -16 132 -10
31 -15 66 -12 77 4 18 13 10 54 -50 27 -39 49 -72 49 -74 0 -3 31 -36 70 -74
65 -65 69 -72 59 -95 -19 -42 -6 -56 53 -56 29 0 72 7 96 15 51 18 122 61 122
75 0 5 10 19 23 32 12 13 33 36 45 53 l24 30 179 9 c206 10 229 6 229 -45 0
-42 -26 -130 -53 -176 -47 -82 -62 -99 -119 -143 -33 -25 -73 -59 -89 -77 -25
-28 -37 -33 -82 -35 -93 -3 -202 4 -214 14 -8 7 -48 8 -107 3 -91 -6 -94 -6
-110 17 l-16 23 120 15 c98 13 124 20 142 38 39 38 14 47 -97 32 -166 -22
-329 2 -392 58 -77 70 -143 170 -173 265 -7 22 -18 51 -26 65 -8 15 -14 34
-14 43 0 8 -4 19 -9 25 -19 18 -41 133 -41 208 0 57 5 86 20 114 11 20 47 96
80 167 33 72 65 137 70 145 6 8 19 34 31 58 12 23 42 59 68 80 25 20 49 42 53
47 36 55 99 98 112 76z m16692 -18 c36 -50 37 -53 12 -53 -23 0 -58 42 -58 69
0 20 26 11 46 -16z m-15421 -19 c54 -7 88 -21 205 -84 30 -16 60 -30 67 -30 6
0 27 -15 46 -33 20 -18 47 -39 62 -47 15 -8 36 -27 47 -42 10 -15 24 -28 30
-28 6 0 25 -14 42 -30 47 -47 59 -56 86 -70 14 -7 45 -34 70 -60 134 -140 180
-190 180 -198 0 -4 23 -29 50 -56 28 -27 50 -54 50 -61 0 -20 63 -55 98 -55
26 0 31 -5 37 -31 4 -18 3 -35 -3 -41 -18 -18 -91 19 -142 72 -27 26 -58 51
-70 55 -13 4 -49 34 -81 66 -61 62 -76 69 -85 44 -6 -15 34 -85 49 -85 4 0 7
-9 7 -20 0 -24 -18 -27 -27 -4 -8 22 -103 83 -119 77 -18 -7 -18 -42 0 -62 8
-9 33 -36 55 -60 23 -24 41 -50 41 -58 0 -7 4 -13 9 -13 12 0 91 -115 91 -133
0 -21 -36 -11 -84 24 -23 17 -47 47 -62 78 -15 33 -32 55 -49 61 -14 5 -76 34
-137 63 -149 72 -224 90 -367 91 -117 1 -138 -6 -107 -37 10 -10 48 -17 118
-22 73 -5 112 -13 134 -26 17 -10 55 -23 85 -29 57 -12 113 -38 165 -77 17
-12 45 -28 62 -34 18 -6 32 -16 32 -22 0 -6 11 -22 25 -36 54 -58 135 -160
135 -172 0 -18 40 -59 58 -59 7 0 12 -6 10 -12 -4 -10 -60 -13 -229 -15 -310
-2 -338 -8 -312 -66 7 -16 19 -22 44 -23 19 0 70 -4 114 -7 44 -4 116 -10 160
-13 44 -3 116 -12 160 -20 101 -19 285 -82 285 -99 0 -9 -62 -14 -247 -19
-137 -5 -259 -8 -273 -9 -14 0 -99 0 -190 1 -159 2 -166 3 -175 24 -12 26 -23
32 -98 54 -31 9 -69 27 -85 40 -15 13 -34 24 -42 24 -28 0 -80 39 -80 60 0 28
39 102 61 118 11 7 25 25 33 40 31 60 110 122 155 122 40 0 38 42 -3 72 -25
18 -142 52 -216 62 -25 3 -84 20 -132 38 -76 28 -88 35 -88 55 0 13 8 27 18
30 30 11 72 46 72 60 0 7 15 19 33 27 53 22 86 95 59 131 -26 35 -195 64 -396
67 -119 2 -136 9 -136 58 0 27 3 29 48 35 26 4 61 11 78 16 32 10 60 7 224
-25 70 -14 262 -100 298 -133 7 -7 20 -13 28 -13 8 0 17 -6 20 -14 3 -7 24
-17 47 -21 57 -11 67 -11 67 -2 0 4 0 17 0 30 0 16 -12 30 -40 47 -23 14 -55
37 -73 52 -18 15 -35 28 -39 28 -4 0 -27 14 -51 30 -25 17 -51 30 -58 31 -19
1 -72 33 -74 44 -1 6 0 6 3 1 2 -4 8 -3 12 4 5 8 22 4 60 -14 30 -14 61 -26
71 -26 9 0 19 -6 22 -13 3 -8 34 -24 69 -37 34 -13 70 -31 78 -39 8 -9 41 -29
73 -45 31 -16 57 -33 57 -37 0 -11 117 -69 124 -62 14 15 3 37 -36 75 -24 23
-42 47 -40 55 2 7 -2 13 -8 13 -5 0 -10 4 -10 10 0 11 31 2 45 -14 17 -20 75
-40 85 -30 17 17 -4 62 -48 109 -24 25 -48 45 -54 45 -5 0 -21 14 -35 30 -13
17 -29 30 -34 30 -6 0 -22 12 -37 26 -15 14 -41 31 -58 39 -17 7 -40 20 -50
28 -71 59 -106 84 -133 99 -40 22 -43 53 -3 44 15 -4 45 -9 67 -12z m10647
-12 c-7 -2 -12 -11 -13 -20 0 -13 -2 -13 -8 3 -9 21 6 38 23 28 6 -4 5 -8 -2
-11z m8696 9 c12 -7 -94 -23 -161 -24 -33 0 -47 11 -28 22 18 11 172 13 189 2z
m1435 -12 c3 -10 12 -19 21 -19 20 0 93 -50 130 -89 17 -17 34 -31 39 -31 15
0 88 -67 107 -97 9 -16 33 -39 53 -53 21 -14 40 -33 43 -43 3 -10 14 -25 24
-35 40 -38 130 -167 130 -186 0 -12 18 -39 40 -61 21 -22 39 -48 40 -58 0 -20
69 -127 82 -127 5 0 13 -11 18 -24 5 -15 20 -27 39 -31 20 -4 28 -11 24 -20
-2 -8 4 -26 15 -40 26 -33 18 -55 -18 -55 -21 0 -30 7 -40 29 -8 21 -21 32
-43 37 -18 4 -53 29 -86 63 -79 79 -97 91 -136 91 -38 0 -45 15 -23 49 9 15 8
24 -8 46 -10 15 -24 36 -30 47 -7 11 -17 25 -23 31 -6 6 -11 18 -11 27 0 9
-11 22 -25 28 -14 6 -25 17 -25 23 0 6 -9 24 -20 40 -12 15 -27 45 -34 66 -8
23 -24 44 -42 53 -16 9 -35 28 -42 43 -7 15 -22 32 -33 37 -10 6 -19 16 -19
23 0 7 -23 35 -52 63 -79 75 -122 130 -129 162 -4 22 -2 28 12 29 9 1 19 -7
22 -18z m-1371 4 c-7 -3 -16 -2 -19 1 -4 3 2 6 13 5 11 0 14 -3 6 -6z m-13884
-96 c24 -51 55 -115 68 -143 13 -28 24 -56 24 -61 0 -19 -38 -22 -53 -4 -21
23 -42 65 -38 75 1 6 -2 19 -8 30 -28 59 -70 179 -65 187 14 23 32 1 72 -84z
m-5978 72 c25 -5 86 -15 137 -23 56 -8 99 -20 108 -30 9 -9 25 -16 34 -16 28
0 123 -45 158 -74 17 -15 46 -31 65 -38 39 -13 138 -77 138 -90 0 -5 15 -23
33 -40 22 -22 26 -29 12 -23 -11 3 -29 9 -40 11 -11 2 -25 10 -31 19 -6 8 -37
25 -70 37 -32 12 -67 30 -77 39 -10 9 -35 21 -56 27 -21 7 -46 21 -56 32 -10
11 -28 20 -41 20 -13 0 -25 4 -28 8 -3 5 -72 30 -153 56 -210 68 -216 70 -221
84 -4 14 25 15 88 1z m9120 -3 c0 19 56 -81 94 -168 9 -21 25 -42 36 -48 11
-6 22 -26 26 -48 4 -20 15 -56 26 -80 19 -47 24 -92 9 -92 -5 0 -12 9 -16 19
-3 11 -18 35 -33 54 -15 20 -42 61 -61 91 -18 31 -37 56 -41 56 -18 0 -52 73
-66 140 -15 75 -12 99 12 79 8 -6 14 -8 14 -3z m6800 -27 c0 -5 -4 -7 -10 -4
-5 3 -10 8 -10 11 0 2 5 4 10 4 6 0 10 -5 10 -11z m-11706 -15 c5 -14 -4 -29
-59 -102 -5 -7 -18 -22 -27 -33 -10 -10 -18 -22 -18 -26 0 -5 -14 -21 -31 -38
-17 -16 -42 -51 -55 -77 -13 -25 -45 -73 -72 -105 -27 -32 -58 -79 -70 -103
-19 -42 -48 -80 -130 -169 -20 -21 -31 -43 -28 -53 2 -11 -1 -18 -10 -18 -8 0
-14 -5 -14 -11 0 -6 6 -8 13 -5 6 3 20 9 30 12 9 4 17 12 17 19 0 7 26 36 57
66 58 54 107 110 172 198 19 25 49 59 66 76 18 16 37 40 44 53 14 26 36 30 28
5 -20 -65 -41 -111 -58 -129 -11 -12 -25 -38 -30 -59 -7 -24 -32 -59 -67 -96
-252 -257 -285 -289 -304 -289 -11 0 -22 -8 -25 -20 -6 -21 -37 -27 -48 -10
-7 12 -52 3 -80 -16 -11 -8 -30 -14 -43 -14 -21 0 -23 3 -18 26 5 17 1 35 -9
50 l-15 23 -49 -27 c-27 -15 -62 -37 -77 -49 -16 -13 -36 -23 -46 -23 -9 0
-34 -14 -54 -32 -20 -17 -57 -39 -82 -49 -87 -31 -117 -42 -147 -55 -16 -6
-69 -15 -116 -19 -70 -5 -93 -4 -118 9 -17 9 -31 22 -31 29 0 11 131 47 172
47 9 0 47 20 84 45 36 25 73 45 80 45 7 0 15 4 18 9 3 5 17 12 31 15 14 4 46
22 71 41 25 19 52 35 60 35 8 0 14 4 14 9 0 4 17 20 38 34 20 14 58 45 84 69
26 23 64 57 85 73 52 42 203 195 203 206 0 5 12 14 26 19 14 6 22 15 19 20
-14 22 106 163 153 181 35 13 37 6 7 -29 -14 -16 -25 -35 -25 -40 0 -6 -8 -17
-18 -24 -10 -7 -21 -21 -25 -30 -3 -10 -13 -18 -20 -18 -20 0 -53 -88 -38
-103 15 -15 61 8 68 33 3 11 9 20 13 20 5 0 12 9 15 21 4 11 31 46 62 77 30
31 66 72 80 90 14 17 30 32 37 32 6 1 27 23 46 50 19 28 38 50 42 50 4 0 28
22 55 50 53 55 58 57 67 34z m5074 4 c16 -16 15 -48 -2 -48 -12 0 -25 28 -26
53 0 11 15 8 28 -5z m12414 -27 c19 -23 38 -32 103 -46 50 -11 98 -15 130 -11
35 4 73 -1 125 -15 41 -11 98 -24 125 -30 74 -14 96 -28 84 -50 -5 -10 -8 -22
-8 -26 1 -4 -1 -16 -6 -26 -7 -17 -8 -17 -20 0 -12 16 -15 16 -32 2 -30 -26
-55 -32 -126 -30 -68 2 -137 -13 -137 -30 0 -19 44 -58 74 -65 17 -4 44 -17
59 -30 16 -13 34 -24 42 -24 7 0 15 -9 18 -20 3 -11 14 -20 24 -20 11 0 29
-16 43 -40 22 -35 29 -40 60 -39 51 1 58 -1 32 -12 -13 -5 -21 -13 -18 -18 3
-5 -3 -20 -14 -33 -16 -22 -30 -26 -99 -32 -98 -8 -161 1 -161 22 0 12 7 13
38 7 57 -12 103 -9 113 6 12 20 11 49 -2 49 -6 0 -23 8 -37 18 -15 10 -45 24
-67 31 -22 8 -60 29 -84 48 -24 18 -50 33 -57 33 -8 0 -14 7 -14 15 0 8 -6 15
-14 15 -8 0 -17 8 -20 18 -3 9 -20 32 -37 51 -21 21 -33 46 -35 68 l-3 35 94
-7 c77 -6 95 -5 95 6 0 8 -4 19 -8 25 -12 18 -96 36 -145 31 -51 -6 -70 7 -41
27 25 19 9 39 -17 23 -18 -10 -23 -9 -36 11 -9 12 -21 22 -27 22 -19 0 -87 51
-81 61 13 20 63 9 87 -20z m-22446 -21 c-13 -82 13 -267 55 -392 21 -65 39
-120 39 -123 0 -3 -7 -5 -15 -5 -8 0 -15 4 -15 8 0 12 -65 41 -76 34 -24 -18
-43 -95 -47 -202 -2 -30 -5 -35 -27 -35 -20 0 -26 5 -28 30 -3 35 -3 188 1
260 2 45 0 50 -20 50 -12 0 -25 4 -29 8 -4 4 -13 -1 -21 -11 -12 -15 -13 -5
-7 68 6 76 26 140 45 140 3 0 11 19 18 43 20 68 44 108 68 118 12 4 28 17 35
29 20 32 31 23 24 -20z m11118 -8 c-12 -9 -23 -23 -26 -31 -4 -14 -48 -27 -48
-14 0 4 17 24 37 45 26 27 40 35 48 27 7 -7 4 -15 -11 -27z m-854 12 c0 -2 -4
-4 -10 -4 -5 0 -10 5 -10 11 0 5 5 7 10 4 6 -3 10 -8 10 -11z m10470 -4 c0 -5
-4 -10 -10 -10 -5 0 -10 5 -10 10 0 6 5 10 10 10 6 0 10 -4 10 -10z m-4629
-47 c49 -68 79 -123 79 -148 0 -11 5 -26 11 -32 5 -5 16 -35 23 -66 14 -61 6
-270 -12 -317 -16 -41 -23 -124 -13 -140 9 -13 12 -13 25 0 8 8 17 29 20 45 2
17 16 57 30 90 14 33 26 73 26 88 0 44 27 87 54 87 30 0 36 -16 36 -95 0 -68
-14 -112 -76 -243 -19 -40 -34 -76 -34 -80 0 -15 23 -30 37 -25 18 7 109 197
125 261 7 26 16 53 21 60 8 10 77 18 77 8 0 -2 11 -48 25 -102 27 -106 30
-150 16 -198 -5 -17 -18 -59 -27 -94 -10 -35 -21 -65 -26 -68 -11 -7 -10 -52
2 -59 17 -10 47 13 58 45 15 41 32 38 32 -5 0 -55 31 -47 63 18 15 29 27 59
27 67 0 26 35 113 46 117 22 7 37 -84 30 -188 -5 -85 -4 -99 9 -99 22 0 50 51
64 116 9 41 17 54 28 52 22 -4 55 -105 49 -147 -3 -19 0 -41 6 -48 13 -17 48
-17 49 0 2 28 6 53 13 73 10 31 40 20 57 -19 15 -34 30 -37 97 -22 27 6 32 5
32 -11 0 -25 71 -118 93 -122 10 -2 30 -15 44 -28 15 -13 37 -27 50 -30 21 -6
50 -40 41 -49 -2 -2 -75 -4 -163 -6 -179 -4 -309 7 -326 27 -6 8 -16 14 -21
14 -6 0 -29 15 -51 33 -82 64 -85 64 -169 21 -14 -8 -33 -14 -41 -14 -8 0 -19
-6 -25 -13 -19 -22 -204 -29 -225 -8 -5 5 -13 27 -17 48 -9 41 -27 97 -42 127
-5 10 -12 30 -14 45 -9 54 -10 54 -78 47 -35 -3 -84 -13 -110 -22 -34 -12 -67
-15 -124 -10 -107 8 -161 17 -168 27 -3 5 -16 9 -29 9 -19 0 -35 16 -35 35 0
3 17 9 38 14 50 14 105 49 96 62 -3 6 7 22 23 37 43 39 106 180 134 297 37
159 32 342 -11 385 -10 10 -39 76 -46 102 -3 15 -15 30 -25 33 -21 7 -25 35
-7 53 7 7 30 12 53 12 37 0 44 -4 76 -47z m-6031 22 c7 -8 20 -14 28 -13 11 2
18 -8 22 -32 3 -19 14 -51 24 -70 9 -19 22 -70 28 -113 10 -66 9 -80 -4 -93
-13 -13 -16 -11 -30 23 -9 21 -23 64 -33 97 -12 42 -22 60 -37 64 -18 4 -19
11 -14 51 4 32 1 52 -9 65 -8 11 -15 23 -15 28 0 14 27 9 40 -7z m213 -24 c6
-26 -8 -49 -17 -26 -9 24 -8 45 3 45 5 0 11 -9 14 -19z m1017 10 c0 -13 -37
-24 -50 -16 -6 4 -8 11 -5 16 8 12 55 12 55 0z m160 -31 c0 -11 -7 -20 -15
-20 -15 0 -21 21 -8 33 12 13 23 7 23 -13z m-11347 -36 c-3 -7 1 -30 8 -51 7
-21 13 -41 14 -45 0 -3 3 -10 8 -14 4 -4 7 -20 7 -35 0 -15 5 -40 10 -55 6
-15 8 -30 4 -33 -4 -3 -9 0 -11 7 -4 10 -8 10 -19 1 -8 -6 -15 -8 -16 -3 0 5
-2 14 -2 19 -1 6 -7 20 -14 31 -7 13 -10 54 -7 110 5 116 4 111 14 95 5 -8 7
-20 4 -27z m18695 24 c7 -7 12 -22 12 -35 0 -20 -5 -23 -41 -23 -22 0 -47 6
-55 14 -15 15 -18 38 -7 49 11 12 78 8 91 -5z m-13785 -17 c-5 -18 -22 -31
-50 -37 -19 -3 -16 6 10 31 28 29 47 31 40 6z m6372 -21 c-3 -5 -10 -10 -16
-10 -5 0 -9 5 -9 10 0 6 7 10 16 10 8 0 12 -4 9 -10z m-12015 -29 c0 -12 -20
-25 -27 -18 -7 7 6 27 18 27 5 0 9 -4 9 -9z m11939 -25 c-24 -22 -39 -28 -106
-46 -59 -14 -38 16 30 43 102 42 119 43 76 3z m7185 13 c15 -11 36 -39 47 -60
11 -22 26 -42 34 -46 8 -3 15 -10 15 -17 0 -6 14 -31 30 -56 16 -25 33 -60 36
-78 5 -27 11 -32 28 -30 18 3 21 9 19 51 -1 27 -8 56 -16 65 -17 19 -38 88
-29 96 24 25 115 -42 138 -102 10 -25 34 -57 55 -74 40 -32 129 -196 129 -237
0 -12 7 -36 16 -53 20 -39 24 -195 6 -255 -9 -30 -21 -47 -42 -58 l-30 -16 0
34 c0 68 -11 98 -34 95 -16 -2 -24 -15 -33 -53 -7 -27 -16 -56 -19 -65 -4 -8
-8 -27 -9 -42 -2 -15 -12 -42 -24 -60 -11 -18 -28 -49 -37 -68 -23 -50 -63
-86 -106 -98 -36 -10 -38 -9 -38 13 0 15 16 39 45 66 25 23 45 46 45 51 0 10
30 54 73 108 42 53 42 53 44 90 9 156 3 200 -26 200 -14 0 -21 -18 -34 -96
-16 -90 -44 -165 -67 -179 -6 -4 -17 -21 -24 -38 -20 -46 -67 -93 -98 -101
-20 -4 -28 -13 -28 -28 0 -29 -88 -114 -103 -99 -8 8 -8 19 -1 38 8 22 16 28
37 26 15 -1 26 1 25 5 -1 9 54 123 87 180 29 49 52 164 41 205 -6 26 -30 46
-42 35 -2 -3 -6 -23 -8 -44 -8 -82 -33 -135 -83 -176 -12 -10 -25 -27 -28 -38
-11 -34 -34 -23 -37 18 -2 29 -7 37 -23 37 -13 0 -23 -10 -30 -30 -18 -54
-158 -199 -203 -210 -15 -3 -36 -14 -47 -24 -23 -21 -115 -51 -154 -51 -15 0
-50 -6 -77 -14 -27 -8 -69 -15 -94 -16 -93 -4 -160 0 -160 9 0 8 58 26 120 38
14 2 43 10 65 18 23 7 70 19 105 25 36 6 74 20 85 30 11 11 36 26 56 34 20 8
41 22 49 30 7 9 18 16 25 16 11 0 42 30 152 146 38 40 53 68 53 95 0 14 9 34
20 44 46 42 68 169 57 335 -3 44 -47 149 -70 169 -7 5 -38 12 -69 16 -57 7
-58 7 -58 -17 0 -14 11 -42 25 -62 13 -19 27 -58 31 -86 l7 -50 -30 0 c-41 0
-90 18 -97 36 -4 9 -20 14 -50 14 -37 0 -48 5 -70 31 -14 17 -26 39 -26 49 0
23 -19 30 -81 30 -50 0 -111 19 -139 45 -8 7 -45 25 -82 40 -67 27 -85 48 -50
59 9 3 65 2 124 -3 67 -6 122 -5 145 1 71 18 118 23 186 20 62 -3 67 -6 62
-23 -8 -24 23 -39 36 -18 5 8 4 15 -2 17 -6 3 -6 8 0 15 11 14 -12 77 -29 77
-21 0 -9 18 15 23 50 9 96 -26 186 -141 30 -39 47 -52 63 -50 25 4 34 37 14
52 -7 6 -24 33 -38 60 -14 26 -31 50 -37 53 -7 3 -13 14 -13 24 0 27 59 26 94
-2z m221 1 c-3 -5 -8 -10 -11 -10 -2 0 -4 5 -4 10 0 6 5 10 11 10 5 0 7 -4 4
-10z m-20167 -12 c36 -8 49 -15 45 -25 -3 -8 -12 -12 -19 -9 -8 3 -14 1 -14
-4 0 -6 -9 -10 -20 -10 -22 0 -72 -20 -81 -33 -10 -14 -49 15 -55 40 -11 40 2
53 50 53 24 0 67 -5 94 -12z m6634 1 c54 -29 53 -16 32 -254 -4 -49 21 -231
35 -250 4 -5 18 -39 31 -75 24 -64 100 -172 127 -178 7 -2 13 -9 13 -16 0 -15
31 -42 59 -51 70 -22 -54 -115 -154 -115 -71 0 -229 33 -255 54 -8 6 -32 18
-53 25 -36 12 -40 11 -63 -10 -14 -13 -27 -40 -30 -61 -10 -62 -55 -121 -110
-148 -47 -22 -53 -22 -174 -12 -69 6 -145 14 -170 19 -44 9 -110 48 -110 65 0
4 -5 8 -11 8 -6 0 -26 12 -45 26 -24 19 -41 25 -61 21 -60 -12 -132 -44 -175
-80 -25 -20 -51 -37 -58 -37 -7 0 -21 -7 -30 -15 -17 -16 -173 -60 -267 -76
-31 -6 -108 -5 -195 1 -79 6 -150 11 -158 11 -31 2 -129 30 -171 49 -60 27
-79 50 -129 155 -23 50 -55 101 -71 115 -15 14 -29 34 -31 44 -4 27 -34 44
-49 29 -15 -15 5 -119 28 -145 16 -18 15 -51 -2 -52 -5 -1 -16 17 -23 39 -7
22 -19 43 -27 48 -23 12 -92 138 -99 179 -8 47 -40 88 -56 72 -11 -11 -9 -35
14 -142 4 -19 1 -23 -17 -20 -18 2 -24 12 -31 58 -10 59 -22 75 -44 57 -11 -8
-13 -25 -8 -62 14 -111 25 -154 60 -235 38 -88 40 -114 9 -103 -29 10 -73 55
-73 75 0 9 -9 32 -20 50 -11 18 -20 39 -20 47 0 8 -20 54 -45 103 -25 49 -45
96 -45 104 0 8 -5 20 -10 27 -6 7 -17 21 -24 31 -16 24 -36 13 -36 -20 0 -37
-27 -29 -34 11 -11 55 16 200 46 250 9 17 25 45 34 63 9 18 30 44 48 59 17 14
45 47 61 72 17 25 36 47 43 47 6 1 17 2 22 3 6 0 10 8 10 17 0 10 5 14 16 10
8 -3 12 -2 9 4 -3 6 -1 10 4 10 20 0 11 -28 -14 -48 -14 -11 -25 -25 -25 -31
0 -7 -9 -25 -21 -40 -12 -16 -27 -54 -34 -85 -12 -50 -11 -58 1 -63 16 -6 33
12 61 67 10 19 34 53 53 76 75 88 90 106 90 114 0 4 13 13 29 20 16 6 32 18
35 26 3 8 14 14 25 14 11 0 23 5 26 10 3 6 33 10 65 10 32 0 62 -4 65 -10 3
-5 15 -10 25 -10 10 0 22 -5 25 -11 11 -16 -13 -64 -38 -74 -12 -6 -24 -19
-26 -30 -2 -11 -21 -39 -42 -62 -22 -24 -39 -48 -39 -55 0 -7 -7 -26 -15 -42
-42 -80 -27 -272 26 -348 11 -14 19 -38 19 -53 0 -31 14 -61 45 -95 13 -14 36
-50 53 -80 16 -30 33 -54 38 -53 5 1 25 -13 44 -31 19 -19 62 -46 95 -61 33
-15 75 -34 94 -42 19 -9 71 -23 117 -33 74 -15 92 -15 156 -4 117 22 226 56
270 86 14 10 30 18 35 18 16 0 128 62 146 81 37 39 74 53 178 64 17 1 55 27
124 80 35 27 86 55 100 55 3 0 5 -9 5 -20 0 -11 4 -20 8 -20 5 0 13 -21 18
-47 7 -40 12 -47 29 -45 11 2 22 6 24 8 7 6 5 61 -4 136 -7 63 -6 69 16 92 28
30 64 34 77 9 6 -10 13 -38 17 -63 15 -103 59 -210 85 -210 30 0 41 61 18 103
-19 34 -11 277 9 300 9 9 20 17 24 17 9 0 54 -80 62 -111 10 -38 65 -119 81
-119 24 0 24 32 0 80 -68 135 -86 218 -65 298 10 35 16 42 36 42 22 0 28 -10
65 -127 56 -175 65 -193 98 -193 30 0 52 16 52 37 0 8 -21 46 -47 85 -45 69
-48 76 -51 153 -9 187 -3 232 39 320 12 25 67 32 101 14z m5808 1 c0 -5 -5
-10 -11 -10 -5 0 -7 5 -4 10 3 6 8 10 11 10 2 0 4 -4 4 -10z m518 -12 c2 -10
-10 -31 -27 -47 -17 -17 -31 -34 -31 -39 0 -4 -18 -18 -40 -31 -32 -18 -53
-22 -103 -20 -61 3 -62 2 -65 -24 -3 -20 -9 -27 -25 -27 -29 0 -51 15 -43 29
4 6 16 11 27 11 10 0 19 7 19 15 0 9 10 20 23 25 12 6 29 14 37 19 8 4 31 15
50 23 19 9 53 24 75 33 22 10 46 27 53 37 16 23 45 20 50 -4z m10415 -65 c37
-113 40 -133 23 -133 -17 0 -21 11 -41 96 -15 63 -19 114 -11 114 2 0 16 -35
29 -77z m-22603 53 c0 -24 -28 -81 -49 -100 -12 -11 -21 -25 -21 -31 0 -7 -7
-18 -15 -25 -8 -7 -19 -29 -25 -50 -6 -23 -29 -58 -55 -85 -44 -45 -58 -86
-34 -100 6 -4 30 13 53 39 24 25 45 43 48 40 3 -3 2 -23 -3 -46 -6 -22 -7 -49
-4 -59 7 -20 -15 -68 -54 -117 -59 -74 -167 -189 -207 -221 -24 -18 -46 -42
-49 -52 -4 -10 -14 -19 -24 -19 -10 0 -27 -10 -38 -22 -81 -88 -164 -115 -171
-56 -2 20 5 32 31 52 19 14 38 26 43 26 5 0 16 15 25 33 8 17 25 36 37 42 12
5 22 14 22 20 0 5 14 30 31 55 38 56 35 82 -9 91 -18 4 -36 9 -39 12 -9 10 6
55 22 69 27 22 39 34 95 97 30 34 90 98 133 144 44 45 83 92 88 105 5 12 15
22 23 22 7 0 20 14 27 32 13 32 94 118 111 118 4 0 8 -6 8 -14z m17410 -27 c0
-5 -4 -7 -10 -4 -5 3 -10 8 -10 11 0 2 5 4 10 4 6 0 10 -5 10 -11z m-11840
-19 c0 -5 -5 -10 -11 -10 -5 0 -7 5 -4 10 3 6 8 10 11 10 2 0 4 -4 4 -10z
m1948 -65 c6 -22 27 -85 46 -140 41 -116 43 -135 17 -135 -18 0 -51 52 -51 79
0 7 -6 22 -14 34 -7 12 -19 59 -26 104 -17 115 2 155 28 58z m-8368 8 c0 -14
11 -15 108 -8 161 13 235 12 239 -2 3 -7 -14 -31 -36 -55 -23 -23 -43 -49 -46
-58 -7 -23 -62 -40 -131 -40 -48 0 -61 4 -72 20 -7 11 -17 20 -23 20 -25 0
-53 46 -63 103 -6 30 -4 37 9 37 8 0 15 -7 15 -17z m900 -28 c-7 -8 -16 -12
-21 -9 -5 3 -6 -1 -4 -8 3 -8 -1 -33 -10 -57 -8 -24 -13 -47 -10 -51 6 -9 -55
-50 -74 -50 -23 0 -2 59 52 145 14 23 49 51 60 47 4 -1 7 4 8 11 0 9 2 9 6 -1
3 -7 -1 -19 -7 -27z m22809 0 c11 -19 16 -35 11 -35 -6 0 -10 4 -10 10 0 5 -6
7 -13 4 -14 -5 -40 39 -30 50 12 12 21 5 42 -29z m-143 -1 c-5 -18 -2 -32 10
-45 19 -21 46 -213 45 -328 -1 -105 -33 -197 -95 -265 -30 -34 -45 -40 -93
-37 -26 1 -31 28 -12 63 6 12 11 41 11 64 -1 35 3 46 25 62 17 12 28 32 32 58
5 32 10 39 30 39 24 1 46 28 36 45 -3 6 -15 10 -25 10 -25 0 -50 48 -50 95 0
41 20 47 42 13 26 -38 54 11 29 51 -5 8 -5 27 0 44 5 18 4 47 -2 73 -8 30 -8
48 0 63 16 29 25 26 17 -5z m-12102 0 c3 -8 2 -12 -4 -9 -6 3 -10 10 -10 16 0
14 7 11 14 -7z m9176 -40 c0 -2 -7 -4 -16 -4 -8 0 -12 5 -9 10 6 9 25 5 25 -6z
m-10385 -4 c4 -6 11 -8 16 -4 6 3 5 -3 -2 -14 -7 -12 -15 -19 -18 -17 -5 6
-35 -36 -36 -50 -1 -25 -18 -54 -38 -68 -13 -8 -31 -33 -42 -56 -11 -22 -23
-41 -26 -41 -20 0 -87 -67 -101 -101 -19 -43 -85 -129 -99 -129 -13 0 -11 48
2 56 6 3 17 21 25 38 14 31 25 50 57 98 9 14 17 33 17 41 0 8 12 23 28 32 44
29 82 68 99 103 8 17 23 32 32 32 9 0 26 20 40 45 24 45 35 53 46 35z m13265
-40 c0 -5 -4 -12 -10 -15 -5 -3 -10 -4 -10 -1 0 2 -3 12 -6 20 -5 12 -2 15 10
10 9 -3 16 -10 16 -14z m-21800 -12 c0 -19 -2 -20 -10 -8 -13 19 -13 30 0 30
6 0 10 -10 10 -22z m20149 -18 c10 0 24 -7 31 -15 7 -9 32 -25 54 -35 23 -11
52 -31 66 -46 14 -15 42 -38 63 -52 41 -27 41 -36 9 -99 -14 -28 -25 -34 -84
-48 -37 -8 -82 -15 -101 -15 -19 0 -54 -7 -77 -15 -23 -8 -67 -15 -97 -15 -29
0 -70 7 -90 15 -19 8 -55 15 -80 15 -36 0 -44 3 -41 16 5 25 165 70 278 79
109 9 140 15 140 31 0 17 12 16 -198 19 -124 1 -176 5 -185 14 -9 10 -8 15 6
25 11 6 46 28 79 49 33 21 76 41 96 44 47 7 92 33 92 53 1 12 3 12 11 -2 5
-10 18 -18 28 -18z m-10258 -48 c3 -25 0 -47 -8 -58 -7 -10 -14 -16 -16 -13
-2 2 -13 21 -25 42 -35 61 -25 94 23 77 14 -5 22 -19 26 -48z m1329 8 c0 -15
-45 -30 -88 -30 -65 0 -4 32 76 39 6 0 12 -4 12 -9z m10459 -22 c17 -46 22
-124 11 -168 -7 -25 -13 -71 -15 -102 -3 -70 -33 -148 -57 -148 -23 0 -36 49
-17 60 10 7 13 35 10 117 -1 59 -6 110 -10 113 -5 3 -5 30 0 60 4 30 8 63 8
73 1 27 59 23 70 -5z m461 7 c7 -8 9 -15 5 -15 -4 0 -2 -7 6 -16 10 -13 10
-17 -2 -25 -10 -6 -10 -9 -1 -9 6 0 12 -7 12 -15 0 -8 -4 -15 -9 -15 -5 0 -16
7 -25 15 -8 8 -19 15 -24 15 -12 0 -22 24 -22 50 0 16 10 23 41 29 4 0 12 -6
19 -14z m-9774 -19 c8 -34 1 -61 -15 -61 -16 0 -34 52 -26 73 8 21 34 13 41
-12z m6454 -2 c0 -2 -4 -4 -10 -4 -5 0 -10 5 -10 11 0 5 5 7 10 4 6 -3 10 -8
10 -11z m-9280 -65 c0 -6 -4 -7 -10 -4 -5 3 -10 11 -10 16 0 6 5 7 10 4 6 -3
10 -11 10 -16z m63 -23 c24 -22 26 -36 6 -36 -13 0 -49 42 -43 52 7 11 8 11
37 -16z m13607 -41 c7 -8 19 -15 26 -15 18 0 94 -40 118 -62 11 -10 25 -18 32
-18 7 0 14 -10 16 -22 2 -13 13 -27 26 -33 34 -15 51 -85 45 -185 -4 -49 -9
-76 -14 -68 -6 9 -9 6 -9 -10 0 -16 -7 -26 -21 -29 -12 -4 -18 -11 -15 -20 7
-16 -49 -53 -81 -53 -15 0 -23 -7 -25 -22 -2 -18 -10 -23 -33 -23 -23 0 -31 5
-33 23 -2 14 2 22 12 22 8 0 24 13 36 29 11 17 36 36 55 42 24 9 35 20 36 34
0 11 2 45 4 75 3 70 -20 147 -54 176 -18 17 -39 23 -69 24 -51 0 -120 -20
-127 -38 -2 -7 4 -35 15 -62 11 -28 17 -50 14 -50 -4 0 -1 -6 5 -14 10 -12 5
-13 -31 -9 -24 3 -58 14 -76 24 -40 23 -42 23 -42 5 0 -7 -7 -20 -16 -27 -13
-11 -17 -10 -25 4 -13 22 -79 24 -79 2 0 -21 -37 -19 -49 3 -7 13 -5 23 11 39
12 13 20 24 17 26 -2 1 -22 16 -44 32 -22 17 -60 44 -85 60 -42 27 -79 63 -80
76 0 3 19 6 42 7 23 1 50 9 59 18 18 16 48 16 123 1 25 -5 33 -25 9 -23 -13 1
-19 -10 -25 -49 -10 -65 -1 -115 21 -115 9 0 27 -7 39 -16 13 -9 24 -14 25
-13 1 2 10 18 19 35 10 17 13 35 9 40 -5 5 -4 37 3 74 9 51 16 66 32 68 10 2
27 11 36 19 34 30 128 42 148 18z m175 -5 c3 -5 2 -10 -4 -10 -5 0 -13 5 -16
10 -3 6 -2 10 4 10 5 0 13 -4 16 -10z m-16621 -14 c23 -9 36 -23 40 -42 11
-44 65 -147 92 -175 13 -14 24 -28 24 -32 0 -11 38 -62 78 -106 19 -20 39 -49
47 -66 16 -38 80 -101 140 -141 15 -10 67 -34 116 -53 49 -20 88 -40 86 -46
-1 -5 -27 -10 -57 -10 -44 0 -70 8 -128 38 -41 21 -84 47 -95 59 -12 11 -45
37 -73 58 -30 23 -68 65 -92 102 -22 35 -51 74 -66 87 -14 14 -26 28 -26 32 0
5 -14 32 -31 61 -58 98 -115 248 -94 248 3 0 21 -6 39 -14z m15474 0 c-10 -7
-15 -15 -12 -18 9 -9 -40 -14 -66 -7 -24 7 -23 7 6 8 17 1 37 8 44 16 7 8 20
15 29 15 14 -1 14 -2 -1 -14z m402 -12 c0 -8 -4 -12 -10 -9 -5 3 -10 13 -10
21 0 8 5 12 10 9 6 -3 10 -13 10 -21z m-20835 -13 c3 -10 14 -21 24 -24 28 -7
76 -76 63 -89 -8 -8 -19 -4 -41 13 -16 13 -30 28 -30 33 -1 5 -7 17 -15 25
-18 22 -30 61 -17 61 5 0 12 -9 16 -19z m-2567 -58 c17 -74 34 -203 28 -219
-3 -8 -11 -14 -18 -14 -15 0 -49 -72 -68 -142 -14 -52 -49 -98 -75 -98 -14 0
-16 8 -10 50 8 56 -7 67 -39 31 -28 -31 -44 -17 -38 35 4 35 1 44 -10 44 -20
0 -33 -18 -42 -55 l-7 -29 -25 47 c-41 82 -32 156 25 217 9 9 23 31 32 47 13
24 26 32 59 38 42 7 54 3 56 -18 0 -7 2 -20 2 -29 3 -24 39 -23 51 1 11 20 0
73 -20 97 -21 25 -3 44 44 44 l43 0 12 -47z m10058 10 c-3 -4 -6 2 -5 13 0 11
3 14 6 6 3 -7 2 -16 -1 -19z m10424 -35 c-23 -25 -35 -61 -26 -77 4 -6 27 -8
55 -4 45 5 51 3 91 -33 42 -38 109 -79 182 -110 32 -14 60 -54 38 -54 -4 0
-10 -8 -13 -18 -2 -11 -17 -21 -33 -25 -16 -3 -42 -17 -57 -31 -16 -14 -37
-26 -48 -26 -11 0 -38 -18 -58 -39 -32 -33 -48 -42 -102 -52 -35 -6 -93 -11
-129 -10 -100 2 -371 -35 -457 -62 -106 -34 -224 -46 -410 -44 -100 1 -185 6
-190 10 -9 10 27 39 77 63 19 9 50 33 69 53 31 33 137 79 150 66 2 -3 -1 -5
-7 -5 -7 0 -12 -5 -12 -11 0 -6 -11 -20 -25 -31 -30 -24 -36 -78 -7 -78 18 0
24 2 162 45 134 42 219 64 350 91 166 34 221 47 310 72 42 12 91 23 110 25 35
3 62 29 45 46 -13 13 -237 -3 -335 -24 -41 -9 -101 -19 -133 -22 -54 -5 -59
-4 -55 13 4 22 63 42 125 43 23 1 44 5 47 10 3 4 33 14 66 20 37 8 63 18 67
28 7 19 -13 33 -49 33 -15 0 -30 4 -33 10 -10 16 68 84 159 137 12 7 38 13 59
13 l38 0 -21 -22z m-16180 -26 c0 -11 -87 -72 -103 -72 -7 0 -22 -7 -33 -15
-24 -18 -127 -21 -122 -2 2 6 31 21 64 32 32 11 65 24 73 29 7 5 37 14 65 21
28 7 52 13 54 14 1 1 2 -3 2 -7z m19945 -12 c-3 -5 -8 -10 -11 -10 -2 0 -4 5
-4 10 0 6 5 10 11 10 5 0 7 -4 4 -10z m-12865 -22 c0 -51 -35 -208 -47 -208
-7 0 -13 -6 -13 -12 0 -8 -4 -7 -10 3 -12 20 -14 69 -5 139 11 98 12 100 45
100 24 0 30 -4 30 -22z m142 10 c6 -16 -52 -119 -63 -113 -13 9 -11 99 3 113
15 15 55 16 60 0z m-420 -48 c9 -44 4 -60 -20 -60 -26 0 -44 43 -32 76 14 36
42 28 52 -16z m134 -2 c-9 -57 -28 -68 -40 -23 -10 44 -3 65 25 65 20 0 21 -4
15 -42z m-8498 15 c47 -30 122 -95 133 -115 17 -31 -2 -42 -44 -25 -68 29
-149 120 -131 148 7 12 11 12 42 -8z m20172 -8 c13 -14 28 -25 34 -25 6 0 17
-9 24 -20 7 -11 23 -20 37 -20 20 0 27 6 31 28 5 23 13 30 50 40 60 16 72 15
79 -7 3 -11 23 -28 44 -38 21 -10 42 -27 47 -38 5 -11 21 -26 37 -33 15 -7 27
-17 27 -22 0 -13 151 -81 240 -108 19 -5 61 -13 93 -17 40 -4 57 -11 57 -21 0
-10 -13 -14 -44 -14 -26 0 -46 -5 -49 -12 -4 -10 -8 -10 -14 -1 -8 11 -126 43
-159 43 -25 0 -15 -29 25 -70 28 -29 47 -40 69 -40 17 0 34 -4 37 -10 10 -17
25 -11 35 14 7 18 14 22 34 19 25 -5 37 -23 16 -23 -5 0 -10 -12 -10 -27 0
-44 -11 -50 -80 -52 -48 -1 -75 4 -102 19 -21 11 -44 20 -52 20 -8 0 -21 6
-28 13 -19 18 -96 57 -113 57 -9 0 -23 4 -33 9 -9 6 -29 12 -45 16 -15 3 -35
13 -45 23 -29 29 -105 82 -117 82 -7 0 -27 16 -46 35 -19 19 -47 47 -62 62
-24 23 -77 118 -77 137 0 16 39 3 60 -19z m-13980 -15 c0 -11 -7 -20 -15 -20
-13 0 -14 4 -5 20 6 11 13 20 15 20 3 0 5 -9 5 -20z m10950 -15 c-20 -25 -137
-85 -164 -85 -48 0 -30 28 39 60 28 13 57 30 65 36 18 15 64 22 68 11 2 -4 -1
-14 -8 -22z m-20570 10 c0 -5 -36 -48 -75 -89 -11 -12 -33 -27 -48 -34 -15 -6
-30 -19 -33 -27 -7 -16 -34 -21 -34 -6 0 5 18 26 40 47 22 21 40 44 40 51 0
16 69 63 92 63 10 0 18 -2 18 -5z m22520 -14 c0 -10 7 -24 15 -31 11 -9 13
-15 5 -20 -12 -7 43 -122 62 -129 5 -2 24 -16 41 -31 18 -15 43 -31 57 -35 14
-4 30 -14 36 -22 8 -12 17 -13 50 -4 21 6 71 11 110 11 68 0 149 11 187 25 13
6 17 2 17 -15 0 -13 -8 -24 -20 -27 -11 -3 -20 -9 -20 -12 0 -4 -19 -21 -42
-37 -40 -27 -49 -29 -138 -29 -110 1 -187 18 -215 50 -24 26 -116 48 -163 39
-34 -7 -122 20 -122 37 0 12 -37 12 -45 0 -3 -5 0 -21 6 -35 10 -21 17 -24 37
-19 21 5 23 3 18 -14 -7 -22 34 -66 72 -78 15 -4 22 -14 22 -31 0 -20 -5 -24
-32 -24 -41 0 -107 32 -154 76 -21 19 -41 34 -45 34 -4 0 -14 17 -24 38 -22
47 -41 62 -81 62 -24 0 -39 8 -58 31 -26 30 -29 40 -41 111 -7 45 -25 40 280
74 33 4 69 10 80 15 11 4 39 8 63 8 35 1 42 -2 42 -18z m1640 -1 c11 -11 26
-20 34 -20 17 0 25 -18 18 -42 -6 -23 -28 -22 -77 5 -29 16 -41 29 -43 50 -3
23 0 27 22 27 14 0 35 -9 46 -20z m-11720 -20 c17 -17 18 -23 7 -49 -19 -45
-61 -88 -101 -102 -20 -7 -36 -18 -36 -24 0 -30 -67 -85 -127 -105 -56 -18
-123 -27 -123 -16 0 21 18 37 50 46 24 7 60 31 96 66 32 30 70 63 86 72 15 9
30 28 33 44 9 38 52 88 76 88 10 0 28 -9 39 -20z m-8691 -67 c13 -38 28 -74
34 -80 5 -7 7 -20 3 -28 -9 -24 -50 0 -43 26 3 10 2 19 -2 19 -12 0 -29 42
-36 88 -11 68 16 53 44 -25z m1621 23 c-22 -21 -63 -31 -58 -15 3 8 12 14 21
14 8 0 19 4 23 8 4 4 12 7 18 7 6 0 4 -6 -4 -14z m6185 -6 c18 -19 17 -20 -6
-20 -40 0 -69 11 -69 26 0 21 54 17 75 -6z m11780 0 c3 -5 -1 -10 -9 -10 -9 0
-16 5 -16 10 0 6 4 10 9 10 6 0 13 -4 16 -10z m145 -33 c0 -14 71 -91 92 -99
15 -6 18 -19 18 -76 0 -91 -9 -135 -26 -128 -8 3 -18 -4 -24 -14 -10 -18 -22
-20 -110 -20 l-100 0 -14 33 c-7 17 -27 46 -43 62 -24 26 -28 37 -25 71 2 26
14 53 32 74 27 32 29 33 62 20 18 -7 40 -22 49 -33 30 -36 49 -15 51 55 0 35
2 68 3 73 2 6 3 15 4 20 2 12 31 -24 31 -38z m-474 -21 c1 -47 -18 -55 -30
-13 -9 35 -7 45 12 50 9 3 17 5 17 6 1 0 1 -19 1 -43z m-11411 10 c18 7 50
-57 34 -67 -7 -4 -18 -5 -24 -3 -15 6 -35 49 -34 72 0 9 3 12 5 5 3 -7 11 -10
19 -7z m12971 -73 c-11 -11 -17 4 -9 23 7 18 8 18 11 1 2 -10 1 -21 -2 -24z
m-1706 -27 c0 -8 -4 -18 -10 -21 -5 -3 -10 3 -10 14 0 12 5 21 10 21 6 0 10
-6 10 -14z m-19340 -13 c10 -10 43 -31 74 -47 30 -16 65 -40 77 -52 l22 -24
-32 0 c-18 0 -30 4 -27 9 3 5 -10 12 -30 15 -19 4 -45 16 -57 26 -12 10 -37
29 -56 42 -19 13 -36 29 -39 36 -6 19 46 15 68 -5z m710 -18 c0 -8 6 -15 14
-15 13 0 32 -47 23 -56 -10 -10 -37 10 -37 28 0 11 -5 28 -10 39 -7 13 -7 19
0 19 5 0 10 -7 10 -15z m20358 3 c-11 -31 -108 -34 -108 -3 0 12 13 15 56 15
38 0 54 -4 52 -12z m296 -33 c-6 -16 -24 -21 -24 -7 0 11 11 22 21 22 5 0 6
-7 3 -15z m-25239 -25 c-3 -5 -8 -10 -11 -10 -2 0 -4 5 -4 10 0 6 5 10 11 10
5 0 7 -4 4 -10z m19965 1 c0 -6 -4 -13 -10 -16 -5 -3 -10 1 -10 9 0 9 5 16 10
16 6 0 10 -4 10 -9z m-19782 -29 c3 -9 -2 -13 -14 -10 -9 1 -19 9 -22 16 -3 9
2 13 14 10 9 -1 19 -9 22 -16z m24860 -79 c-5 -25 -28 -28 -28 -4 0 12 6 21
16 21 9 0 14 -7 12 -17z m-25848 -113 c58 -17 131 -31 165 -32 33 -1 1493 0
3245 1 4436 4 6437 4 6560 0 58 -2 125 -3 150 -3 171 3 814 3 1860 1 668 -2
1223 0 1232 5 9 4 19 4 23 -1 4 -7 530 -14 1125 -14 14 0 45 1 70 3 25 1 1010
-1 2190 -5 1180 -4 2156 -7 2170 -7 14 0 142 0 285 0 143 0 285 -1 315 -1 814
-1 5468 15 5500 19 25 4 52 10 60 14 9 5 18 2 25 -7 9 -12 66 -15 365 -16 195
-1 398 0 450 2 52 2 177 0 277 -3 148 -6 192 -4 241 8 97 26 104 24 144 -42
20 -31 43 -72 52 -90 17 -32 17 -32 -11 -43 -27 -10 -303 -13 -468 -4 -43 2
-84 1 -90 -3 -9 -6 -189 -12 -290 -9 -110 3 -1373 -1 -1453 -5 -67 -3 -96 -8
-102 -18 -8 -12 -10 -12 -15 2 -6 14 -21 18 -78 18 -232 4 -2978 3 -3382 -1
-154 -2 -296 -3 -315 -3 -183 2 -985 3 -1925 3 -1134 -1 -1466 -1 -2315 1
-417 1 -3114 1 -3190 0 -239 -3 -322 -1 -336 11 -10 8 -18 9 -22 2 -7 -10
-181 -18 -337 -14 -49 1 -339 4 -643 6 -304 2 -557 7 -562 10 -6 3 -15 3 -21
-1 -12 -7 -1783 -6 -2514 2 -258 3 -479 4 -490 3 -11 -2 -114 -3 -230 -2 -115
1 -511 2 -880 3 -368 1 -679 1 -690 1 -11 1 -49 2 -85 4 -36 2 -129 3 -207 4
-97 0 -143 3 -143 11 0 7 -6 8 -18 1 -11 -6 -681 -8 -1822 -4 -1629 4 -3415
11 -3480 12 -14 1 -113 1 -220 2 -382 2 -418 4 -448 26 -24 18 -25 22 -15 46
7 16 21 27 32 27 11 0 23 12 31 30 37 90 67 97 230 50z"/>
<path d="M14043 4687 c-21 -11 -40 -68 -29 -86 3 -5 -1 -15 -10 -22 -13 -11
-21 -10 -49 5 -30 17 -41 32 -59 88 -4 14 -10 16 -28 9 -22 -8 -23 -14 -26
-122 -1 -63 -7 -124 -14 -136 -12 -24 2 -53 26 -53 20 0 57 45 55 66 -5 54 9
64 67 48 23 -6 44 -42 44 -74 0 -11 4 -20 9 -20 5 0 15 -2 23 -5 29 -11 41 13
46 91 9 129 7 191 -7 208 -15 18 -17 18 -48 3z"/>
<path d="M14186 4618 c-14 -115 -15 -195 -3 -211 6 -8 30 -17 52 -19 l40 -3 8
72 c5 40 5 101 0 135 l-8 63 -42 3 -42 3 -5 -43z"/>
<path d="M14928 4619 c-23 -23 -25 -33 -27 -132 -1 -59 1 -117 4 -127 10 -31
41 -23 78 20 40 47 50 49 65 15 8 -17 20 -25 36 -25 35 0 38 22 10 79 -24 47
-24 51 -10 80 9 16 20 33 26 36 5 3 10 17 10 31 0 19 -5 24 -25 24 -13 0 -28
-7 -33 -17 -9 -15 -13 -15 -53 1 -24 10 -47 23 -50 28 -4 7 -16 2 -31 -13z"/>
<path d="M15306 4618 c-9 -12 -16 -27 -16 -33 0 -6 -20 -31 -45 -57 -25 -26
-52 -65 -61 -88 -15 -38 -15 -42 1 -60 15 -17 20 -17 56 -5 l39 14 15 -35 c12
-30 18 -34 37 -29 13 4 32 15 42 26 19 18 19 21 3 144 -9 69 -19 130 -22 135
-10 17 -33 11 -49 -12z"/>
<path d="M13996 3952 c-8 -13 11 -35 23 -28 6 4 11 11 11 16 0 11 -28 21 -34
12z"/>
<path d="M10795 3543 c-20 -47 -43 -200 -35 -233 4 -16 13 -25 25 -25 14 0 21
8 23 25 2 14 12 55 23 91 24 83 26 164 3 173 -23 9 -22 9 -39 -31z"/>
<path d="M10880 3444 c0 -8 5 -12 10 -9 6 3 10 10 10 16 0 5 -4 9 -10 9 -5 0
-10 -7 -10 -16z"/>
<path d="M10663 2923 c-18 -6 -17 -63 0 -63 17 0 42 45 33 59 -8 12 -13 12
-33 4z"/>
<path d="M5460 3211 c0 -6 5 -11 10 -11 6 0 10 2 10 4 0 3 -4 8 -10 11 -5 3
-10 1 -10 -4z"/>
<path d="M5452 3138 c6 -18 28 -21 28 -4 0 9 -7 16 -16 16 -9 0 -14 -5 -12
-12z"/>
<path d="M6803 2308 c-16 -20 -83 -162 -83 -174 0 -7 7 -17 16 -24 20 -18 40
3 88 92 43 79 47 118 12 118 -13 0 -28 -6 -33 -12z"/>
<path d="M26454 1655 c-9 -23 3 -45 25 -45 22 0 46 34 36 50 -10 16 -55 12
-61 -5z"/>
<path d="M13714 5977 c-11 -31 13 -54 63 -60 26 -3 57 -7 68 -9 15 -2 21 3 23
21 4 28 -11 46 -41 47 -12 1 -41 5 -64 9 -34 6 -44 4 -49 -8z"/>
<path d="M15332 5868 c-22 -22 -12 -88 14 -88 26 0 35 -47 23 -117 -13 -74 -3
-93 37 -67 20 14 24 13 42 -6 12 -13 25 -18 37 -14 15 6 16 14 10 53 -12 75
-10 109 8 129 21 23 23 82 3 82 -8 0 -17 -8 -21 -19 -3 -10 -15 -23 -27 -28
-19 -8 -27 -4 -55 30 -18 21 -33 43 -33 48 0 13 -24 11 -38 -3z"/>
<path d="M13832 5833 c-46 -9 -73 -102 -57 -193 7 -39 41 -120 51 -120 2 0 19
14 39 31 43 38 46 75 10 107 -18 15 -25 32 -25 56 0 44 9 66 25 66 20 0 30 41
14 51 -15 9 -19 9 -57 2z"/>
<path d="M15670 5831 c0 -5 -8 -12 -18 -15 -37 -12 -67 -117 -43 -154 5 -8 22
-12 42 -10 l34 3 -3 50 c-2 28 1 62 7 77 11 29 6 58 -10 58 -5 0 -9 -4 -9 -9z"/>
<path d="M13629 5808 c-1 -7 -2 -31 -4 -53 -2 -22 -6 -76 -10 -120 -6 -67 -5
-83 8 -94 31 -25 52 -10 55 39 1 25 7 75 12 111 8 54 7 72 -6 98 -15 31 -53
44 -55 19z"/>
<path d="M13190 4530 c-13 -7 -14 -23 -9 -87 10 -128 32 -158 78 -109 l23 24
34 -20 c63 -37 92 -4 58 68 -15 32 -15 48 1 101 6 18 2 23 -19 29 -18 4 -33 1
-45 -10 -22 -20 -65 -21 -81 -1 -14 17 -19 18 -40 5z"/>
<path d="M15790 4415 c-37 -10 -46 -16 -48 -38 -3 -22 2 -27 25 -32 51 -12 53
-14 53 -52 1 -45 19 -73 48 -73 16 0 24 11 37 56 13 46 21 57 45 66 26 8 29
14 24 36 -4 15 -11 33 -17 40 -12 15 -105 14 -167 -3z"/>
</g>
</svg>
