<?xml version="1.0" encoding="UTF-8" standalone="no"?>
<!-- Created with Inkscape (http://www.inkscape.org/) -->
<svg
   xmlns:dc="http://purl.org/dc/elements/1.1/"
   xmlns:cc="http://creativecommons.org/ns#"
   xmlns:rdf="http://www.w3.org/1999/02/22-rdf-syntax-ns#"
   xmlns:svg="http://www.w3.org/2000/svg"
   xmlns="http://www.w3.org/2000/svg"
   xmlns:sodipodi="http://sodipodi.sourceforge.net/DTD/sodipodi-0.dtd"
   xmlns:inkscape="http://www.inkscape.org/namespaces/inkscape"
   width="156.56139"
   height="69.635269"
   id="svg3719"
   sodipodi:version="0.32"
   inkscape:version="0.46"
   version="1.0"
   sodipodi:docname="uzor_end_4.svg"
   inkscape:output_extension="org.inkscape.output.svg.inkscape">
  <defs
     id="defs3721">
    <inkscape:perspective
       sodipodi:type="inkscape:persp3d"
       inkscape:vp_x="0 : 526.18109 : 1"
       inkscape:vp_y="0 : 1000 : 0"
       inkscape:vp_z="744.09448 : 526.18109 : 1"
       inkscape:persp3d-origin="372.04724 : 350.78739 : 1"
       id="perspective3727" />
  </defs>
  <sodipodi:namedview
     id="base"
     pagecolor="#ffffff"
     bordercolor="#666666"
     borderopacity="1.0"
     gridtolerance="10000"
     guidetolerance="10"
     objecttolerance="10"
     inkscape:pageopacity="0.0"
     inkscape:pageshadow="2"
     inkscape:zoom="0.35"
     inkscape:cx="375"
     inkscape:cy="520"
     inkscape:document-units="px"
     inkscape:current-layer="layer1"
     showgrid="false"
     inkscape:window-width="641"
     inkscape:window-height="717"
     inkscape:window-x="362"
     inkscape:window-y="33" />
  <metadata
     id="metadata3724">
    <rdf:RDF>
      <cc:Work
         rdf:about="">
        <dc:format>image/svg+xml</dc:format>
        <dc:type
           rdf:resource="http://purl.org/dc/dcmitype/StillImage" />
      </cc:Work>
    </rdf:RDF>
  </metadata>
  <g
     inkscape:label="Layer 1"
     inkscape:groupmode="layer"
     id="layer1"
     transform="translate(429.70926,148.16974)">
    <g
       id="g3302"
       transform="matrix(1.25,0,0,-1.25,-351.12215,-113.47935)">
      <path
         d="M 0,0 C 0.912,-0.391 1.556,0.643 2.041,1.32 C 1.964,3.843 1.564,6.042 0.48,7.56 C 0.219,6.18 -1.907,0.817 0,0 M 54.24,24.48 C 51.162,24.582 48.457,23.289 46.32,22.2 C 43.308,20.665 40.636,17.867 39.601,14.88 C 44.839,14.743 46.88,17.93 50.041,20.28 C 52.212,21.896 54.218,23.471 57.48,23.64 C 56.664,24.515 55.23,24.447 54.24,24.48 M -8.88,24.48 C -8.829,24.029 -8.72,23.44 -8.76,23.04 C -8.839,22.239 -9.378,20.692 -10.319,20.16 C -11.344,19.582 -13.483,20.169 -14.04,19.44 C -14.852,18.376 -13.489,18.075 -13.44,17.04 C -15.688,15.987 -17.093,18.156 -18.479,19.08 C -18.272,16.395 -22.552,16.734 -22.68,15.12 C -22.749,14.247 -21.981,14.418 -21.96,13.44 C -22.471,13.122 -22.849,12.904 -23.399,12.84 C -27.124,12.408 -27.957,16.247 -27.96,19.44 C -28.633,19.497 -28.804,18.666 -29.28,18.12 C -29.982,17.313 -31.526,16.57 -31.56,15.72 C -31.601,14.703 -29.772,13.439 -28.92,12.72 C -27.807,11.781 -26.712,10.895 -25.44,10.44 C -22.106,9.248 -19.122,10.356 -16.68,11.16 C -17.685,9.208 -18.641,8.067 -18.6,5.52 C -18.556,2.755 -17.247,0.18 -15.96,-1.32 C -12.243,-5.65 -5.104,-8.633 -1.56,-13.081 C -0.895,-13.915 -0.124,-15.072 0,-15.96 C 0.307,-18.151 -1.456,-21.233 0.48,-22.8 C 1.042,-22.999 1.902,-22.464 2.16,-21.96 C 2.332,-19.357 1.382,-17.828 1.681,-15.48 C 1.88,-13.894 2.892,-12.097 3.839,-10.92 C 5.388,-9 7.849,-7.152 10.08,-5.52 C 12.369,-3.846 14.962,-2.521 16.681,-0.48 C 17.427,0.408 18.771,2.521 19.201,3.48 C 20.162,5.632 19.712,8.255 19.8,10.56 C 23.107,10.138 25.345,10.229 28.201,10.92 C 29.96,12.2 31.613,13.587 32.88,15.36 C 31.201,16.76 29.888,18.528 27.839,19.56 C 28.326,15.952 26.509,13.723 23.759,12.96 C 23.533,13.529 23.828,13.961 23.4,14.4 C 20.857,14.266 19.148,15.234 18.72,17.52 C 18.099,16.901 17.623,16.137 16.56,15.96 C 15.97,16.491 15.476,17.115 15.601,18.36 C 12.667,19.428 8.138,19.402 9.361,24.24 C 7.498,23.541 5.898,22.245 4.681,20.88 C 3.916,20.022 3.162,18.903 2.88,17.64 C 6.302,19.907 12.503,18.007 12,13.08 C 11.835,11.472 10.435,10.392 10.201,9.24 C 9.498,5.78 14.095,5.124 15.72,7.08 C 16.3,9.37 13.154,9.112 14.16,11.04 C 14.853,11.411 15.406,10.491 16.08,10.8 C 16.533,10.125 17.035,9.917 17.281,9.24 C 18.757,5.155 14.537,2.118 10.441,2.64 C 8.041,2.945 6.703,4.634 5.281,5.76 C 6.021,3.781 8.386,0.699 7.32,-1.8 C 6.937,-2.698 5.642,-3.66 4.441,-3.72 C 4.263,-6.393 2.359,-7.244 1.441,-9.121 C 1.13,-9.752 1.343,-10.369 0.601,-10.8 C 0.198,-7.282 -3.704,-7.265 -3.36,-3 C -3.929,-2.952 -4.186,-3.214 -4.8,-3.121 C -5.586,-2.504 -6.288,-2.068 -6.479,-1.08 C -7.163,2.43 -3.771,4.339 -3.12,6.84 C -4.714,5.381 -6.929,3.366 -9.84,3 C -11.774,2.757 -13.624,3.099 -15,3.96 C -16.638,5.288 -16.862,9.47 -14.52,10.2 C -14.224,9.15 -14.613,8.164 -14.04,7.44 C -13.386,6.614 -10.673,5.949 -9.6,6.72 C -8.116,7.786 -9.472,9.515 -9.96,10.56 C -10.243,11.168 -10.486,11.974 -10.56,12.6 C -11.114,17.308 -7.11,19.701 -2.64,18.48 C -3.453,21.747 -6.208,23.071 -8.52,24.84 C -8.587,24.667 -8.707,24.547 -8.88,24.48 M 23.041,21.12 C 23.369,21.273 23.839,21.981 23.759,22.56 C 23.607,23.694 20.306,24.851 19.08,25.2 C 19.945,24.327 21.021,20.179 23.041,21.12 M -21.6,23.76 C -20.188,21.556 -16.929,23.991 -16.8,25.56 C -18.452,25.161 -20.142,24.64 -21.6,23.76 M -43.2,21 C -45.194,23.336 -48.442,25.394 -52.319,25.68 C -54.485,25.84 -57.389,25.702 -58.92,24.36 C -56.905,24.83 -54.935,24.545 -53.64,23.76 C -48.974,20.932 -45.728,14.926 -39,14.28 C -39.621,16.466 -41.471,18.975 -43.2,21 M -31.68,27.72 C -31.08,27.439 -31.194,26.445 -30.84,25.92 C -29.156,25.273 -29.017,27.256 -28.079,27.6 C -25.878,28.409 -24.563,25.83 -25.079,23.76 C -21.696,25.073 -18.89,26.722 -14.64,26.88 C -6.604,27.179 -1.696,21.876 0.36,15.48 C 0.972,16.63 1.037,17.875 1.681,19.08 C 3.927,23.291 10.332,27.36 16.08,27 C 19.542,26.783 22.099,25.278 24.96,23.76 C 25.744,25.357 26.621,26.759 28.56,26.52 C 29.185,26.443 29.865,25.499 30.361,25.56 C 31.335,25.681 30.865,26.68 31.201,27.12 C 33.974,26.064 32.687,20.057 28.681,20.88 C 28.83,19.781 29.933,19.549 31.08,18.6 C 31.703,18.086 32.927,16.419 33.72,16.44 C 34.599,16.462 36.873,19.786 37.56,20.4 C 41.164,23.617 46.828,26.942 53.281,26.52 C 57.33,26.255 60.062,24.468 62.16,21.48 C 62.339,20.063 62.548,18.523 62.16,17.16 C 61.4,15.695 57.908,15.598 59.041,18.12 C 59.701,18.554 60.419,17.565 60.96,17.88 C 62.025,20.875 60.066,23.301 56.88,22.56 C 55.83,22.315 54.617,21.735 53.64,21.24 C 50.603,19.699 48.71,16.825 45.72,15 C 44.044,13.977 41.869,13.265 39.121,13.32 C 36.203,8.757 33.228,4.253 25.56,4.44 C 24.019,-4.096 16.449,-6.842 9.48,-10.2 C 7.521,-11.144 5.734,-12.022 4.8,-13.68 C 4.074,-17.4 7.628,-19.505 10.201,-18.48 C 10.896,-18.203 11.615,-16.492 12.24,-16.56 C 13.937,-16.746 11.753,-20.841 11.16,-21.48 C 10.291,-21.954 9.447,-22.775 8.16,-22.92 C 7.111,-23.039 6.177,-22.478 5.16,-22.68 C 5.324,-24.558 5.031,-26.412 3.601,-27.36 C 1.578,-28.702 -1.292,-27.566 -2.64,-26.041 C -3.143,-24.943 -2.926,-23.126 -3.6,-22.2 C -6.821,-24.624 -14.053,-21.768 -10.92,-17.041 C -9.378,-17.7 -8.237,-19.433 -5.88,-18.96 C -4.513,-18.686 -2.894,-16.713 -3.6,-14.76 C -4.448,-12.412 -9.354,-10.259 -11.88,-9.24 C -16.024,-7.568 -20.735,-5.656 -22.8,-1.92 C -23.435,-0.771 -24.396,1.25 -24.479,2.88 C -24.523,3.721 -24.061,4.541 -24.72,5.28 C -31.604,4.14 -35.687,8.637 -38.159,13.08 C -43.703,13.033 -46.874,16.226 -50.159,19.08 C -51.991,20.672 -53.704,22.636 -55.68,23.28 C -57.787,23.966 -60.69,22.989 -60.96,21.24 C -61.146,20.028 -60.476,19.224 -59.64,19.2 C -58.778,19.174 -58.611,20.085 -57.72,20.04 C -56.911,19.189 -57.351,17.742 -58.2,17.28 C -60.348,16.975 -62.372,17.838 -62.76,19.56 C -63.259,21.774 -61.957,24.432 -60.84,25.32 C -56.925,28.432 -48.044,27.93 -43.079,26.04 C -37.83,24.041 -35.095,19.875 -32.64,16.68 C -30.979,18.02 -29.321,19.362 -28.2,21.24 C -32.229,20.292 -34.951,25.571 -31.68,27.72"
         style="fill:#5a5758;fill-opacity:1;fill-rule:evenodd;stroke:none"
         id="path3304" />
    </g>
  </g>
</svg>
