<?xml version="1.0" standalone="no"?>
<!DOCTYPE svg PUBLIC "-//W3C//DTD SVG 20010904//EN"
 "http://www.w3.org/TR/2001/REC-SVG-20010904/DTD/svg10.dtd">
<svg version="1.0" xmlns="http://www.w3.org/2000/svg"
 width="468pt" height="94pt" viewBox="0 0 468 94"
 preserveAspectRatio="xMidYMid meet">
<metadata>
Created by potrace 1.8, written by Peter Selinger 2001-2007
</metadata>
<g transform="translate(0,94) scale(0.034667,-0.034667)"
fill="#000000" stroke="none">
<path d="M6715 2672 c-45 -6 -53 -18 -53 -76 0 -30 -2 -58 -5 -62 -3 -5 -43
-10 -89 -12 -45 -2 -86 -7 -90 -10 -12 -12 -17 -61 -7 -67 5 -4 9 -28 9 -54 0
-27 6 -53 13 -59 11 -10 77 -20 140 -21 26 -1 27 -3 27 -56 0 -67 -1 -68 -155
-61 -60 2 -152 5 -203 5 -91 1 -93 1 -103 28 -6 15 -12 46 -15 68 -7 58 -44
173 -60 186 -8 6 -14 8 -15 3 0 -5 -2 -37 -6 -72 -4 -47 -1 -68 11 -87 9 -13
16 -36 16 -51 0 -15 7 -32 17 -39 34 -25 3 -34 -123 -34 -69 -1 -130 -4 -135
-7 -5 -3 -9 -43 -9 -89 0 -71 3 -84 18 -89 10 -3 80 -8 156 -11 76 -3 142 -7
146 -10 5 -3 18 -49 30 -103 12 -53 30 -123 41 -155 10 -31 19 -64 19 -72 0
-19 -26 -19 -79 0 -23 8 -104 20 -178 26 -120 10 -148 9 -227 -6 -91 -17 -178
-53 -206 -84 -64 -69 -140 -191 -140 -223 0 -35 -32 -38 -55 -5 -35 50 -65 98
-65 105 0 21 -106 106 -167 134 -58 27 -80 31 -148 32 -81 0 -191 -24 -230
-51 -35 -24 -55 -17 -55 20 0 18 -5 38 -12 45 -17 17 -80 15 -104 -3 -22 -17
-44 -19 -44 -5 0 24 -59 82 -129 127 -44 27 -57 32 -66 21 -17 -18 -55 -139
-55 -174 0 -22 -7 -32 -27 -41 -15 -7 -34 -13 -44 -13 -29 0 -69 -50 -69 -86
0 -32 -2 -34 -36 -34 -61 0 -155 -30 -255 -81 -52 -27 -101 -49 -107 -49 -6 0
-31 -11 -54 -25 -70 -42 -106 -55 -166 -63 -82 -11 -180 9 -251 53 -32 19 -65
35 -73 35 -8 0 -30 -16 -49 -36 l-34 -35 0 -102 c-1 -97 -2 -102 -23 -105 -25
-4 -25 -4 -12 58 12 61 -3 111 -53 183 -42 60 -78 83 -166 107 -53 14 -109 6
-176 -27 -76 -36 -165 -107 -165 -130 0 -7 -4 -13 -8 -13 -4 0 -13 -15 -20
-32 l-13 -33 -20 41 c-11 23 -54 74 -94 114 -41 39 -81 84 -87 98 -9 18 -23
28 -40 30 -22 3 -30 -3 -47 -35 -10 -21 -32 -62 -47 -92 -16 -30 -28 -68 -29
-85 0 -37 -13 -38 -120 -10 -54 14 -107 18 -235 18 -159 -1 -222 -8 -285 -33
-16 -7 -43 -11 -60 -10 -16 1 -37 -1 -45 -4 -8 -3 -34 -8 -58 -11 -24 -4 -51
-10 -60 -15 -9 -5 -60 -27 -114 -50 -87 -37 -104 -41 -182 -41 -65 0 -94 -5
-123 -19 -21 -11 -50 -25 -65 -30 -29 -11 -29 -5 3 -103 7 -21 10 -40 8 -43
-3 -2 -43 0 -89 5 -51 6 -88 6 -94 0 -8 -8 -9 -49 -3 -110 2 -21 -2 -25 -23
-22 -75 8 -128 4 -160 -12 -55 -28 -150 -90 -150 -98 0 -4 -11 -19 -25 -34
-22 -24 -25 -35 -25 -109 0 -51 6 -96 15 -118 8 -20 15 -44 15 -52 0 -15 -2
-15 -22 -1 -34 24 -73 20 -97 -10 -12 -15 -21 -30 -21 -35 0 -14 -49 -83 -90
-126 l-40 -43 31 -30 32 -30 156 -2 c86 -1 170 -2 186 -1 113 4 1187 3 2940
-2 1122 -3 3133 -5 4470 -6 3376 0 3454 0 3600 2 72 1 137 2 145 1 8 0 296 0
640 0 1014 -1 1184 -2 1203 -8 9 -3 17 -1 17 5 0 6 7 11 15 11 8 0 15 6 15 14
0 16 -24 38 -33 30 -3 -3 -12 7 -20 23 -9 15 -29 43 -46 62 -17 19 -40 54 -52
78 -11 23 -24 45 -29 48 -4 2 -32 -13 -62 -35 -31 -22 -58 -37 -61 -34 -3 3
-28 6 -56 6 -28 -1 -53 3 -55 7 -3 4 15 23 39 42 59 47 78 85 76 157 -1 58
-23 122 -42 122 -5 0 -28 14 -51 30 -33 24 -51 30 -94 30 -33 0 -58 -5 -67
-15 -22 -21 -63 1 -59 32 3 17 -5 26 -33 37 -20 9 -39 25 -42 36 -3 11 -9 20
-14 20 -22 0 -5 21 31 40 45 23 60 45 60 92 l0 33 -54 1 c-29 1 -67 8 -82 17
-16 8 -54 25 -84 38 -30 13 -73 36 -94 51 -21 16 -47 28 -57 28 -10 0 -21 5
-24 11 -4 6 -13 8 -20 5 -7 -2 -15 1 -18 8 -5 13 -71 36 -106 36 -12 0 -31 9
-43 19 -27 26 -142 53 -174 41 -15 -6 -24 -6 -24 0 0 6 -8 10 -18 10 -10 0
-22 4 -27 9 -32 28 -219 61 -350 61 -108 0 -285 -41 -365 -86 -3 -1 -4 45 -2
102 5 136 -11 183 -65 184 -15 0 -23 -6 -23 -18 0 -22 -28 -49 -110 -109 -93
-68 -121 -96 -144 -145 -14 -29 -28 -44 -43 -46 -30 -4 -38 30 -20 89 21 68
14 77 -111 154 -61 38 -81 45 -122 45 -28 0 -58 -4 -68 -8 -9 -5 -46 -23 -82
-41 -38 -18 -74 -44 -85 -61 -21 -31 -39 -38 -50 -19 -4 6 -14 7 -24 4 -146
-60 -410 -12 -671 121 -239 122 -275 131 -495 121 -16 0 -51 0 -77 1 l-48 2 0
38 c0 45 -21 69 -65 74 -28 3 -30 5 -27 40 4 40 -19 93 -46 106 -28 15 -78 -5
-124 -49 -43 -41 -58 -44 -109 -24 -24 9 -79 -47 -79 -80 0 -29 -29 -35 -50
-10 -7 8 -33 25 -59 37 -63 30 -205 31 -271 1 -25 -11 -55 -24 -67 -27 -46
-14 -110 -114 -133 -206 -15 -61 -31 -100 -41 -100 -4 0 -13 26 -19 58 -15 76
-27 100 -75 144 -41 38 -80 59 -185 101 -48 19 -228 16 -300 -5 -117 -34 -167
-46 -219 -53 -50 -7 -53 -6 -47 11 4 10 10 38 13 61 3 24 10 46 14 49 5 3 9
16 9 29 0 36 29 139 56 201 l24 55 155 -3 155 -4 0 93 c0 81 -2 94 -19 103
-11 5 -76 10 -145 10 l-126 0 0 25 c0 17 9 29 29 39 36 19 46 67 20 100 -10
13 -17 36 -16 52 3 38 -27 40 -31 2 -2 -19 -11 -29 -33 -37 -38 -13 -47 -37
-26 -73 25 -44 22 -97 -5 -107 -13 -5 -26 -7 -30 -5 -3 2 -78 7 -165 9 -194 7
-183 5 -184 24 -9 96 -12 92 72 96 33 2 66 8 74 15 16 13 20 147 5 186 -8 21
-16 25 -43 23 -17 -1 -49 -1 -69 0 l-38 1 0 59 c0 35 -5 63 -12 68 -15 12 -90
20 -133 15z m86 -64 c0 -7 1 -40 2 -73 l2 -60 75 -8 c87 -9 103 -20 94 -65 -7
-35 -4 -34 -109 -36 l-60 -1 0 -120 0 -120 75 -2 c41 -1 152 -4 245 -7 94 -2
223 -5 288 -5 l117 -1 0 -40 c0 -35 -3 -40 -22 -41 -13 0 -122 1 -243 2 -414
5 -440 5 -451 -3 -7 -5 -9 -130 -7 -394 2 -346 4 -389 19 -405 10 -11 24 -19
33 -19 9 0 39 -12 68 -27 l53 -26 0 -54 c0 -50 -1 -53 -25 -53 -14 0 -25 4
-25 8 0 14 -120 47 -120 34 -1 -4 -3 -100 -5 -213 l-5 -207 22 -6 c13 -3 35
-6 49 -6 15 0 29 -6 32 -14 4 -10 17 -13 44 -9 44 6 99 -18 146 -65 16 -15 38
-37 50 -49 13 -12 33 -51 46 -87 23 -66 38 -79 61 -51 7 8 26 15 41 15 22 0
32 -6 39 -26 15 -38 12 -51 -15 -78 -38 -38 -78 -42 -128 -13 -48 29 -72 58
-111 138 -54 111 -130 145 -321 142 -120 -1 -204 -21 -190 -43 3 -6 -1 -7 -10
-4 -20 8 -95 -62 -95 -88 0 -10 -4 -18 -9 -18 -5 0 -11 -14 -15 -30 -8 -43
-51 -96 -87 -109 -37 -13 -85 -4 -122 22 -38 26 -35 76 5 95 31 15 68 2 68
-23 0 -8 2 -15 4 -15 23 0 39 23 57 82 18 57 32 79 77 123 46 45 66 57 141 80
47 15 97 33 111 39 l25 12 0 238 0 238 -35 18 c-19 11 -53 26 -75 36 -22 9
-48 23 -57 32 -18 15 -23 56 -12 86 7 17 54 22 54 6 0 -5 6 -10 13 -10 8 0 28
-7 45 -16 18 -8 40 -14 50 -12 16 3 17 30 20 363 1 226 -1 362 -8 369 -5 5
-126 11 -297 13 -159 2 -331 7 -383 11 l-95 7 -3 31 c-4 42 8 44 183 39 298
-8 581 -9 593 -1 14 8 17 202 4 223 -5 7 -39 13 -87 15 -77 3 -80 4 -89 31
-18 49 0 61 95 67 l84 5 2 30 c0 17 2 49 2 73 l1 42 40 0 c25 0 40 -5 41 -12z
m-211 -620 c67 -2 70 -3 71 -28 4 -88 4 -381 0 -413 -3 -28 -8 -37 -20 -35
-12 3 -16 17 -17 66 -2 66 -20 102 -54 102 -9 0 -44 -11 -78 -25 -34 -14 -79
-25 -100 -25 -46 0 -53 11 -76 122 -9 40 -22 94 -30 119 -12 40 -13 77 -1 116
4 11 69 11 305 1z m524 -8 l78 0 -5 -52 c-5 -51 -44 -242 -67 -326 -5 -22 -17
-43 -25 -46 -22 -8 -106 22 -129 46 -18 19 -28 20 -83 3 l-23 -7 0 190 c0 143
3 192 13 195 6 3 46 3 87 1 41 -2 110 -4 154 -4z m1822 -254 c28 -20 21 -81
-12 -103 -13 -8 -24 -21 -24 -28 0 -21 -52 -95 -67 -95 -17 0 -16 14 1 53 31
74 36 90 30 96 -4 3 -8 2 -11 -4 -14 -36 -60 -110 -68 -109 -5 0 -13 13 -16
30 -6 27 -7 28 -14 7 l-7 -22 -28 27 c-31 32 -43 62 -34 86 9 23 31 20 50 -9
22 -34 49 -32 64 5 16 38 65 80 94 80 12 0 31 -6 42 -14z m-4450 -35 c49 -30
76 -82 83 -163 1 -5 8 -8 16 -8 15 0 20 -26 9 -54 -7 -17 -34 -22 -34 -6 0 5
-11 33 -24 62 -13 29 -27 63 -31 76 -3 12 -13 22 -20 22 -20 0 -9 -85 17 -128
12 -20 17 -39 13 -50 -6 -14 -10 -12 -20 13 -7 17 -11 33 -8 38 2 4 -3 7 -11
7 -8 0 -18 9 -21 20 -10 32 -25 23 -25 -15 0 -20 -5 -35 -11 -35 -20 0 -38 34
-32 61 3 15 0 30 -6 33 -16 10 -13 82 4 116 19 36 54 40 101 11z m1509 -77
c33 -8 92 -31 130 -51 132 -68 140 -72 144 -61 5 14 -31 41 -96 74 -88 43 -63
58 48 27 66 -18 109 -53 109 -89 0 -14 8 -25 21 -29 26 -9 42 12 28 36 -21 41
-13 47 134 96 11 3 17 0 17 -11 0 -9 -8 -16 -20 -16 -11 0 -20 -7 -20 -15 0
-11 8 -13 30 -8 23 4 30 2 30 -9 0 -14 -29 -25 -112 -43 -42 -8 -34 -25 12
-25 48 0 62 -21 34 -52 -27 -29 -59 -39 -91 -27 -21 8 -28 7 -36 -6 -6 -12
-20 -16 -50 -13 l-42 3 -8 -63 c-5 -36 -14 -62 -21 -62 -6 0 -29 -9 -51 -21
-33 -18 -44 -19 -76 -10 -20 6 -39 18 -43 26 -6 17 -36 9 -36 -9 0 -21 -72
-71 -129 -89 -96 -30 -115 -18 -72 47 31 47 31 112 1 161 -25 40 -57 49 -113
34 -50 -15 -89 -48 -123 -107 -31 -53 -28 -102 11 -169 28 -47 118 -123 146
-123 22 0 24 11 7 28 -22 22 2 13 45 -17 66 -45 223 -111 264 -111 30 0 26 20
-8 37 -13 7 -18 13 -11 13 22 0 13 37 -10 44 l-23 7 23 11 c20 10 22 17 18 47
-3 20 -5 37 -6 39 0 2 -13 1 -29 -3 -24 -5 -32 -2 -41 15 -22 41 8 51 72 23
37 -17 50 -44 27 -59 -7 -4 -8 -19 -4 -38 3 -17 8 -39 10 -50 3 -10 12 -30 22
-45 10 -14 22 -35 28 -46 6 -11 22 -22 35 -23 14 -2 30 -8 36 -13 6 -5 33 -21
60 -35 48 -25 99 -72 89 -82 -3 -3 -13 2 -22 10 -33 30 -157 79 -213 84 -80 9
-170 -18 -253 -74 -20 -14 -40 -22 -43 -19 -12 12 54 66 115 94 33 15 61 33
61 40 0 6 -26 17 -57 23 -32 7 -80 18 -108 25 -27 8 -63 17 -80 20 -40 8 -144
75 -151 98 -3 9 -9 17 -14 17 -16 0 -61 113 -66 169 -5 42 -2 65 9 87 15 30
82 90 122 111 41 22 109 25 174 8 106 -27 90 9 -18 41 -72 21 -130 14 -203
-25 -31 -17 -60 -27 -63 -21 -3 5 10 24 30 43 37 36 134 67 209 67 43 0 173
-27 198 -40 23 -13 38 -13 38 0 0 23 -135 72 -238 85 -64 8 -58 22 14 35 56 9
113 5 199 -16z m2499 -3 c3 -5 -13 -11 -36 -14 -24 -3 -44 -11 -46 -16 -2 -6
-10 -11 -17 -11 -20 0 -65 -59 -65 -85 0 -38 15 -37 33 0 25 52 70 75 144 75
59 0 133 -23 133 -42 0 -4 14 -22 32 -40 32 -32 23 -54 -10 -26 -9 8 -36 25
-59 38 -93 51 -213 -16 -213 -120 0 -24 11 -41 51 -79 49 -46 50 -50 31 -60
-35 -19 -137 -13 -186 10 -25 11 -47 27 -50 35 -7 17 -42 19 -49 1 -14 -38
-167 -77 -167 -43 0 8 5 18 10 21 16 10 77 146 84 188 7 37 26 43 26 7 0 -24
10 -50 20 -50 4 0 10 24 13 53 6 57 38 121 68 138 24 12 24 12 -2 -66 -22 -68
-22 -106 -1 -113 8 -2 12 9 12 35 0 43 28 110 56 135 10 9 35 21 54 26 44 13
127 15 134 3z m548 -26 c18 -41 -2 -69 -69 -95 -32 -13 -70 -32 -85 -42 -33
-23 -38 -23 -38 2 0 11 4 20 9 20 5 0 19 25 31 55 17 42 27 55 44 55 11 1 32
7 46 15 36 20 49 18 62 -10z m-4357 -32 c-5 -35 -15 -56 -37 -77 l-31 -30 6
62 c6 68 19 92 49 92 18 0 20 -4 13 -47z m3015 26 c28 -6 62 -17 76 -24 21
-11 15 -12 -53 -11 -92 1 -127 -13 -193 -76 -56 -54 -97 -118 -74 -118 8 0 36
21 62 48 59 60 111 85 187 90 105 7 189 -43 224 -134 24 -64 26 -109 6 -144
-8 -14 -14 -36 -15 -49 0 -33 -51 -118 -103 -172 -50 -52 -113 -80 -239 -107
-46 -9 -78 -21 -78 -28 0 -7 25 -18 57 -24 97 -21 185 -75 289 -178 52 -51 94
-97 94 -101 0 -12 59 -72 107 -110 63 -48 98 -55 147 -30 62 32 76 54 76 119
0 54 -2 58 -37 86 -21 16 -51 35 -66 42 -32 14 -95 16 -129 3 -67 -24 -74 -23
-92 17 -20 46 -22 66 -11 121 6 34 15 48 41 63 42 25 45 36 28 96 -8 28 -14
72 -12 99 l3 48 77 3 c43 2 86 -2 97 -7 21 -12 36 0 43 34 2 12 13 21 26 23
12 2 22 8 22 13 0 5 47 9 105 9 69 0 118 5 140 14 56 24 73 86 23 86 -26 1
-58 22 -58 39 0 16 41 13 64 -4 11 -8 28 -13 38 -9 26 8 56 -13 73 -52 8 -19
18 -34 22 -33 27 5 44 -3 41 -18 -4 -22 -57 -36 -76 -20 -18 14 -15 -8 16
-123 33 -124 36 -163 13 -191 l-19 -24 -11 43 c-20 72 -74 146 -94 126 -2 -3
8 -35 23 -72 36 -86 46 -162 23 -162 -13 0 -15 -9 -10 -62 5 -56 4 -61 -9 -44
-8 11 -14 26 -14 34 0 39 -96 182 -121 182 -16 0 -9 -25 14 -50 24 -27 57 -86
57 -104 0 -6 7 -24 16 -41 26 -50 35 -121 22 -170 -18 -68 -34 -56 -41 30 -4
55 -11 83 -28 107 -31 46 -81 96 -99 100 -8 2 -19 8 -25 14 -5 7 -20 15 -32
19 -34 10 -30 -21 5 -33 51 -18 127 -106 143 -165 17 -65 6 -134 -32 -201 -33
-58 -82 -106 -95 -93 -4 3 6 32 21 64 36 75 43 156 20 218 -10 25 -23 45 -29
45 -6 0 -40 27 -76 60 -36 33 -68 60 -72 60 -23 0 -2 -33 47 -75 30 -25 66
-66 80 -90 23 -38 25 -49 19 -101 -13 -110 -67 -190 -160 -234 -45 -22 -51
-23 -161 -12 -94 9 -125 17 -176 43 -34 17 -69 37 -78 45 -8 8 -21 14 -27 14
-6 0 -13 9 -17 19 -9 28 -41 36 -62 15 -26 -25 -77 -44 -122 -44 -34 0 -42 5
-60 34 -12 18 -21 50 -21 71 0 34 -2 37 -22 30 -80 -24 -95 -24 -148 -5 -58
21 -85 47 -68 67 6 7 17 13 25 13 8 0 11 4 8 10 -3 5 0 7 8 4 17 -6 64 47 73
81 3 14 -1 38 -10 56 -9 18 -16 38 -16 46 0 18 50 17 77 -2 37 -26 55 -117 39
-195 l-8 -35 20 24 c22 27 31 70 33 146 0 43 2 47 11 28 14 -28 28 -30 28 -3
0 42 18 18 24 -33 5 -38 2 -63 -9 -91 -9 -21 -14 -43 -12 -49 7 -22 47 66 58
129 11 62 12 64 25 42 23 -40 34 -69 34 -89 0 -11 7 -19 16 -19 16 0 15 -19
-2 -64 -4 -11 -1 -16 10 -16 9 0 16 8 16 19 0 11 4 22 9 25 4 3 11 19 14 36
11 53 47 33 47 -26 0 -27 41 -116 70 -154 19 -24 20 -24 20 -3 0 12 -12 45
-26 73 -47 93 -10 104 49 15 21 -32 58 -66 105 -98 62 -42 80 -49 124 -51 32
-1 52 3 55 11 5 13 -11 21 -82 43 -29 9 -66 39 -140 113 -133 136 -234 227
-265 240 -14 5 -49 21 -78 34 -47 22 -66 25 -168 24 -117 -1 -151 11 -67 24
26 4 74 19 107 35 34 15 82 33 108 40 26 7 53 19 59 26 6 8 18 14 26 14 8 0
48 33 87 74 125 128 157 234 97 328 -16 26 -39 51 -50 57 -80 43 -211 -41
-211 -136 0 -62 13 -87 59 -108 45 -22 50 -34 22 -59 -48 -43 -156 -40 -203 7
-34 34 -48 59 -48 86 0 24 -22 28 -42 8 -29 -30 -57 -37 -113 -31 -40 5 -62
14 -80 32 -14 13 -25 29 -25 33 0 5 -7 9 -16 9 -11 0 -14 5 -9 18 4 9 9 46 12
82 2 36 8 69 13 73 4 5 41 15 81 23 51 10 87 24 117 45 24 17 45 29 48 27 2
-3 -8 -33 -22 -68 -17 -42 -22 -66 -15 -73 6 -6 14 2 24 25 21 50 141 145 218
172 54 19 56 19 119 5z m-2578 -54 c10 -11 25 -37 35 -58 9 -20 22 -36 27 -34
12 4 12 14 0 66 -7 31 -6 33 13 22 12 -6 25 -27 29 -46 10 -41 26 -47 34 -14
5 21 8 19 43 -23 20 -25 37 -49 37 -55 0 -5 13 -23 30 -39 21 -20 30 -39 30
-62 0 -45 -26 -54 -57 -18 -23 27 -47 28 -36 1 3 -8 0 -15 -6 -15 -6 0 -16 11
-21 25 -14 36 -32 31 -28 -7 3 -31 1 -33 -31 -36 -18 -2 -38 1 -44 7 -23 23
-62 12 -80 -21 -24 -42 -73 -74 -128 -82 -75 -10 -80 4 -21 69 56 61 69 98 58
168 -12 70 -80 137 -140 137 -39 0 -96 -21 -117 -43 -64 -67 -91 -157 -45
-149 16 3 18 -1 12 -25 -3 -15 -9 -49 -12 -75 -4 -27 -11 -48 -16 -48 -5 0
-37 22 -72 48 -55 43 -99 62 -171 75 -13 2 -7 6 19 12 29 6 54 3 95 -11 31
-10 61 -20 67 -22 14 -4 34 49 34 88 0 129 165 221 285 160 43 -22 65 -25 65
-10 0 23 21 7 40 -30 11 -22 25 -40 30 -40 15 0 12 47 -5 81 -29 56 0 58 47 4z
m-782 -10 c0 -13 12 -35 26 -48 34 -32 19 -40 -51 -32 -39 5 -59 13 -65 26
-17 31 -11 50 23 64 49 22 67 19 67 -10z m2700 -10 c44 -12 45 -13 42 -51 -5
-58 -23 -89 -54 -92 -22 -3 -32 3 -48 30 -72 119 -77 155 -18 136 18 -5 53
-16 78 -23z m203 -5 c-10 -11 -80 -16 -89 -8 -6 6 8 11 61 21 25 4 40 -3 28
-13z m2311 -81 c59 -29 106 -56 106 -60 0 -5 10 -9 23 -9 12 -1 38 -9 57 -20
l35 -19 -33 -1 c-43 0 -209 48 -242 70 -14 10 -51 34 -82 55 -32 20 -58 39
-58 42 0 18 104 -14 194 -58z m-393 -2 c35 -21 106 -96 128 -135 7 -12 13 -14
21 -6 13 12 -2 46 -37 84 -27 29 -29 42 -5 33 23 -9 58 -47 78 -85 10 -20 19
-27 26 -20 6 6 4 20 -6 40 -35 68 -12 69 54 3 43 -43 49 -55 55 -104 13 -104
-38 -257 -85 -257 -10 0 -30 -12 -45 -26 -29 -27 -105 -64 -131 -64 -19 0 -18
15 6 84 22 60 21 74 -10 194 -43 171 -177 243 -330 177 -58 -25 -66 -25 -57
-1 12 30 90 70 138 70 72 0 163 -39 225 -97 28 -26 44 -35 49 -27 9 15 -84
104 -137 131 -21 11 -36 24 -32 30 8 14 50 3 95 -24z m-513 -16 c12 -11 22
-26 22 -34 0 -8 7 -17 15 -21 19 -7 20 -56 1 -56 -8 0 -27 26 -42 58 -16 31
-30 60 -32 65 -7 13 13 7 36 -12z m-3729 -5 c17 -9 32 -29 40 -53 12 -37 11
-41 -19 -86 -33 -50 -56 -67 -89 -67 -30 0 -36 -35 -12 -74 17 -27 26 -32 46
-28 18 3 25 0 25 -12 0 -12 10 -16 40 -16 41 0 113 42 153 90 27 32 49 21 72
-35 31 -76 34 -79 56 -59 14 13 45 19 120 23 l101 6 -4 -50 c-3 -27 -14 -71
-26 -97 -29 -61 -28 -68 9 -68 43 0 69 -16 85 -55 17 -40 19 -171 3 -212 l-11
-28 -12 24 c-17 31 -83 71 -117 71 -46 0 -96 -28 -128 -72 -51 -69 -42 -167
21 -225 46 -42 165 -54 207 -20 8 7 30 12 50 12 33 0 40 6 101 87 l65 88 5
-48 6 -47 13 30 c6 16 13 45 14 65 2 35 21 46 23 12 4 -70 28 -132 51 -132 17
0 16 13 0 53 -30 71 -1 206 46 215 14 3 17 -5 17 -45 0 -26 4 -54 9 -62 15
-24 29 -2 24 37 -6 48 25 122 62 146 35 23 42 13 22 -29 -25 -52 -22 -102 9
-147 28 -39 54 -50 54 -22 0 9 -9 29 -21 45 -22 31 -21 78 2 121 13 24 42 24
35 1 -15 -52 -14 -73 7 -133 17 -49 31 -70 55 -85 71 -44 7 -92 -98 -73 -30 5
-61 14 -67 20 -20 16 -40 2 -48 -31 -4 -17 -11 -34 -16 -37 -6 -3 -14 -17 -19
-30 -6 -14 -18 -27 -27 -31 -10 -3 -25 -12 -34 -20 -29 -24 -92 -20 -150 10
l-53 28 -45 -32 c-47 -33 -87 -46 -179 -56 -44 -5 -61 -1 -116 25 -93 45 -136
121 -136 243 0 73 10 92 77 153 43 38 55 66 30 66 -16 0 -138 -122 -149 -147
-3 -10 -7 -42 -7 -70 -1 -39 -5 -53 -15 -53 -8 0 -16 5 -18 12 -7 20 13 132
28 153 18 25 18 35 -1 35 -9 0 -26 -22 -39 -51 -13 -28 -27 -46 -30 -40 -9 14
11 95 33 139 19 37 117 142 132 142 5 0 9 7 9 15 0 22 -16 18 -65 -15 -57 -39
-126 -128 -145 -187 -21 -64 -45 -72 -37 -12 17 119 68 243 127 308 17 18 30
36 30 42 0 21 -30 7 -59 -28 -17 -21 -38 -45 -45 -53 -8 -8 -31 -46 -52 -85
-36 -65 -39 -68 -42 -41 -4 36 20 103 50 136 42 47 60 90 38 90 -17 0 -51 -40
-76 -89 -44 -89 -80 -88 -54 2 20 74 23 87 13 87 -5 0 -17 -13 -26 -30 -10
-16 -24 -30 -30 -30 -7 0 -25 26 -42 57 -26 49 -30 71 -33 148 -3 81 -1 96 24
150 33 73 41 55 20 -45 -14 -69 -13 -105 4 -95 4 2 13 33 20 67 16 77 50 148
72 148 5 0 21 -6 37 -14z m-829 -16 c-8 -5 -23 -10 -32 -10 -10 0 -33 -9 -53
-20 -39 -22 -65 -26 -65 -10 0 6 9 10 20 10 10 0 23 6 27 14 8 14 38 21 93 24
20 1 22 0 10 -8z m6717 -62 l48 -34 2 -65 2 -64 -12 45 c-26 92 -52 130 -78
114 -14 -8 -11 -40 5 -53 24 -20 30 -102 11 -156 -22 -66 -33 -85 -50 -85 -23
0 -17 27 13 57 27 28 27 28 4 31 -12 2 -29 16 -37 32 -8 16 -24 32 -36 35 -35
12 -152 -5 -167 -24 -12 -14 -13 -11 -8 23 9 65 33 81 122 81 71 0 77 -2 100
-29 30 -34 41 -28 24 14 -33 79 -118 93 -213 36 -31 -19 -57 -30 -57 -25 0 35
61 84 124 100 17 4 59 7 93 5 52 -3 70 -9 110 -38z m461 -25 c15 -90 1 -155
-37 -166 -9 -3 -31 -10 -48 -15 l-33 -11 15 35 c8 19 21 44 30 56 8 13 15 29
15 37 0 20 -45 -23 -72 -69 -22 -35 -78 -98 -78 -86 0 4 11 29 25 56 14 27 25
56 25 65 0 32 -17 13 -50 -56 -19 -38 -40 -75 -48 -81 -18 -15 -52 -92 -52
-117 0 -23 -66 -91 -88 -91 -12 0 -14 10 -8 53 3 28 9 65 12 81 5 22 4 28 -7
24 -13 -4 -37 -69 -54 -142 -5 -25 -8 -27 -20 -15 -26 27 -20 110 13 174 8 17
18 37 22 45 21 43 78 -12 67 -66 -2 -14 1 -25 9 -28 8 -3 14 -13 14 -22 0 -13
3 -14 14 -5 8 7 12 20 9 30 -2 10 7 35 21 56 14 21 26 46 26 57 0 44 50 118
117 170 139 110 147 111 161 31z m-8338 26 c51 -23 95 -61 116 -101 19 -37 19
-144 -1 -152 -8 -3 -15 -12 -15 -21 0 -8 -5 -15 -10 -15 -6 0 -8 25 -5 67 7
88 -16 136 -82 178 -39 24 -59 30 -103 29 -68 0 -115 -22 -177 -82 -41 -41
-73 -60 -73 -46 0 35 82 116 145 145 55 25 147 24 205 -2z m1310 17 c0 -3 -18
-26 -40 -51 -37 -42 -52 -85 -32 -85 5 0 25 18 46 40 33 36 56 50 56 34 0 -3
-16 -25 -36 -49 -37 -45 -39 -82 -3 -49 16 15 19 15 19 2 0 -9 -7 -21 -15 -28
-37 -30 -73 -238 -45 -255 17 -10 12 -45 -5 -39 -8 4 -15 18 -15 33 0 38 -25
70 -41 54 -11 -11 -9 -23 5 -63 20 -56 18 -70 -7 -42 -11 11 -21 54 -29 115
-9 70 -15 94 -23 87 -7 -6 -14 -8 -16 -6 -2 3 -2 -16 0 -41 2 -32 0 -43 -8
-39 -6 4 -11 34 -11 67 0 43 -4 59 -14 59 -14 0 -26 -42 -26 -92 0 -45 -23
-29 -33 23 -10 54 -3 157 12 172 6 6 11 24 11 39 0 38 38 77 83 88 21 4 37 5
37 1 0 -4 -13 -22 -30 -41 -16 -19 -29 -46 -30 -60 0 -22 6 -19 63 36 73 71
127 109 127 90z m-1940 -150 c16 -16 23 1 24 54 1 28 4 50 8 50 4 0 16 -13 28
-29 11 -17 29 -32 39 -36 40 -12 91 -126 100 -222 2 -22 27 -14 52 16 35 42
52 43 59 3 7 -48 24 -40 28 13 5 71 26 56 66 -47 41 -107 44 -138 16 -196 -21
-43 -44 -48 -55 -11 -9 26 -85 85 -85 66 0 -9 10 -28 23 -44 26 -32 57 -80 57
-88 0 -3 -8 -5 -18 -5 -10 0 -46 32 -81 70 -36 41 -70 70 -82 70 -10 0 -19 -4
-19 -9 0 -5 36 -46 81 -91 67 -69 80 -86 75 -106 -4 -13 -12 -24 -19 -24 -17
0 -106 89 -137 137 -25 40 -73 84 -177 161 -35 25 -63 54 -63 63 0 16 -90 84
-145 108 -16 7 -38 17 -47 22 -10 5 -30 9 -46 9 -15 0 -32 4 -37 9 -6 4 -31
14 -56 21 -58 15 -267 -2 -363 -30 -76 -22 -225 -93 -262 -125 -45 -39 -65
-55 -69 -55 -17 0 -145 -132 -201 -207 -29 -39 -71 -84 -93 -100 -22 -15 -43
-38 -46 -51 -7 -30 -179 -203 -223 -226 -25 -13 -54 -17 -110 -15 -60 2 -77
-1 -77 -12 0 -27 47 -40 129 -35 87 5 91 -8 7 -24 -83 -16 -104 -13 -140 19
-18 16 -46 35 -62 42 -39 16 -55 57 -64 161 l-7 85 32 36 c18 21 39 37 47 37
9 0 26 11 39 25 20 22 31 25 92 25 60 0 74 -4 109 -29 24 -17 42 -40 45 -55 6
-29 2 -36 -23 -36 -11 0 -22 -13 -29 -35 -6 -19 -18 -35 -26 -35 -8 0 -14 -5
-14 -12 0 -6 -3 -9 -6 -5 -3 3 1 20 10 38 22 45 20 68 -9 81 -31 14 -43 4 -23
-19 8 -10 13 -26 10 -36 -3 -17 -11 -18 -60 -12 -52 6 -59 4 -81 -19 -27 -29
-24 -60 12 -101 18 -21 34 -27 89 -32 61 -5 71 -3 115 22 26 16 50 31 53 34 3
4 17 14 32 24 15 9 50 45 78 79 28 35 56 70 64 78 7 8 26 34 41 58 15 23 34
42 41 42 8 0 14 3 14 8 0 4 15 24 33 44 17 20 41 49 52 65 39 55 135 140 217
194 40 25 50 49 21 49 -38 1 20 30 59 30 21 0 81 11 133 25 113 29 278 55 349
55 56 -1 108 -10 206 -40 36 -10 77 -22 91 -24 14 -3 42 -17 63 -31 35 -24 86
-34 86 -17 0 5 -11 18 -25 30 -14 12 -25 30 -26 39 -3 53 5 97 24 135 l21 43
13 -69 c7 -39 17 -74 23 -80z m7407 98 c65 -12 87 -13 98 -4 11 9 29 6 82 -13
164 -61 241 -72 386 -53 62 8 67 7 67 -10 -1 -35 -45 -96 -84 -118 -22 -12
-41 -27 -43 -33 -2 -5 20 -16 49 -22 107 -24 124 -29 168 -46 25 -10 49 -22
54 -26 13 -12 -49 -75 -97 -100 -21 -11 -41 -27 -44 -35 -8 -22 -137 -17 -243
9 -78 19 -160 64 -160 87 0 4 39 -4 88 -18 134 -39 351 -34 378 9 4 7 -35 8
-113 4 -124 -7 -214 5 -297 40 -47 20 -41 30 10 16 79 -20 245 -34 263 -22 24
16 1 31 -47 31 -27 0 -72 6 -102 14 -30 7 -78 16 -106 19 -29 3 -69 15 -90 26
l-39 21 38 0 c61 0 40 24 -27 31 -54 6 -214 75 -201 87 5 5 70 -12 115 -31 14
-5 43 -14 65 -18 22 -4 60 -12 85 -18 32 -7 47 -6 52 2 6 9 8 8 8 -2 0 -11 17
-13 88 -9 135 8 184 43 54 39 -148 -5 -366 47 -500 118 -9 5 -25 12 -34 15
-17 5 -26 26 -11 26 3 0 44 -7 90 -16z m-5917 -64 c-41 -38 -82 -70 -90 -70
-8 0 -31 -8 -50 -19 -57 -30 -146 -44 -238 -37 -76 6 -83 5 -80 -11 2 -13 24
-23 73 -37 60 -16 78 -17 126 -7 30 6 64 11 74 11 17 0 17 -1 0 -20 -14 -16
-31 -20 -77 -20 -32 0 -58 -4 -58 -9 0 -11 25 -21 56 -21 33 0 30 -17 -7 -39
-47 -29 -166 -40 -270 -26 -41 6 -51 4 -47 -6 5 -14 67 -32 151 -44 84 -11 50
-25 -63 -25 -88 0 -110 -3 -110 -14 0 -13 93 -36 143 -36 24 0 21 -21 -3 -27
-11 -3 -20 -10 -20 -15 0 -17 -75 -2 -135 27 -59 29 -94 64 -126 126 -19 39
-19 39 1 59 21 21 50 24 161 20 69 -2 81 15 41 62 -25 29 -27 39 -27 118 0
118 11 131 68 75 35 -35 54 -45 115 -60 135 -32 225 -12 412 95 62 36 56 21
-20 -50z m581 50 c-13 -11 -33 -20 -45 -20 -19 0 -18 2 9 20 40 27 68 26 36 0z
m4577 4 c5 -3 -91 -73 -100 -74 -13 0 -9 29 7 61 15 27 19 29 53 23 20 -4 39
-8 40 -10z m-3211 -14 c-3 -11 -1 -18 4 -14 5 3 9 3 9 0 0 -2 3 -11 6 -20 4
-12 0 -16 -15 -16 -17 0 -21 6 -21 35 0 19 5 35 11 35 6 0 9 -9 6 -20z m-2820
-37 c42 -31 50 -48 51 -105 1 -43 -2 -50 -33 -74 -38 -28 -78 -28 -89 2 -9 22
0 31 34 39 25 5 30 12 30 35 0 38 -31 60 -76 53 -32 -5 -34 -4 -34 22 0 18 -6
28 -20 32 -29 8 -25 21 8 26 46 7 96 -4 129 -30z m4803 25 c-1 -18 -25 -48
-39 -48 -16 0 -14 20 4 26 8 4 15 12 15 20 0 8 5 14 10 14 6 0 10 -6 10 -12z
m1375 4 c17 -11 65 -99 65 -116 0 -13 -12 -16 -57 -16 -32 0 -89 -7 -128 -16
-38 -9 -81 -18 -95 -21 l-25 -6 25 27 c24 27 74 45 183 66 36 7 57 16 54 23
-4 14 -23 14 -121 3 l-70 -8 30 35 c26 32 34 36 79 36 28 0 55 -3 60 -7z
m-2706 -29 c12 -11 22 -32 23 -52 3 -32 0 -36 -55 -66 -32 -17 -67 -39 -77
-47 -10 -9 -20 -14 -22 -12 -6 5 -7 -5 -14 -78 -6 -61 -13 -68 -38 -43 -19 19
-13 59 20 133 28 62 28 62 9 62 -8 0 -23 -19 -34 -42 -43 -99 -42 -97 -37 -45
2 32 11 56 25 71 14 15 21 33 19 51 -4 35 30 62 92 74 65 13 66 13 89 -6z
m3215 -29 c20 -19 34 -39 31 -44 -3 -5 4 -11 15 -15 19 -6 28 -25 12 -25 -11
0 -112 103 -112 114 0 14 20 3 54 -30z m-5670 2 c-3 -8 -16 -17 -29 -20 -13
-3 -30 -9 -39 -12 -26 -10 -18 10 12 28 34 22 63 23 56 4z m560 -7 c18 -17 -4
-22 -43 -11 -21 7 -50 12 -64 12 -14 0 -29 5 -33 11 -8 14 125 3 140 -12z
m1163 -16 c18 -20 33 -42 33 -49 0 -7 8 -18 18 -23 11 -7 12 -11 4 -11 -18 0
-88 73 -95 99 -8 30 3 26 40 -16z m6014 -9 c8 -8 21 -14 27 -14 21 0 152 -145
152 -169 0 -5 9 -26 21 -46 13 -22 20 -46 17 -65 -2 -16 -1 -27 3 -24 5 2 13
-5 19 -16 6 -11 15 -20 20 -20 46 0 -72 290 -133 329 -30 19 -30 21 -9 21 23
0 122 -83 122 -103 0 -5 10 -19 23 -31 21 -20 67 -137 67 -172 0 -9 6 -14 13
-11 7 2 11 20 10 48 -2 76 -6 98 -15 93 -4 -3 -8 4 -8 15 0 12 2 21 4 21 5 0
81 -119 108 -170 13 -25 29 -65 37 -90 7 -25 20 -62 27 -83 14 -38 19 -172 8
-201 -11 -28 -35 -19 -28 9 9 36 -8 31 -30 -9 -19 -36 -46 -54 -86 -58 -21 -3
-26 2 -28 24 -2 20 1 28 12 28 9 0 29 18 45 40 26 36 29 46 25 101 -7 94 -51
156 -69 98 -15 -45 -71 -108 -120 -133 -28 -14 -55 -26 -61 -26 -17 0 -34 23
-25 34 25 32 53 136 53 196 0 165 -166 350 -314 350 -100 -1 -185 -21 -258
-61 -57 -32 -137 -69 -147 -69 -24 0 -13 -25 16 -38 25 -11 39 -10 90 3 33 8
67 18 76 21 8 3 15 2 15 -3 0 -5 -21 -20 -47 -33 -27 -13 -64 -36 -84 -52 -20
-15 -42 -28 -48 -28 -6 0 -11 -7 -11 -15 0 -22 45 -19 136 10 97 31 219 51
258 41 15 -4 27 -9 24 -11 -2 -2 -44 -10 -93 -19 -94 -15 -206 -51 -246 -78
-43 -29 -13 -30 76 -3 77 24 268 56 320 54 11 0 -11 -9 -50 -19 -170 -45 -341
-112 -330 -129 3 -5 29 -1 58 10 183 68 447 117 487 90 23 -16 9 -20 -74 -26
-233 -15 -390 -72 -508 -185 -20 -19 -51 -46 -69 -60 -18 -14 -53 -42 -77 -62
-24 -21 -47 -38 -51 -38 -4 0 -16 -8 -27 -18 -43 -40 -92 -72 -109 -72 -10 0
-29 -10 -42 -22 -28 -26 -31 -53 -5 -45 194 54 379 99 461 112 8 1 17 7 19 13
6 18 -88 15 -180 -5 -43 -9 -81 -13 -85 -9 -10 10 17 26 47 26 33 0 95 22 99
35 1 6 -7 12 -19 15 l-22 5 24 21 c38 35 71 54 92 54 16 0 17 -3 8 -12 -7 -7
-12 -20 -12 -30 0 -14 5 -17 24 -12 16 4 31 -1 49 -18 14 -13 44 -33 66 -44
23 -10 41 -21 41 -24 0 -16 -59 -60 -81 -60 -6 0 -18 -9 -27 -20 -14 -18 -35
-22 -132 -30 -108 -9 -150 -16 -245 -40 -22 -5 -89 -9 -150 -9 l-110 0 30 24
c17 13 37 31 47 39 9 8 26 17 37 21 24 7 173 107 209 139 16 14 21 27 18 42
-4 15 1 26 17 37 39 27 77 64 77 76 0 17 -11 13 -55 -19 -46 -34 -154 -90
-173 -90 -25 0 -6 23 34 44 38 20 124 101 124 118 0 16 -16 7 -65 -35 -53 -47
-95 -65 -95 -42 0 14 51 55 68 55 12 0 25 30 17 38 -3 3 -28 -6 -55 -21 -58
-31 -60 -32 -60 -12 0 8 6 15 13 15 17 0 113 98 104 107 -4 3 -21 -3 -37 -15
-16 -12 -36 -22 -44 -22 -8 0 -18 -4 -21 -10 -3 -5 -10 -10 -15 -10 -4 0 7 15
26 34 40 40 43 54 9 52 -14 0 -25 -6 -25 -13 0 -14 -31 -33 -52 -33 -14 0 -4
9 110 96 41 31 82 71 93 88 42 69 325 199 504 231 75 13 101 11 126 -11z
m-8881 -4 c0 -5 -9 -10 -21 -10 -11 0 -17 5 -14 10 3 6 13 10 21 10 8 0 14 -4
14 -10z m4980 -8 c0 -18 -31 -62 -44 -62 -14 0 -5 30 17 54 27 31 27 31 27 8z
m-3322 -17 c33 -4 138 -51 148 -66 2 -5 -14 -2 -37 6 -56 20 -179 32 -179 17
0 -6 26 -18 58 -27 126 -36 184 -58 209 -81 39 -36 22 -39 -44 -9 -89 41 -302
71 -318 44 -11 -17 -1 -20 82 -30 43 -5 101 -17 128 -25 73 -24 185 -76 185
-88 0 -5 7 -18 17 -28 15 -17 14 -18 -33 -18 -27 1 -67 7 -89 15 -45 16 -105
20 -105 6 0 -5 15 -14 33 -21 17 -7 57 -23 88 -36 31 -13 59 -24 63 -24 4 0
40 -23 80 -50 124 -84 126 -106 5 -45 -106 53 -229 81 -229 52 0 -9 32 -22 88
-36 48 -12 107 -32 132 -44 52 -25 122 -85 115 -97 -3 -5 -32 4 -65 21 -32 16
-87 35 -122 43 -87 19 -225 29 -233 16 -9 -15 30 -27 134 -39 112 -14 205 -50
260 -100 52 -48 53 -64 4 -55 -21 4 -47 11 -58 17 -27 14 -179 12 -215 -3 -53
-22 -32 -30 73 -30 108 0 191 -17 237 -50 14 -9 55 -32 93 -49 37 -18 67 -36
67 -42 0 -12 -67 -12 -75 1 -3 6 -22 10 -41 10 -19 0 -51 7 -71 15 -91 38
-253 25 -326 -27 -22 -16 -46 -22 -82 -23 l-50 0 3 88 c2 67 8 95 24 123 21
36 21 37 2 51 -10 8 -30 17 -44 20 -23 5 -88 39 -100 52 -3 4 -23 16 -45 27
-22 12 -40 27 -40 34 0 7 23 21 50 31 116 44 137 66 95 104 -11 10 -29 43 -40
73 -35 92 -20 259 24 280 19 9 51 8 144 -3z m2755 -16 c69 -14 90 -36 93 -95
l3 -45 -21 26 c-28 36 -44 19 -28 -29 12 -37 5 -96 -11 -96 -5 0 -9 13 -9 29
0 17 -4 33 -10 36 -5 3 -10 16 -10 28 -1 36 -44 76 -90 83 -52 8 -57 18 -26
49 29 29 32 29 109 14z m-3293 -33 c0 -28 -14 -44 -78 -88 -26 -18 -53 -38
-60 -45 -7 -7 -21 -18 -30 -25 -9 -7 -34 -38 -55 -68 -20 -30 -52 -72 -70 -92
-17 -20 -45 -55 -61 -77 -17 -23 -33 -41 -36 -41 -3 0 -32 -22 -65 -50 -56
-48 -98 -64 -93 -38 4 16 2 16 -112 -20 -103 -33 -197 -47 -219 -33 -10 6 4
13 45 21 92 19 155 36 199 54 36 16 38 18 22 30 -16 13 -16 14 -1 20 12 4 14
10 7 17 -6 6 -25 4 -54 -7 -69 -25 -160 -40 -209 -33 -48 6 -37 12 18 9 18 -1
90 17 160 41 129 42 158 60 262 156 19 18 49 38 65 44 17 7 49 28 73 47 51 41
65 36 28 -9 -19 -22 -24 -35 -17 -42 13 -13 44 13 76 63 35 53 171 190 189
190 10 0 16 -9 16 -24z m2035 -8 c18 -15 22 -24 13 -29 -9 -6 -9 -13 0 -33 14
-31 7 -32 -53 -12 -38 13 -85 56 -85 78 0 6 12 8 30 5 16 -4 32 -2 35 3 10 16
33 11 60 -12z m3680 12 c3 -5 1 -10 -4 -10 -6 0 -11 5 -11 10 0 6 2 10 4 10 3
0 8 -4 11 -10z m113 -37 c23 -27 64 -73 91 -103 28 -30 51 -60 51 -65 0 -6 21
-21 47 -35 26 -14 61 -37 78 -51 39 -34 160 -103 205 -118 121 -38 216 -73
225 -82 12 -12 -26 -12 -74 0 -84 22 -152 34 -157 28 -4 -4 6 -11 22 -17 16
-6 38 -15 49 -20 11 -6 63 -21 115 -34 67 -16 96 -28 98 -40 4 -21 -17 -21
-111 3 -70 18 -111 34 -209 81 -28 13 -38 15 -38 6 0 -7 18 -21 40 -31 22 -10
40 -21 40 -25 0 -5 12 -11 26 -14 14 -4 43 -18 65 -31 21 -14 45 -25 54 -25 8
0 15 -5 15 -11 0 -6 -6 -9 -14 -6 -8 3 -32 9 -53 13 -21 4 -78 24 -127 46 -49
21 -91 37 -93 34 -16 -15 31 -43 187 -112 92 -41 122 -64 82 -64 -25 0 -170
53 -230 84 -83 43 -100 49 -114 40 -17 -11 -50 -5 -63 11 -13 17 -55 29 -55
16 0 -14 103 -89 170 -124 99 -52 106 -68 23 -60 -50 5 -71 15 -153 71 -52 35
-102 72 -111 81 -9 9 -45 41 -81 71 -35 30 -78 72 -94 94 -16 21 -45 56 -64
78 -49 55 -51 58 -89 106 -18 24 -31 45 -28 48 6 6 66 -55 147 -146 58 -66
137 -133 144 -122 3 5 -4 19 -16 32 -11 12 -37 43 -56 68 -19 25 -50 62 -68
81 -34 34 -42 51 -25 51 17 0 72 -65 64 -74 -4 -3 -2 -6 3 -6 5 0 40 -29 78
-65 60 -56 96 -79 96 -59 0 3 -18 24 -39 47 -22 23 -49 55 -62 71 l-22 28 31
-16 c16 -8 52 -38 79 -66 26 -27 54 -50 61 -50 25 0 21 6 -80 120 -7 8 -21 24
-31 37 -18 22 -18 23 2 15 11 -4 31 -17 44 -29 14 -12 37 -29 51 -38 22 -15
26 -15 26 -2 0 8 -34 46 -75 85 -70 65 -155 162 -155 176 0 3 9 6 20 6 24 0
26 17 3 42 -13 15 -14 18 -1 18 8 0 33 -21 56 -47z m-560 25 c7 -7 12 -40 12
-79 0 -73 -24 -119 -60 -119 -12 0 -26 -13 -36 -31 -37 -73 -6 -156 75 -204
28 -16 51 -32 51 -35 0 -24 -157 -80 -224 -80 -42 -1 -76 -18 -76 -39 0 -6 4
-11 9 -11 19 0 72 -53 91 -91 26 -50 25 -59 -6 -59 -14 0 -35 -5 -47 -12 -13
-7 -74 -12 -152 -13 -113 -2 -145 -6 -245 -34 -116 -32 -222 -45 -228 -26 -2
6 10 13 25 16 15 4 68 26 118 49 73 35 105 45 173 51 46 4 86 10 90 13 12 13
-13 21 -76 27 l-67 5 49 23 c27 13 84 28 125 34 42 5 80 13 85 18 19 17 -50
21 -130 9 -46 -7 -86 -11 -89 -8 -8 8 69 56 127 79 110 43 144 57 171 68 15 6
27 15 27 21 0 13 -1 13 -68 -9 -112 -38 -204 -62 -210 -57 -3 3 3 15 14 27 17
19 40 33 178 106 23 12 53 24 69 28 15 4 27 13 27 21 0 28 -51 13 -188 -53
-51 -25 -96 -43 -98 -40 -13 13 67 116 105 138 53 29 55 54 5 46 -58 -10 -37
14 51 57 53 25 116 46 187 60 69 13 108 26 108 34 0 17 -121 6 -215 -20 -100
-27 -125 -31 -125 -21 0 30 147 100 236 112 100 12 119 12 132 -1z m2339 6
c-10 -11 -57 -13 -57 -3 0 5 14 9 32 9 17 0 28 -3 25 -6z m-9471 -29 c18 -14
18 -14 -6 -15 -14 0 -43 7 -65 15 l-40 14 46 1 c25 0 54 -7 65 -15z m2654 -1
c0 -8 -4 -12 -10 -9 -5 3 -10 10 -10 16 0 5 5 9 10 9 6 0 10 -7 10 -16z
m-2980 -6 c0 -6 -7 -20 -16 -29 -20 -22 -54 -140 -54 -186 0 -45 35 -117 71
-145 45 -35 38 -55 -25 -73 -30 -9 -66 -13 -80 -9 -28 7 -34 20 -13 27 9 3 9
7 -2 20 -12 15 -10 17 14 17 22 0 26 3 20 18 -62 144 -53 277 22 342 35 31 63
39 63 18z m5970 1 c0 -31 -82 -79 -202 -120 -122 -41 -105 -23 60 62 141 73
142 74 142 58z m4425 -63 c16 -25 33 -46 37 -46 4 0 8 -6 8 -13 0 -7 16 -51
35 -97 34 -84 44 -130 26 -130 -16 0 -28 25 -45 95 -10 40 -32 92 -52 122 -18
29 -34 62 -34 73 0 11 -6 20 -14 20 -7 0 -16 9 -19 20 -9 33 26 7 58 -44z
m-11165 10 c0 -19 22 -26 81 -26 27 0 49 -4 49 -9 0 -11 -50 -21 -106 -21 -31
0 -44 -4 -44 -14 0 -17 22 -26 61 -26 36 0 36 -6 2 -42 -30 -32 -61 -36 -70
-10 -3 9 -13 24 -22 32 -23 20 -44 85 -36 110 5 16 15 20 46 20 27 0 39 -4 39
-14z m6539 9 c-14 -13 -79 -34 -79 -25 0 6 10 15 23 20 23 9 64 13 56 5z
m2021 -31 c0 -8 -4 -14 -10 -14 -12 0 -31 35 -23 44 9 8 33 -14 33 -30z m2737
30 c-3 -3 -12 -4 -19 -1 -8 3 -5 6 6 6 11 1 17 -2 13 -5z m-5669 -52 c7 -23
20 -42 28 -42 8 0 14 5 14 10 0 6 5 10 12 10 6 0 9 -2 6 -5 -3 -3 0 -29 6 -58
13 -55 7 -120 -13 -140 -8 -8 -11 -2 -11 26 0 41 -5 44 -31 21 -16 -15 -17
-11 -17 53 0 42 -6 82 -16 105 -9 21 -16 45 -16 54 0 29 24 8 38 -34z m482 42
c0 -13 -21 -44 -30 -44 -14 0 -12 24 2 38 13 13 28 16 28 6z m3612 -35 c-22
-20 -43 -29 -66 -29 -26 0 -36 -5 -41 -20 -8 -25 -25 -26 -25 -2 0 18 41 42
72 42 10 0 26 8 37 19 10 10 25 21 32 23 27 10 23 -4 -9 -33z m-9235 9 c-30
-43 -78 -133 -92 -175 -20 -60 -31 -241 -16 -285 12 -37 46 -75 54 -61 2 4 -1
29 -8 56 -6 26 -9 47 -5 47 4 0 19 -17 34 -38 14 -21 39 -51 55 -66 19 -18 27
-34 24 -47 -4 -16 0 -19 27 -19 45 0 91 25 120 64 24 32 28 34 111 40 90 7
119 2 119 -18 0 -7 -7 -35 -15 -63 -12 -40 -27 -60 -75 -103 l-61 -52 -115 7
c-115 7 -146 19 -76 30 114 17 114 41 -1 37 -109 -4 -152 11 -197 71 -43 57
-90 186 -90 248 0 68 91 249 154 307 50 46 79 56 53 20z m127 7 c-4 -8 -8 -15
-10 -15 -2 0 -4 7 -4 15 0 8 4 15 10 15 5 0 7 -7 4 -15z m8094 3 c14 -14 16
-28 2 -28 -5 0 -14 9 -20 20 -12 22 -1 27 18 8z m-7493 -49 c39 -21 86 -52
105 -70 19 -17 48 -40 64 -52 42 -32 74 -65 136 -136 75 -88 79 -91 101 -91
10 0 19 -2 19 -4 0 -2 3 -12 7 -22 5 -14 2 -16 -21 -10 -27 7 -48 23 -122 94
-18 17 -36 32 -39 32 -11 0 -4 -24 12 -42 24 -26 9 -34 -18 -9 -13 12 -29 21
-36 21 -20 0 -16 -24 7 -45 24 -21 80 -104 80 -117 0 -18 -59 26 -70 52 -19
46 -181 110 -277 110 -73 0 -67 -23 8 -31 67 -8 135 -32 206 -73 26 -15 62
-54 101 -111 15 -22 31 -43 37 -47 5 -4 -45 -8 -112 -8 -67 0 -128 -3 -137 -6
-29 -11 -18 -34 17 -35 17 0 43 -2 57 -4 14 -2 55 -6 91 -9 69 -5 199 -43 199
-57 0 -5 -57 -9 -127 -10 -231 -2 -297 2 -314 17 -8 8 -21 14 -27 14 -12 0
-102 46 -115 59 -10 10 5 41 31 71 54 61 65 70 82 70 23 0 26 22 6 39 -7 6
-43 18 -79 25 -86 18 -137 35 -137 46 0 12 45 57 70 70 28 15 26 54 -5 68 -13
6 -72 14 -130 18 -93 6 -105 9 -105 25 0 12 10 21 28 25 15 3 32 7 38 9 37 11
247 -62 274 -96 3 -3 17 -9 33 -13 22 -5 27 -3 27 11 0 18 -105 94 -148 107
-12 4 -20 11 -17 16 7 12 121 -42 205 -98 64 -42 90 -41 53 1 -10 12 -25 31
-33 42 -13 17 -12 17 17 -3 56 -39 74 -19 27 31 -28 30 -153 126 -191 146 -13
6 -23 16 -23 21 0 18 77 -4 145 -41z m9385 31 c-25 -4 -49 -4 -54 1 -6 5 12 8
45 8 l54 -2 -45 -7z m740 2 c0 -4 13 -13 29 -20 57 -25 241 -221 241 -256 0
-9 4 -16 8 -16 5 0 15 -12 22 -27 24 -47 64 -103 75 -103 6 0 15 -12 22 -26
10 -21 9 -26 -3 -31 -9 -3 -21 3 -30 16 -8 11 -20 21 -26 21 -5 0 -19 11 -30
25 -31 40 -55 49 -83 31 l-23 -15 15 30 c17 33 10 57 -28 98 -10 10 -26 34
-36 52 -20 36 -47 68 -125 153 -46 48 -60 76 -38 76 6 0 10 -3 10 -8z m-10400
-18 c57 -7 98 -23 214 -85 38 -20 72 -57 62 -66 -4 -4 -10 -3 -14 2 -12 18
-175 92 -260 120 -45 15 -85 32 -89 38 -4 6 2 8 18 3 13 -3 44 -9 69 -12z
m2906 -46 c16 -35 29 -74 30 -87 1 -25 1 -25 -22 4 -13 16 -21 31 -19 33 2 2
-5 26 -16 53 -22 57 -22 59 -10 59 4 0 21 -28 37 -62z m1569 -3 c14 -30 28
-55 33 -55 8 0 32 -78 32 -102 0 -7 -14 10 -31 38 -17 27 -39 58 -49 69 -11
11 -23 39 -28 63 -15 63 13 56 43 -13z m-2471 -13 c-15 -20 -31 -39 -34 -42
-3 -3 -20 -25 -36 -50 -68 -101 -87 -126 -113 -155 -15 -17 -30 -40 -33 -52
-6 -23 83 66 150 149 20 26 42 49 48 52 18 7 -56 -126 -85 -155 -14 -14 -50
-51 -79 -82 -29 -31 -57 -57 -63 -57 -5 0 -9 -4 -9 -10 0 -5 -13 -7 -29 -4
-16 4 -32 1 -35 -5 -10 -16 -39 -14 -33 2 3 8 2 19 -3 26 -8 13 -24 7 -95 -39
-54 -34 -119 -61 -173 -71 -87 -17 -130 11 -49 31 43 11 150 62 178 86 8 8 19
14 23 14 4 0 13 6 20 13 7 6 34 30 61 52 79 66 149 137 178 182 25 40 67 74
67 55 0 -5 -16 -27 -35 -49 -33 -39 -45 -73 -26 -73 5 0 18 15 30 33 11 17 28
39 38 48 10 9 49 49 88 88 71 73 100 81 49 13z m2526 37 c0 -6 -4 -7 -10 -4
-5 3 -10 11 -10 16 0 6 5 7 10 4 6 -3 10 -11 10 -16z m-4911 -211 c21 -62 21
-64 -9 -46 -27 17 -39 2 -47 -61 -9 -82 -28 -58 -27 37 0 69 -2 81 -17 85 -10
3 -20 0 -23 -7 -3 -6 -3 9 0 34 7 53 39 127 68 155 l21 20 7 -80 c4 -44 16
-106 27 -137z m11018 207 c6 -10 31 -17 73 -21 109 -9 200 -34 200 -53 0 -21
-52 -41 -108 -41 -65 0 -65 -24 1 -55 20 -9 37 -21 37 -26 0 -5 4 -9 10 -9 16
0 62 -52 56 -65 -6 -18 -91 -29 -113 -15 -15 9 -13 10 13 6 50 -8 74 27 27 38
-41 10 -130 72 -138 96 -3 11 -10 20 -14 20 -4 0 -7 9 -8 21 -2 18 2 19 43 13
37 -5 44 -4 44 10 0 9 -9 17 -22 18 -21 1 -43 4 -73 7 -5 1 -3 6 5 11 12 8 11
10 -7 10 -13 0 -23 5 -23 10 0 6 -6 10 -14 10 -7 0 -19 7 -26 15 -10 13 -9 15
8 15 12 0 25 -7 29 -15z m-5579 -15 c-7 -11 -19 -20 -27 -20 -11 0 -10 5 4 20
10 11 22 20 27 20 4 0 3 -9 -4 -20z m2458 -18 c12 -15 30 -54 41 -87 17 -51
19 -71 11 -135 -4 -41 -9 -85 -11 -97 -5 -49 19 -20 41 52 14 43 30 74 36 72
21 -7 18 -60 -8 -132 -29 -81 -30 -85 -17 -85 7 0 58 104 74 153 11 30 36 19
46 -21 22 -81 23 -98 2 -157 -21 -63 -14 -92 13 -54 13 19 16 20 16 6 0 -9 4
-17 9 -17 14 0 27 22 41 65 7 22 16 44 20 48 13 14 23 -51 15 -100 -9 -59 14
-55 34 6 16 50 30 43 38 -18 6 -47 20 -53 29 -14 l7 26 18 -22 c14 -17 26 -22
42 -17 18 4 27 -1 40 -23 9 -16 38 -42 65 -57 l47 -29 -65 -7 c-101 -10 -169
0 -214 33 -47 34 -46 34 -98 9 -24 -11 -62 -20 -89 -20 l-48 0 -16 58 c-25 88
-22 85 -53 78 -68 -15 -133 -18 -181 -6 -48 11 -70 30 -35 30 21 0 71 56 94
105 23 52 50 158 50 200 0 32 -35 119 -59 149 -7 8 -10 20 -6 26 12 19 50 9
71 -18z m-2961 10 c22 -16 52 -146 37 -156 -5 -3 -19 20 -30 52 -35 101 -37
126 -7 104z m92 -24 c-3 -8 -6 -5 -6 6 -1 11 2 17 5 13 3 -3 4 -12 1 -19z
m500 16 c-3 -3 -12 -4 -19 -1 -8 3 -5 6 6 6 11 1 17 -2 13 -5z m83 -14 c0 -5
-4 -10 -10 -10 -5 0 -10 5 -10 10 0 6 5 10 10 10 6 0 10 -4 10 -10z m-3170
-15 c-7 -8 -17 -15 -22 -15 -11 0 14 29 26 30 5 0 3 -7 -4 -15z m6790 -1 c0
-10 -7 -14 -22 -12 -32 5 -35 28 -4 28 17 0 26 -5 26 -16z m-9186 -86 c4 -20
3 -28 -7 -28 -9 0 -14 16 -15 53 -1 52 4 47 22 -25z m9023 64 c16 -10 79 -103
87 -130 4 -12 12 -22 17 -22 14 0 11 44 -6 76 -8 16 -11 30 -5 32 19 7 52 -21
66 -54 8 -19 19 -34 24 -34 12 0 44 -62 66 -126 19 -56 15 -151 -7 -165 -10
-6 -16 -1 -22 21 -11 42 -24 37 -37 -12 -20 -81 -64 -148 -97 -148 -19 0 -16
14 7 35 35 32 78 109 81 145 5 88 -14 113 -26 33 -3 -27 -14 -59 -23 -73 -9
-14 -21 -34 -27 -45 -6 -11 -20 -24 -33 -30 -12 -5 -25 -18 -28 -27 -6 -20
-42 -43 -52 -33 -3 3 6 16 20 28 54 45 100 182 68 202 -5 3 -11 1 -11 -4 -1
-6 -3 -15 -4 -21 -1 -5 -3 -18 -4 -28 -1 -16 -53 -82 -65 -82 -3 0 -6 9 -6 20
0 11 -4 20 -10 20 -5 0 -10 -5 -10 -10 0 -23 -87 -103 -137 -126 -39 -19 -76
-27 -145 -31 -51 -3 -91 -4 -88 -1 3 3 45 15 94 27 49 13 110 36 136 52 55 34
120 104 120 129 0 10 6 23 14 29 34 28 39 162 9 214 -14 24 -27 33 -51 35 -35
4 -39 -4 -17 -34 8 -10 15 -29 15 -41 0 -18 -6 -23 -24 -23 -14 0 -28 5 -31
10 -3 6 -15 10 -25 10 -10 0 -27 11 -38 25 -12 15 -30 25 -46 25 -28 0 -151
58 -142 67 3 4 47 7 98 9 135 5 153 4 156 -6 2 -6 7 -10 12 -10 9 0 7 41 -4
58 -5 8 0 12 12 12 11 0 41 -23 67 -52 36 -40 49 -48 58 -39 8 8 9 14 1 19
-11 7 -44 65 -44 77 0 7 23 6 37 -3z m-9797 -12 c23 -7 24 -8 5 -14 -11 -4
-30 -12 -43 -17 -28 -11 -42 -4 -42 22 0 21 31 24 80 9z m3260 0 c11 -7 15
-34 16 -117 1 -132 20 -184 89 -255 45 -46 47 -50 31 -66 -24 -24 -138 -23
-194 2 -34 15 -44 17 -57 6 -8 -7 -15 -20 -15 -30 0 -24 -43 -68 -73 -75 -44
-11 -164 13 -207 41 -48 32 -88 28 -153 -15 -72 -47 -152 -65 -264 -59 -96 6
-159 23 -187 51 -8 7 -24 33 -36 58 -12 24 -29 48 -36 52 -8 4 -14 15 -14 22
0 8 -7 15 -16 15 -12 0 -14 -7 -9 -32 4 -18 15 -44 25 -58 28 -42 32 -50 21
-50 -6 0 -11 7 -11 15 0 9 -7 18 -15 21 -8 4 -15 10 -15 15 0 4 -13 27 -28 51
-15 24 -32 56 -37 72 -16 47 -34 44 -28 -3 4 -27 2 -41 -6 -41 -6 0 -11 14
-11 31 0 20 -4 29 -12 26 -19 -6 -11 -84 14 -139 12 -27 18 -51 14 -55 -11
-12 -54 42 -64 80 -13 47 -55 137 -64 137 -5 0 -8 -7 -8 -15 0 -8 -4 -15 -10
-15 -13 0 -13 64 0 111 5 19 25 53 43 75 18 21 36 47 40 57 3 9 13 17 22 17 8
0 15 5 15 10 0 6 5 10 12 10 7 0 5 -7 -5 -18 -17 -18 -47 -84 -47 -102 0 -19
16 -10 32 18 9 15 39 51 66 81 39 42 57 54 88 58 25 3 46 -1 58 -10 19 -14 19
-15 -2 -33 -12 -10 -22 -23 -22 -30 0 -6 -8 -19 -19 -28 -30 -27 -46 -100 -33
-149 27 -109 70 -185 125 -224 44 -31 144 -65 189 -65 64 1 230 63 258 97 6 8
31 17 54 20 27 4 59 20 87 42 l44 35 14 -36 c14 -36 30 -48 32 -23 1 6 2 35 3
62 1 43 4 50 22 53 18 3 23 -4 29 -35 9 -50 32 -103 44 -103 6 0 7 36 4 93 -5
74 -3 95 9 105 12 10 19 4 38 -38 44 -93 70 -88 30 6 -13 29 -20 64 -18 88 5
64 28 52 55 -29 26 -79 37 -95 55 -77 9 9 6 22 -10 54 -24 50 -33 137 -19 188
15 57 34 71 67 50z m3019 5 c-13 -12 -79 -34 -79 -26 0 5 12 14 28 19 29 11
58 15 51 7z m62 -45 c-23 -21 -42 -30 -67 -30 -24 0 -34 -5 -34 -15 0 -17 -25
-20 -35 -5 -3 6 1 10 9 10 9 0 16 4 16 9 0 5 24 21 54 35 30 14 58 31 62 37 4
8 9 8 17 0 8 -8 2 -19 -22 -41z m-5995 -20 c-14 -22 -26 -44 -26 -49 0 -6 -11
-22 -25 -37 -25 -27 -33 -54 -16 -54 9 0 37 33 73 89 33 50 51 52 31 3 -8 -22
-26 -45 -39 -51 -19 -8 -24 -18 -24 -45 0 -39 -43 -99 -131 -181 -68 -63 -99
-85 -121 -85 -27 0 -22 29 7 42 14 6 25 15 25 19 0 4 6 14 14 21 13 13 46 72
46 81 0 3 -9 7 -20 10 -36 9 -33 14 98 154 42 45 88 96 102 114 33 44 38 18 6
-31z m11157 -39 c-6 -8 -11 5 -17 49 l-5 45 13 -45 c7 -25 11 -47 9 -49z
m-7415 -14 c25 -79 26 -87 14 -87 -12 0 -39 68 -47 118 -11 66 8 49 33 -31z
m-4047 49 c49 4 89 4 89 1 0 -4 -14 -22 -31 -42 -25 -28 -38 -35 -69 -35 -44
0 -90 37 -89 72 0 13 3 17 6 10 4 -10 26 -11 94 -6z m11506 -11 c-4 -8 -2 -17
2 -20 5 -2 12 -31 16 -62 4 -32 8 -65 10 -74 12 -59 -46 -179 -86 -179 -17 0
-19 5 -13 42 4 24 13 50 20 59 8 8 14 23 14 32 0 9 7 17 15 17 20 0 19 6 -5
30 -21 21 -27 60 -10 60 6 0 10 -4 10 -10 0 -5 5 -10 11 -10 7 0 10 20 9 53
-3 63 -2 77 6 77 3 0 4 -7 1 -15z m68 6 c3 -5 1 -12 -4 -15 -5 -3 -11 1 -15 9
-6 16 9 21 19 6z m-6612 -40 c-6 -3 -16 -16 -22 -29 -16 -29 -39 -59 -69 -85
-12 -12 -34 -40 -48 -64 -14 -24 -29 -43 -34 -43 -14 0 -13 5 15 52 14 24 28
50 31 58 3 8 25 31 49 50 24 19 48 45 54 58 6 13 16 20 22 16 7 -4 7 -9 2 -13z
m5797 -78 c14 -13 28 -23 32 -23 4 0 2 -13 -3 -29 -9 -24 -18 -31 -52 -36 -23
-3 -63 -11 -90 -17 -36 -9 -55 -9 -80 0 -19 7 -42 12 -53 12 -18 1 -18 1 -1
15 11 7 59 19 108 26 49 7 89 16 89 21 0 4 -43 8 -95 8 -52 0 -95 4 -95 9 0
14 64 51 87 51 12 0 26 6 33 14 10 13 17 12 53 -7 23 -12 53 -32 67 -44z
m-5140 25 l-1 -33 -14 25 c-18 32 -18 40 0 40 10 0 15 -10 15 -32z m-320 2 c0
-5 8 -10 19 -10 10 0 29 -8 42 -18 13 -10 40 -26 61 -37 20 -10 47 -27 60 -37
l23 -18 -26 0 c-14 0 -54 19 -88 41 -35 23 -81 44 -102 46 -34 5 -37 8 -28 24
10 20 39 26 39 9z m963 3 c-7 -2 -19 -2 -25 0 -7 3 -2 5 12 5 14 0 19 -2 13
-5z m582 -30 c-7 -17 -8 -17 -15 2 -9 24 -2 41 12 27 6 -6 7 -19 3 -29z m4587
10 c3 -47 -5 -119 -17 -166 -8 -31 -32 -31 -27 -1 2 16 3 101 0 123 0 3 0 21
1 39 1 25 5 32 21 32 15 0 20 -7 22 -27z m219 20 c0 -5 2 -16 4 -25 4 -21 -6
-23 -23 -6 -17 17 -15 38 3 38 8 0 15 -3 16 -7z m-6166 -54 c11 -17 -1 -21
-15 -4 -8 9 -8 15 -2 15 6 0 14 -5 17 -11z m6721 -34 c74 -40 104 -79 104
-138 0 -37 -5 -55 -22 -73 -13 -13 -29 -24 -37 -24 -8 0 -19 -7 -26 -17 -7 -9
-17 -13 -23 -9 -15 9 -16 26 -1 26 6 0 17 6 25 14 7 8 19 16 25 18 7 2 12 26
12 56 1 62 -21 92 -67 92 -49 0 -59 -11 -48 -53 l10 -35 -29 8 c-15 5 -33 11
-39 15 -5 3 -10 1 -10 -5 0 -7 -8 -9 -21 -5 -14 5 -25 2 -30 -6 -6 -11 -11
-11 -21 -1 -18 18 15 50 35 33 18 -15 27 4 27 57 0 33 4 39 38 54 48 22 43 22
98 -7z m-8094 -34 c19 -47 101 -163 147 -208 19 -18 55 -40 80 -50 62 -22 72
-33 31 -33 -56 1 -156 66 -205 135 -53 72 -95 157 -95 193 0 24 28 -1 42 -37z
m-2424 -27 c-10 -10 -27 5 -44 39 l-16 32 33 -32 c18 -18 30 -35 27 -39z
m10330 59 c15 -4 20 -8 12 -13 -7 -4 -12 -24 -13 -44 -1 -20 -2 -36 -4 -36 -2
0 -26 17 -55 38 -48 34 -51 37 -28 40 14 2 29 8 35 13 11 11 21 11 53 2z
m-11634 -29 c12 -32 19 -124 9 -124 -6 0 -16 -15 -23 -32 -22 -60 -33 -78 -47
-78 -10 0 -12 7 -8 20 6 18 3 20 -19 14 -21 -5 -24 -3 -19 15 3 13 1 21 -7 21
-6 0 -14 -9 -17 -20 -5 -19 -6 -19 -19 6 -20 38 -17 66 11 104 39 53 75 67 75
30 0 -11 5 -20 10 -20 17 0 24 31 12 51 -17 26 -15 29 12 29 13 0 27 -7 30
-16z m2116 -37 c0 -12 -91 -48 -111 -45 -23 4 -23 5 6 17 17 7 37 17 45 21 15
9 60 13 60 7z m3480 -11 c0 -51 -14 -106 -28 -106 -12 0 -13 9 -8 46 3 26 6
53 6 60 0 8 7 14 15 14 8 0 15 -6 15 -14z m73 7 c2 -5 -4 -21 -14 -38 l-19
-30 0 31 c0 31 6 44 21 44 4 0 10 -3 12 -7z m-203 -34 c0 -20 -15 -26 -25 -9
-9 15 3 43 15 35 5 -3 10 -15 10 -26z m70 19 c0 -7 -4 -19 -9 -26 -7 -11 -10
-10 -15 3 -3 9 -4 21 0 26 8 13 24 11 24 -3z m-4155 -29 c36 -32 44 -49 23
-49 -18 0 -78 50 -78 66 0 22 16 17 55 -17z m9905 11 c29 -23 50 -26 50 -6 0
21 49 26 69 7 72 -69 145 -108 219 -118 39 -6 43 -8 22 -13 -14 -3 -45 -3 -69
2 -24 4 -46 6 -48 5 -2 -2 5 -13 14 -24 20 -22 73 -39 73 -23 0 5 6 10 14 10
9 0 12 -8 8 -25 -4 -22 -10 -25 -43 -25 -21 0 -55 10 -76 21 -21 12 -59 28
-84 35 -25 8 -54 23 -64 34 -10 11 -23 20 -30 20 -20 0 -95 89 -95 114 0 11
15 6 40 -14z m-6890 0 c0 -5 -5 -10 -11 -10 -5 0 -7 5 -4 10 3 6 8 10 11 10 2
0 4 -4 4 -10z m5390 0 c0 -13 -78 -52 -93 -47 -7 2 6 15 28 30 42 27 65 33 65
17z m-10159 -40 c-50 -46 -76 -54 -40 -12 35 40 51 52 68 52 10 -1 -1 -16 -28
-40z m11120 30 c2 -11 2 -11 13 -51 7 -25 43 -59 77 -71 8 -3 54 -3 102 1 48
3 87 5 87 2 0 -2 -12 -15 -27 -28 -26 -22 -35 -24 -102 -20 -55 3 -77 9 -87
22 -8 11 -29 18 -61 20 -26 1 -60 6 -76 10 -22 6 -26 4 -21 -8 3 -9 12 -13 21
-10 10 4 14 2 10 -4 -4 -6 4 -20 18 -31 34 -27 33 -46 -2 -37 -34 8 -89 49
-103 75 -6 11 -19 20 -29 20 -25 0 -48 29 -53 65 l-3 30 90 11 c121 15 145 16
146 4z m812 -4 c15 -12 24 -36 12 -36 -16 0 -55 26 -55 37 0 17 20 16 43 -1z
m-5773 -20 c0 -15 -11 -33 -27 -45 -16 -11 -37 -29 -48 -40 -22 -22 -66 -41
-96 -41 -26 0 -24 17 4 24 12 3 38 19 57 36 18 16 36 30 40 30 3 0 11 14 17
30 14 39 53 43 53 6z m-4281 -8 c18 -49 22 -68 14 -68 -11 0 -33 49 -33 72 0
25 9 23 19 -4z m796 2 c-3 -5 -12 -10 -18 -10 -7 0 -6 4 3 10 19 12 23 12 15
0z m3051 -7 c11 -10 27 -30 37 -45 9 -15 28 -30 42 -34 14 -3 25 -11 25 -16 0
-6 -8 -7 -17 -3 -10 4 -26 9 -35 12 -9 3 -28 23 -42 44 -15 21 -33 39 -41 39
-8 0 -15 5 -15 10 0 16 25 12 46 -7z m5894 -51 c21 -24 30 -119 10 -107 -5 3
-10 1 -10 -4 0 -7 -22 -11 -52 -11 -49 0 -55 3 -75 35 -27 41 -28 53 -7 76 15
17 54 15 54 -2 0 -5 7 -9 15 -9 11 0 15 12 15 43 1 40 1 41 16 22 8 -11 24
-30 34 -43z m-263 28 c-1 -11 -5 -20 -9 -20 -4 0 -8 9 -8 20 0 11 4 20 9 20 6
0 9 -9 8 -20z m-9571 -59 c42 -21 75 -51 55 -51 -11 0 -111 59 -111 66 0 8 17
4 56 -15z m10331 -2 c-14 -8 -22 -8 -30 0 -8 8 -3 11 19 11 25 -1 27 -2 11
-11z m-12647 -133 c47 -14 3279 -20 9615 -19 1414 1 2606 1 2650 1 525 -2 665
-1 692 6 30 7 33 5 58 -39 15 -25 24 -49 20 -53 -9 -9 -8065 -8 -10050 2 -825
4 -1860 9 -2300 11 -440 2 -808 7 -817 10 -21 8 -23 31 -4 42 7 4 18 18 25 31
14 26 44 28 111 8z"/>
<path d="M6383 1932 c-15 -9 -20 -145 -6 -149 5 -2 15 2 21 9 10 13 12 18 12
38 0 22 30 8 45 -21 25 -47 42 -23 41 58 -1 75 -19 96 -39 44 -6 -17 -14 -31
-17 -31 -13 1 -30 17 -37 37 -5 13 -13 19 -20 15z"/>
<path d="M6537 1863 c-5 -63 -2 -70 28 -75 18 -3 20 3 23 65 3 65 2 67 -21 67
-23 0 -25 -5 -30 -57z"/>
<path d="M6902 1897 c-5 -7 -10 -37 -11 -68 -3 -66 12 -84 40 -50 15 19 21 20
38 9 28 -17 36 -4 21 32 -10 23 -10 34 -1 43 19 19 13 40 -10 34 -12 -3 -32
-2 -44 3 -16 6 -26 5 -33 -3z"/>
<path d="M7076 1875 c-11 -19 -22 -35 -26 -35 -11 0 -22 -49 -15 -61 4 -6 13
-6 23 0 13 7 20 5 27 -10 9 -17 13 -17 29 -6 16 12 18 22 12 80 -9 76 -22 85
-50 32z"/>
<path d="M4871 1358 c-13 -36 -15 -118 -3 -118 9 0 32 80 32 115 0 37 -17 39
-29 3z"/>
<path d="M2890 729 c-20 -40 -21 -77 0 -64 12 7 50 79 50 95 0 25 -30 6 -50
-31z"/>
<path d="M12580 435 c0 -9 5 -15 11 -13 6 2 11 8 11 13 0 5 -5 11 -11 13 -6 2
-11 -4 -11 -13z"/>
<path d="M6312 2564 c4 -20 64 -38 74 -22 9 14 -6 25 -44 33 -29 6 -33 5 -30
-11z"/>
<path d="M7100 2499 c0 -11 6 -27 14 -35 10 -9 13 -26 9 -49 -4 -26 -2 -35 8
-35 8 0 25 -3 38 -7 22 -6 23 -4 16 35 -4 26 -2 47 6 61 17 26 5 38 -16 17
-16 -15 -18 -15 -37 9 -24 30 -38 32 -38 4z"/>
<path d="M6351 2483 c-18 -35 -17 -91 3 -118 12 -16 16 -17 30 -6 18 15 22 51
6 51 -5 0 -10 14 -10 30 0 17 5 30 10 30 6 0 10 7 10 15 0 21 -37 19 -49 -2z"/>
<path d="M7256 2484 c-23 -23 -21 -74 3 -74 15 0 20 9 23 41 4 46 -3 56 -26
33z"/>
<path d="M6268 2483 c-9 -20 -2 -126 8 -130 14 -5 28 94 18 120 -6 18 -20 23
-26 10z"/>
<path d="M6050 1815 c0 -52 13 -73 34 -56 11 9 20 10 35 2 25 -14 29 -7 23 50
l-4 46 -44 -1 -44 -1 0 -40z"/>
<path d="M7333 1803 c-28 -5 -30 -33 -4 -40 12 -3 21 -15 23 -31 4 -35 24 -39
32 -6 4 15 15 33 23 39 10 7 14 19 10 29 -6 16 -34 19 -84 9z"/>
</g>
</svg>
