<?xml version="1.0" encoding="UTF-8" standalone="no"?>
<!-- Generator: Adobe Illustrator 15.1.0, SVG Export Plug-In . SVG Version: 6.00 Build 0)  -->

<svg
   xmlns:dc="http://purl.org/dc/elements/1.1/"
   xmlns:cc="http://creativecommons.org/ns#"
   xmlns:rdf="http://www.w3.org/1999/02/22-rdf-syntax-ns#"
   xmlns:svg="http://www.w3.org/2000/svg"
   xmlns="http://www.w3.org/2000/svg"
   xmlns:xlink="http://www.w3.org/1999/xlink"
   xmlns:sodipodi="http://sodipodi.sourceforge.net/DTD/sodipodi-0.dtd"
   xmlns:inkscape="http://www.inkscape.org/namespaces/inkscape"
   version="1.1"
   id="Layer_1"
   x="0px"
   y="0px"
   width="612px"
   height="792px"
   viewBox="0 0 612 792"
   enable-background="new 0 0 612 792"
   xml:space="preserve"
   inkscape:version="0.47 r22583"
   sodipodi:docname="title_page_header.svg"><metadata
   id="metadata5254"><rdf:RDF><cc:Work
       rdf:about=""><dc:format>image/svg+xml</dc:format><dc:type
         rdf:resource="http://purl.org/dc/dcmitype/StillImage" /><dc:title></dc:title></cc:Work></rdf:RDF></metadata><defs
   id="defs5252"><inkscape:perspective
     sodipodi:type="inkscape:persp3d"
     inkscape:vp_x="0 : 396 : 1"
     inkscape:vp_y="0 : 1000 : 0"
     inkscape:vp_z="612 : 396 : 1"
     inkscape:persp3d-origin="306 : 264 : 1"
     id="perspective5256" /><inkscape:perspective
     id="perspective6242"
     inkscape:persp3d-origin="0.5 : 0.33333333 : 1"
     inkscape:vp_z="1 : 0.5 : 1"
     inkscape:vp_y="0 : 1000 : 0"
     inkscape:vp_x="0 : 0.5 : 1"
     sodipodi:type="inkscape:persp3d" /><clipPath
     clipPathUnits="userSpaceOnUse"
     id="clipPath6196"><path
       d="m 100.403,160.118 c -0.027,-0.118 0.012,-0.22 0.099,-0.24 l 0,0 c 1.023,-0.239 1.623,-0.973 1.376,-2.055 l 0,0 c -0.999,-4.359 -1.996,-8.716 -2.995,-13.072 l 0,0 c -0.288,-1.259 -1.224,-1.584 -2.335,-1.326 l 0,0 c -0.174,0.04 -0.316,-0.173 -0.356,-0.348 l 0,0 c -0.021,-0.088 0.018,-0.189 0.106,-0.209 l 0,0 c 2.046,-0.475 4.084,-0.984 6.114,-1.522 l 0,0 c 0.203,-0.054 0.396,0.111 0.436,0.287 l 0,0 c 0.026,0.117 -0.011,0.221 -0.127,0.251 l 0,0 c -0.01,0.003 -0.02,0.005 -0.029,0.007 l 0,0 c -1.249,0.332 -1.942,1.064 -1.654,2.322 l 0,0 c 1.063,4.64 2.125,9.28 3.188,13.921 l 0,0 c 2.84,-0.725 5.666,-1.511 8.481,-2.342 l 0,0 c -1.063,-4.641 -2.125,-9.28 -3.188,-13.921 l 0,0 c -0.288,-1.257 -1.217,-1.544 -2.313,-1.229 l 0,0 c -0.173,0.05 -0.313,-0.159 -0.353,-0.335 l 0,0 c -0.02,-0.087 0.017,-0.191 0.104,-0.217 l 0,0 c 2.021,-0.579 4.036,-1.184 6.047,-1.811 l 0,0 c 0.202,-0.063 0.392,0.097 0.433,0.272 l 0,0 c 0.026,0.117 -0.011,0.223 -0.126,0.259 l 0,0 c -0.01,0.003 -0.02,0.005 -0.029,0.009 l 0,0 c -1.235,0.385 -1.921,1.155 -1.632,2.413 l 0,0 c 0.998,4.357 1.996,8.715 2.994,13.072 l 0,0 c 0.208,0.906 1.094,1.419 1.985,1.143 l 0,0 c 0.258,-0.08 0.413,0.06 0.454,0.234 l 0,0 c 0.027,0.117 -0.061,0.27 -0.148,0.297 l 0,0 c -5.353,1.666 -10.74,3.182 -16.183,4.458 l 0,0 c -0.012,0.002 -0.025,0.004 -0.037,0.004 l 0,0 c -0.136,0 -0.276,-0.163 -0.312,-0.322 m 14.582,-15.345 c -0.71,-3.102 0.085,-7.692 3.747,-8.902 l 0,0 c 3.49,-1.155 7.554,1.942 8.385,5.569 l 0,0 c 0.623,2.717 0.045,7.319 -3.727,8.586 l 0,0 c -0.674,0.225 -1.33,0.329 -1.962,0.329 l 0,0 c -3.226,0 -5.782,-2.697 -6.443,-5.582 m 4.745,-7.501 c -3.06,1.014 -3.024,5.07 -2.562,7.092 l 0,0 c 0.489,2.131 2.023,5.607 5.2,4.555 l 0,0 c 2.858,-0.954 3.052,-4.94 2.477,-7.453 l 0,0 c -0.51,-2.228 -1.861,-4.391 -3.976,-4.391 l 0,0 c -0.358,0 -0.738,0.062 -1.139,0.197 m 15.728,8.337 c -0.378,-0.399 -0.894,-0.396 -1.274,-0.392 l 0,0 c -0.273,0.002 -0.477,0.005 -0.51,-0.141 l 0,0 c -0.074,-0.323 -0.042,-0.587 -0.095,-0.82 l 0,0 c -0.141,-0.615 -0.349,-0.984 -0.572,-1.285 l 0,0 c -1.712,-2.416 -3.426,-4.835 -5.139,-7.256 l 0,0 c -0.591,-0.835 -1.401,-1.279 -1.715,-1.17 l 0,0 c -0.199,0.069 -0.459,-0.126 -0.499,-0.3 l 0,0 c -0.02,-0.087 0.023,-0.166 0.109,-0.196 l 0,0 c 1.51,-0.525 3.021,-1.057 4.528,-1.592 l 0,0 c 0.171,-0.061 0.311,0.143 0.35,0.318 l 0,0 c 0.027,0.117 -0.016,0.196 -0.102,0.227 l 0,0 c -0.74,0.263 -1.557,0.994 -1.356,1.871 l 0,0 c 0.047,0.204 0.151,0.389 0.29,0.593 l 0,0 c 1.57,2.374 3.138,4.748 4.708,7.119 l 0,0 c 0.391,-3.175 0.781,-6.354 1.171,-9.533 l 0,0 c 0.023,-0.166 0.059,-0.685 0.018,-0.861 l 0,0 c -0.155,-0.545 -0.706,-0.663 -1.559,-0.357 l 0,0 c -0.199,0.071 -0.459,-0.121 -0.498,-0.296 l 0,0 c -0.02,-0.089 -0.006,-0.157 0.108,-0.197 l 0,0 c 1.792,-0.642 3.583,-1.289 5.374,-1.934 l 0,0 c 0.004,-0.001 0.007,-0.002 0.01,-0.003 l 0,0 c 0.006,-0.003 0.012,-0.006 0.018,-0.007 l 0,0 c 1.83,-0.66 3.659,-1.32 5.488,-1.976 l 0,0 c 0.199,-0.071 0.382,0.053 0.422,0.23 l 0,0 c 0.027,0.117 0.025,0.243 -0.117,0.294 l 0,0 c -1.251,0.449 -1.927,1.262 -1.639,2.519 l 0,0 c 0.326,1.424 0.652,2.847 0.978,4.27 l 0,0 c 1.876,-0.675 3.754,-1.348 5.632,-2.015 l 0,0 c -0.327,-1.422 -0.651,-2.845 -0.977,-4.269 l 0,0 c -0.289,-1.257 -0.978,-1.582 -2.06,-1.196 l 0,0 c -0.142,0.05 -0.296,-0.084 -0.337,-0.26 l 0,0 c -0.027,-0.117 -0.025,-0.244 0.09,-0.285 l 0,0 c 1.83,-0.653 3.661,-1.299 5.495,-1.939 l 0,0 c 0.161,-0.056 0.31,0.015 0.384,0.137 l 0,0 c -0.042,-0.128 -0.031,-0.261 0.073,-0.298 l 0,0 c 0.56,-0.194 1.121,-0.387 1.681,-0.581 l 0,0 c 1.284,-0.442 2.452,-1.122 3.366,-1.428 l 0,0 c 3.344,-1.124 5.904,0.108 6.526,2.827 l 0,0 c 0.636,2.776 -1.554,4.637 -3.898,5.424 l 0,0 c -0.752,0.251 -1.505,0.505 -2.255,0.76 l 0,0 c 0.244,1.072 0.49,2.144 0.736,3.216 l 0,0 c 0.194,0.849 0.611,1.463 0.739,2.019 l 0,0 c 0.101,0.439 -0.165,0.624 -0.508,0.741 l 0,0 c -0.36,0.123 -0.61,0.119 -0.914,0.117 l 0,0 c -0.467,-0.005 -1.06,-0.009 -2.373,0.446 l 0,0 c -0.142,0.05 -0.325,-0.076 -0.365,-0.252 l 0,0 c -0.026,-0.117 -0.025,-0.243 0.06,-0.273 l 0,0 c 1.597,-0.555 1.753,-1.08 1.392,-2.659 l 0,0 c -0.655,-2.857 -1.309,-5.713 -1.962,-8.569 l 0,0 c -0.288,-1.256 -0.894,-1.617 -1.978,-1.241 l 0,0 c -0.114,0.039 -0.221,-0.049 -0.285,-0.167 l 0,0 c 0.002,0.005 0.003,0.008 0.004,0.013 l 0,0 c 0.026,0.116 0.024,0.243 -0.118,0.292 l 0,0 c -1.254,0.438 -1.932,1.245 -1.644,2.503 l 0,0 c 0.693,3.022 1.384,6.044 2.077,9.066 l 0,0 c 0.195,0.848 0.612,1.46 0.738,2.015 l 0,0 c 0.101,0.439 -0.163,0.627 -0.505,0.747 l 0,0 c -0.358,0.126 -0.607,0.126 -0.908,0.126 l 0,0 c -0.467,0 -1.058,0 -2.372,0.468 l 0,0 c -0.142,0.051 -0.325,-0.074 -0.365,-0.249 l 0,0 c -0.027,-0.117 -0.026,-0.244 0.061,-0.276 l 0,0 c 1.593,-0.568 1.748,-1.096 1.386,-2.675 l 0,0 c -0.225,-0.985 -0.451,-1.97 -0.677,-2.953 l 0,0 c -1.877,0.666 -3.755,1.339 -5.632,2.014 l 0,0 c 0.264,1.15 0.528,2.3 0.792,3.451 l 0,0 c 0.194,0.847 0.61,1.458 0.738,2.013 l 0,0 c 0.1,0.438 -0.164,0.628 -0.506,0.75 l 0,0 c -0.909,0.329 -1.116,-0.168 -3.275,0.612 l 0,0 c -0.143,0.052 -0.325,-0.073 -0.365,-0.249 l 0,0 c -0.027,-0.117 -0.026,-0.244 0.06,-0.274 l 0,0 c 1.592,-0.574 1.747,-1.105 1.385,-2.684 l 0,0 c -0.653,-2.858 -1.308,-5.712 -1.962,-8.569 l 0,0 c -0.288,-1.257 -0.977,-1.58 -2.057,-1.19 l 0,0 c -0.009,0.003 -0.018,0.006 -0.026,0.007 l 0,0 c -0.01,0.006 -0.021,0.01 -0.032,0.015 l 0,0 c -0.994,0.358 -1.1,0.839 -1.246,1.81 l 0,0 c -0.566,3.94 -1.131,7.878 -1.696,11.814 l 0,0 c -0.055,0.432 0.009,0.978 0.183,1.739 l 0,0 c 0.033,0.146 -0.067,0.245 -0.209,0.296 l 0,0 c -0.112,0.039 -0.234,0.06 -0.34,0.06 l 0,0 c -0.112,0 -0.205,-0.022 -0.248,-0.072 m 22.314,-22.034 c -0.601,0.201 -0.964,0.356 -1.746,0.842 l 0,0 c 0.467,2.037 0.933,4.075 1.4,6.112 l 0,0 c 0.466,-0.159 0.933,-0.316 1.399,-0.474 l 0,0 c 2.344,-0.787 3.264,-2.277 2.768,-4.441 l 0,0 c -0.339,-1.485 -1.369,-2.244 -2.633,-2.244 l 0,0 c -0.379,0 -0.78,0.069 -1.188,0.205 m 18.897,14.516 c -0.82,-0.36 -1.273,-0.728 -1.515,-1.78 l 0,0 c -0.503,-2.197 2.07,-3.053 3.697,-3.481 l 0,0 c 1.622,-0.439 4.27,-0.972 4.773,1.225 l 0,0 c 0.241,1.053 -0.002,1.606 -0.573,2.336 l 0,0 c -0.26,0.342 -1.159,0.045 -0.986,-0.277 l 0,0 c 0.261,-0.469 0.141,-0.996 0.06,-1.346 l 0,0 c -0.249,-1.083 -1.663,-1.221 -3.028,-0.855 l 0,0 c -1.362,0.362 -2.557,1.195 -2.308,2.278 l 0,0 c 0.079,0.35 0.2,0.876 0.634,1.16 l 0,0 c 0.261,0.178 -0.244,0.767 -0.625,0.767 l 0,0 c -0.045,0 -0.088,-0.009 -0.129,-0.027 m -11.134,-3.733 c -0.026,-0.117 -0.024,-0.243 0.061,-0.27 l 0,0 c 1.606,-0.513 1.764,-1.029 1.403,-2.609 l 0,0 c -0.654,-2.856 -1.308,-5.712 -1.962,-8.568 l 0,0 c -0.288,-1.258 -0.984,-1.605 -2.073,-1.258 l 0,0 c -0.143,0.046 -0.299,-0.093 -0.338,-0.268 l 0,0 c -0.028,-0.116 -0.026,-0.243 0.089,-0.279 l 0,0 c 1.846,-0.591 3.694,-1.165 5.546,-1.719 l 0,0 c 0.203,-0.06 0.386,0.073 0.427,0.248 l 0,0 c 0.026,0.117 0.024,0.243 -0.12,0.286 l 0,0 c -1.267,0.378 -1.951,1.153 -1.663,2.41 l 0,0 c 0.692,3.023 1.384,6.044 2.076,9.066 l 0,0 c 0.195,0.848 0.614,1.471 0.741,2.026 l 0,0 c 0.101,0.439 -0.167,0.615 -0.511,0.721 l 0,0 c -0.367,0.113 -0.619,0.102 -0.929,0.09 l 0,0 c -0.469,-0.017 -1.067,-0.034 -2.38,0.383 l 0,0 c -0.019,0.007 -0.04,0.009 -0.061,0.009 l 0,0 c -0.13,0 -0.271,-0.116 -0.306,-0.268 m 6.122,-1.893 c -0.027,-0.117 -0.024,-0.242 0.062,-0.268 l 0,0 c 1.615,-0.478 1.774,-0.987 1.412,-2.567 l 0,0 c -0.683,-2.983 -1.366,-5.965 -2.049,-8.948 l 0,0 c -0.348,-1.522 0.983,-2.967 2.43,-3.363 l 0,0 c 2.055,-0.565 3.936,0.656 5.278,1.679 l 0,0 c -0.033,-0.148 -0.067,-0.292 -0.1,-0.439 l 0,0 c -0.254,-1.111 -0.067,-2.306 1.244,-2.625 l 0,0 c 0.439,-0.105 0.754,0.066 1.217,0.204 l 0,0 c 0.463,0.137 0.687,0.177 1.135,0.382 l 0,0 c 0.107,0.068 0.221,0.163 0.248,0.281 l 0,0 c 0.06,0.264 -0.071,0.632 -0.246,0.672 l 0,0 c -0.16,0.037 -0.399,-0.074 -0.642,-0.185 l 0,0 c -0.247,-0.113 -0.498,-0.226 -0.674,-0.184 l 0,0 c -0.379,0.091 -0.449,0.725 -0.282,1.457 l 0,0 c 0.691,3.011 1.38,6.024 2.07,9.036 l 0,0 c 0.194,0.847 0.618,1.486 0.745,2.043 l 0,0 c 0.1,0.438 -0.171,0.595 -0.522,0.68 l 0,0 c -0.379,0.094 -0.639,0.065 -0.963,0.035 l 0,0 c -0.471,-0.043 -1.078,-0.085 -2.386,0.253 l 0,0 c -0.146,0.038 -0.331,-0.099 -0.371,-0.275 l 0,0 c -0.027,-0.117 -0.024,-0.242 0.063,-0.264 l 0,0 c 1.626,-0.423 1.788,-0.922 1.427,-2.503 l 0,0 c -0.496,-2.164 -0.992,-4.329 -1.487,-6.492 l 0,0 c -1.009,-1.448 -2.981,-2.802 -4.632,-2.353 l 0,0 c -0.957,0.26 -1.628,1.63 -1.399,2.625 l 0,0 c 0.63,2.749 1.258,5.497 1.888,8.247 l 0,0 c 0.194,0.847 0.615,1.476 0.742,2.032 l 0,0 c 0.101,0.439 -0.168,0.607 -0.515,0.706 l 0,0 c -0.371,0.105 -0.627,0.087 -0.942,0.068 l 0,0 c -0.469,-0.028 -1.07,-0.055 -2.382,0.331 l 0,0 c -0.019,0.006 -0.038,0.008 -0.057,0.008 l 0,0 c -0.132,0 -0.277,-0.12 -0.312,-0.273"
       id="path6198" /></clipPath><inkscape:perspective
     id="perspective6384"
     inkscape:persp3d-origin="0.5 : 0.33333333 : 1"
     inkscape:vp_z="1 : 0.5 : 1"
     inkscape:vp_y="0 : 1000 : 0"
     inkscape:vp_x="0 : 0.5 : 1"
     sodipodi:type="inkscape:persp3d" /></defs><sodipodi:namedview
   pagecolor="#ffffff"
   bordercolor="#666666"
   borderopacity="1"
   objecttolerance="10"
   gridtolerance="10"
   guidetolerance="10"
   inkscape:pageopacity="0"
   inkscape:pageshadow="2"
   inkscape:window-width="1280"
   inkscape:window-height="950"
   id="namedview5250"
   showgrid="false"
   inkscape:snap-grids="true"
   inkscape:snap-to-guides="true"
   inkscape:zoom="1.9704315"
   inkscape:cx="325.91469"
   inkscape:cy="573.30232"
   inkscape:window-x="0"
   inkscape:window-y="26"
   inkscape:window-maximized="1"
   inkscape:current-layer="layer4"
   inkscape:object-nodes="false"
   showguides="true"
   inkscape:guide-bbox="true"><sodipodi:guide
     orientation="0,1"
     position="397.83045,531.42906"
     id="guide6416" /><sodipodi:guide
     orientation="0,1"
     position="382.64423,538.70192"
     id="guide6418" /><sodipodi:guide
     orientation="1,0"
     position="232.16346,541.97115"
     id="guide6420" /><sodipodi:guide
     orientation="1,0"
     position="335.09615,552.5"
     id="guide6434" /></sodipodi:namedview>







<g
   id="g6390"
   transform="translate(0.04807692,0)"><path
     style="fill:#aa975f"
     id="path4474"
     d="m 456.932,246.32299 c -0.001,6.058 -6.588,3.937 -11.263,3.716 -4.675,-0.221 -9.245,2.643 -9.245,6.386 -10e-4,3.744 4.834,2.423 4.834,2.423 0,0 -0.479,1.652 -2.923,1.652 -2.442,0 -3.931,-1.873 -3.611,-4.957 0.317,-3.066 4.146,-7.158 10.945,-6.937 6.799,0.221 10.093,0.799 9.774,-2.284 0.32,-3.083 -2.974,-2.505 -9.774,-2.286 -6.8,0.219 -10.626,-3.874 -10.942,-6.939 -0.319,-3.083 1.17,-4.957 3.613,-4.956 2.443,0.001 2.921,1.652 2.921,1.652 0,0 -4.834,-1.322 -4.834,2.423 0,3.744 4.567,6.608 9.242,6.388 4.676,-0.219 11.264,-2.338 11.263,3.719 z" /><path
     style="fill:#c3b48b"
     inkscape:transform-center-y="7.0926278"
     inkscape:transform-center-x="13.087896"
     id="path4476"
     d="m 490.35995,221.7643 c 0,0 -10.55251,23.22597 -31.7829,23.38859 0,0 -2.8378,0.81462 0.0272,1.98873 0,0 20.20413,1.0256 31.75579,-25.37732 z" /><path
     style="fill:#aa975f"
     id="path4478"
     d="m 490.603,219.398 c 0,0 -5.652,15.01747 -5.066,18.26784 0.756,4.18682 3.383,5.27541 5.074,5.10515 1.69,-0.17027 3.798,-2.28948 3.271,-5.9474 0,0 -0.644,2.774 -4.024,3.11362 -3.38,0.34143 -3.383,-5.2754 -1.747,-9.65331 1.634,-4.37881 2.492,-10.8859 2.492,-10.8859 z" /><path
     style="fill:#c3b48b"
     id="path4480"
     d="m 452.735,245.65299 c 0,0 -42.644,4.986 -42.641,-13.222 0,-3.524 2.691,-3.523 2.691,-3.523 0,0 1.842,-0.44 2.125,2.497 0,0 -0.708,-1.027 -1.842,-0.881 -1.133,0.146 -0.991,1.468 -0.85,2.056 0.141,0.587 1.274,1.028 1.274,1.028 0,0 2.975,0.294 2.551,-3.23 -0.425,-3.525 -2.55,-3.084 -3.542,-3.084 -0.991,0 -3.824,0.293 -3.825,4.992 -10e-4,4.7 1.013,13.866 27.782,15.569 13.886,0.881 16.277,-2.202 16.277,-2.202 z" /></g>
<g
   id="g4482">
	<path
   d="M382.14,176.321c0,0,0.921-4.038,10.059-4.038   c9.987,0,16.929,6.092,24.296,7.083c7.366,0.992,8.429-3.931,8.429-3.931s-4.675-7.756-33.787-16.044c0,0-0.235,3.984-5.596,9.563   C382.919,171.682,382.14,176.321,382.14,176.321z"
   id="path4484"
   stroke-width="1.25"
   stroke="#6B3337"
   fill="#C3B48B" />
</g>
<g
   id="g4486">
	<path
   d="M485.752,166.865c0,0,24.49-8.394,29.059-9.457   c0,0-16.893-17.531-40.375-17.531c-16.256,0-20.4,11.475-20.4,16.362c0,3.719,1.807,5.738,1.807,5.738l6.588-8.606   c0,0,0.956-4.25,7.225-4.25s10.412,6.481,7.756,12.538C477.41,161.659,482.14,162.721,485.752,166.865z"
   id="path4488"
   stroke-width="1.25"
   stroke="#6B3337"
   fill="#FDC689" />
	<path
   d="M590.036,214.359c0,0-17,4.462-41.013-25.394   c0,0-24.862,7.119-28.9,8.925c0,0,12.328,16.889,28.157,21.782c5.844,1.806,8.818-0.213,10.094-0.319   c1.274-0.106,14.578-3.55,24.544-2.763c10.306,0.814,8.818-3.506,8.818-3.506S592.161,214.005,590.036,214.359z"
   id="path4490"
   stroke-width="1.25"
   stroke="#6B3337"
   fill="#FDC689" />
</g>
<path
   d="M318.469,226.542c-2.028-3.364-1.691-10.483-1.833-9.35s-2.55,2.692-2.55,2.692  c-1.7-2.692-0.851-7.792-0.851-7.792c-1.842,2.267-4.108,1.559-4.108,1.559c-1.274-9.208,4.392-11.758,4.392-11.758  c-3.825-0.708-5.95,6.233-13.741,6.233c-4.825,0-2.975-4.817-2.975-4.817c-6.092,1.417-2.55-0.567-5.383-1.559  c-2.833-0.991-4.958-4.816-4.958-4.816c10.909,7.367,20.4-3.4,24.508-4.25s6.517,3.4,6.517,3.4  c0.283-3.967-6.658-9.067-7.083-10.767c-0.425-1.7,2.125-3.684,4.108-5.383c1.983-1.7,3.958-9.917,3.958-9.917  s1.975,8.217,3.958,9.917c1.983,1.7,4.533,3.683,4.108,5.383c-0.425,1.7-7.367,6.8-7.084,10.767c0,0,2.409-4.25,6.518-3.4  s13.6,11.617,24.508,4.25c0,0-2.125,3.825-4.958,4.816c-2.833,0.992,0.708,2.975-5.384,1.559c0,0,1.851,4.817-2.975,4.817  c-7.792,0-9.917-6.942-13.742-6.233c0,0,5.667,2.55,4.392,11.758c0,0-2.267,0.708-4.107-1.559c0,0,0.85,5.1-0.851,7.792  c0,0-2.408-1.559-2.55-2.692S320.266,223.922,318.469,226.542z"
   id="path4492"
   fill="#BA8758" />
<path
   d="M420.673,88.904c0-5.844-6.588-3.799-11.263-3.586c-4.675,0.213-9.244-2.55-9.244-6.162  c0-3.613,4.835-2.338,4.835-2.338s-0.479-1.594-2.922-1.594s-3.932,1.807-3.613,4.781c0.317,2.958,4.145,6.907,10.944,6.694  c6.8-0.212,10.094-0.77,9.775,2.205c0.318,2.975-2.976,2.417-9.775,2.205s-10.627,3.736-10.944,6.694  c-0.318,2.975,1.17,4.781,3.613,4.781s2.922-1.594,2.922-1.594s-4.835,1.275-4.835-2.338c0-3.612,4.569-6.375,9.244-6.162  C414.085,92.702,420.673,94.748,420.673,88.904z"
   id="path4494"
   fill="#AA975F" />
<path
   d="M325.401,104c0,0,3.4-12.184,14.45-12.184c9.775,0,7.934,6.517,7.934,6.517s0.142,1.983-3.259,1.983  c-3.399,0-2.267-4.25-2.267-4.25s-2.125,5.667,2.692,5.667c4.816,0,4.958-3.542,4.958-4.108s0.708-7.367-10.2-7.367  s-15.725,13.6-15.725,13.6L325.401,104z"
   id="path4496"
   fill="#C3B48B" />
<path
   d="M529.512,122.685c0,0,6.376-2.295,10.893-7.184c4.121-4.459,3.752-7.177,1.986-8.433  c0,0,0.568,1.07-0.438,2.016c-1.005,0.946-2.029,0.013-2.611-0.606c-0.583-0.619-0.241-1.961,0.688-2.835  c0.928-0.874,2.439-1.128,4.405,0.961s0.013,6.991-3.849,10.331C537.373,119.715,534.719,122.017,529.512,122.685z"
   id="path4498"
   fill="#AA975F" />
<path
   d="M530.527,127.19c0,0,6.715,0.911,12.154,4.747c4.961,3.499,5.17,6.233,3.706,7.831  c0,0,0.333-1.165-0.849-1.88c-1.183-0.715-1.988,0.412-2.429,1.139c-0.44,0.728,0.175,1.969,1.267,2.629  c1.09,0.66,2.621,0.593,4.106-1.861c1.485-2.455-1.45-6.839-5.924-9.297C538.835,128.45,535.759,126.754,530.527,127.19z"
   id="path4500"
   fill="#AA975F" />
<path
   d="M334.61,179.226c0,0,8.25,9.061,23.658,14.875c7.509,2.833,11.333,7.934,11.333,7.934s0-3.4,4.108-3.4  c7.084,0,13.884,15.867,24.084,15.867c1.983,0,3.116-2.409,3.116-2.409s-1.7,0.567-1.7-1.665c0-2.231,1.807-1.594,1.807-1.594  s1.274-0.106,1.274,2.019s-2.125,6.269-10.625,6.269s-15.088-9.456-15.088-9.456s-3.399-1.913-2.23,2.762  c0,0,0.425,3.082-0.212,6.375c-0.404,2.086-1.595,7.119-8.183,7.119c-5.313,0-5.949-3.506-5.949-4.888s0.531-4.25,3.507-4.25  c2.975,0,2.23,3.188,2.23,3.188s-0.531,1.806-2.23,1.487c-1.7-0.318-1.275-2.231-0.638-2.55c0,0-0.957-0.212-1.275,1.913  c-0.319,2.125,1.594,3.719,4.038,3.612c3.077-0.134,8.605-1.594,7.438-11.475C371.157,194.769,342.897,194.278,334.61,179.226z"
   id="path4502"
   fill="#AA975F" />
<g
   id="g4504">
	<path
   d="M318.455,149.909c0,0,5.53,42.775,68.855,42.775c4.43,0,8.582-0.231,12.472-0.665l2.457,1.798   c-4.592,0.589-9.559,0.867-14.929,0.779c-64.601-1.063-70.551-44.413-70.551-44.413l1.722-0.274"
   id="path4506"
   fill="#AA975F" />
	<path
   d="M441.048,175.735c-3.138,3.225-6.833,6.249-11.184,8.892l-5.142,0.6   c6.074-2.915,11.022-6.504,15.051-10.432L441.048,175.735z"
   id="path4508"
   fill="#AA975F" />
	<path
   d="M457.141,145.253c1.479-6.406,1.57-10.795,1.57-10.795c0-19.019-17.638-31.557-30.069-31.557   c-10.412,0-13.813,4.569-13.813,9.457s4.781,5.1,4.781,5.1s3.507,0.106,3.507-2.55s-1.595-2.656-1.595-2.656   s-2.125-0.425-2.231,1.487c-0.105,1.913,1.382,1.063,1.382,1.063s-0.07,1.381-0.779,1.381c-0.708,0-3.825-0.425-3.825-4.108   c0-3.684,3.825-7.792,12.467-7.792s14.167,4.392,14.167,4.392c-2.975-0.992-8.925-0.425-8.925,3.683s1.983,5.95,1.983,5.95   s2.125-3.825,6.941-3.825c8.075,0,14.309,8.075,14.309,19.55c0,2.809-0.383,7.758-1.888,13.63L457.141,145.253z"
   id="path4510"
   fill="#AA975F" />
</g>
<path
   d="M318.469,77.367c0,0-3.958,2.833-4.1,4.108c-0.142,1.275-0.709,2.691,1.133,7.083l-1.274,0.992  c0,0-4.25-3.542-9.067-1.7c0,0,11.617,2.691,12.183,15.867l-0.991,0.142c0,0-0.709-14.025-13.884-15.442  c0,0,2.55-5.667,11.617-0.283c0,0-1.275-3.258-1.134-6.092s5.658-5.242,5.517-7.792c-0.142,2.55,5.375,4.958,5.517,7.792  s-1.134,6.092-1.134,6.092c9.066-5.383,11.617,0.283,11.617,0.283c-13.176,1.417-13.884,15.442-13.884,15.442l-0.991-0.142  c0.566-13.175,12.183-15.867,12.183-15.867c-4.816-1.842-9.066,1.7-9.066,1.7l-1.275-0.992c1.842-4.392,1.275-5.808,1.134-7.083  C322.427,80.2,318.469,77.367,318.469,77.367z"
   id="path4512"
   fill="#947F3A" />
<g
   id="g4514">
	<path
   d="M330.289,150.538c0,15.017,7.226,18.629,13.813,18.629c5.108,0,8.713-2.55,8.713-7.012   c0-4.463-3.612-4.888-4.321-4.888c-0.708,0-2.833,0-3.046,2.125c-0.212,2.125,0.608,2.813,1.7,3.117   c1.275,0.354,2.125-0.425,2.055-1.346c-0.071-0.921-0.354-1.559-1.275-1.559s-1.133,0.779-1.133,0.779s-1.202-1.997,1.629-2.125   c3.116-0.142,3.471,3.683,3.471,3.683s0.425,6.233-7.65,6.233c-13.772,0-12.679-17.637-12.679-17.637H330.289z"
   id="path4516"
   fill="#AA975F" />
	<path
   d="M457.542,124.79c0,0-9.351-29.325-34.851-33.469c0,0-3.294-1.487,0.319-2.337   C423.011,88.983,447.448,91.533,457.542,124.79z"
   id="path4518"
   fill="#C3B48B" />
	<path
   d="M455.683,117.777c0,0-7.331-15.3-7.118-18.807c0.273-4.516,2.762-5.95,4.462-5.95s4.038,2.019,3.931,5.95   c0,0-0.955-2.869-4.355-2.869s-2.763,5.95-0.638,10.413S455.683,117.777,455.683,117.777z"
   id="path4520"
   fill="#AA975F" />
	<path
   d="M416.477,89.55c0,0-42.643-4.816-42.643,12.75c0,3.4,2.691,3.4,2.691,3.4s1.842,0.425,2.125-2.409   c0,0-0.708,0.992-1.842,0.85c-1.133-0.142-0.991-1.417-0.85-1.983c0.142-0.566,1.275-0.992,1.275-0.992s2.975-0.283,2.55,3.117   c-0.425,3.4-2.55,2.975-3.542,2.975s-3.824-0.283-3.824-4.816c0-4.534,1.014-13.378,27.784-15.017   C414.085,86.575,416.477,89.55,416.477,89.55z"
   id="path4522"
   fill="#C3B48B" />
	<path
   d="M345.766,183.122c0,0,6.217,2.697,12.857,2.231c6.056-0.425,7.649-2.656,7.225-4.781   c0,0-0.319,1.169-1.7,1.169c-1.382,0-1.487-1.381-1.487-2.231s1.168-1.594,2.443-1.594s2.55,0.85,2.55,3.719   c0,2.869-4.78,5.1-9.881,4.888C353.526,186.345,350.016,186.203,345.766,183.122z"
   id="path4524"
   fill="#C3B48B" />
	<path
   d="M385.088,195.375c0,0,2.395-0.321,6.685,2.833c3.913,2.878,4.036,5.068,2.84,6.323   c0,0,0.285-0.926-0.649-1.517c-0.934-0.591-1.596,0.297-1.96,0.872c-0.363,0.575,0.108,1.578,0.971,2.123   c0.861,0.545,2.087,0.516,3.314-1.423c1.227-1.939-0.515-4.955-4.053-6.993C389.289,195.897,389.278,195.11,385.088,195.375z"
   id="path4526"
   fill="#C3B48B" />
	<path
   d="M340.902,204.067c0,0,2.35,0.564,5.215,5.053c2.611,4.095,1.938,6.182,0.369,6.921   c0,0,0.599-0.762-0.059-1.649c-0.658-0.888-1.597-0.298-2.143,0.107c-0.546,0.405-0.468,1.511,0.14,2.33s1.761,1.233,3.604-0.133   s1.307-4.807-1.26-7.983C344.633,206.068,344.907,205.33,340.902,204.067z"
   id="path4528"
   fill="#AA975F" />
	<path
   d="M476.702,211.951c0,0,13.033,2.054,13.033,9.421c0,6.021-6.517,5.383-6.517,5.383s-3.612-0.071-3.612-3.329   c0-2.125,2.621-2.054,2.621-2.054s1.771,0.071,1.416,2.196c0,0,0.709-0.496,0.709-1.346s-0.142-1.983-2.621-1.983   s-4.463,3.471-2.125,6.304c0,0-0.85-0.142-6.871-3.967c-6.021-3.825-13.671-2.691-13.671,2.409c0,2.621,2.125,2.691,2.621,2.691   s2.408-0.071,2.479-2.55c0.046-1.628-1.983-1.559-1.983-1.559s-1.488,0.425-0.992,2.267c0,0-1.204,0.637-1.204-1.134   c0-1.771,2.691-3.4,5.101-3.4c7.225,0,10.058,6.659,18.558,6.659c6.021,0,7.084-4.179,7.084-6.871s-1.417-7.013-11.759-9.633   L476.702,211.951z"
   id="path4530"
   fill="#AA975F" />
	<path
   d="M488.992,140.515c0,0,11.494-7.949,22.844-12.856c11.794-5.1,14.902-11.952,13.175-16.788   c-1.063-2.975-3.399-2.231-3.399-2.231s-1.913,0.425-1.381,2.337c0,0,0.318,1.381-1.275,1.381s-1.594-2.763-1.594-2.763   s0.637-3.188,5.206-2.762c4.568,0.425,10.837,9.244,1.381,20.294c0,0,11.157,2.656,11.157,12.112c0,6.588-6.27,6.8-6.27,6.8   s-2.975-0.212-2.443-3.931c0,0,2.762-1.063,2.656,1.275c-0.056,1.223-0.851,0.85-0.851,0.85s0.213,0.637,1.913,0.637   c1.699,0,2.869-2.231,2.869-4.994s-4.994-8.394-16.788-8.394s-25.395,9.669-25.395,9.669L488.992,140.515z"
   id="path4532"
   fill="#C3B48B" />
	<path
   d="M525.72,126.809c0,0,13.033-5.1,28.191-5.1s37.825,8.642,37.825,20.258c0,6.517-6.092,5.667-6.092,5.667   s-3.684,0.142-3.684-4.108s3.967-1.7,3.967-1.7s-0.566-1.983-2.832-1.983c-2.268,0-2.692,2.833-2.692,4.392   c0,1.558,1.558,4.958,6.658,4.958c5.1,0,6.233-5.95,6.233-7.792s-3.259-19.55-39.809-20.967   C553.486,120.434,536.628,120.434,525.72,126.809z"
   id="path4534"
   fill="#C3B48B" />
	<path
   d="M296.035,204.067c0,0-2.351,0.564-5.215,5.053c-2.612,4.095-1.938,6.182-0.37,6.921   c0,0-0.599-0.762,0.059-1.649s1.596-0.298,2.143,0.107c0.546,0.405,0.467,1.511-0.14,2.33s-1.761,1.233-3.605-0.133   s-1.307-4.807,1.26-7.983C292.304,206.068,292.03,205.33,296.035,204.067z"
   id="path4536"
   fill="#C3B48B" />
</g>
<path
   d="M591.24,202.247c0,0-7.082-9.35-13.104-8.358  c-6.431,1.059-7.084,6.233-14.45,10.271c0,0,16.858,13.033,27.271,10.129c0,0,3.826-2.267-5.383-8.571  c-8.48-5.806-6.281-9.028-4.321-8.783C582.953,197.146,588.549,199.625,591.24,202.247z"
   id="path4538"
   stroke-width="1.25"
   stroke="#6B3337"
   fill="#E4BE8A" />
<path
   d="M616.104,214.572c0,0-9.633-0.212-22.809-10.767  c-13.175-10.554-13.742-5.808-13.742-5.808s-1.274,2.621,6.021,7.721C585.574,205.717,600.803,214.997,616.104,214.572z"
   id="path4540"
   stroke-width="1.25"
   stroke="#6B3337"
   fill="#D9BB8A" />
<path
   d="M462.43,153.371c0,0,0.639-4.048,6.375-4.144  c6.375-0.106,9.456,4.223,9.402,9.244c-0.049,4.675-5.152,8.5-9.297,8.979c-3.65,0.421-9.44-0.065-13.068-5.472L462.43,153.371z"
   id="path4542"
   stroke-width="1.25"
   stroke="#6B3337"
   fill="#D0BF7D" />
<g
   id="g4544">
	<path
   d="M487.682,144.305c0,0-5.95-2.338-14.167-2.338   c-3.612,0-8.5,1.771-8.5,1.771s-0.354-0.779,1.063-1.346c1.417-0.567,11.9-3.046,21.392,1.133   C487.469,143.525,489.169,144.517,487.682,144.305z"
   id="path4546"
   stroke-width="0.2"
   stroke="#FDC689"
   fill="#CF8B2D" />
	<path
   d="M481.873,144.729c0,0-2.479-1.275-9.846-0.992   c-6.937,0.267-12.396,5.454-13.388,6.446c0,0-0.85-0.425,0.779-1.771c1.629-1.346,5.738-5.688,14.379-5.596   c6.658,0.071,8.43,1.133,9.209,1.346C483.007,144.163,484.353,145.296,481.873,144.729z"
   id="path4548"
   stroke-width="0.2"
   stroke="#FDC689"
   fill="#CF8B2D" />
	<path
   d="M476.985,145.367c0,0-12.325-2.054-18.842,8.642   c0,0-1.416,1.487-0.566-0.921c0,0,6.729-10.625,19.267-8.5C476.844,144.588,478.686,145.225,476.985,145.367z"
   id="path4550"
   stroke-width="0.2"
   stroke="#FDC689"
   fill="#CF8B2D" />
	<path
   d="M462.748,150.68c0,0,2.195-2.55,5.525-3.188   c0,0,0.637-0.85-0.496-0.638c0,0-3.967,0.921-6.092,3.896C461.686,150.75,461.048,152.663,462.748,150.68z"
   id="path4552"
   stroke-width="0.2"
   stroke="#FDC689"
   fill="#CF8B2D" />
</g>
<path
   d="M456.107,148.909c0,0-12.963,17.957-16.043,20.241  c0,0-1.754,8.447,9.987,8.075c0,0,11.103-9.563,18.858-9.775c0,0-7.915,1.168-13.068-5.472  C452.039,157.077,454.779,151.458,456.107,148.909z"
   id="path4554"
   stroke-width="1.25"
   stroke="#6B3337"
   fill="#FDC689" />
<path
   d="M462.43,153.371c0,0-1.223,6.322,7.331,5.525l-7.544,7.49  c0,0-3.4-0.903-6.375-4.409L462.43,153.371z"
   id="path4556"
   stroke-width="1.25"
   stroke="#6B3337"
   fill="#CFB78B" />
<g
   id="g4558">
	<path
   d="M467.582,155.921c0,0,1.808-0.903,3.453,0.053   c0,0,0.585,0.425,0.904,0.053c0.318-0.372-0.054-0.85-0.425-1.009c-0.372-0.159-2.763-1.222-4.835,0.319   c0,0-0.319,0.531,0.105,0.744C467.211,156.293,467.582,155.921,467.582,155.921z"
   id="path4560"
   stroke-width="0.2"
   stroke="#D0BF7D"
   fill="#CF8B2D" />
	<path
   d="M465.989,155.018c0,0,1.646-1.487,3.612-1.063   c1.965,0.425,3.984,1.009,4.993,4.569c0,0-0.105,0.212,0.532,0.159s0.425-0.85,0.425-0.85s-1.7-4.729-6.004-4.888   c-3.291-0.122-4.568,1.487-4.568,1.487s-0.266,0.638,0,0.797C465.245,155.39,465.723,155.284,465.989,155.018z"
   id="path4562"
   stroke-width="0.2"
   stroke="#D0BF7D"
   fill="#CF8B2D" />
	<path
   d="M464.235,154.38c0,0,2.072-2.178,4.994-1.912s5.968,2.091,6.8,5.631   c0,0-0.053,1.275-0.106,1.541c-0.053,0.266-0.212,0.85,0.267,0.85c0.478,0,0.743-0.478,0.796-2.072   c0.054-1.594-1.963-6.682-7.915-7.012c-3.825-0.213-5.791,2.709-5.791,2.709S463.12,155.603,464.235,154.38z"
   id="path4564"
   stroke-width="0.2"
   stroke="#D0BF7D"
   fill="#CF8B2D" />
	<path
   d="M476.281,154.877c-1.581-2.561-4.717-4.084-7.317-3.95   c-1.816,0.094-3.301,0.807-4.166,1.335c0,0-0.774,0.498-0.881-0.06c-0.106-0.558,0.776-1.016,0.776-1.016   c0.983-0.621,2.374-1.234,4.111-1.322c3.61-0.183,5.967,1.504,7.327,3.299c0,0,1.12,1.376,0.907,1.854   C476.827,155.496,476.281,154.877,476.281,154.877z"
   id="path4566"
   stroke-width="0.2"
   stroke="#D0BF7D"
   fill="#CF8B2D" />
</g>
<path
   d="M384.335,181.775c0,0,9.138,5.384,32.301,5.384  c31.308,0,92.331-36.763,141.95-36.763c0,0,22.207,0,28.263,5.207c0,0,5.525,9.563,17.214,14.875  c11.688,5.313,25.712,14.344,30.813,21.675c0,0-5.897-9.403-39.207-9.138c-67.042,0.535-97.22,33.043-152.896,33.044  c-25.854,0-32.512-16.008-32.512-16.008s-6.13-8.654-15.017-11.617C387.594,185.884,384.335,181.775,384.335,181.775z"
   id="path4568"
   stroke-width="1.25"
   stroke="#6B3337"
   fill="#FED1A7" />
<g
   id="g4570">
	<path
   d="M448.191,211.756c0,0-12.111,2.337-25.393-1.354l3.363,2.113   C426.162,212.515,440.223,215.475,448.191,211.756z"
   id="path4572"
   fill="#CF8B2D" />
	<path
   d="M444.048,209.126c0,0-12.112,2.337-25.393-1.355l3.363,2.113   C422.019,209.885,436.08,212.845,444.048,209.126z"
   id="path4574"
   fill="#CF8B2D" />
	<path
   d="M440.436,206.576c0,0-12.112,2.337-25.393-1.354l3.363,2.113   C418.406,207.335,432.467,210.295,440.436,206.576z"
   id="path4576"
   fill="#CF8B2D" />
	<path
   d="M437.296,204.652c0,0-12.219,1.696-25.286-2.691l3.247,2.288   C415.257,204.248,429.143,207.945,437.296,204.652z"
   id="path4578"
   fill="#CF8B2D" />
	<path
   d="M435.383,201.996c0,0-12.218,1.696-25.285-2.691l3.247,2.288   C413.345,201.592,427.23,205.289,435.383,201.996z"
   id="path4580"
   fill="#CF8B2D" />
	<path
   d="M433.156,199.523c0,0-12.262,1.363-25.204-3.378l3.184,2.375   C411.136,198.521,424.915,202.594,433.156,199.523z"
   id="path4582"
   fill="#CF8B2D" />
	<path
   d="M430.004,197.191c0,0-12.31,0.795-25.021-4.537l3.071,2.519   C408.055,195.173,421.631,199.878,430.004,197.191z"
   id="path4584"
   fill="#CF8B2D" />
	<path
   d="M426.604,194.11c0,0-12.307-0.576-25.481-4.401l3.531,2.383   C404.654,192.092,418.231,196.797,426.604,194.11z"
   id="path4586"
   fill="#CF8B2D" />
	<path
   d="M422.886,191.055c0,0-18.257-1.877-31.22-6.021l7.544,3.719   C399.21,188.753,415.573,192.259,422.886,191.055z"
   id="path4588"
   fill="#CF8B2D" />
</g>
<g
   id="g4590">
	<path
   d="M588.336,179.65c0,0,27.484,0.992,39.525,6.942l-3.046-2.55   C624.815,184.042,603.849,177.242,588.336,179.65z"
   id="path4592"
   fill="#CF8B2D" />
	<path
   d="M584.529,176.711c0,0,27.483,0.992,39.525,6.942l-3.046-2.55   C621.009,181.103,600.042,174.303,584.529,176.711z"
   id="path4594"
   fill="#CF8B2D" />
	<path
   d="M580.303,174.586c0,0,27.498,0.402,39.665,6.092l-3.101-2.484   C616.867,178.195,595.76,171.846,580.303,174.586z"
   id="path4596"
   fill="#CF8B2D" />
	<path
   d="M575.675,172.657c0,0,27.499-0.286,39.805,5.099l-3.161-2.406   C612.318,175.35,591.059,169.531,575.675,172.657z"
   id="path4598"
   fill="#CF8B2D" />
	<path
   d="M569.621,171.013c0,0,27.46-1.514,39.993,3.315l-3.266-2.262   C606.349,172.066,584.851,167.203,569.621,171.013z"
   id="path4600"
   fill="#CF8B2D" />
	<path
   d="M563.552,169.339c0,0,27.388-2.5,40.087,1.875l-3.346-2.143   C600.293,169.071,578.634,164.984,563.552,169.339z"
   id="path4602"
   fill="#CF8B2D" />
	<path
   d="M559.576,167.334c0,0,27.363-2.747,40.102,1.514l-3.363-2.113   C596.314,166.735,574.619,162.843,559.576,167.334z"
   id="path4604"
   fill="#CF8B2D" />
	<path
   d="M556.689,164.979c0,0,27.364-2.747,40.102,1.514l-3.363-2.113   C593.428,164.38,571.731,160.488,556.689,164.979z"
   id="path4606"
   fill="#CF8B2D" />
	<path
   d="M553.236,162.536c0,0,27.364-2.747,40.102,1.514l-3.363-2.113   C589.975,161.937,568.279,158.044,553.236,162.536z"
   id="path4608"
   fill="#CF8B2D" />
	<path
   d="M550.066,160.065c0,0,27.364-2.747,40.102,1.514l-3.363-2.113   C586.805,159.466,565.109,155.574,550.066,160.065z"
   id="path4610"
   fill="#CF8B2D" />
	<path
   d="M547.49,157.808c0,0,27.363-2.748,40.102,1.514l-3.363-2.113   C584.229,157.208,562.533,153.316,547.49,157.808z"
   id="path4612"
   fill="#CF8B2D" />
	<path
   d="M545.906,155.674c0,0,27.363-2.748,40.101,1.514l-3.364-2.113   C582.643,155.074,560.948,151.183,545.906,155.674z"
   id="path4614"
   fill="#CF8B2D" />
	<path
   d="M544.746,153.796c0,0,27.363-2.747,40.102,1.514l-3.364-2.113   C581.483,153.197,559.787,149.305,544.746,153.796z"
   id="path4616"
   fill="#CF8B2D" />
</g>
<path
   d="M585.68,196.615c0,0,10.307,8.712,25.501,10.094  c8.571,0.779,7.543-8.288,7.543-9.35s-1.222-11.315-14.821-14.184c0,0,34.053,0.053,34.053,16.734  c0,16.681-20.931,14.663-21.674,14.663C615.536,214.572,600.875,213.297,585.68,196.615z"
   id="path4618"
   stroke-width="1.25"
   stroke="#6B3337"
   fill="#E3A158" />
<g
   id="g4620">
	<path
   d="M611.181,185.14c0,0,10.271,0.895,22.313,6.844l-1.966-2.116   C631.527,189.869,620.637,184.503,611.181,185.14z"
   id="path4622"
   fill="#A76635" />
	<path
   d="M615.802,187.85c0,0,7.615,0.85,19.657,6.8l-1.541-2.178C633.918,192.472,621.965,187.265,615.802,187.85z"
   id="path4624"
   fill="#A76635" />
	<path
   d="M617.157,190.639c0,0,7.534,0.823,19.577,6.773l-0.797-2.019   C635.938,195.394,623.319,190.054,617.157,190.639z"
   id="path4626"
   fill="#A76635" />
	<path
   d="M618.061,193.136c0,0,7.057,0.93,19.098,6.879l-0.371-2.125   C636.787,197.89,624.223,192.551,618.061,193.136z"
   id="path4628"
   fill="#A76635" />
	<path
   d="M620.212,195.818c0,0,4.745,0.69,16.788,6.641l0.106-1.7C637.106,200.759,626.375,195.234,620.212,195.818z   "
   id="path4630"
   fill="#A76635" />
	<path
   d="M619.734,198.236c0,0,4.745,0.69,16.787,6.641l0.318-1.621C636.84,203.256,625.896,197.651,619.734,198.236   z"
   id="path4632"
   fill="#A76635" />
	<path
   d="M620.743,200.494c0,0,4.2,1.181,14.981,6.508l0.478-1.567C636.202,205.434,626.746,201.237,620.743,200.494   z"
   id="path4634"
   fill="#A76635" />
	<path
   d="M621.115,202.247c0,0,2.367,1.261,13.148,6.587l0.93-1.328   C635.193,207.506,627.809,204.053,621.115,202.247z"
   id="path4636"
   fill="#A76635" />
	<path
   d="M620.797,204.531c0,0,4.462,3.188,11.422,6.163l1.301-1.381   C633.52,209.313,627.064,206.762,620.797,204.531z"
   id="path4638"
   fill="#A76635" />
	<path
   d="M620.584,206.709c0,0,3.135,2.656,8.846,5.445l1.673-0.983   C631.103,211.171,626.799,209.365,620.584,206.709z"
   id="path4640"
   fill="#A76635" />
	<path
   d="M619.574,208.409c0,0,3.294,2.869,6.668,4.702l1.673-0.611C627.915,212.5,625.79,211.065,619.574,208.409z"
   id="path4642"
   fill="#A76635" />
	<path
   d="M618.353,209.95c0,0,3.134,2.816,4.648,3.852l1.833-0.452C624.834,213.35,622.071,211.703,618.353,209.95z"
   id="path4644"
   fill="#A76635" />
	<path
   d="M617.024,211.065c0,0,2.337,2.391,2.976,3.134l1.938-0.452C621.938,213.748,619.256,212.34,617.024,211.065   z"
   id="path4646"
   fill="#A76635" />
	<path
   d="M615.802,212.075c0,0,0.745,1.381,0.638,1.806l1.807,0.106C618.246,213.987,618.033,213.35,615.802,212.075   z"
   id="path4648"
   fill="#A76635" />
</g>
<g
   id="g4650">
	<path
   d="M583.828,198.146c3.182,2.108,14.265,10.221,14.265,10.221c-10.535-6.934-15.14-9.768-16.663-10.724   L583.828,198.146z"
   id="path4652"
   fill="#A76635" />
	<path
   d="M580.262,198.669c1.369,0.958,8.135,5.712,19.47,11.477c0,0-15.609-9.316-18.938-12.433L580.262,198.669z"
   id="path4654"
   fill="#A76635" />
	<path
   d="M581.749,201.184c1.37,0.958,2.479,4.108,19.391,10.572c0,0-15.991-7.738-20.666-12.555L581.749,201.184z"
   id="path4656"
   fill="#A76635" />
</g>
<g
   id="g4658">
	<polygon
   points="565.228,204.425 566.29,205.222 574.364,196.987  "
   id="polygon4660"
   fill="#BB8732" />
	<polygon
   points="566.529,205.408 567.697,206.205 575.666,198.129  "
   id="polygon4662"
   fill="#BB8732" />
	<polygon
   points="567.963,206.417 569.265,207.214 576.543,199.484  "
   id="polygon4664"
   fill="#BB8732" />
	<polygon
   points="569.53,207.347 570.779,208.117 577.366,200.945  "
   id="polygon4666"
   fill="#BB8732" />
	<polygon
   points="571.098,208.33 572.398,209.02 578.137,202.087  "
   id="polygon4668"
   fill="#BB8732" />
	<polygon
   points="572.691,209.206 573.967,209.896 579.093,202.964  "
   id="polygon4670"
   fill="#BB8732" />
	<polygon
   points="574.391,210.136 575.772,210.8 580.155,203.84  "
   id="polygon4672"
   fill="#BB8732" />
	<polygon
   points="576.092,210.986 577.499,211.65 581.165,204.796  "
   id="polygon4674"
   fill="#BB8732" />
	<polygon
   points="577.924,211.809 579.411,212.42 582.094,205.833  "
   id="polygon4676"
   fill="#BB8732" />
	<polygon
   points="579.677,212.526 581.139,213.058 583.529,207.107  "
   id="polygon4678"
   fill="#BB8732" />
	<polygon
   points="581.563,213.084 583.184,213.563 584.512,208.144  "
   id="polygon4680"
   fill="#BB8732" />
	<polygon
   points="583.502,213.615 584.698,213.854 585.627,209.313  "
   id="polygon4682"
   fill="#BB8732" />
	<polygon
   points="585.069,213.96 586.371,214.12 586.742,209.976  "
   id="polygon4684"
   fill="#BB8732" />
	<polygon
   points="586.619,214.182 587.947,214.217 587.947,210.941  "
   id="polygon4686"
   fill="#BB8732" />
	<polygon
   points="588.318,214.165 589.541,214.023 589.328,211.667  "
   id="polygon4688"
   fill="#BB8732" />
</g>
<g
   id="g4690">
	<polygon
   points="548.386,190.205 550.511,194.278 546.898,190.701  "
   id="polygon4692"
   fill="#CF8B2D" />
	<polygon
   points="546.554,190.709 548.679,194.783 545.065,191.206  "
   id="polygon4694"
   fill="#CF8B2D" />
	<polygon
   points="544.694,191.241 546.819,195.313 543.206,191.737  "
   id="polygon4696"
   fill="#CF8B2D" />
	<polygon
   points="542.834,191.719 544.959,195.792 541.348,192.215  "
   id="polygon4698"
   fill="#CF8B2D" />
	<polygon
   points="540.948,192.224 543.073,196.296 539.461,192.719  "
   id="polygon4700"
   fill="#CF8B2D" />
	<polygon
   points="539.223,192.755 541.348,196.828 537.734,193.25  "
   id="polygon4702"
   fill="#CF8B2D" />
	<polygon
   points="537.363,193.286 539.488,197.359 535.875,193.782  "
   id="polygon4704"
   fill="#CF8B2D" />
	<polygon
   points="535.397,193.844 537.522,197.917 533.91,194.34  "
   id="polygon4706"
   fill="#CF8B2D" />
	<polygon
   points="533.325,194.428 535.45,198.501 531.838,194.924  "
   id="polygon4708"
   fill="#CF8B2D" />
	<polygon
   points="531.147,195.092 533.272,199.166 529.66,195.588  "
   id="polygon4710"
   fill="#CF8B2D" />
	<polygon
   points="528.836,195.756 530.961,199.83 527.349,196.252  "
   id="polygon4712"
   fill="#CF8B2D" />
	<polygon
   points="526.419,196.474 528.544,200.546 524.932,196.97  "
   id="polygon4714"
   fill="#CF8B2D" />
	<polygon
   points="524.081,197.43 526.206,201.503 522.594,197.926  "
   id="polygon4716"
   fill="#CF8B2D" />
</g>
<g
   id="g4718">
	<path
   d="M584.229,215.209c0,0-13.742-0.708-27.768-13.316c0,0,8.783,10.625,19.551,13.175L584.229,215.209z"
   id="path4720"
   fill="#CF8B2D" />
	<path
   d="M569.397,215.466l3.612-0.071c0,0-6.445-1.983-18.416-12.042   C554.594,203.354,565.006,213.625,569.397,215.466z"
   id="path4722"
   fill="#CF8B2D" />
	<path
   d="M564.784,216.13l3.647-0.452c0,0-6.445-1.983-18.416-12.042   C550.016,203.637,560.393,214.288,564.784,216.13z"
   id="path4724"
   fill="#CF8B2D" />
	<path
   d="M560.481,217.104l3.763-0.646c0,0-6.446-1.983-18.417-12.042   C545.827,204.416,556.09,215.262,560.481,217.104z"
   id="path4726"
   fill="#CF8B2D" />
	<path
   d="M555.735,218.202l3.78-0.894c0,0-6.26-2.718-18.417-12.042C541.099,205.266,551.344,216.36,555.735,218.202   z"
   id="path4728"
   fill="#CF8B2D" />
	<path
   d="M551.326,219.503l3.78-0.894c0,0-6.632-2.435-19.665-11.573   C535.441,207.037,546.934,217.662,551.326,219.503z"
   id="path4730"
   fill="#CF8B2D" />
</g>
<path
   d="M410.473,187c0,0-6.162-1.257-6.162-6.641  c0-2.975,2.975-3.967,2.975-3.967s-7.225-4.108-15.583-4.108s-9.775,3.4-9.775,5.242c0,1.842,0.177,4.799,8.358,6.517  C399.77,186.034,408.915,187.141,410.473,187z"
   id="path4732"
   stroke-width="1.25"
   stroke="#6B3337"
   fill="#AA975F" />
<g
   id="g4734">
	<path
   d="M385.981,174.382c0,0,1.329-0.876,2.497-0.876c0,0,5.897,0,14.114,2.222   C402.593,175.728,388.78,175.232,385.981,174.382z"
   id="path4736"
   fill="#BA7031" />
	<path
   d="M383.822,176.277c0,0,0.478-1.346,1.646-1.346c0,0,7.013,0.779,14.963,2.692   C400.432,177.623,385.733,176.858,383.822,176.277z"
   id="path4738"
   fill="#BA7031" />
	<path
   d="M383.184,178.393c0,0-0.123-1.275,0.407-1.594c0,0,7.716,0.898,16.203,2.94   C399.794,179.739,385.981,179.243,383.184,178.393z"
   id="path4740"
   fill="#BA7031" />
	<path
   d="M383.609,180.518c0,0-0.337-0.823-0.283-1.567c0,0,8.405,0.872,16.894,2.913   C400.22,181.864,384.463,180.777,383.609,180.518z"
   id="path4742"
   fill="#BA7031" />
	<path
   d="M386.992,182.218c0,0-2.869-0.584-2.816-1.328c0,0,9.468,1.217,17.956,3.258   C402.132,184.148,389.79,183.068,386.992,182.218z"
   id="path4744"
   fill="#BA7031" />
</g>
<g
   id="g4746">
	<polygon
   points="392.614,161.269 388.364,169.557 394.42,161.694  "
   id="polygon4748"
   fill="#BA7031" />
	<polygon
   points="395.35,161.986 391.684,169.158 396.952,162.482  "
   id="polygon4750"
   fill="#BA7031" />
	<polygon
   points="398.219,162.81 395.27,169.344 399.848,163.359  "
   id="polygon4752"
   fill="#BA7031" />
	<polygon
   points="400.91,163.677 398.245,169.557 402.734,164.244  "
   id="polygon4754"
   fill="#BA7031" />
	<polygon
   points="403.407,164.554 401.3,170.115 405.151,165.201  "
   id="polygon4756"
   fill="#BA7031" />
	<polygon
   points="405.824,165.458 404.115,170.832 407.524,166.095  "
   id="polygon4758"
   fill="#BA7031" />
	<polygon
   points="408.295,166.414 406.772,171.522 409.96,167.166  "
   id="polygon4760"
   fill="#BA7031" />
	<polygon
   points="411.11,167.662 409.561,172.797 412.748,168.441  "
   id="polygon4762"
   fill="#BA7031" />
	<polygon
   points="413.527,168.831 412.19,173.302 415.14,169.663  "
   id="polygon4764"
   fill="#BA7031" />
	<polygon
   points="415.785,170.026 414.395,174.55 417.344,170.912  "
   id="polygon4766"
   fill="#BA7031" />
	<polygon
   points="417.963,171.328 416.874,175.259 419.548,172.24  "
   id="polygon4768"
   fill="#BA7031" />
	<polygon
   points="420.169,172.709 419.256,176.145 421.275,173.488  "
   id="polygon4770"
   fill="#BA7031" />
</g>
<g
   id="g4772">
	<polygon
   points="461.694,167.972 448.457,176.126 459.773,167.538  "
   id="polygon4774"
   fill="#BB8732" />
	<polygon
   points="459.145,167.361 446.828,175.347 457.418,166.564  "
   id="polygon4776"
   fill="#BB8732" />
	<polygon
   points="456.948,166.236 445.535,174.232 455.488,165.165  "
   id="polygon4778"
   fill="#BB8732" />
	<polygon
   points="455.106,164.705 444.473,172.992 453.894,163.394  "
   id="polygon4780"
   fill="#BB8732" />
	<polygon
   points="453.726,163.084 443.588,171.611 452.796,161.446  "
   id="polygon4782"
   fill="#BB8732" />
</g>
<g
   id="g4784">
	<polygon
   points="467.423,159.675 462.748,164.421 465.511,159.357  "
   id="polygon4786"
   fill="#BB8732" />
	<polygon
   points="465.121,159.18 460.871,163.89 463.598,158.4  "
   id="polygon4788"
   fill="#BB8732" />
	<polygon
   points="463.279,158.223 458.853,162.58 462.04,156.771  "
   id="polygon4790"
   fill="#BB8732" />
</g>
<g
   id="g4792">
	<polygon
   points="508.648,158.117 506.169,155.425 509.923,157.763  "
   id="polygon4794"
   fill="#CF8B2D" />
	<polygon
   points="506.639,158.63 504.186,155.284 507.914,158.276  "
   id="polygon4796"
   fill="#CF8B2D" />
	<polygon
   points="504.664,159.224 502.061,155 505.939,158.87  "
   id="polygon4798"
   fill="#CF8B2D" />
	<polygon
   points="502.672,159.693 499.439,154.504 503.947,159.339  "
   id="polygon4800"
   fill="#CF8B2D" />
	<polygon
   points="500.732,160.277 497.103,154.08 502.008,159.923  "
   id="polygon4802"
   fill="#CF8B2D" />
	<polygon
   points="498.953,160.889 494.34,153.371 500.229,160.534  "
   id="polygon4804"
   fill="#CF8B2D" />
	<polygon
   points="496.864,161.57 491.011,152.45 498.139,161.216  "
   id="polygon4806"
   fill="#CF8B2D" />
	<polygon
   points="494.27,162.438 488.178,151.671 496.005,161.969  "
   id="polygon4808"
   fill="#CF8B2D" />
	<polygon
   points="491.949,163.19 485.202,150.75 493.686,162.721  "
   id="polygon4810"
   fill="#CF8B2D" />
	<polygon
   points="489.735,164.138 482.228,150.042 491.533,163.447  "
   id="polygon4812"
   fill="#CF8B2D" />
	<polygon
   points="487.407,165.032 479.394,149.9 489.205,164.342  "
   id="polygon4814"
   fill="#CF8B2D" />
	<polygon
   points="485.247,165.882 478.261,152.946 487.044,165.191  "
   id="polygon4816"
   fill="#CF8B2D" />
</g>
<path
   d="M328.094,173.021c0,0,2.024,1.32,3.214,6.511c1.085,4.734-0.251,6.474-1.977,6.643  c0,0,0.82-0.516,0.499-1.573c-0.322-1.057-1.404-0.817-2.055-0.619c-0.65,0.198-0.948,1.266-0.651,2.241  c0.298,0.976,1.245,1.754,3.44,1.085c2.196-0.668,2.846-4.088,1.496-7.942C330.936,176.159,331.441,175.556,328.094,173.021z"
   id="path4818"
   fill="#AA975F" />
<g
   id="g4820">
	<path
   d="M320.832,196.013c0,0,2.374-3.188,6.27-1.487c0,0-5.207,0.496-6.27,2.408V196.013z"
   id="path4822"
   fill="#DED5BF" />
	<path
   d="M323.121,202.883c0,0,3.489,1.901,2.354,5.997c0,0-1.224-5.085-3.266-5.868L323.121,202.883z"
   id="path4824"
   fill="#DED5BF" />
	<path
   d="M321.899,203.706c0,0,3.49,1.901,2.354,5.998c0,0-1.222-5.085-3.265-5.868L321.899,203.706z"
   id="path4826"
   fill="#DED5BF" />
	<path
   d="M320.386,204.007c0,0,3.489,1.901,2.354,5.997c0,0-1.223-5.085-3.266-5.868L320.386,204.007z"
   id="path4828"
   fill="#DED5BF" />
	<path
   d="M320.709,197.749c0,0,3.205-3.365,8.801-0.956c0,0-5.666-1.133-8.801,1.877V197.749z"
   id="path4830"
   fill="#DED5BF" />
	<path
   d="M320.585,199.502c0,0,2.372-3.188,6.269-1.488c0,0-5.206,0.496-6.269,2.408V199.502z"
   id="path4832"
   fill="#DED5BF" />
	<path
   d="M316.104,196.013c0,0-2.373-3.188-6.27-1.487c0,0,5.207,0.496,6.27,2.408V196.013z"
   id="path4834"
   fill="#DED5BF" />
	<path
   d="M313.815,202.883c0,0-3.489,1.901-2.354,5.997c0,0,1.223-5.085,3.266-5.868L313.815,202.883z"
   id="path4836"
   fill="#DED5BF" />
	<path
   d="M315.037,203.706c0,0-3.489,1.901-2.354,5.998c0,0,1.223-5.085,3.266-5.868L315.037,203.706z"
   id="path4838"
   fill="#DED5BF" />
	<path
   d="M316.552,204.007c0,0-3.489,1.901-2.354,5.997c0,0,1.222-5.085,3.265-5.868L316.552,204.007z"
   id="path4840"
   fill="#DED5BF" />
	<path
   d="M316.229,197.749c0,0-3.205-3.365-8.802-0.956c0,0,5.667-1.133,8.802,1.877V197.749z"
   id="path4842"
   fill="#DED5BF" />
	<path
   d="M316.353,199.502c0,0-2.373-3.188-6.269-1.488c0,0,5.206,0.496,6.269,2.408V199.502z"
   id="path4844"
   fill="#DED5BF" />
</g>
<g
   id="g4846">
	<path
   d="M441.994,135.875c0,0-8.43-4.817-14.805-7.58l14.733,10.059   C441.923,138.354,442.277,136.442,441.994,135.875z"
   id="path4848"
   fill="#CF8B2D" />
	<path
   d="M441.356,139.629c0,0-7.934-4.392-14.309-7.154l13.573,9.403   C440.621,141.878,441.64,140.196,441.356,139.629z"
   id="path4850"
   fill="#CF8B2D" />
	<path
   d="M439.728,142.817c0,0-7.154-3.683-13.529-6.446l12.537,8.5   C438.735,144.871,440.011,143.384,439.728,142.817z"
   id="path4852"
   fill="#CF8B2D" />
	<path
   d="M437.886,145.863c0,0-6.588-3.258-12.963-6.021l11.572,7.942   C436.495,147.784,438.169,146.43,437.886,145.863z"
   id="path4854"
   fill="#CF8B2D" />
	<path
   d="M435.424,148.572c0,0-5.755-2.709-12.13-5.472l10.739,7.394   C434.033,150.494,435.707,149.139,435.424,148.572z"
   id="path4856"
   fill="#CF8B2D" />
	<path
   d="M433.131,151.494c0,0-5.233-2.302-11.608-5.064l10.218,6.986   C431.74,153.416,433.414,152.061,433.131,151.494z"
   id="path4858"
   fill="#CF8B2D" />
	<path
   d="M430.908,154.46c0,0-4.568-1.656-10.943-4.418l9.846,6.587C429.811,156.629,430.802,155.142,430.908,154.46   z"
   id="path4860"
   fill="#CF8B2D" />
	<path
   d="M429.129,157.772c0,0-4.064-1.072-10.439-3.834l9.342,6.003   C428.031,159.941,429.022,158.454,429.129,157.772z"
   id="path4862"
   fill="#CF8B2D" />
	<path
   d="M427.588,161.003c0,0-3.656-0.761-10.031-3.524l8.934,5.693   C426.49,163.173,427.481,161.686,427.588,161.003z"
   id="path4864"
   fill="#CF8B2D" />
	<path
   d="M426.305,164.262c0,0-5.136-0.974-11.511-3.736l10.554,6.163   C425.348,166.688,426.198,164.944,426.305,164.262z"
   id="path4866"
   fill="#CF8B2D" />
	<path
   d="M425.047,167.918c0,0-9.244-2.745-15.495-5.056l14.663,7.934   C424.215,170.796,424.94,168.601,425.047,167.918z"
   id="path4868"
   fill="#CF8B2D" />
</g>
<g
   id="g4870">
	<path
   d="M254.706,176.321c0,0-0.921-4.038-10.059-4.038   c-9.987,0-16.929,6.092-24.296,7.083s-8.429-3.931-8.429-3.931s4.675-7.756,33.788-16.044c0,0,0.235,3.984,5.596,9.563   C253.927,171.682,254.706,176.321,254.706,176.321z"
   id="path4872"
   stroke-width="1.25"
   stroke="#6B3337"
   fill="#C3B48B" />
</g>
<g
   id="g4874">
	<path
   d="M151.094,166.865c0,0-24.491-8.394-29.06-9.457   c0,0,16.894-17.531,40.375-17.531c16.256,0,20.4,11.475,20.4,16.362c0,3.719-1.806,5.738-1.806,5.738l-6.587-8.606   c0,0-0.957-4.25-7.225-4.25c-6.269,0-10.413,6.481-7.756,12.538C159.435,161.659,154.707,162.721,151.094,166.865z"
   id="path4876"
   stroke-width="1.25"
   stroke="#6B3337"
   fill="#FDC689" />
	<path
   d="M46.809,214.359c0,0,17,4.462,41.013-25.394   c0,0,24.863,7.119,28.9,8.925c0,0-12.328,16.889-28.156,21.782c-5.844,1.806-8.819-0.213-10.094-0.319   c-1.275-0.106-14.578-3.55-24.543-2.763c-10.307,0.814-8.819-3.506-8.819-3.506S44.684,214.005,46.809,214.359z"
   id="path4878"
   stroke-width="1.25"
   stroke="#6B3337"
   fill="#FDC689" />
</g>
<path
   d="M311.443,104c0,0-3.399-12.184-14.45-12.184c-9.775,0-7.933,6.517-7.933,6.517s-0.142,1.983,3.258,1.983  s2.267-4.25,2.267-4.25s2.125,5.667-2.691,5.667c-4.817,0-4.958-3.542-4.958-4.108s-0.708-7.367,10.2-7.367  c10.908,0,15.725,13.6,15.725,13.6L311.443,104z"
   id="path4880"
   fill="#C3B48B" />
<path
   d="M107.333,122.685c0,0-6.375-2.295-10.893-7.184c-4.12-4.459-3.752-7.177-1.986-8.433  c0,0-0.568,1.07,0.438,2.016c1.006,0.946,2.03,0.013,2.612-0.606c0.583-0.619,0.241-1.961-0.688-2.835  c-0.929-0.874-2.44-1.128-4.406,0.961c-1.965,2.089-0.012,6.991,3.848,10.331C99.473,119.715,102.126,122.017,107.333,122.685z"
   id="path4882"
   fill="#AA975F" />
<path
   d="M106.318,127.19c0,0-6.715,0.911-12.155,4.747c-4.961,3.499-5.17,6.233-3.706,7.831  c0,0-0.333-1.165,0.849-1.88c1.182-0.715,1.988,0.412,2.428,1.139c0.44,0.728-0.175,1.969-1.266,2.629  c-1.091,0.66-2.621,0.593-4.106-1.861c-1.485-2.455,1.45-6.839,5.923-9.297C98.01,128.45,101.087,126.754,106.318,127.19z"
   id="path4884"
   fill="#AA975F" />
<path
   d="M302.235,179.226c0,0-8.25,9.061-23.658,14.875c-7.508,2.833-11.333,7.934-11.333,7.934s0-3.4-4.108-3.4  c-7.083,0-13.883,15.867-24.083,15.867c-1.983,0-3.117-2.409-3.117-2.409s1.7,0.567,1.7-1.665c0-2.231-1.807-1.594-1.807-1.594  s-1.275-0.106-1.275,2.019s2.125,6.269,10.625,6.269c8.5,0,15.088-9.456,15.088-9.456s3.4-1.913,2.231,2.762  c0,0-0.425,3.082,0.213,6.375c0.404,2.086,1.594,7.119,8.181,7.119c5.313,0,5.95-3.506,5.95-4.888s-0.531-4.25-3.506-4.25  s-2.231,3.188-2.231,3.188s0.531,1.806,2.231,1.487c1.7-0.318,1.275-2.231,0.637-2.55c0,0,0.957-0.212,1.275,1.913  c0.318,2.125-1.594,3.719-4.038,3.612c-3.079-0.134-8.606-1.594-7.438-11.475C265.688,194.769,293.948,194.278,302.235,179.226z"
   id="path4886"
   fill="#AA975F" />
<g
   id="g4888">
	<path
   d="M318.39,149.909c0,0-5.529,42.775-68.854,42.775c-4.43,0-8.582-0.231-12.472-0.665l-2.458,1.798   c4.593,0.589,9.56,0.867,14.93,0.779c64.601-1.063,70.55-44.413,70.55-44.413l-1.721-0.274"
   id="path4890"
   fill="#AA975F" />
	<path
   d="M195.797,175.735c3.138,3.225,6.833,6.249,11.184,8.892l5.142,0.6c-6.073-2.915-11.022-6.504-15.051-10.432   L195.797,175.735z"
   id="path4892"
   fill="#AA975F" />
	<path
   d="M179.705,145.253c-1.478-6.406-1.57-10.795-1.57-10.795c0-19.019,17.638-31.557,30.069-31.557   c10.413,0,13.813,4.569,13.813,9.457s-4.781,5.1-4.781,5.1s-3.506,0.106-3.506-2.55s1.594-2.656,1.594-2.656   s2.125-0.425,2.231,1.487s-1.381,1.063-1.381,1.063s0.071,1.381,0.779,1.381s3.825-0.425,3.825-4.108   c0-3.684-3.825-7.792-12.467-7.792c-8.642,0-14.167,4.392-14.167,4.392c2.975-0.992,8.925-0.425,8.925,3.683   s-1.983,5.95-1.983,5.95s-2.125-3.825-6.942-3.825c-8.075,0-14.309,8.075-14.309,19.55c0,2.809,0.382,7.758,1.888,13.63   L179.705,145.253z"
   id="path4894"
   fill="#AA975F" />
</g>
<path
   d="M306.557,150.538c0,15.017-7.225,18.629-13.813,18.629c-5.108,0-8.712-2.55-8.712-7.012  c0-4.463,3.612-4.888,4.321-4.888s2.833,0,3.046,2.125s-0.608,2.813-1.7,3.117c-1.275,0.354-2.125-0.425-2.054-1.346  c0.071-0.921,0.354-1.559,1.275-1.559s1.133,0.779,1.133,0.779s1.201-1.997-1.629-2.125c-3.117-0.142-3.471,3.683-3.471,3.683  s-0.425,6.233,7.65,6.233c13.772,0,12.679-17.637,12.679-17.637H306.557z"
   id="path4896"
   fill="#AA975F" />
<g
   id="g4898">
	<path
   d="M216.172,88.904c0-5.844,6.587-3.799,11.263-3.586c4.675,0.213,9.244-2.55,9.244-6.162   c0-3.613-4.834-2.338-4.834-2.338s0.479-1.594,2.922-1.594c2.443,0,3.931,1.807,3.612,4.781c-0.317,2.958-4.144,6.907-10.944,6.694   c-6.8-0.212-10.094-0.77-9.775,2.205c-0.319,2.975,2.975,2.417,9.775,2.205c6.8-0.212,10.627,3.736,10.944,6.694   c0.319,2.975-1.169,4.781-3.612,4.781c-2.444,0-2.922-1.594-2.922-1.594s4.834,1.275,4.834-2.338c0-3.612-4.569-6.375-9.244-6.162   C222.76,92.702,216.172,94.748,216.172,88.904z"
   id="path4900"
   fill="#AA975F" />
	<path
   d="M179.303,124.79c0,0,9.35-29.325,34.851-33.469c0,0,3.293-1.487-0.319-2.337   C213.835,88.983,189.397,91.533,179.303,124.79z"
   id="path4902"
   fill="#C3B48B" />
	<path
   d="M181.163,117.777c0,0,7.332-15.3,7.119-18.807c-0.274-4.516-2.763-5.95-4.463-5.95   c-1.7,0-4.037,2.019-3.931,5.95c0,0,0.957-2.869,4.356-2.869s2.762,5.95,0.637,10.413S181.163,117.777,181.163,117.777z"
   id="path4904"
   fill="#AA975F" />
	<path
   d="M220.369,89.55c0,0,42.642-4.816,42.642,12.75c0,3.4-2.691,3.4-2.691,3.4s-1.842,0.425-2.125-2.409   c0,0,0.708,0.992,1.842,0.85s0.992-1.417,0.85-1.983c-0.142-0.566-1.275-0.992-1.275-0.992s-2.975-0.283-2.55,3.117   c0.425,3.4,2.55,2.975,3.542,2.975s3.825-0.283,3.825-4.816c0-4.534-1.014-13.378-27.784-15.017   C222.76,86.575,220.369,89.55,220.369,89.55z"
   id="path4906"
   fill="#C3B48B" />
</g>
<path
   d="M291.079,183.122c0,0-6.216,2.697-12.856,2.231c-6.056-0.425-7.65-2.656-7.225-4.781  c0,0,0.318,1.169,1.7,1.169s1.488-1.381,1.488-2.231s-1.169-1.594-2.444-1.594c-1.275,0-2.55,0.85-2.55,3.719  c0,2.869,4.781,5.1,9.881,4.888C283.319,186.345,286.829,186.203,291.079,183.122z"
   id="path4908"
   fill="#C3B48B" />
<path
   d="M251.758,195.375c0,0-2.396-0.321-6.686,2.833c-3.913,2.878-4.036,5.068-2.84,6.323  c0,0-0.284-0.926,0.649-1.517c0.934-0.591,1.597,0.297,1.96,0.872c0.364,0.575-0.108,1.578-0.97,2.123  c-0.862,0.545-2.088,0.516-3.315-1.423c-1.227-1.939,0.514-4.955,4.053-6.993C247.557,195.897,247.567,195.11,251.758,195.375z"
   id="path4910"
   fill="#C3B48B" />
<path
   d="M160.143,211.951c0,0-13.034,2.054-13.034,9.421c0,6.021,6.517,5.383,6.517,5.383s3.613-0.071,3.613-3.329  c0-2.125-2.621-2.054-2.621-2.054s-1.771,0.071-1.417,2.196c0,0-0.708-0.496-0.708-1.346s0.142-1.983,2.621-1.983  c2.479,0,4.462,3.471,2.125,6.304c0,0,0.85-0.142,6.871-3.967c6.021-3.825,13.671-2.691,13.671,2.409  c0,2.621-2.125,2.691-2.621,2.691c-0.496,0-2.408-0.071-2.479-2.55c-0.047-1.628,1.983-1.559,1.983-1.559s1.488,0.425,0.992,2.267  c0,0,1.205,0.637,1.205-1.134c0-1.771-2.692-3.4-5.1-3.4c-7.225,0-10.059,6.659-18.559,6.659c-6.021,0-7.083-4.179-7.083-6.871  s1.417-7.013,11.758-9.633L160.143,211.951z"
   id="path4912"
   fill="#AA975F" />
<path
   d="M147.853,140.515c0,0-11.494-7.949-22.844-12.856c-11.794-5.1-14.902-11.952-13.175-16.788  c1.063-2.975,3.4-2.231,3.4-2.231s1.913,0.425,1.381,2.337c0,0-0.318,1.381,1.275,1.381s1.594-2.763,1.594-2.763  s-0.638-3.188-5.207-2.762c-4.569,0.425-10.837,9.244-1.381,20.294c0,0-11.156,2.656-11.156,12.112c0,6.588,6.269,6.8,6.269,6.8  s2.975-0.212,2.444-3.931c0,0-2.763-1.063-2.656,1.275c0.056,1.223,0.85,0.85,0.85,0.85s-0.212,0.637-1.912,0.637  c-1.7,0-2.869-2.231-2.869-4.994s4.994-8.394,16.788-8.394c11.794,0,25.394,9.669,25.394,9.669L147.853,140.515z"
   id="path4914"
   fill="#C3B48B" />
<path
   d="M111.126,126.809c0,0-13.033-5.1-28.192-5.1c-15.158,0-37.825,8.642-37.825,20.258  c0,6.517,6.092,5.667,6.092,5.667s3.684,0.142,3.684-4.108s-3.967-1.7-3.967-1.7s0.566-1.983,2.833-1.983  c2.267,0,2.691,2.833,2.691,4.392c0,1.558-1.558,4.958-6.658,4.958s-6.233-5.95-6.233-7.792s3.258-19.55,39.809-20.967  C83.359,120.434,100.218,120.434,111.126,126.809z"
   id="path4916"
   fill="#C3B48B" />
<path
   d="M45.604,202.247c0,0,7.083-9.35,13.104-8.358  c6.43,1.059,7.083,6.233,14.45,10.271c0,0-16.858,13.033-27.271,10.129c0,0-3.825-2.267,5.383-8.571  c8.48-5.806,6.282-9.028,4.321-8.783C53.892,197.146,48.296,199.625,45.604,202.247z"
   id="path4918"
   stroke-width="1.25"
   stroke="#6B3337"
   fill="#E4BE8A" />
<path
   d="M20.742,214.572c0,0,9.633-0.212,22.809-10.767  c13.175-10.554,13.742-5.808,13.742-5.808s1.275,2.621-6.021,7.721C51.271,205.717,36.042,214.997,20.742,214.572z"
   id="path4920"
   stroke-width="1.25"
   stroke="#6B3337"
   fill="#D9BB8A" />
<path
   d="M174.416,153.371c0,0-0.639-4.048-6.375-4.144  c-6.375-0.106-9.457,4.223-9.403,9.244c0.049,4.675,5.153,8.5,9.297,8.979c3.651,0.421,9.44-0.065,13.069-5.472L174.416,153.371z"
   id="path4922"
   stroke-width="1.25"
   stroke="#6B3337"
   fill="#D0BF7D" />
<g
   id="g4924">
	<path
   d="M149.164,144.305c0,0,5.95-2.338,14.167-2.338   c3.612,0,8.5,1.771,8.5,1.771s0.354-0.779-1.063-1.346c-1.417-0.567-11.9-3.046-21.392,1.133   C149.376,143.525,147.676,144.517,149.164,144.305z"
   id="path4926"
   stroke-width="0.2"
   stroke="#FDC689"
   fill="#CF8B2D" />
	<path
   d="M154.972,144.729c0,0,2.479-1.275,9.846-0.992   c6.937,0.267,12.396,5.454,13.388,6.446c0,0,0.85-0.425-0.779-1.771c-1.629-1.346-5.738-5.688-14.379-5.596   c-6.658,0.071-8.429,1.133-9.208,1.346C153.839,144.163,152.493,145.296,154.972,144.729z"
   id="path4928"
   stroke-width="0.2"
   stroke="#FDC689"
   fill="#CF8B2D" />
	<path
   d="M159.859,145.367c0,0,12.325-2.054,18.842,8.642   c0,0,1.417,1.487,0.567-0.921c0,0-6.729-10.625-19.267-8.5C160.001,144.588,158.16,145.225,159.859,145.367z"
   id="path4930"
   stroke-width="0.2"
   stroke="#FDC689"
   fill="#CF8B2D" />
	<path
   d="M174.097,150.68c0,0-2.196-2.55-5.525-3.188   c0,0-0.638-0.85,0.496-0.638c0,0,3.967,0.921,6.092,3.896C175.16,150.75,175.797,152.663,174.097,150.68z"
   id="path4932"
   stroke-width="0.2"
   stroke="#FDC689"
   fill="#CF8B2D" />
</g>
<path
   d="M180.738,148.909c0,0,12.962,17.957,16.044,20.241  c0,0,1.753,8.447-9.988,8.075c0,0-11.103-9.563-18.859-9.775c0,0,7.916,1.168,13.069-5.472  C184.806,157.077,182.066,151.458,180.738,148.909z"
   id="path4934"
   stroke-width="1.25"
   stroke="#6B3337"
   fill="#FDC689" />
<path
   d="M174.416,153.371c0,0,1.222,6.322-7.332,5.525l7.544,7.49  c0,0,3.4-0.903,6.375-4.409L174.416,153.371z"
   id="path4936"
   stroke-width="1.25"
   stroke="#6B3337"
   fill="#CFB78B" />
<g
   id="g4938">
	<path
   d="M169.263,155.921c0,0-1.806-0.903-3.453,0.053   c0,0-0.584,0.425-0.903,0.053c-0.319-0.372,0.053-0.85,0.425-1.009c0.372-0.159,2.762-1.222,4.834,0.319   c0,0,0.318,0.531-0.106,0.744S169.263,155.921,169.263,155.921z"
   id="path4940"
   stroke-width="0.2"
   stroke="#D0BF7D"
   fill="#CF8B2D" />
	<path
   d="M170.856,155.018c0,0-1.647-1.487-3.612-1.063   c-1.966,0.425-3.984,1.009-4.994,4.569c0,0,0.106,0.212-0.531,0.159c-0.637-0.053-0.425-0.85-0.425-0.85s1.7-4.729,6.003-4.888   c3.292-0.122,4.569,1.487,4.569,1.487s0.266,0.638,0,0.797C171.6,155.39,171.122,155.284,170.856,155.018z"
   id="path4942"
   stroke-width="0.2"
   stroke="#D0BF7D"
   fill="#CF8B2D" />
	<path
   d="M172.61,154.38c0,0-2.072-2.178-4.994-1.912s-5.967,2.091-6.8,5.631   c0,0,0.053,1.275,0.106,1.541s0.213,0.85-0.266,0.85c-0.478,0-0.744-0.478-0.797-2.072s1.963-6.682,7.916-7.012   c3.825-0.213,5.791,2.709,5.791,2.709S173.725,155.603,172.61,154.38z"
   id="path4944"
   stroke-width="0.2"
   stroke="#D0BF7D"
   fill="#CF8B2D" />
	<path
   d="M160.564,154.877c1.581-2.561,4.717-4.084,7.317-3.95   c1.817,0.094,3.301,0.807,4.166,1.335c0,0,0.775,0.498,0.881-0.06c0.106-0.558-0.776-1.016-0.776-1.016   c-0.983-0.621-2.374-1.234-4.111-1.322c-3.611-0.183-5.967,1.504-7.328,3.299c0,0-1.12,1.376-0.907,1.854   C160.019,155.496,160.564,154.877,160.564,154.877z"
   id="path4946"
   stroke-width="0.2"
   stroke="#D0BF7D"
   fill="#CF8B2D" />
</g>
<path
   d="M252.51,181.775c0,0-9.138,5.384-32.3,5.384  c-31.309,0-92.332-36.763-141.951-36.763c0,0-22.206,0-28.263,5.207c0,0-5.525,9.563-17.212,14.875  c-11.688,5.313-25.713,14.344-30.813,21.675c0,0,5.896-9.403,39.207-9.138c67.042,0.535,97.219,33.043,152.895,33.044  c25.854,0,32.513-16.008,32.513-16.008s6.129-8.654,15.017-11.617C249.252,185.884,252.51,181.775,252.51,181.775z"
   id="path4948"
   style="fill:#fed1a7;fill-opacity:1"
   stroke-width="1.25"
   stroke="#6B3337"
   fill="#FED1A7" />
<g
   id="g4950">
	<path
   d="M188.653,211.756c0,0,12.113,2.337,25.393-1.354l-3.364,2.113   C210.683,212.515,196.622,215.475,188.653,211.756z"
   id="path4952"
   fill="#CF8B2D" />
	<path
   d="M192.797,209.126c0,0,12.112,2.337,25.393-1.355l-3.363,2.113   C214.827,209.885,200.766,212.845,192.797,209.126z"
   id="path4954"
   fill="#CF8B2D" />
	<path
   d="M196.41,206.576c0,0,12.113,2.337,25.393-1.354l-3.364,2.113   C218.439,207.335,204.378,210.295,196.41,206.576z"
   id="path4956"
   fill="#CF8B2D" />
	<path
   d="M199.549,204.652c0,0,12.219,1.696,25.286-2.691l-3.248,2.288   C221.588,204.248,207.703,207.945,199.549,204.652z"
   id="path4958"
   fill="#CF8B2D" />
	<path
   d="M201.462,201.996c0,0,12.219,1.696,25.286-2.691l-3.248,2.288   C223.5,201.592,209.616,205.289,201.462,201.996z"
   id="path4960"
   fill="#CF8B2D" />
	<path
   d="M203.689,199.523c0,0,12.261,1.363,25.204-3.378l-3.184,2.375   C225.709,198.521,211.93,202.594,203.689,199.523z"
   id="path4962"
   fill="#CF8B2D" />
	<path
   d="M206.841,197.191c0,0,12.311,0.795,25.021-4.537l-3.071,2.519   C228.791,195.173,215.214,199.878,206.841,197.191z"
   id="path4964"
   fill="#CF8B2D" />
	<path
   d="M210.241,194.11c0,0,12.307-0.576,25.482-4.401l-3.532,2.383   C232.19,192.092,218.614,196.797,210.241,194.11z"
   id="path4966"
   fill="#CF8B2D" />
	<path
   d="M213.959,191.055c0,0,18.257-1.877,31.219-6.021l-7.543,3.719   C237.635,188.753,221.272,192.259,213.959,191.055z"
   id="path4968"
   fill="#CF8B2D" />
</g>
<g
   id="g4970">
	<path
   d="M48.509,179.65c0,0-27.484,0.992-39.525,6.942l3.046-2.55C12.029,184.042,32.996,177.242,48.509,179.65z"
   id="path4972"
   fill="#CF8B2D" />
	<path
   d="M52.316,176.711c0,0-27.484,0.992-39.525,6.942l3.046-2.55C15.837,181.103,36.804,174.303,52.316,176.711z"
   id="path4974"
   fill="#CF8B2D" />
	<path
   d="M56.543,174.586c0,0-27.499,0.402-39.665,6.092l3.1-2.484C19.978,178.195,41.085,171.846,56.543,174.586z"
   id="path4976"
   fill="#CF8B2D" />
	<path
   d="M61.171,172.657c0,0-27.5-0.286-39.805,5.099l3.161-2.406C24.527,175.35,45.787,169.531,61.171,172.657z"
   id="path4978"
   fill="#CF8B2D" />
	<path
   d="M67.224,171.013c0,0-27.459-1.514-39.993,3.315l3.265-2.262C30.496,172.066,51.995,167.203,67.224,171.013z   "
   id="path4980"
   fill="#CF8B2D" />
	<path
   d="M73.294,169.339c0,0-27.388-2.5-40.086,1.875l3.344-2.143C36.552,169.071,58.212,164.984,73.294,169.339z"
   id="path4982"
   fill="#CF8B2D" />
	<path
   d="M77.269,167.334c0,0-27.363-2.747-40.101,1.514l3.364-2.113C40.531,166.735,62.227,162.843,77.269,167.334z   "
   id="path4984"
   fill="#CF8B2D" />
	<path
   d="M80.155,164.979c0,0-27.364-2.747-40.101,1.514l3.363-2.113C43.417,164.38,65.113,160.488,80.155,164.979z"
   id="path4986"
   fill="#CF8B2D" />
	<path
   d="M83.608,162.536c0,0-27.363-2.747-40.101,1.514l3.363-2.113C46.871,161.937,68.566,158.044,83.608,162.536z   "
   id="path4988"
   fill="#CF8B2D" />
	<path
   d="M86.778,160.065c0,0-27.364-2.747-40.102,1.514l3.364-2.113C50.041,159.466,71.736,155.574,86.778,160.065z   "
   id="path4990"
   fill="#CF8B2D" />
	<path
   d="M89.355,157.808c0,0-27.364-2.748-40.102,1.514l3.364-2.113C52.617,157.208,74.313,153.316,89.355,157.808z   "
   id="path4992"
   fill="#CF8B2D" />
	<path
   d="M90.94,155.674c0,0-27.364-2.748-40.102,1.514l3.364-2.113C54.202,155.074,75.897,151.183,90.94,155.674z"
   id="path4994"
   fill="#CF8B2D" />
	<path
   d="M92.1,153.796c0,0-27.363-2.747-40.101,1.514l3.364-2.113C55.362,153.197,77.058,149.305,92.1,153.796z"
   id="path4996"
   fill="#CF8B2D" />
</g>
<path
   d="M51.165,196.615c0,0-10.307,8.712-25.5,10.094  c-8.571,0.779-7.544-8.288-7.544-9.35s1.222-11.315,14.822-14.184c0,0-34.053,0.053-34.053,16.734  c0,16.681,20.931,14.663,21.675,14.663C21.309,214.572,35.971,213.297,51.165,196.615z"
   id="path4998"
   stroke-width="1.25"
   stroke="#6B3337"
   fill="#E3A158" />
<g
   id="g5000">
	<path
   d="M25.665,185.14c0,0-10.271,0.895-22.313,6.844l1.966-2.116C5.318,189.869,16.208,184.503,25.665,185.14z"
   id="path5002"
   fill="#A76635" />
	<path
   d="M21.043,187.85c0,0-7.615,0.85-19.657,6.8l1.541-2.178C2.927,192.472,14.88,187.265,21.043,187.85z"
   id="path5004"
   fill="#A76635" />
	<path
   d="M19.688,190.639c0,0-7.535,0.823-19.577,6.773l0.797-2.019C0.908,195.394,13.525,190.054,19.688,190.639z"
   id="path5006"
   fill="#A76635" />
	<path
   d="M18.785,193.136c0,0-7.057,0.93-19.099,6.879l0.372-2.125C0.059,197.89,12.623,192.551,18.785,193.136z"
   id="path5008"
   fill="#A76635" />
	<path
   d="M16.633,195.818c0,0-4.746,0.69-16.788,6.641l-0.106-1.7C-0.26,200.759,10.471,195.234,16.633,195.818z"
   id="path5010"
   fill="#A76635" />
	<path
   d="M17.112,198.236c0,0-4.746,0.69-16.788,6.641l-0.319-1.621C0.005,203.256,10.949,197.651,17.112,198.236z"
   id="path5012"
   fill="#A76635" />
	<path
   d="M16.103,200.494c0,0-4.201,1.181-14.981,6.508l-0.479-1.567C0.643,205.434,10.099,201.237,16.103,200.494z"
   id="path5014"
   fill="#A76635" />
	<path
   d="M15.73,202.247c0,0-2.368,1.261-13.148,6.587l-0.93-1.328C1.652,207.506,9.037,204.053,15.73,202.247z"
   id="path5016"
   fill="#A76635" />
	<path
   d="M16.049,204.531c0,0-4.462,3.188-11.422,6.163l-1.302-1.381C3.326,209.313,9.78,206.762,16.049,204.531z"
   id="path5018"
   fill="#A76635" />
	<path
   d="M16.262,206.709c0,0-3.134,2.656-8.846,5.445l-1.673-0.983C5.743,211.171,10.046,209.365,16.262,206.709z"
   id="path5020"
   fill="#A76635" />
	<path
   d="M17.271,208.409c0,0-3.293,2.869-6.667,4.702L8.931,212.5C8.931,212.5,11.055,211.065,17.271,208.409z"
   id="path5022"
   fill="#A76635" />
	<path
   d="M18.493,209.95c0,0-3.134,2.816-4.648,3.852l-1.833-0.452C12.012,213.35,14.774,211.703,18.493,209.95z"
   id="path5024"
   fill="#A76635" />
	<path
   d="M19.821,211.065c0,0-2.337,2.391-2.975,3.134l-1.938-0.452C14.907,213.748,17.59,212.34,19.821,211.065z"
   id="path5026"
   fill="#A76635" />
	<path
   d="M21.043,212.075c0,0-0.744,1.381-0.638,1.806l-1.806,0.106C18.599,213.987,18.812,213.35,21.043,212.075z"
   id="path5028"
   fill="#A76635" />
</g>
<g
   id="g5030">
	<path
   d="M53.017,198.146c-3.182,2.108-14.265,10.221-14.265,10.221c10.535-6.934,15.14-9.768,16.663-10.724   L53.017,198.146z"
   id="path5032"
   fill="#A76635" />
	<path
   d="M56.583,198.669c-1.37,0.958-8.134,5.712-19.47,11.477c0,0,15.61-9.316,18.939-12.433L56.583,198.669z"
   id="path5034"
   fill="#A76635" />
	<path
   d="M55.096,201.184c-1.37,0.958-2.479,4.108-19.391,10.572c0,0,15.991-7.738,20.666-12.555L55.096,201.184z"
   id="path5036"
   fill="#A76635" />
</g>
<g
   id="g5038">
	<polygon
   points="71.618,204.425 70.556,205.222 62.48,196.987  "
   id="polygon5040"
   fill="#BB8732" />
	<polygon
   points="70.317,205.408 69.148,206.205 61.179,198.129  "
   id="polygon5042"
   fill="#BB8732" />
	<polygon
   points="68.882,206.417 67.581,207.214 60.303,199.484  "
   id="polygon5044"
   fill="#BB8732" />
	<polygon
   points="67.315,207.347 66.067,208.117 59.479,200.945  "
   id="polygon5046"
   fill="#BB8732" />
	<polygon
   points="65.748,208.33 64.446,209.02 58.708,202.087  "
   id="polygon5048"
   fill="#BB8732" />
	<polygon
   points="64.154,209.206 62.879,209.896 57.752,202.964  "
   id="polygon5050"
   fill="#BB8732" />
	<polygon
   points="62.454,210.136 61.073,210.8 56.69,203.84  "
   id="polygon5052"
   fill="#BB8732" />
	<polygon
   points="60.754,210.986 59.346,211.65 55.681,204.796  "
   id="polygon5054"
   fill="#BB8732" />
	<polygon
   points="58.921,211.809 57.434,212.42 54.751,205.833  "
   id="polygon5056"
   fill="#BB8732" />
	<polygon
   points="57.168,212.526 55.708,213.058 53.317,207.107  "
   id="polygon5058"
   fill="#BB8732" />
	<polygon
   points="55.282,213.084 53.662,213.563 52.333,208.144  "
   id="polygon5060"
   fill="#BB8732" />
	<polygon
   points="53.343,213.615 52.148,213.854 51.218,209.313  "
   id="polygon5062"
   fill="#BB8732" />
	<polygon
   points="51.776,213.96 50.475,214.12 50.103,209.976  "
   id="polygon5064"
   fill="#BB8732" />
	<polygon
   points="50.227,214.182 48.898,214.217 48.898,210.941  "
   id="polygon5066"
   fill="#BB8732" />
	<polygon
   points="48.526,214.165 47.304,214.023 47.517,211.667  "
   id="polygon5068"
   fill="#BB8732" />
</g>
<g
   id="g5070">
	<polygon
   points="88.459,190.205 86.334,194.278 89.946,190.701  "
   id="polygon5072"
   fill="#CF8B2D" />
	<polygon
   points="90.292,190.709 88.167,194.783 91.779,191.206  "
   id="polygon5074"
   fill="#CF8B2D" />
	<polygon
   points="92.151,191.241 90.026,195.313 93.639,191.737  "
   id="polygon5076"
   fill="#CF8B2D" />
	<polygon
   points="94.011,191.719 91.886,195.792 95.498,192.215  "
   id="polygon5078"
   fill="#CF8B2D" />
	<polygon
   points="95.896,192.224 93.771,196.296 97.384,192.719  "
   id="polygon5080"
   fill="#CF8B2D" />
	<polygon
   points="97.623,192.755 95.498,196.828 99.11,193.25  "
   id="polygon5082"
   fill="#CF8B2D" />
	<polygon
   points="99.482,193.286 97.357,197.359 100.97,193.782  "
   id="polygon5084"
   fill="#CF8B2D" />
	<polygon
   points="101.448,193.844 99.323,197.917 102.936,194.34  "
   id="polygon5086"
   fill="#CF8B2D" />
	<polygon
   points="103.52,194.428 101.395,198.501 105.008,194.924  "
   id="polygon5088"
   fill="#CF8B2D" />
	<polygon
   points="105.698,195.092 103.573,199.166 107.186,195.588  "
   id="polygon5090"
   fill="#CF8B2D" />
	<polygon
   points="108.009,195.756 105.884,199.83 109.497,196.252  "
   id="polygon5092"
   fill="#CF8B2D" />
	<polygon
   points="110.426,196.474 108.301,200.546 111.914,196.97  "
   id="polygon5094"
   fill="#CF8B2D" />
	<polygon
   points="112.764,197.43 110.639,201.503 114.251,197.926  "
   id="polygon5096"
   fill="#CF8B2D" />
</g>
<g
   id="g5098">
	<path
   d="M52.617,215.209c0,0,13.742-0.708,27.767-13.316c0,0-8.783,10.625-19.55,13.175L52.617,215.209z"
   id="path5100"
   fill="#CF8B2D" />
	<path
   d="M67.448,215.466l-3.613-0.071c0,0,6.446-1.983,18.417-12.042C82.252,203.354,71.84,213.625,67.448,215.466z   "
   id="path5102"
   fill="#CF8B2D" />
	<path
   d="M72.061,216.13l-3.648-0.452c0,0,6.446-1.983,18.417-12.042C86.83,203.637,76.453,214.288,72.061,216.13z"
   id="path5104"
   fill="#CF8B2D" />
	<path
   d="M76.364,217.104l-3.763-0.646c0,0,6.446-1.983,18.417-12.042C91.018,204.416,80.756,215.262,76.364,217.104   z"
   id="path5106"
   fill="#CF8B2D" />
	<path
   d="M81.11,218.202l-3.781-0.894c0,0,6.26-2.718,18.417-12.042C95.746,205.266,85.502,216.36,81.11,218.202z"
   id="path5108"
   fill="#CF8B2D" />
	<path
   d="M85.52,219.503l-3.781-0.894c0,0,6.631-2.435,19.665-11.573C101.404,207.037,89.911,217.662,85.52,219.503z   "
   id="path5110"
   fill="#CF8B2D" />
</g>
<path
   d="M226.373,187c0,0,6.163-1.257,6.163-6.641  c0-2.975-2.975-3.967-2.975-3.967s7.225-4.108,15.583-4.108s9.775,3.4,9.775,5.242c0,1.842-0.177,4.799-8.358,6.517  C237.075,186.034,227.931,187.141,226.373,187z"
   id="path5112"
   stroke-width="1.25"
   stroke="#6B3337"
   fill="#AA975F" />
<g
   id="g5114">
	<path
   d="M250.863,174.382c0,0-1.328-0.876-2.497-0.876c0,0-5.897,0-14.113,2.222   C234.253,175.728,248.065,175.232,250.863,174.382z"
   id="path5116"
   fill="#BA7031" />
	<path
   d="M253.024,176.277c0,0-0.479-1.346-1.647-1.346c0,0-7.013,0.779-14.964,2.692   C236.413,177.623,251.112,176.858,253.024,176.277z"
   id="path5118"
   fill="#BA7031" />
	<path
   d="M253.661,178.393c0,0,0.124-1.275-0.407-1.594c0,0-7.715,0.898-16.203,2.94   C237.051,179.739,250.863,179.243,253.661,178.393z"
   id="path5120"
   fill="#BA7031" />
	<path
   d="M253.236,180.518c0,0,0.336-0.823,0.283-1.567c0,0-8.406,0.872-16.894,2.913   C236.626,181.864,252.383,180.777,253.236,180.518z"
   id="path5122"
   fill="#BA7031" />
	<path
   d="M249.854,182.218c0,0,2.869-0.584,2.815-1.328c0,0-9.468,1.217-17.956,3.258   C234.713,184.148,247.056,183.068,249.854,182.218z"
   id="path5124"
   fill="#BA7031" />
</g>
<g
   id="g5126">
	<polygon
   points="244.231,161.269 248.481,169.557 242.425,161.694  "
   id="polygon5128"
   fill="#BA7031" />
	<polygon
   points="241.496,161.986 245.161,169.158 239.893,162.482  "
   id="polygon5130"
   fill="#BA7031" />
	<polygon
   points="238.627,162.81 241.575,169.344 236.998,163.359  "
   id="polygon5132"
   fill="#BA7031" />
	<polygon
   points="235.935,163.677 238.6,169.557 234.111,164.244  "
   id="polygon5134"
   fill="#BA7031" />
	<polygon
   points="233.438,164.554 235.545,170.115 231.694,165.201  "
   id="polygon5136"
   fill="#BA7031" />
	<polygon
   points="231.021,165.458 232.73,170.832 229.321,166.095  "
   id="polygon5138"
   fill="#BA7031" />
	<polygon
   points="228.551,166.414 230.074,171.522 226.886,167.166  "
   id="polygon5140"
   fill="#BA7031" />
	<polygon
   points="225.735,167.662 227.285,172.797 224.097,168.441  "
   id="polygon5142"
   fill="#BA7031" />
	<polygon
   points="223.318,168.831 224.655,173.302 221.707,169.663  "
   id="polygon5144"
   fill="#BA7031" />
	<polygon
   points="221.06,170.026 222.45,174.55 219.501,170.912  "
   id="polygon5146"
   fill="#BA7031" />
	<polygon
   points="218.882,171.328 219.971,175.259 217.297,172.24  "
   id="polygon5148"
   fill="#BA7031" />
	<polygon
   points="216.677,172.709 217.589,176.145 215.57,173.488  "
   id="polygon5150"
   fill="#BA7031" />
</g>
<g
   id="g5152">
	<polygon
   points="175.151,167.972 188.388,176.126 177.072,167.538  "
   id="polygon5154"
   fill="#BB8732" />
	<polygon
   points="177.701,167.361 190.017,175.347 179.427,166.564  "
   id="polygon5156"
   fill="#BB8732" />
	<polygon
   points="179.896,166.236 191.31,174.232 181.357,165.165  "
   id="polygon5158"
   fill="#BB8732" />
	<polygon
   points="181.738,164.705 192.372,172.992 182.951,163.394  "
   id="polygon5160"
   fill="#BB8732" />
	<polygon
   points="183.12,163.084 193.258,171.611 184.049,161.446  "
   id="polygon5162"
   fill="#BB8732" />
</g>
<g
   id="g5164">
	<polygon
   points="169.422,159.675 174.097,164.421 171.334,159.357  "
   id="polygon5166"
   fill="#BB8732" />
	<polygon
   points="171.724,159.18 175.974,163.89 173.247,158.4  "
   id="polygon5168"
   fill="#BB8732" />
	<polygon
   points="173.566,158.223 177.993,162.58 174.806,156.771  "
   id="polygon5170"
   fill="#BB8732" />
</g>
<g
   id="g5172">
	<polygon
   points="128.197,158.117 130.676,155.425 126.922,157.763  "
   id="polygon5174"
   fill="#CF8B2D" />
	<polygon
   points="130.207,158.63 132.659,155.284 128.932,158.276  "
   id="polygon5176"
   fill="#CF8B2D" />
	<polygon
   points="132.181,159.224 134.784,155 130.906,158.87  "
   id="polygon5178"
   fill="#CF8B2D" />
	<polygon
   points="134.173,159.693 137.405,154.504 132.898,159.339  "
   id="polygon5180"
   fill="#CF8B2D" />
	<polygon
   points="136.112,160.277 139.743,154.08 134.837,159.923  "
   id="polygon5182"
   fill="#CF8B2D" />
	<polygon
   points="137.892,160.889 142.505,153.371 136.617,160.534  "
   id="polygon5184"
   fill="#CF8B2D" />
	<polygon
   points="139.982,161.57 145.834,152.45 138.707,161.216  "
   id="polygon5186"
   fill="#CF8B2D" />
	<polygon
   points="142.576,162.438 148.668,151.671 140.841,161.969  "
   id="polygon5188"
   fill="#CF8B2D" />
	<polygon
   points="144.896,163.19 151.643,150.75 143.161,162.721  "
   id="polygon5190"
   fill="#CF8B2D" />
	<polygon
   points="147.109,164.138 154.618,150.042 145.312,163.447  "
   id="polygon5192"
   fill="#CF8B2D" />
	<polygon
   points="149.438,165.032 157.451,149.9 147.641,164.342  "
   id="polygon5194"
   fill="#CF8B2D" />
	<polygon
   points="151.599,165.882 158.584,152.946 149.801,165.191  "
   id="polygon5196"
   fill="#CF8B2D" />
</g>
<path
   d="M318.423,149.909c0,0-80.717,1.231-106.5,25.527  c0,0-0.212-5.277-4.038-13.21c-5.373-11.143-10.342-13.317-13.6-19.975c-3.258-6.659-1.133-9.067,4.817-12.608  c0,0,47.071-25.775,119.321-25.775c72.25,0,119.321,25.775,119.321,25.775c5.949,3.542,8.074,5.95,4.816,12.608  c-3.259,6.658-8.228,8.832-13.601,19.975c-3.824,7.933-4.037,13.21-4.037,13.21C399.14,151.14,318.423,149.909,318.423,149.909z"
   id="path5198"
   stroke-width="1.25"
   stroke="#6B3337"
   fill="#FFE0BF"
   style="stroke:#6b3337;stroke-opacity:1" />
<path
   d="M308.752,173.021c0,0-2.023,1.32-3.214,6.511c-1.085,4.734,0.251,6.474,1.977,6.643  c0,0-0.82-0.516-0.499-1.573c0.322-1.057,1.403-0.817,2.054-0.619c0.651,0.198,0.948,1.266,0.651,2.241  c-0.297,0.976-1.244,1.754-3.44,1.085c-2.196-0.668-2.846-4.088-1.495-7.942C305.91,176.159,305.404,175.556,308.752,173.021z"
   id="path5200"
   fill="#AA975F" />
<g
   id="g5202">
	<path
   d="M194.852,135.875c0,0,8.429-4.817,14.804-7.58l-14.733,10.059   C194.922,138.354,194.568,136.442,194.852,135.875z"
   id="path5204"
   fill="#CF8B2D" />
	<path
   d="M195.489,139.629c0,0,7.934-4.392,14.309-7.154l-13.574,9.403   C196.224,141.878,195.206,140.196,195.489,139.629z"
   id="path5206"
   fill="#CF8B2D" />
	<path
   d="M197.118,142.817c0,0,7.154-3.683,13.529-6.446l-12.538,8.5   C198.11,144.871,196.835,143.384,197.118,142.817z"
   id="path5208"
   fill="#CF8B2D" />
	<path
   d="M198.96,145.863c0,0,6.587-3.258,12.962-6.021l-11.572,7.942C200.35,147.784,198.676,146.43,198.96,145.863   z"
   id="path5210"
   fill="#CF8B2D" />
	<path
   d="M201.421,148.572c0,0,5.755-2.709,12.13-5.472l-10.74,7.394   C202.812,150.494,201.138,149.139,201.421,148.572z"
   id="path5212"
   fill="#CF8B2D" />
	<path
   d="M203.714,151.494c0,0,5.233-2.302,11.608-5.064l-10.218,6.986   C205.104,153.416,203.431,152.061,203.714,151.494z"
   id="path5214"
   fill="#CF8B2D" />
	<path
   d="M205.937,154.46c0,0,4.569-1.656,10.944-4.418l-9.846,6.587   C207.035,156.629,206.043,155.142,205.937,154.46z"
   id="path5216"
   fill="#CF8B2D" />
	<path
   d="M207.717,157.772c0,0,4.064-1.072,10.439-3.834l-9.341,6.003   C208.814,159.941,207.823,158.454,207.717,157.772z"
   id="path5218"
   fill="#CF8B2D" />
	<path
   d="M209.257,161.003c0,0,3.657-0.761,10.032-3.524l-8.934,5.693   C210.355,163.173,209.364,161.686,209.257,161.003z"
   id="path5220"
   fill="#CF8B2D" />
	<path
   d="M210.541,164.262c0,0,5.136-0.974,11.511-3.736l-10.554,6.163   C211.498,166.688,210.647,164.944,210.541,164.262z"
   id="path5222"
   fill="#CF8B2D" />
	<path
   d="M211.798,167.918c0,0,9.244-2.745,15.495-5.056l-14.663,7.934   C212.631,170.796,211.905,168.601,211.798,167.918z"
   id="path5224"
   fill="#CF8B2D" />
</g>
<g
   id="g5226">
	<path
   d="M441.688,136.181c0,0-8.43-4.817-14.805-7.58l14.734,10.059   C441.618,138.66,441.972,136.747,441.688,136.181z"
   id="path5228"
   fill="#CF8B2D" />
	<path
   d="M441.052,139.935c0,0-7.934-4.392-14.309-7.154l13.573,9.403   C440.316,142.184,441.335,140.501,441.052,139.935z"
   id="path5230"
   fill="#CF8B2D" />
	<path
   d="M439.422,143.122c0,0-7.154-3.683-13.529-6.446l12.538,8.5   C438.431,145.176,439.705,143.689,439.422,143.122z"
   id="path5232"
   fill="#CF8B2D" />
	<path
   d="M437.58,146.168c0,0-6.587-3.258-12.962-6.021l11.572,7.942C436.19,148.089,437.864,146.735,437.58,146.168   z"
   id="path5234"
   fill="#CF8B2D" />
	<path
   d="M435.118,148.877c0,0-5.755-2.709-12.13-5.472l10.74,7.394   C433.729,150.799,435.401,149.444,435.118,148.877z"
   id="path5236"
   fill="#CF8B2D" />
	<path
   d="M432.825,151.799c0,0-5.232-2.302-11.607-5.064l10.218,6.986   C431.436,153.721,433.108,152.366,432.825,151.799z"
   id="path5238"
   fill="#CF8B2D" />
	<path
   d="M430.603,154.766c0,0-4.568-1.656-10.943-4.418l9.846,6.587   C429.505,156.935,430.497,155.447,430.603,154.766z"
   id="path5240"
   fill="#CF8B2D" />
	<path
   d="M428.823,158.077c0,0-4.064-1.072-10.439-3.834l9.342,6.003   C427.726,160.246,428.718,158.759,428.823,158.077z"
   id="path5242"
   fill="#CF8B2D" />
	<path
   d="M427.282,161.309c0,0-3.656-0.761-10.031-3.524l8.934,5.693   C426.185,163.478,427.177,161.991,427.282,161.309z"
   id="path5244"
   fill="#CF8B2D" />
	<path
   d="M425.999,164.567c0,0-5.136-0.974-11.511-3.736l10.554,6.163   C425.042,166.993,425.893,165.249,425.999,164.567z"
   id="path5246"
   fill="#CF8B2D" />
	<path
   d="M424.741,168.224c0,0-9.244-2.745-15.494-5.056l14.662,7.934   C423.909,171.102,424.636,168.906,424.741,168.224z"
   id="path5248"
   fill="#CF8B2D" />
</g>
<g
   inkscape:groupmode="layer"
   id="layer4"
   inkscape:label="Layer"
   style="display:inline"><image
   y="67.152878"
   x="-98.10704"
   id="image6386"
   height="247.23625"
   width="835.97351"
   xlink:href="file:///media/VOL2/maxa/molitvoslov.com/header/index3.png" /><text
   xml:space="preserve"
   style="font-size:28px;font-style:normal;font-variant:normal;font-weight:normal;font-stretch:normal;text-align:start;line-height:125%;writing-mode:lr-tb;text-anchor:start;fill:#000000;fill-opacity:1;stroke:none;font-family:Cotlin;-inkscape-font-specification:Cotlin"
   x="235.1145"
   y="313.37405"
   id="text5274"
   sodipodi:linespacing="125%"><tspan
     sodipodi:role="line"
     id="tspan5276"
     x="235.1145"
     y="313.37405" /></text>

<text
   xml:space="preserve"
   style="font-size:37.18057251px;font-style:normal;font-weight:normal;line-height:125%;fill:#463133;fill-opacity:1;stroke:none;font-family:Bitstream Vera Sans"
   id="text5278"
   sodipodi:linespacing="125%"
   transform="matrix(0.9769386,0,0,0.9769386,9.7031418,1.1655952)"><textPath
     xlink:href="#path5324"
     id="textPath5326"><tspan
   style="font-size:29.74445724px;font-style:normal;font-variant:normal;font-weight:normal;font-stretch:normal;text-align:start;line-height:125%;writing-mode:lr-tb;text-anchor:start;fill:#463133;fill-opacity:1;font-family:Cotlin;-inkscape-font-specification:Cotlin"
   id="tspan5280"></tspan></textPath></text>

<text
   xml:space="preserve"
   style="font-size:27.84652138px;font-style:normal;font-variant:normal;font-weight:normal;font-stretch:normal;text-align:start;line-height:125%;writing-mode:lr-tb;text-anchor:start;fill:#463133;fill-opacity:1;stroke:none;font-family:Cotlin;-inkscape-font-specification:Cotlin"
   id="text3687"
   sodipodi:linespacing="125%"
   inkscape:transform-center-y="2.7835427"
   inkscape:transform-center-x="0.70252689"
   transform="matrix(0.99990471,0,0.06479529,1.0234314,-11.794584,-4.3867877)"><textPath
     xlink:href="#path3691"
     id="textPath4493"><tspan
   style="font-size:27.84652138px;font-style:normal;font-variant:normal;font-weight:normal;font-stretch:normal;text-align:start;line-height:125%;writing-mode:lr-tb;text-anchor:start;fill:#463133;fill-opacity:1;font-family:Cotlin;-inkscape-font-specification:Cotlin"
   id="tspan3689"></tspan></textPath></text>
<path
   style="fill:none;stroke:none"
   d="m 86.74893,175.49983 22.09211,6.5547 45.52816,16.04422 c 0,0 22.86214,6.2722 22.86214,6.2722"
   id="path3691"
   sodipodi:nodetypes="cccc" /></g><path
   style="fill:none;stroke:#000000;stroke-width:0.71399999999999997;stroke-linecap:butt;stroke-linejoin:miter;stroke-opacity:1;stroke-miterlimit:4;stroke-dasharray:none;fill-opacity:1"
   d="m 232.45637,149.20296 c 63.16308,-17.58885 105.84584,-17.58885 173.63351,0 l 0,-0.11225"
   id="path5324"
   sodipodi:nodetypes="ccc" /><g
   id="g6396"
   transform="matrix(-1,0,0,1,636.89602,0.0206115)"><path
     d="m 456.932,246.32299 c -0.001,6.058 -6.588,3.937 -11.263,3.716 -4.675,-0.221 -9.245,2.643 -9.245,6.386 -10e-4,3.744 4.834,2.423 4.834,2.423 0,0 -0.479,1.652 -2.923,1.652 -2.442,0 -3.931,-1.873 -3.611,-4.957 0.317,-3.066 4.146,-7.158 10.945,-6.937 6.799,0.221 10.093,0.799 9.774,-2.284 0.32,-3.083 -2.974,-2.505 -9.774,-2.286 -6.8,0.219 -10.626,-3.874 -10.942,-6.939 -0.319,-3.083 1.17,-4.957 3.613,-4.956 2.443,0.001 2.921,1.652 2.921,1.652 0,0 -4.834,-1.322 -4.834,2.423 0,3.744 4.567,6.608 9.242,6.388 4.676,-0.219 11.264,-2.338 11.263,3.719 z"
     id="path6398"
     style="fill:#aa975f" /><path
     d="m 490.35995,221.7643 c 0,0 -10.55251,23.22597 -31.7829,23.38859 0,0 -2.8378,0.81462 0.0272,1.98873 0,0 20.20413,1.0256 31.75579,-25.37732 z"
     id="path6400"
     inkscape:transform-center-x="13.087896"
     inkscape:transform-center-y="7.0926278"
     style="fill:#c3b48b" /><path
     d="m 490.603,219.398 c 0,0 -5.652,15.01747 -5.066,18.26784 0.756,4.18682 3.383,5.27541 5.074,5.10515 1.69,-0.17027 3.798,-2.28948 3.271,-5.9474 0,0 -0.644,2.774 -4.024,3.11362 -3.38,0.34143 -3.383,-5.2754 -1.747,-9.65331 1.634,-4.37881 2.492,-10.8859 2.492,-10.8859 z"
     id="path6402"
     style="fill:#aa975f" /><path
     d="m 452.735,245.65299 c 0,0 -42.644,4.986 -42.641,-13.222 0,-3.524 2.691,-3.523 2.691,-3.523 0,0 1.842,-0.44 2.125,2.497 0,0 -0.708,-1.027 -1.842,-0.881 -1.133,0.146 -0.991,1.468 -0.85,2.056 0.141,0.587 1.274,1.028 1.274,1.028 0,0 2.975,0.294 2.551,-3.23 -0.425,-3.525 -2.55,-3.084 -3.542,-3.084 -0.991,0 -3.824,0.293 -3.825,4.992 -10e-4,4.7 1.013,13.866 27.782,15.569 13.886,0.881 16.277,-2.202 16.277,-2.202 z"
     id="path6404"
     style="fill:#c3b48b" /></g><text
   xml:space="preserve"
   style="font-size:32px;font-style:normal;font-variant:normal;font-weight:normal;font-stretch:normal;text-align:start;line-height:100%;writing-mode:lr-tb;text-anchor:start;fill:#000000;fill-opacity:1;stroke:none;font-family:Cotlin;-inkscape-font-specification:Cotlin"
   x="232.16347"
   y="253.29808"
   id="text6422"
   sodipodi:linespacing="100%"><tspan
     sodipodi:role="line"
     id="tspan6424"
     x="232.16347"
     y="253.29808"
     style="font-size:18px;font-style:normal;font-variant:normal;font-weight:normal;font-stretch:normal;text-align:start;line-height:100%;writing-mode:lr-tb;text-anchor:start;font-family:Cotlin;-inkscape-font-specification:Cotlin">  </tspan></text>
<text
   xml:space="preserve"
   style="font-size:18px;font-style:normal;font-variant:normal;font-weight:normal;font-stretch:normal;text-align:start;line-height:100%;writing-mode:lr-tb;text-anchor:start;fill:#000000;fill-opacity:1;stroke:none;font-family:Cotlin;-inkscape-font-specification:Cotlin"
   x="336.24997"
   y="253.29808"
   id="text6436"
   sodipodi:linespacing="100%"><tspan
     sodipodi:role="line"
     id="tspan6438"
     x="336.24997"
     y="253.29808"></tspan></text>
</svg>